<svg width="223" height="49" viewBox="0 0 223 49" fill="none" xmlns="http://www.w3.org/2000/svg">
<path d="M40.976 7.936H38.752L38.384 9H37.208L39.216 3.408H40.52L42.528 9H41.344L40.976 7.936ZM40.672 7.04L39.864 4.704L39.056 7.04H40.672ZM44.2066 6.2C44.2066 5.65067 44.3292 5.16 44.5746 4.728C44.8252 4.29067 45.1639 3.952 45.5906 3.712C46.0226 3.46667 46.5052 3.344 47.0386 3.344C47.6626 3.344 48.2092 3.504 48.6786 3.824C49.1479 4.144 49.4759 4.58667 49.6626 5.152H48.3746C48.2466 4.88533 48.0652 4.68533 47.8306 4.552C47.6012 4.41867 47.3346 4.352 47.0306 4.352C46.7052 4.352 46.4146 4.42933 46.1586 4.584C45.9079 4.73333 45.7106 4.94667 45.5666 5.224C45.4279 5.50133 45.3586 5.82667 45.3586 6.2C45.3586 6.568 45.4279 6.89333 45.5666 7.176C45.7106 7.45333 45.9079 7.66933 46.1586 7.824C46.4146 7.97333 46.7052 8.048 47.0306 8.048C47.3346 8.048 47.6012 7.98133 47.8306 7.848C48.0652 7.70933 48.2466 7.50667 48.3746 7.24H49.6626C49.4759 7.81067 49.1479 8.256 48.6786 8.576C48.2146 8.89067 47.6679 9.048 47.0386 9.048C46.5052 9.048 46.0226 8.928 45.5906 8.688C45.1639 8.44267 44.8252 8.104 44.5746 7.672C44.3292 7.24 44.2066 6.74933 44.2066 6.2ZM55.6192 3.416V4.32H54.1312V9H53.0112V4.32H51.5232V3.416H55.6192ZM58.7564 3.416V9H57.6364V3.416H58.7564ZM66.0789 3.416L64.0309 9H62.6709L60.6229 3.416H61.8229L63.3589 7.856L64.8869 3.416H66.0789ZM69.0704 4.32V5.72H70.9504V6.608H69.0704V8.088H71.1904V9H67.9504V3.408H71.1904V4.32H69.0704ZM77.6185 3.416V6.872C77.6185 7.25067 77.7172 7.54133 77.9145 7.744C78.1118 7.94133 78.3892 8.04 78.7465 8.04C79.1092 8.04 79.3892 7.94133 79.5865 7.744C79.7838 7.54133 79.8825 7.25067 79.8825 6.872V3.416H81.0105V6.864C81.0105 7.33867 80.9065 7.74133 80.6985 8.072C80.4958 8.39733 80.2212 8.64267 79.8745 8.808C79.5332 8.97333 79.1518 9.056 78.7305 9.056C78.3145 9.056 77.9358 8.97333 77.5945 8.808C77.2585 8.64267 76.9918 8.39733 76.7945 8.072C76.5972 7.74133 76.4985 7.33867 76.4985 6.864V3.416H77.6185ZM85.2206 9.056C84.8313 9.056 84.4793 8.98933 84.1646 8.856C83.8553 8.72267 83.61 8.53067 83.4286 8.28C83.2473 8.02933 83.154 7.73333 83.1486 7.392H84.3486C84.3646 7.62133 84.4446 7.80267 84.5886 7.936C84.738 8.06933 84.9406 8.136 85.1966 8.136C85.458 8.136 85.6633 8.07467 85.8126 7.952C85.962 7.824 86.0366 7.65867 86.0366 7.456C86.0366 7.29067 85.986 7.15467 85.8846 7.048C85.7833 6.94133 85.6553 6.85867 85.5006 6.8C85.3513 6.736 85.1433 6.66667 84.8766 6.592C84.514 6.48533 84.218 6.38133 83.9886 6.28C83.7646 6.17333 83.57 6.016 83.4046 5.808C83.2446 5.59467 83.1646 5.312 83.1646 4.96C83.1646 4.62933 83.2473 4.34133 83.4126 4.096C83.578 3.85067 83.81 3.664 84.1086 3.536C84.4073 3.40267 84.7486 3.336 85.1326 3.336C85.7086 3.336 86.1753 3.47733 86.5326 3.76C86.8953 4.03733 87.0953 4.42667 87.1326 4.928H85.9006C85.89 4.736 85.8073 4.57867 85.6526 4.456C85.5033 4.328 85.3033 4.264 85.0526 4.264C84.834 4.264 84.658 4.32 84.5246 4.432C84.3966 4.544 84.3326 4.70667 84.3326 4.92C84.3326 5.06933 84.3806 5.19467 84.4766 5.296C84.578 5.392 84.7006 5.472 84.8446 5.536C84.994 5.59467 85.202 5.664 85.4686 5.744C85.8313 5.85067 86.1273 5.95733 86.3566 6.064C86.586 6.17067 86.7833 6.33067 86.9486 6.544C87.114 6.75733 87.1966 7.03733 87.1966 7.384C87.1966 7.68267 87.1193 7.96 86.9646 8.216C86.81 8.472 86.5833 8.67733 86.2846 8.832C85.986 8.98133 85.6313 9.056 85.2206 9.056ZM90.4876 4.32V5.72H92.3676V6.608H90.4876V8.088H92.6076V9H89.3676V3.408H92.6076V4.32H90.4876ZM97.7054 9L96.4734 6.824H95.9454V9H94.8254V3.416H96.9214C97.3534 3.416 97.7214 3.49333 98.0254 3.648C98.3294 3.79733 98.5561 4.00267 98.7054 4.264C98.8601 4.52 98.9374 4.808 98.9374 5.128C98.9374 5.496 98.8308 5.82933 98.6174 6.128C98.4041 6.42133 98.0868 6.624 97.6654 6.736L99.0014 9H97.7054ZM95.9454 5.984H96.8814C97.1854 5.984 97.4121 5.912 97.5614 5.768C97.7108 5.61867 97.7854 5.41333 97.7854 5.152C97.7854 4.896 97.7108 4.69867 97.5614 4.56C97.4121 4.416 97.1854 4.344 96.8814 4.344H95.9454V5.984ZM103.078 9.056C102.689 9.056 102.337 8.98933 102.022 8.856C101.713 8.72267 101.468 8.53067 101.286 8.28C101.105 8.02933 101.012 7.73333 101.006 7.392H102.206C102.222 7.62133 102.302 7.80267 102.446 7.936C102.596 8.06933 102.798 8.136 103.054 8.136C103.316 8.136 103.521 8.07467 103.67 7.952C103.82 7.824 103.894 7.65867 103.894 7.456C103.894 7.29067 103.844 7.15467 103.742 7.048C103.641 6.94133 103.513 6.85867 103.358 6.8C103.209 6.736 103.001 6.66667 102.734 6.592C102.372 6.48533 102.076 6.38133 101.846 6.28C101.622 6.17333 101.428 6.016 101.262 5.808C101.102 5.59467 101.022 5.312 101.022 4.96C101.022 4.62933 101.105 4.34133 101.27 4.096C101.436 3.85067 101.668 3.664 101.966 3.536C102.265 3.40267 102.606 3.336 102.99 3.336C103.566 3.336 104.033 3.47733 104.39 3.76C104.753 4.03733 104.953 4.42667 104.99 4.928H103.758C103.748 4.736 103.665 4.57867 103.51 4.456C103.361 4.328 103.161 4.264 102.91 4.264C102.692 4.264 102.516 4.32 102.382 4.432C102.254 4.544 102.19 4.70667 102.19 4.92C102.19 5.06933 102.238 5.19467 102.334 5.296C102.436 5.392 102.558 5.472 102.702 5.536C102.852 5.59467 103.06 5.664 103.326 5.744C103.689 5.85067 103.985 5.95733 104.214 6.064C104.444 6.17067 104.641 6.33067 104.806 6.544C104.972 6.75733 105.054 7.03733 105.054 7.384C105.054 7.68267 104.977 7.96 104.822 8.216C104.668 8.472 104.441 8.67733 104.142 8.832C103.844 8.98133 103.489 9.056 103.078 9.056Z" fill="#74859C"/>
<path d="M37.504 18.6V16.794H40.878V27H38.862V18.6H37.504ZM42.9543 21.764C42.9543 20.1493 43.2436 18.8847 43.8223 17.97C44.4103 17.0553 45.3809 16.598 46.7343 16.598C48.0876 16.598 49.0536 17.0553 49.6323 17.97C50.2203 18.8847 50.5143 20.1493 50.5143 21.764C50.5143 23.388 50.2203 24.662 49.6323 25.586C49.0536 26.51 48.0876 26.972 46.7343 26.972C45.3809 26.972 44.4103 26.51 43.8223 25.586C43.2436 24.662 42.9543 23.388 42.9543 21.764ZM48.5823 21.764C48.5823 21.0733 48.5356 20.4947 48.4423 20.028C48.3583 19.552 48.1809 19.1647 47.9103 18.866C47.6489 18.5673 47.2569 18.418 46.7343 18.418C46.2116 18.418 45.8149 18.5673 45.5443 18.866C45.2829 19.1647 45.1056 19.552 45.0123 20.028C44.9283 20.4947 44.8863 21.0733 44.8863 21.764C44.8863 22.4733 44.9283 23.0707 45.0123 23.556C45.0963 24.032 45.2736 24.4193 45.5443 24.718C45.8149 25.0073 46.2116 25.152 46.7343 25.152C47.2569 25.152 47.6536 25.0073 47.9243 24.718C48.1949 24.4193 48.3723 24.032 48.4563 23.556C48.5403 23.0707 48.5823 22.4733 48.5823 21.764ZM52.145 21.764C52.145 20.1493 52.4344 18.8847 53.013 17.97C53.601 17.0553 54.5717 16.598 55.925 16.598C57.2784 16.598 58.2444 17.0553 58.823 17.97C59.411 18.8847 59.705 20.1493 59.705 21.764C59.705 23.388 59.411 24.662 58.823 25.586C58.2444 26.51 57.2784 26.972 55.925 26.972C54.5717 26.972 53.601 26.51 53.013 25.586C52.4344 24.662 52.145 23.388 52.145 21.764ZM57.773 21.764C57.773 21.0733 57.7264 20.4947 57.633 20.028C57.549 19.552 57.3717 19.1647 57.101 18.866C56.8397 18.5673 56.4477 18.418 55.925 18.418C55.4024 18.418 55.0057 18.5673 54.735 18.866C54.4737 19.1647 54.2964 19.552 54.203 20.028C54.119 20.4947 54.077 21.0733 54.077 21.764C54.077 22.4733 54.119 23.0707 54.203 23.556C54.287 24.032 54.4644 24.4193 54.735 24.718C55.0057 25.0073 55.4024 25.152 55.925 25.152C56.4477 25.152 56.8444 25.0073 57.115 24.718C57.3857 24.4193 57.563 24.032 57.647 23.556C57.731 23.0707 57.773 22.4733 57.773 21.764ZM63.7018 24.942L62.0638 28.876H60.8038L61.7138 24.942H63.7018ZM65.0585 19.482C65.1052 18.5487 65.4318 17.83 66.0385 17.326C66.6545 16.8127 67.4618 16.556 68.4605 16.556C69.1418 16.556 69.7252 16.6773 70.2105 16.92C70.6958 17.1533 71.0598 17.4753 71.3025 17.886C71.5545 18.2873 71.6805 18.7447 71.6805 19.258C71.6805 19.846 71.5265 20.3453 71.2185 20.756C70.9198 21.1573 70.5605 21.428 70.1405 21.568V21.624C70.6818 21.792 71.1018 22.0907 71.4005 22.52C71.7085 22.9493 71.8625 23.5 71.8625 24.172C71.8625 24.732 71.7318 25.2313 71.4705 25.67C71.2185 26.1087 70.8405 26.454 70.3365 26.706C69.8418 26.9487 69.2445 27.07 68.5445 27.07C67.4898 27.07 66.6312 26.804 65.9685 26.272C65.3058 25.74 64.9558 24.956 64.9185 23.92H66.8225C66.8412 24.3773 66.9952 24.746 67.2845 25.026C67.5832 25.2967 67.9892 25.432 68.5025 25.432C68.9785 25.432 69.3425 25.3013 69.5945 25.04C69.8558 24.7693 69.9865 24.424 69.9865 24.004C69.9865 23.444 69.8092 23.0427 69.4545 22.8C69.0998 22.5573 68.5492 22.436 67.8025 22.436H67.3965V20.826H67.8025C69.1278 20.826 69.7905 20.3827 69.7905 19.496C69.7905 19.0947 69.6692 18.782 69.4265 18.558C69.1932 18.334 68.8525 18.222 68.4045 18.222C67.9658 18.222 67.6252 18.3433 67.3825 18.586C67.1492 18.8193 67.0138 19.118 66.9765 19.482H65.0585ZM73.4674 25.012V23.472L78.0454 16.92H80.3274V23.304H81.5594V25.012H80.3274V27H78.3674V25.012H73.4674ZM78.4934 19.02L75.6234 23.304H78.4934V19.02ZM89.8072 18.488H85.2712V20.882C85.4672 20.6393 85.7472 20.4433 86.1112 20.294C86.4752 20.1353 86.8626 20.056 87.2732 20.056C88.0199 20.056 88.6312 20.2193 89.1072 20.546C89.5832 20.8727 89.9286 21.2927 90.1432 21.806C90.3579 22.31 90.4652 22.8513 90.4652 23.43C90.4652 24.5033 90.1572 25.3667 89.5412 26.02C88.9346 26.6733 88.0666 27 86.9372 27C85.8732 27 85.0239 26.734 84.3892 26.202C83.7546 25.67 83.3952 24.9747 83.3112 24.116H85.2152C85.2992 24.4893 85.4859 24.788 85.7752 25.012C86.0739 25.236 86.4519 25.348 86.9092 25.348C87.4599 25.348 87.8752 25.1753 88.1552 24.83C88.4352 24.4847 88.5752 24.0273 88.5752 23.458C88.5752 22.8793 88.4306 22.4407 88.1412 22.142C87.8612 21.834 87.4459 21.68 86.8952 21.68C86.5032 21.68 86.1766 21.778 85.9152 21.974C85.6539 22.17 85.4672 22.4313 85.3552 22.758H83.4792V16.766H89.8072V18.488Z" fill="#001A41"/>
<rect opacity="0.1" y="1" width="28" height="28" rx="7" fill="#F2C94C"/>
<path opacity="0.4" d="M18.1962 14.1986C19.3979 14.1986 20.3728 13.2244 20.3728 12.0226C20.3728 10.8209 19.3979 9.84668 18.1962 9.84668" stroke="#F2C94C" stroke-width="1.5" stroke-linecap="round" stroke-linejoin="round"/>
<path d="M19.1968 16.5635C19.5557 16.5882 19.9125 16.6391 20.2638 16.7182C20.7519 16.8137 21.3391 17.0138 21.5481 17.4517C21.6814 17.7322 21.6814 18.0588 21.5481 18.34C21.3397 18.7779 20.7519 18.9773 20.2638 19.0777" stroke="#F2C94C" stroke-width="1.5" stroke-linecap="round" stroke-linejoin="round"/>
<path opacity="0.4" d="M9.71749 14.1986C8.51574 14.1986 7.54087 13.2244 7.54087 12.0226C7.54087 10.8209 8.51574 9.84668 9.71749 9.84668" stroke="#F2C94C" stroke-width="1.5" stroke-linecap="round" stroke-linejoin="round"/>
<path d="M8.71684 16.5635C8.35796 16.5882 8.00115 16.6391 7.64984 16.7182C7.16171 16.8137 6.57459 17.0138 6.36627 17.4517C6.23221 17.7322 6.23221 18.0588 6.36627 18.34C6.5739 18.7779 7.16171 18.9773 7.64984 19.0777" stroke="#F2C94C" stroke-width="1.5" stroke-linecap="round" stroke-linejoin="round"/>
<path fill-rule="evenodd" clip-rule="evenodd" d="M13.9533 17.0322C16.3884 17.0322 18.4688 17.4007 18.4688 18.8754C18.4688 20.3494 16.4022 20.7317 13.9533 20.7317C11.5175 20.7317 9.43782 20.3632 9.43782 18.8885C9.43782 17.4138 11.5044 17.0322 13.9533 17.0322Z" stroke="#F2C94C" stroke-width="1.5" stroke-linecap="round" stroke-linejoin="round"/>
<path opacity="0.4" fill-rule="evenodd" clip-rule="evenodd" d="M13.9533 14.9287C12.3473 14.9287 11.0596 13.641 11.0596 12.0343C11.0596 10.4283 12.3473 9.14062 13.9533 9.14062C15.5593 9.14062 16.847 10.4283 16.847 12.0343C16.847 13.641 15.5593 14.9287 13.9533 14.9287Z" stroke="#F2C94C" stroke-width="1.5" stroke-linecap="round" stroke-linejoin="round"/>
<rect opacity="0.6" x="204" y="39" width="19" height="5" rx="2.5" fill="#DEE5EF"/>
<path d="M77.5 42.0001C59.1 50.4001 43.1667 43.8334 37.5 39.5V48.5002H221V8.0001C211 7.83343 181.3 11.7999 164.5 26.9999C138 50.9761 127.253 40.7127 114 34.5C98 26.9999 100.5 31.5001 77.5 42.0001Z" fill="url(#paint0_linear)"/>
<path d="M37.5 39.4999C43.1667 43.8332 59.1 50.3999 77.5 41.9999C100.5 31.4999 98 26.9998 114 34.4999C127.253 40.7125 138 50.976 164.5 26.9998C181.3 11.7998 211 7.83343 221 8.0001" stroke="#32BA85" stroke-width="1.5"/>
<circle cx="219" cy="8" r="2.25" fill="white" stroke="#32BA85" stroke-width="1.5"/>
<defs>
<linearGradient id="paint0_linear" x1="123.5" y1="-10" x2="132" y2="40.5" gradientUnits="userSpaceOnUse">
<stop stop-color="#32BA85" stop-opacity="0.5"/>
<stop offset="1" stop-color="#32BA85" stop-opacity="0"/>
</linearGradient>
</defs>
</svg>
