<svg width="160" height="167" viewBox="0 0 160 167" fill="none" xmlns="http://www.w3.org/2000/svg">
<g opacity="0.15" filter="url(#filter0_f)">
<rect x="35" y="35" width="90" height="97" rx="20" fill="#001A41"/>
</g>
<rect x="30" y="27" width="100" height="100" rx="15" fill="white"/>
<g clip-path="url(#clip0)">
<path d="M69.108 79.2586C69.108 79.8966 69.1771 80.4138 69.298 80.7931C69.4362 81.1724 69.6089 81.5862 69.8508 82.0345C69.9371 82.1724 69.9717 82.3103 69.9717 82.431C69.9717 82.6035 69.868 82.7759 69.6435 82.9483L68.5553 83.6724C68.3998 83.7759 68.2443 83.8276 68.1061 83.8276C67.9334 83.8276 67.7607 83.7414 67.5879 83.5862C67.3461 83.3276 67.1388 83.0517 66.9661 82.7759C66.7933 82.4828 66.6206 82.1552 66.4306 81.7586C65.0833 83.3448 63.3904 84.1379 61.3522 84.1379C59.9012 84.1379 58.7438 83.7241 57.8974 82.8966C57.051 82.069 56.6192 80.9655 56.6192 79.5862C56.6192 78.1207 57.1374 76.931 58.1911 76.0345C59.2448 75.1379 60.6439 74.6897 62.4231 74.6897C63.0104 74.6897 63.615 74.7414 64.2541 74.8276C64.8932 74.9138 65.5496 75.0517 66.2406 75.2069V73.9483C66.2406 72.6379 65.9642 71.7241 65.4287 71.1897C64.876 70.6552 63.9432 70.3966 62.6131 70.3966C62.0085 70.3966 61.3867 70.4655 60.7476 70.6207C60.1085 70.7759 59.4866 70.9655 58.882 71.2069C58.6056 71.3276 58.3984 71.3966 58.2774 71.431C58.1565 71.4655 58.0702 71.4828 58.0011 71.4828C57.7592 71.4828 57.6383 71.3103 57.6383 70.9483V70.1034C57.6383 69.8276 57.6729 69.6207 57.7592 69.5C57.8456 69.3793 58.0011 69.2586 58.2429 69.1379C58.8475 68.8276 59.573 68.569 60.4194 68.3621C61.2658 68.1379 62.164 68.0345 63.1141 68.0345C65.1696 68.0345 66.6724 68.5 67.6398 69.431C68.5898 70.3621 69.0735 71.7759 69.0735 73.6724V79.2586H69.108ZM62.0949 81.8793C62.6649 81.8793 63.2523 81.7759 63.8741 81.569C64.496 81.3621 65.0487 80.9828 65.5151 80.4655C65.7915 80.1379 65.9988 79.7759 66.1024 79.3621C66.206 78.9483 66.2751 78.4483 66.2751 77.8621V77.1379C65.7742 77.0172 65.2387 76.9138 64.686 76.8448C64.1332 76.7759 63.5977 76.7414 63.0622 76.7414C61.9049 76.7414 61.0585 76.9655 60.4885 77.431C59.9184 77.8966 59.6421 78.5517 59.6421 79.4138C59.6421 80.2241 59.8493 80.8276 60.2812 81.2414C60.6958 81.6724 61.3003 81.8793 62.0949 81.8793ZM75.9656 83.7414C75.6547 83.7414 75.4474 83.6897 75.3092 83.569C75.1711 83.4655 75.0501 83.2241 74.9465 82.8966L70.8872 69.569C70.7836 69.2241 70.7317 69 70.7317 68.8793C70.7317 68.6034 70.8699 68.4483 71.1463 68.4483H72.8391C73.1673 68.4483 73.3919 68.5 73.5128 68.6207C73.651 68.7241 73.7546 68.9655 73.8583 69.2931L76.7602 80.7069L79.4549 69.2931C79.5413 68.9483 79.6449 68.7241 79.7831 68.6207C79.9213 68.5172 80.1631 68.4483 80.4741 68.4483H81.8559C82.1841 68.4483 82.4087 68.5 82.5469 68.6207C82.6851 68.7241 82.806 68.9655 82.8751 69.2931L85.6043 80.8448L88.5927 69.2931C88.6963 68.9483 88.8172 68.7241 88.9381 68.6207C89.0763 68.5172 89.3009 68.4483 89.6118 68.4483H91.2182C91.4946 68.4483 91.6501 68.5862 91.6501 68.8793C91.6501 68.9655 91.6328 69.0517 91.6155 69.1552C91.5983 69.2586 91.5637 69.3966 91.4946 69.5862L87.3317 82.9138C87.228 83.2586 87.1071 83.4828 86.9689 83.5862C86.8307 83.6897 86.6062 83.7586 86.3125 83.7586H84.827C84.4988 83.7586 84.2742 83.7069 84.1361 83.5862C83.9979 83.4655 83.877 83.2414 83.8079 82.8966L81.1305 71.7759L78.4703 82.8793C78.3839 83.2241 78.2803 83.4483 78.1421 83.569C78.0039 83.6897 77.7621 83.7414 77.4512 83.7414H75.9656ZM98.1622 84.2069C97.264 84.2069 96.3658 84.1035 95.5021 83.8966C94.6384 83.6897 93.9648 83.4655 93.5156 83.2069C93.2393 83.0517 93.0493 82.8793 92.9802 82.7241C92.9111 82.569 92.8765 82.3966 92.8765 82.2414V81.3621C92.8765 81 93.0147 80.8276 93.2738 80.8276C93.3774 80.8276 93.4811 80.8448 93.5847 80.8793C93.6884 80.9138 93.8438 80.9828 94.0166 81.0517C94.6039 81.3103 95.243 81.5172 95.9167 81.6552C96.6076 81.7931 97.2813 81.8621 97.9722 81.8621C99.0605 81.8621 99.9069 81.6724 100.494 81.2931C101.081 80.9138 101.392 80.3621 101.392 79.6552C101.392 79.1724 101.237 78.7759 100.926 78.4483C100.615 78.1207 100.028 77.8276 99.1814 77.5517L96.6767 76.7759C95.4157 76.3793 94.483 75.7931 93.9129 75.0172C93.3429 74.2586 93.0493 73.4138 93.0493 72.5172C93.0493 71.7931 93.2047 71.1552 93.5156 70.6034C93.8266 70.0517 94.2411 69.569 94.7593 69.1897C95.2775 68.7931 95.8649 68.5 96.5558 68.2931C97.2467 68.0862 97.9722 68 98.7323 68C99.1123 68 99.5096 68.0172 99.8896 68.069C100.287 68.1207 100.65 68.1897 101.012 68.2586C101.358 68.3448 101.686 68.431 101.997 68.5345C102.308 68.6379 102.55 68.7414 102.722 68.8448C102.964 68.9828 103.137 69.1207 103.241 69.2759C103.344 69.4138 103.396 69.6034 103.396 69.8448V70.6552C103.396 71.0172 103.258 71.2069 102.999 71.2069C102.861 71.2069 102.636 71.1379 102.342 71C101.358 70.5517 100.252 70.3276 99.0259 70.3276C98.0413 70.3276 97.264 70.4828 96.7285 70.8103C96.1931 71.1379 95.9167 71.6379 95.9167 72.3448C95.9167 72.8276 96.0894 73.2414 96.4349 73.569C96.7804 73.8966 97.4195 74.2241 98.335 74.5172L100.788 75.2931C102.032 75.6897 102.93 76.2414 103.465 76.9483C104.001 77.6552 104.26 78.4655 104.26 79.3621C104.26 80.1035 104.104 80.7759 103.811 81.3621C103.5 81.9483 103.085 82.4655 102.55 82.8793C102.014 83.3103 101.375 83.6207 100.632 83.8448C99.8551 84.0862 99.0432 84.2069 98.1622 84.2069Z" fill="#252F3E"/>
<path fill-rule="evenodd" clip-rule="evenodd" d="M101.427 92.5855C95.744 96.7752 87.4872 98.9993 80.3877 98.9993C70.4381 98.9993 61.4731 95.3269 54.7018 89.2235C54.1663 88.7407 54.65 88.0855 55.2891 88.4648C62.6131 92.7062 71.6472 95.2752 80.9923 95.2752C87.2972 95.2752 94.2239 93.9649 100.598 91.2752C101.548 90.8442 102.36 91.8959 101.427 92.5855Z" fill="#FF9900"/>
<path fill-rule="evenodd" clip-rule="evenodd" d="M103.793 89.8965C103.068 88.9654 98.9914 89.4482 97.1432 89.6723C96.5904 89.7413 96.504 89.2585 97.005 88.8965C100.252 86.6206 105.59 87.2758 106.212 88.0344C106.834 88.8103 106.039 94.1379 102.999 96.6896C102.533 97.0861 102.083 96.8792 102.291 96.362C102.982 94.6551 104.519 90.8103 103.793 89.8965Z" fill="#FF9900"/>
</g>
<path d="M104 41.75H110C111.392 41.75 112.728 42.3031 113.712 43.2877C114.697 44.2723 115.25 45.6076 115.25 47C115.25 48.3924 114.697 49.7277 113.712 50.7123C112.728 51.6969 111.392 52.25 110 52.25H104C102.608 52.25 101.272 51.6969 100.288 50.7123C99.3031 49.7277 98.75 48.3924 98.75 47C98.75 45.6076 99.3031 44.2723 100.288 43.2877C101.272 42.3031 102.608 41.75 104 41.75ZM110 49.25C110.597 49.25 111.169 49.0129 111.591 48.591C112.013 48.169 112.25 47.5967 112.25 47C112.25 46.4033 112.013 45.831 111.591 45.409C111.169 44.9871 110.597 44.75 110 44.75C109.403 44.75 108.831 44.9871 108.409 45.409C107.987 45.831 107.75 46.4033 107.75 47C107.75 47.5967 107.987 48.169 108.409 48.591C108.831 49.0129 109.403 49.25 110 49.25Z" fill="#05C46B"/>
<defs>
<filter id="filter0_f" x="0" y="0" width="160" height="167" filterUnits="userSpaceOnUse" color-interpolation-filters="sRGB">
<feFlood flood-opacity="0" result="BackgroundImageFix"/>
<feBlend mode="normal" in="SourceGraphic" in2="BackgroundImageFix" result="shape"/>
<feGaussianBlur stdDeviation="17.5" result="effect1_foregroundBlur"/>
</filter>
<clipPath id="clip0">
<rect width="53" height="31" fill="white" transform="translate(54 68)"/>
</clipPath>
</defs>
</svg>
