<svg width="1440" height="845" viewBox="0 0 1440 845" fill="none" xmlns="http://www.w3.org/2000/svg">
<rect x="-11" width="1462" height="845" fill="url(#paint0_linear)"/>
<rect x="-55.6621" y="7" width="324.688" height="105.626" transform="rotate(15 -55.6621 7)" fill="url(#paint1_linear)"/>
<rect x="1072.23" y="12" width="324.688" height="47.2454" transform="rotate(15 1072.23 12)" fill="url(#paint2_linear)"/>
<rect x="866.461" y="625.405" width="214.062" height="67.0545" transform="rotate(15 866.461 625.405)" fill="url(#paint3_linear)"/>
<rect x="564.857" y="594" width="574.727" height="76.7202" transform="rotate(15 564.857 594)" fill="url(#paint4_linear)"/>
<rect x="939.234" y="325.457" width="221.236" height="69.3015" transform="rotate(15 939.234 325.457)" fill="url(#paint5_linear)"/>
<rect x="627.521" y="293" width="593.986" height="79.2911" transform="rotate(15 627.521 293)" fill="url(#paint6_linear)"/>
<rect x="99.9883" y="335.787" width="194.594" height="46.3164" transform="rotate(15 99.9883 335.787)" fill="url(#paint7_linear)"/>
<rect x="181.037" y="332" width="194.594" height="46.3164" transform="rotate(15 181.037 332)" fill="url(#paint8_linear)"/>
<defs>
<linearGradient id="paint0_linear" x1="16.3366" y1="16.3149" x2="600.547" y2="1247.18" gradientUnits="userSpaceOnUse">
<stop stop-color="#373744"/>
<stop offset="1" stop-color="#303140"/>
</linearGradient>
<linearGradient id="paint1_linear" x1="520.862" y1="57.3383" x2="52.3396" y2="44.094" gradientUnits="userSpaceOnUse">
<stop stop-color="#0C56C2"/>
<stop offset="0.873159" stop-color="#0C56C2" stop-opacity="0"/>
</linearGradient>
<linearGradient id="paint2_linear" x1="1648.75" y1="34.5158" x2="1181.72" y2="4.99982" gradientUnits="userSpaceOnUse">
<stop stop-color="#0C56C2"/>
<stop offset="0.873159" stop-color="#0C56C2" stop-opacity="0"/>
</linearGradient>
<linearGradient id="paint3_linear" x1="1246.55" y1="657.361" x2="937.684" y2="648.293" gradientUnits="userSpaceOnUse">
<stop stop-color="#32BA85"/>
<stop offset="1" stop-color="#0C56C2" stop-opacity="0"/>
</linearGradient>
<linearGradient id="paint4_linear" x1="1585.36" y1="630.563" x2="759.288" y2="573.655" gradientUnits="userSpaceOnUse">
<stop stop-color="#32BA85"/>
<stop offset="1" stop-color="#0C56C2" stop-opacity="0"/>
</linearGradient>
<linearGradient id="paint5_linear" x1="1332.07" y1="358.484" x2="1012.84" y2="349.113" gradientUnits="userSpaceOnUse">
<stop stop-color="#32BA85"/>
<stop offset="1" stop-color="#0C56C2" stop-opacity="0"/>
</linearGradient>
<linearGradient id="paint6_linear" x1="1682.22" y1="330.788" x2="828.468" y2="271.973" gradientUnits="userSpaceOnUse">
<stop stop-color="#32BA85"/>
<stop offset="1" stop-color="#0C56C2" stop-opacity="0"/>
</linearGradient>
<linearGradient id="paint7_linear" x1="445.515" y1="357.86" x2="164.911" y2="347.019" gradientUnits="userSpaceOnUse">
<stop stop-color="#32BA85"/>
<stop offset="1" stop-color="#0C56C2" stop-opacity="0"/>
</linearGradient>
<linearGradient id="paint8_linear" x1="526.564" y1="354.073" x2="245.96" y2="343.231" gradientUnits="userSpaceOnUse">
<stop stop-color="#32BA85"/>
<stop offset="1" stop-color="#0C56C2" stop-opacity="0"/>
</linearGradient>
</defs>
</svg>
