<svg width="18" height="18" viewBox="0 0 18 18" fill="none" xmlns="http://www.w3.org/2000/svg">
<path opacity="0.4" d="M12.0566 1.5H14.5961C15.6478 1.5 16.5 2.35939 16.5 3.41997V5.98089C16.5 7.04148 15.6478 7.90087 14.5961 7.90087H12.0566C11.0049 7.90087 10.1527 7.04148 10.1527 5.98089V3.41997C10.1527 2.35939 11.0049 1.5 12.0566 1.5Z" fill="white"/>
<path fill-rule="evenodd" clip-rule="evenodd" d="M3.40389 1.5H5.94337C6.99507 1.5 7.84726 2.35939 7.84726 3.41997V5.98089C7.84726 7.04148 6.99507 7.90087 5.94337 7.90087H3.40389C2.35219 7.90087 1.5 7.04148 1.5 5.98089V3.41997C1.5 2.35939 2.35219 1.5 3.40389 1.5ZM3.40389 10.0992H5.94337C6.99507 10.0992 7.84726 10.9586 7.84726 12.0192V14.5801C7.84726 15.6399 6.99507 16.5 5.94337 16.5H3.40389C2.35219 16.5 1.5 15.6399 1.5 14.5801V12.0192C1.5 10.9586 2.35219 10.0992 3.40389 10.0992ZM14.5961 10.0992H12.0566C11.0049 10.0992 10.1527 10.9586 10.1527 12.0192V14.5801C10.1527 15.6399 11.0049 16.5 12.0566 16.5H14.5961C15.6478 16.5 16.5 15.6399 16.5 14.5801V12.0192C16.5 10.9586 15.6478 10.0992 14.5961 10.0992Z" fill="white"/>
</svg>
