<svg width="447" height="368" viewBox="0 0 447 368" fill="none" xmlns="http://www.w3.org/2000/svg">
<g filter="url(#filter0_d)">
<rect x="55" y="45" width="358" height="258" rx="20" fill="white"/>
</g>
<rect x="93" y="243" width="34" height="6" rx="2" fill="#CBD7EA"/>
<rect x="93" y="259" width="65" height="6" rx="2" fill="#CBD7EA"/>
<path d="M97.382 216.228C98.4087 216.228 99.3093 216.429 100.084 216.83C100.868 217.231 101.47 217.805 101.89 218.552C102.319 219.289 102.534 220.148 102.534 221.128C102.534 222.108 102.319 222.967 101.89 223.704C101.47 224.432 100.868 224.997 100.084 225.398C99.3093 225.799 98.4087 226 97.382 226H93.966V216.228H97.382ZM97.312 224.334C98.3387 224.334 99.132 224.054 99.692 223.494C100.252 222.934 100.532 222.145 100.532 221.128C100.532 220.111 100.252 219.317 99.692 218.748C99.132 218.169 98.3387 217.88 97.312 217.88H95.926V224.334H97.312ZM111.351 221.954C111.351 222.234 111.332 222.486 111.295 222.71H105.625C105.672 223.27 105.868 223.709 106.213 224.026C106.558 224.343 106.983 224.502 107.487 224.502C108.215 224.502 108.733 224.189 109.041 223.564H111.155C110.931 224.311 110.502 224.927 109.867 225.412C109.232 225.888 108.453 226.126 107.529 226.126C106.782 226.126 106.11 225.963 105.513 225.636C104.925 225.3 104.463 224.829 104.127 224.222C103.8 223.615 103.637 222.915 103.637 222.122C103.637 221.319 103.8 220.615 104.127 220.008C104.454 219.401 104.911 218.935 105.499 218.608C106.087 218.281 106.764 218.118 107.529 218.118C108.266 218.118 108.924 218.277 109.503 218.594C110.091 218.911 110.544 219.364 110.861 219.952C111.188 220.531 111.351 221.198 111.351 221.954ZM109.321 221.394C109.312 220.89 109.13 220.489 108.775 220.19C108.42 219.882 107.986 219.728 107.473 219.728C106.988 219.728 106.577 219.877 106.241 220.176C105.914 220.465 105.714 220.871 105.639 221.394H109.321ZM114.882 215.64V226H112.922V215.64H114.882ZM117.952 217.32C117.607 217.32 117.318 217.213 117.084 216.998C116.86 216.774 116.748 216.499 116.748 216.172C116.748 215.845 116.86 215.575 117.084 215.36C117.318 215.136 117.607 215.024 117.952 215.024C118.298 215.024 118.582 215.136 118.806 215.36C119.04 215.575 119.156 215.845 119.156 216.172C119.156 216.499 119.04 216.774 118.806 216.998C118.582 217.213 118.298 217.32 117.952 217.32ZM118.918 218.244V226H116.958V218.244H118.918ZM124.229 224.194L126.189 218.244H128.275L125.405 226H123.025L120.169 218.244H122.269L124.229 224.194ZM136.726 221.954C136.726 222.234 136.707 222.486 136.67 222.71H131C131.046 223.27 131.242 223.709 131.588 224.026C131.933 224.343 132.358 224.502 132.862 224.502C133.59 224.502 134.108 224.189 134.416 223.564H136.53C136.306 224.311 135.876 224.927 135.242 225.412C134.607 225.888 133.828 226.126 132.904 226.126C132.157 226.126 131.485 225.963 130.888 225.636C130.3 225.3 129.838 224.829 129.502 224.222C129.175 223.615 129.012 222.915 129.012 222.122C129.012 221.319 129.175 220.615 129.502 220.008C129.828 219.401 130.286 218.935 130.874 218.608C131.462 218.281 132.138 218.118 132.904 218.118C133.641 218.118 134.299 218.277 134.878 218.594C135.466 218.911 135.918 219.364 136.236 219.952C136.562 220.531 136.726 221.198 136.726 221.954ZM134.696 221.394C134.686 220.89 134.504 220.489 134.15 220.19C133.795 219.882 133.361 219.728 132.848 219.728C132.362 219.728 131.952 219.877 131.616 220.176C131.289 220.465 131.088 220.871 131.014 221.394H134.696ZM140.256 219.448C140.508 219.037 140.835 218.715 141.236 218.482C141.647 218.249 142.114 218.132 142.636 218.132V220.19H142.118C141.502 220.19 141.036 220.335 140.718 220.624C140.41 220.913 140.256 221.417 140.256 222.136V226H138.296V218.244H140.256V219.448ZM151.306 221.954C151.306 222.234 151.288 222.486 151.25 222.71H145.58C145.627 223.27 145.823 223.709 146.168 224.026C146.514 224.343 146.938 224.502 147.442 224.502C148.17 224.502 148.688 224.189 148.996 223.564H151.11C150.886 224.311 150.457 224.927 149.822 225.412C149.188 225.888 148.408 226.126 147.484 226.126C146.738 226.126 146.066 225.963 145.468 225.636C144.88 225.3 144.418 224.829 144.082 224.222C143.756 223.615 143.592 222.915 143.592 222.122C143.592 221.319 143.756 220.615 144.082 220.008C144.409 219.401 144.866 218.935 145.454 218.608C146.042 218.281 146.719 218.118 147.484 218.118C148.222 218.118 148.88 218.277 149.458 218.594C150.046 218.911 150.499 219.364 150.816 219.952C151.143 220.531 151.306 221.198 151.306 221.954ZM149.276 221.394C149.267 220.89 149.085 220.489 148.73 220.19C148.376 219.882 147.942 219.728 147.428 219.728C146.943 219.728 146.532 219.877 146.196 220.176C145.87 220.465 145.669 220.871 145.594 221.394H149.276ZM152.373 222.094C152.373 221.31 152.527 220.615 152.835 220.008C153.152 219.401 153.582 218.935 154.123 218.608C154.664 218.281 155.266 218.118 155.929 218.118C156.433 218.118 156.914 218.23 157.371 218.454C157.828 218.669 158.192 218.958 158.463 219.322V215.64H160.451V226H158.463V224.852C158.22 225.235 157.88 225.543 157.441 225.776C157.002 226.009 156.494 226.126 155.915 226.126C155.262 226.126 154.664 225.958 154.123 225.622C153.582 225.286 153.152 224.815 152.835 224.208C152.527 223.592 152.373 222.887 152.373 222.094ZM158.477 222.122C158.477 221.646 158.384 221.24 158.197 220.904C158.01 220.559 157.758 220.297 157.441 220.12C157.124 219.933 156.783 219.84 156.419 219.84C156.055 219.84 155.719 219.929 155.411 220.106C155.103 220.283 154.851 220.545 154.655 220.89C154.468 221.226 154.375 221.627 154.375 222.094C154.375 222.561 154.468 222.971 154.655 223.326C154.851 223.671 155.103 223.937 155.411 224.124C155.728 224.311 156.064 224.404 156.419 224.404C156.783 224.404 157.124 224.315 157.441 224.138C157.758 223.951 158.01 223.69 158.197 223.354C158.384 223.009 158.477 222.598 158.477 222.122Z" fill="#001A41"/>
<rect x="99" y="82" width="57" height="109" rx="28.5" fill="#05C46B" fill-opacity="0.1"/>
<g clip-path="url(#clip0)">
<path d="M136.667 118.229C135.687 117.882 134.63 117.82 133.617 118.049C132.603 118.278 131.676 118.79 130.941 119.525C130.207 120.259 129.695 121.187 129.466 122.2C129.237 123.213 129.299 124.271 129.646 125.25H119.25C119.007 125.25 118.774 125.153 118.602 124.982C118.43 124.81 118.333 124.576 118.333 124.333V109.667C118.333 109.424 118.43 109.19 118.602 109.018C118.774 108.847 119.007 108.75 119.25 108.75H135.75C135.993 108.75 136.226 108.847 136.398 109.018C136.57 109.19 136.667 109.424 136.667 109.667V118.229ZM127.555 116.709L121.677 111.718L120.49 113.115L127.567 119.124L134.516 113.111L133.317 111.724L127.556 116.709H127.555ZM133.917 126.167L130.675 122.925L131.972 121.629L133.917 123.574L137.158 120.333L138.454 121.629L133.917 126.167Z" fill="#05C46B"/>
</g>
<path d="M113.648 149.2V146.878H117.986V160H115.394V149.2H113.648ZM121.447 157.156C122.599 156.196 123.517 155.398 124.201 154.762C124.885 154.114 125.455 153.442 125.911 152.746C126.367 152.05 126.595 151.366 126.595 150.694C126.595 150.082 126.451 149.602 126.163 149.254C125.875 148.906 125.431 148.732 124.831 148.732C124.231 148.732 123.769 148.936 123.445 149.344C123.121 149.74 122.953 150.286 122.941 150.982H120.493C120.541 149.542 120.967 148.45 121.771 147.706C122.587 146.962 123.619 146.59 124.867 146.59C126.235 146.59 127.285 146.956 128.017 147.688C128.749 148.408 129.115 149.362 129.115 150.55C129.115 151.486 128.863 152.38 128.359 153.232C127.855 154.084 127.279 154.828 126.631 155.464C125.983 156.088 125.137 156.844 124.093 157.732H129.403V159.82H120.511V157.948L121.447 157.156ZM131.171 153.268C131.171 151.192 131.543 149.566 132.287 148.39C133.043 147.214 134.291 146.626 136.031 146.626C137.771 146.626 139.013 147.214 139.757 148.39C140.513 149.566 140.891 151.192 140.891 153.268C140.891 155.356 140.513 156.994 139.757 158.182C139.013 159.37 137.771 159.964 136.031 159.964C134.291 159.964 133.043 159.37 132.287 158.182C131.543 156.994 131.171 155.356 131.171 153.268ZM138.407 153.268C138.407 152.38 138.347 151.636 138.227 151.036C138.119 150.424 137.891 149.926 137.543 149.542C137.207 149.158 136.703 148.966 136.031 148.966C135.359 148.966 134.849 149.158 134.501 149.542C134.165 149.926 133.937 150.424 133.817 151.036C133.709 151.636 133.655 152.38 133.655 153.268C133.655 154.18 133.709 154.948 133.817 155.572C133.925 156.184 134.153 156.682 134.501 157.066C134.849 157.438 135.359 157.624 136.031 157.624C136.703 157.624 137.213 157.438 137.561 157.066C137.909 156.682 138.137 156.184 138.245 155.572C138.353 154.948 138.407 154.18 138.407 153.268Z" fill="#05C46B"/>
<rect x="210" y="243" width="47" height="6" rx="2" fill="#CBD7EA"/>
<rect x="210" y="259" width="56" height="6" rx="2" fill="#CBD7EA"/>
<path d="M219.502 226.098C218.587 226.098 217.747 225.883 216.982 225.454C216.217 225.025 215.61 224.432 215.162 223.676C214.714 222.911 214.49 222.047 214.49 221.086C214.49 220.134 214.714 219.28 215.162 218.524C215.61 217.759 216.217 217.161 216.982 216.732C217.747 216.303 218.587 216.088 219.502 216.088C220.426 216.088 221.266 216.303 222.022 216.732C222.787 217.161 223.389 217.759 223.828 218.524C224.276 219.28 224.5 220.134 224.5 221.086C224.5 222.047 224.276 222.911 223.828 223.676C223.389 224.432 222.787 225.025 222.022 225.454C221.257 225.883 220.417 226.098 219.502 226.098ZM219.502 224.348C220.09 224.348 220.608 224.217 221.056 223.956C221.504 223.685 221.854 223.303 222.106 222.808C222.358 222.313 222.484 221.739 222.484 221.086C222.484 220.433 222.358 219.863 222.106 219.378C221.854 218.883 221.504 218.505 221.056 218.244C220.608 217.983 220.09 217.852 219.502 217.852C218.914 217.852 218.391 217.983 217.934 218.244C217.486 218.505 217.136 218.883 216.884 219.378C216.632 219.863 216.506 220.433 216.506 221.086C216.506 221.739 216.632 222.313 216.884 222.808C217.136 223.303 217.486 223.685 217.934 223.956C218.391 224.217 218.914 224.348 219.502 224.348ZM228.058 219.364C228.31 219.009 228.656 218.715 229.094 218.482C229.542 218.239 230.051 218.118 230.62 218.118C231.283 218.118 231.88 218.281 232.412 218.608C232.954 218.935 233.378 219.401 233.686 220.008C234.004 220.605 234.162 221.301 234.162 222.094C234.162 222.887 234.004 223.592 233.686 224.208C233.378 224.815 232.954 225.286 232.412 225.622C231.88 225.958 231.283 226.126 230.62 226.126C230.051 226.126 229.547 226.009 229.108 225.776C228.679 225.543 228.329 225.249 228.058 224.894V229.696H226.098V218.244H228.058V219.364ZM232.16 222.094C232.16 221.627 232.062 221.226 231.866 220.89C231.68 220.545 231.428 220.283 231.11 220.106C230.802 219.929 230.466 219.84 230.102 219.84C229.748 219.84 229.412 219.933 229.094 220.12C228.786 220.297 228.534 220.559 228.338 220.904C228.152 221.249 228.058 221.655 228.058 222.122C228.058 222.589 228.152 222.995 228.338 223.34C228.534 223.685 228.786 223.951 229.094 224.138C229.412 224.315 229.748 224.404 230.102 224.404C230.466 224.404 230.802 224.311 231.11 224.124C231.428 223.937 231.68 223.671 231.866 223.326C232.062 222.981 232.16 222.57 232.16 222.094ZM242.936 221.954C242.936 222.234 242.918 222.486 242.88 222.71H237.21C237.257 223.27 237.453 223.709 237.798 224.026C238.144 224.343 238.568 224.502 239.072 224.502C239.8 224.502 240.318 224.189 240.626 223.564H242.74C242.516 224.311 242.087 224.927 241.452 225.412C240.818 225.888 240.038 226.126 239.114 226.126C238.368 226.126 237.696 225.963 237.098 225.636C236.51 225.3 236.048 224.829 235.712 224.222C235.386 223.615 235.222 222.915 235.222 222.122C235.222 221.319 235.386 220.615 235.712 220.008C236.039 219.401 236.496 218.935 237.084 218.608C237.672 218.281 238.349 218.118 239.114 218.118C239.852 218.118 240.51 218.277 241.088 218.594C241.676 218.911 242.129 219.364 242.446 219.952C242.773 220.531 242.936 221.198 242.936 221.954ZM240.906 221.394C240.897 220.89 240.715 220.489 240.36 220.19C240.006 219.882 239.572 219.728 239.058 219.728C238.573 219.728 238.162 219.877 237.826 220.176C237.5 220.465 237.299 220.871 237.224 221.394H240.906ZM248.805 218.132C249.729 218.132 250.476 218.426 251.045 219.014C251.614 219.593 251.899 220.405 251.899 221.45V226H249.939V221.716C249.939 221.1 249.785 220.629 249.477 220.302C249.169 219.966 248.749 219.798 248.217 219.798C247.676 219.798 247.246 219.966 246.929 220.302C246.621 220.629 246.467 221.1 246.467 221.716V226H244.507V218.244H246.467V219.21C246.728 218.874 247.06 218.613 247.461 218.426C247.872 218.23 248.32 218.132 248.805 218.132ZM256.871 226.126C256.236 226.126 255.667 226.014 255.163 225.79C254.659 225.557 254.258 225.244 253.959 224.852C253.67 224.46 253.511 224.026 253.483 223.55H255.457C255.494 223.849 255.639 224.096 255.891 224.292C256.152 224.488 256.474 224.586 256.857 224.586C257.23 224.586 257.52 224.511 257.725 224.362C257.94 224.213 258.047 224.021 258.047 223.788C258.047 223.536 257.916 223.349 257.655 223.228C257.403 223.097 256.997 222.957 256.437 222.808C255.858 222.668 255.382 222.523 255.009 222.374C254.645 222.225 254.328 221.996 254.057 221.688C253.796 221.38 253.665 220.965 253.665 220.442C253.665 220.013 253.786 219.621 254.029 219.266C254.281 218.911 254.636 218.631 255.093 218.426C255.56 218.221 256.106 218.118 256.731 218.118C257.655 218.118 258.392 218.351 258.943 218.818C259.494 219.275 259.797 219.896 259.853 220.68H257.977C257.949 220.372 257.818 220.129 257.585 219.952C257.361 219.765 257.058 219.672 256.675 219.672C256.32 219.672 256.045 219.737 255.849 219.868C255.662 219.999 255.569 220.181 255.569 220.414C255.569 220.675 255.7 220.876 255.961 221.016C256.222 221.147 256.628 221.282 257.179 221.422C257.739 221.562 258.201 221.707 258.565 221.856C258.929 222.005 259.242 222.239 259.503 222.556C259.774 222.864 259.914 223.275 259.923 223.788C259.923 224.236 259.797 224.637 259.545 224.992C259.302 225.347 258.948 225.627 258.481 225.832C258.024 226.028 257.487 226.126 256.871 226.126Z" fill="#001A41"/>
<rect x="209" y="82" width="57" height="109" rx="28.5" fill="#1E90FF" fill-opacity="0.1"/>
<path d="M228.556 112.283L237.033 107.201C237.175 107.115 237.338 107.07 237.504 107.07C237.67 107.07 237.833 107.115 237.976 107.201L246.444 112.284C246.512 112.325 246.568 112.382 246.607 112.451C246.646 112.52 246.667 112.598 246.667 112.677V124.333C246.667 124.577 246.57 124.81 246.398 124.982C246.226 125.154 245.993 125.25 245.75 125.25H229.25C229.007 125.25 228.774 125.154 228.602 124.982C228.43 124.81 228.333 124.577 228.333 124.333V112.676C228.333 112.597 228.354 112.519 228.393 112.45C228.432 112.381 228.488 112.324 228.556 112.283ZM243.317 113.557L237.556 118.543L231.676 113.552L230.49 114.949L237.567 120.957L244.516 114.944L243.317 113.557Z" fill="#1E90FF"/>
<path d="M222.648 149.2V146.878H226.986V160H224.394V149.2H222.648ZM229.547 157.444V155.464L235.433 147.04H238.367V155.248H239.951V157.444H238.367V160H235.847V157.444H229.547ZM236.009 149.74L232.319 155.248H236.009V149.74ZM241.628 157.444V155.464L247.514 147.04H250.448V155.248H252.032V157.444H250.448V160H247.928V157.444H241.628ZM248.09 149.74L244.4 155.248H248.09V149.74Z" fill="#1E90FF"/>
<rect x="313" y="243" width="63" height="6" rx="2" fill="#CBD7EA"/>
<rect x="313" y="259" width="51" height="6" rx="2" fill="#CBD7EA"/>
<path d="M320.49 221.1C320.49 220.139 320.705 219.28 321.134 218.524C321.573 217.759 322.165 217.166 322.912 216.746C323.668 216.317 324.513 216.102 325.446 216.102C326.538 216.102 327.495 216.382 328.316 216.942C329.137 217.502 329.711 218.277 330.038 219.266H327.784C327.56 218.799 327.243 218.449 326.832 218.216C326.431 217.983 325.964 217.866 325.432 217.866C324.863 217.866 324.354 218.001 323.906 218.272C323.467 218.533 323.122 218.907 322.87 219.392C322.627 219.877 322.506 220.447 322.506 221.1C322.506 221.744 322.627 222.313 322.87 222.808C323.122 223.293 323.467 223.671 323.906 223.942C324.354 224.203 324.863 224.334 325.432 224.334C325.964 224.334 326.431 224.217 326.832 223.984C327.243 223.741 327.56 223.387 327.784 222.92H330.038C329.711 223.919 329.137 224.698 328.316 225.258C327.504 225.809 326.547 226.084 325.446 226.084C324.513 226.084 323.668 225.874 322.912 225.454C322.165 225.025 321.573 224.432 321.134 223.676C320.705 222.92 320.49 222.061 320.49 221.1ZM333.812 215.64V226H331.852V215.64H333.812ZM336.883 217.32C336.537 217.32 336.248 217.213 336.015 216.998C335.791 216.774 335.679 216.499 335.679 216.172C335.679 215.845 335.791 215.575 336.015 215.36C336.248 215.136 336.537 215.024 336.883 215.024C337.228 215.024 337.513 215.136 337.737 215.36C337.97 215.575 338.087 215.845 338.087 216.172C338.087 216.499 337.97 216.774 337.737 216.998C337.513 217.213 337.228 217.32 336.883 217.32ZM337.849 218.244V226H335.889V218.244H337.849ZM339.421 222.122C339.421 221.319 339.584 220.619 339.911 220.022C340.238 219.415 340.69 218.949 341.269 218.622C341.848 218.286 342.51 218.118 343.257 218.118C344.218 218.118 345.012 218.361 345.637 218.846C346.272 219.322 346.696 219.994 346.911 220.862H344.797C344.685 220.526 344.494 220.265 344.223 220.078C343.962 219.882 343.635 219.784 343.243 219.784C342.683 219.784 342.24 219.989 341.913 220.4C341.586 220.801 341.423 221.375 341.423 222.122C341.423 222.859 341.586 223.433 341.913 223.844C342.24 224.245 342.683 224.446 343.243 224.446C344.036 224.446 344.554 224.091 344.797 223.382H346.911C346.696 224.222 346.272 224.889 345.637 225.384C345.002 225.879 344.209 226.126 343.257 226.126C342.51 226.126 341.848 225.963 341.269 225.636C340.69 225.3 340.238 224.833 339.911 224.236C339.584 223.629 339.421 222.925 339.421 222.122ZM353.079 226L350.447 222.696V226H348.487V215.64H350.447V221.534L353.051 218.244H355.599L352.183 222.136L355.627 226H353.079ZM359.771 226.126C359.136 226.126 358.567 226.014 358.063 225.79C357.559 225.557 357.157 225.244 356.859 224.852C356.569 224.46 356.411 224.026 356.383 223.55H358.357C358.394 223.849 358.539 224.096 358.791 224.292C359.052 224.488 359.374 224.586 359.757 224.586C360.13 224.586 360.419 224.511 360.625 224.362C360.839 224.213 360.947 224.021 360.947 223.788C360.947 223.536 360.816 223.349 360.555 223.228C360.303 223.097 359.897 222.957 359.337 222.808C358.758 222.668 358.282 222.523 357.909 222.374C357.545 222.225 357.227 221.996 356.957 221.688C356.695 221.38 356.565 220.965 356.565 220.442C356.565 220.013 356.686 219.621 356.929 219.266C357.181 218.911 357.535 218.631 357.993 218.426C358.459 218.221 359.005 218.118 359.631 218.118C360.555 218.118 361.292 218.351 361.843 218.818C362.393 219.275 362.697 219.896 362.753 220.68H360.877C360.849 220.372 360.718 220.129 360.485 219.952C360.261 219.765 359.957 219.672 359.575 219.672C359.22 219.672 358.945 219.737 358.749 219.868C358.562 219.999 358.469 220.181 358.469 220.414C358.469 220.675 358.599 220.876 358.861 221.016C359.122 221.147 359.528 221.282 360.079 221.422C360.639 221.562 361.101 221.707 361.465 221.856C361.829 222.005 362.141 222.239 362.403 222.556C362.673 222.864 362.813 223.275 362.823 223.788C362.823 224.236 362.697 224.637 362.445 224.992C362.202 225.347 361.847 225.627 361.381 225.832C360.923 226.028 360.387 226.126 359.771 226.126Z" fill="#001A41"/>
<rect x="313" y="82" width="57" height="109" rx="28.5" fill="#F97F51" fill-opacity="0.1"/>
<path d="M343.251 117.33L346.083 125.116L343.5 126.057L340.666 118.271L336.841 121.164L338.207 107.497L348.039 117.088L343.251 117.33Z" fill="#F97F51"/>
<path d="M327.87 156.31C327.966 156.838 328.182 157.246 328.518 157.534C328.866 157.81 329.328 157.948 329.904 157.948C330.648 157.948 331.188 157.642 331.524 157.03C331.86 156.406 332.028 155.362 332.028 153.898C331.752 154.282 331.362 154.582 330.858 154.798C330.366 155.014 329.832 155.122 329.256 155.122C328.488 155.122 327.792 154.966 327.168 154.654C326.556 154.33 326.07 153.856 325.71 153.232C325.35 152.596 325.17 151.828 325.17 150.928C325.17 149.596 325.566 148.54 326.358 147.76C327.15 146.968 328.23 146.572 329.598 146.572C331.302 146.572 332.502 147.118 333.198 148.21C333.906 149.302 334.26 150.946 334.26 153.142C334.26 154.702 334.122 155.98 333.846 156.976C333.582 157.972 333.12 158.728 332.46 159.244C331.812 159.76 330.924 160.018 329.796 160.018C328.908 160.018 328.152 159.85 327.528 159.514C326.904 159.166 326.424 158.716 326.088 158.164C325.764 157.6 325.578 156.982 325.53 156.31H327.87ZM329.778 153.07C330.402 153.07 330.894 152.878 331.254 152.494C331.614 152.11 331.794 151.594 331.794 150.946C331.794 150.238 331.602 149.692 331.218 149.308C330.846 148.912 330.336 148.714 329.688 148.714C329.04 148.714 328.524 148.918 328.14 149.326C327.768 149.722 327.582 150.25 327.582 150.91C327.582 151.546 327.762 152.068 328.122 152.476C328.494 152.872 329.046 153.07 329.778 153.07ZM336.402 153.268C336.402 151.192 336.774 149.566 337.518 148.39C338.274 147.214 339.522 146.626 341.262 146.626C343.002 146.626 344.244 147.214 344.988 148.39C345.744 149.566 346.122 151.192 346.122 153.268C346.122 155.356 345.744 156.994 344.988 158.182C344.244 159.37 343.002 159.964 341.262 159.964C339.522 159.964 338.274 159.37 337.518 158.182C336.774 156.994 336.402 155.356 336.402 153.268ZM343.638 153.268C343.638 152.38 343.578 151.636 343.458 151.036C343.35 150.424 343.122 149.926 342.774 149.542C342.438 149.158 341.934 148.966 341.262 148.966C340.59 148.966 340.08 149.158 339.732 149.542C339.396 149.926 339.168 150.424 339.048 151.036C338.94 151.636 338.886 152.38 338.886 153.268C338.886 154.18 338.94 154.948 339.048 155.572C339.156 156.184 339.384 156.682 339.732 157.066C340.08 157.438 340.59 157.624 341.262 157.624C341.934 157.624 342.444 157.438 342.792 157.066C343.14 156.682 343.368 156.184 343.476 155.572C343.584 154.948 343.638 154.18 343.638 153.268ZM348.254 150.334C348.314 149.134 348.734 148.21 349.514 147.562C350.306 146.902 351.344 146.572 352.628 146.572C353.504 146.572 354.254 146.728 354.878 147.04C355.502 147.34 355.97 147.754 356.282 148.282C356.606 148.798 356.768 149.386 356.768 150.046C356.768 150.802 356.57 151.444 356.174 151.972C355.79 152.488 355.328 152.836 354.788 153.016V153.088C355.484 153.304 356.024 153.688 356.408 154.24C356.804 154.792 357.002 155.5 357.002 156.364C357.002 157.084 356.834 157.726 356.498 158.29C356.174 158.854 355.688 159.298 355.04 159.622C354.404 159.934 353.636 160.09 352.736 160.09C351.38 160.09 350.276 159.748 349.424 159.064C348.572 158.38 348.122 157.372 348.074 156.04H350.522C350.546 156.628 350.744 157.102 351.116 157.462C351.5 157.81 352.022 157.984 352.682 157.984C353.294 157.984 353.762 157.816 354.086 157.48C354.422 157.132 354.59 156.688 354.59 156.148C354.59 155.428 354.362 154.912 353.906 154.6C353.45 154.288 352.742 154.132 351.782 154.132H351.26V152.062H351.782C353.486 152.062 354.338 151.492 354.338 150.352C354.338 149.836 354.182 149.434 353.87 149.146C353.57 148.858 353.132 148.714 352.556 148.714C351.992 148.714 351.554 148.87 351.242 149.182C350.942 149.482 350.768 149.866 350.72 150.334H348.254Z" fill="#F97F51"/>
<defs>
<filter id="filter0_d" x="0" y="0" width="468" height="368" filterUnits="userSpaceOnUse" color-interpolation-filters="sRGB">
<feFlood flood-opacity="0" result="BackgroundImageFix"/>
<feColorMatrix in="SourceAlpha" type="matrix" values="0 0 0 0 0 0 0 0 0 0 0 0 0 0 0 0 0 0 127 0"/>
<feMorphology radius="25" operator="erode" in="SourceAlpha" result="effect1_dropShadow"/>
<feOffset dy="10"/>
<feGaussianBlur stdDeviation="40"/>
<feColorMatrix type="matrix" values="0 0 0 0 0.166667 0 0 0 0 0.166667 0 0 0 0 0.166667 0 0 0 0.2 0"/>
<feBlend mode="normal" in2="BackgroundImageFix" result="effect1_dropShadow"/>
<feBlend mode="normal" in="SourceGraphic" in2="effect1_dropShadow" result="shape"/>
</filter>
<clipPath id="clip0">
<rect width="22" height="22" fill="white" transform="translate(116.5 106)"/>
</clipPath>
</defs>
</svg>
