<svg width="32" height="26" viewBox="0 0 32 26" fill="none" xmlns="http://www.w3.org/2000/svg">
<path d="M28.7503 22.9167H31.5837V25.75H0.416992V22.9167H3.25033V1.66667C3.25033 1.29094 3.39958 0.930609 3.66526 0.664932C3.93093 0.399255 4.29127 0.25 4.66699 0.25H18.8337C19.2094 0.25 19.5697 0.399255 19.8354 0.664932C20.1011 0.930609 20.2503 1.29094 20.2503 1.66667V22.9167H23.0837V8.75H27.3337C27.7094 8.75 28.0697 8.89926 28.3354 9.16493C28.6011 9.43061 28.7503 9.79094 28.7503 10.1667V22.9167ZM8.91699 11.5833V14.4167H14.5837V11.5833H8.91699ZM8.91699 5.91667V8.75H14.5837V5.91667H8.91699Z" fill="white"/>
</svg>
