<svg width="224" height="50" viewBox="0 0 224 50" fill="none" xmlns="http://www.w3.org/2000/svg">
<path d="M39.504 3.416C40.0907 3.416 40.6053 3.53067 41.048 3.76C41.496 3.98933 41.84 4.31733 42.08 4.744C42.3253 5.16533 42.448 5.656 42.448 6.216C42.448 6.776 42.3253 7.26667 42.08 7.688C41.84 8.104 41.496 8.42667 41.048 8.656C40.6053 8.88533 40.0907 9 39.504 9H37.552V3.416H39.504ZM39.464 8.048C40.0507 8.048 40.504 7.888 40.824 7.568C41.144 7.248 41.304 6.79733 41.304 6.216C41.304 5.63467 41.144 5.18133 40.824 4.856C40.504 4.52533 40.0507 4.36 39.464 4.36H38.672V8.048H39.464ZM45.6064 4.32V5.72H47.4864V6.608H45.6064V8.088H47.7264V9H44.4864V3.408H47.7264V4.32H45.6064ZM51.0642 8.112H52.9042V9H49.9442V3.416H51.0642V8.112ZM55.9361 3.416V9H54.8161V3.416H55.9361ZM63.2586 3.416L61.2106 9H59.8506L57.8026 3.416H59.0026L60.5386 7.856L62.0666 3.416H63.2586ZM66.2501 4.32V5.72H68.1301V6.608H66.2501V8.088H68.3701V9H65.1301V3.408H68.3701V4.32H66.2501ZM73.4679 9L72.2359 6.824H71.7079V9H70.5879V3.416H72.6839C73.1159 3.416 73.4839 3.49333 73.7879 3.648C74.0919 3.79733 74.3186 4.00267 74.4679 4.264C74.6226 4.52 74.6999 4.808 74.6999 5.128C74.6999 5.496 74.5933 5.82933 74.3799 6.128C74.1666 6.42133 73.8493 6.624 73.4279 6.736L74.7639 9H73.4679ZM71.7079 5.984H72.6439C72.9479 5.984 73.1746 5.912 73.3239 5.768C73.4733 5.61867 73.5479 5.41333 73.5479 5.152C73.5479 4.896 73.4733 4.69867 73.3239 4.56C73.1746 4.416 72.9479 4.344 72.6439 4.344H71.7079V5.984ZM78.0329 4.32V5.72H79.9129V6.608H78.0329V8.088H80.1529V9H76.9129V3.408H80.1529V4.32H78.0329ZM84.3227 3.416C84.9094 3.416 85.4241 3.53067 85.8667 3.76C86.3147 3.98933 86.6587 4.31733 86.8987 4.744C87.1441 5.16533 87.2667 5.656 87.2667 6.216C87.2667 6.776 87.1441 7.26667 86.8987 7.688C86.6587 8.104 86.3147 8.42667 85.8667 8.656C85.4241 8.88533 84.9094 9 84.3227 9H82.3707V3.416H84.3227ZM84.2827 8.048C84.8694 8.048 85.3227 7.888 85.6427 7.568C85.9627 7.248 86.1227 6.79733 86.1227 6.216C86.1227 5.63467 85.9627 5.18133 85.6427 4.856C85.3227 4.52533 84.8694 4.36 84.2827 4.36H83.4907V8.048H84.2827ZM98.4994 3.416V9H97.3794V5.368L95.8834 9H95.0354L93.5314 5.368V9H92.4114V3.416H93.6834L95.4594 7.568L97.2354 3.416H98.4994ZM101.927 4.32V5.72H103.807V6.608H101.927V8.088H104.047V9H100.807V3.408H104.047V4.32H101.927ZM108.193 9.056C107.803 9.056 107.451 8.98933 107.137 8.856C106.827 8.72267 106.582 8.53067 106.401 8.28C106.219 8.02933 106.126 7.73333 106.121 7.392H107.321C107.337 7.62133 107.417 7.80267 107.561 7.936C107.71 8.06933 107.913 8.136 108.169 8.136C108.43 8.136 108.635 8.07467 108.785 7.952C108.934 7.824 109.009 7.65867 109.009 7.456C109.009 7.29067 108.958 7.15467 108.857 7.048C108.755 6.94133 108.627 6.85867 108.473 6.8C108.323 6.736 108.115 6.66667 107.849 6.592C107.486 6.48533 107.19 6.38133 106.961 6.28C106.737 6.17333 106.542 6.016 106.377 5.808C106.217 5.59467 106.137 5.312 106.137 4.96C106.137 4.62933 106.219 4.34133 106.385 4.096C106.55 3.85067 106.782 3.664 107.081 3.536C107.379 3.40267 107.721 3.336 108.105 3.336C108.681 3.336 109.147 3.47733 109.505 3.76C109.867 4.03733 110.067 4.42667 110.105 4.928H108.873C108.862 4.736 108.779 4.57867 108.625 4.456C108.475 4.328 108.275 4.264 108.025 4.264C107.806 4.264 107.63 4.32 107.497 4.432C107.369 4.544 107.305 4.70667 107.305 4.92C107.305 5.06933 107.353 5.19467 107.449 5.296C107.55 5.392 107.673 5.472 107.817 5.536C107.966 5.59467 108.174 5.664 108.441 5.744C108.803 5.85067 109.099 5.95733 109.329 6.064C109.558 6.17067 109.755 6.33067 109.921 6.544C110.086 6.75733 110.169 7.03733 110.169 7.384C110.169 7.68267 110.091 7.96 109.937 8.216C109.782 8.472 109.555 8.67733 109.257 8.832C108.958 8.98133 108.603 9.056 108.193 9.056ZM114.267 9.056C113.878 9.056 113.526 8.98933 113.211 8.856C112.902 8.72267 112.657 8.53067 112.475 8.28C112.294 8.02933 112.201 7.73333 112.195 7.392H113.395C113.411 7.62133 113.491 7.80267 113.635 7.936C113.785 8.06933 113.987 8.136 114.243 8.136C114.505 8.136 114.71 8.07467 114.859 7.952C115.009 7.824 115.083 7.65867 115.083 7.456C115.083 7.29067 115.033 7.15467 114.931 7.048C114.83 6.94133 114.702 6.85867 114.547 6.8C114.398 6.736 114.19 6.66667 113.923 6.592C113.561 6.48533 113.265 6.38133 113.035 6.28C112.811 6.17333 112.617 6.016 112.451 5.808C112.291 5.59467 112.211 5.312 112.211 4.96C112.211 4.62933 112.294 4.34133 112.459 4.096C112.625 3.85067 112.857 3.664 113.155 3.536C113.454 3.40267 113.795 3.336 114.179 3.336C114.755 3.336 115.222 3.47733 115.579 3.76C115.942 4.03733 116.142 4.42667 116.179 4.928H114.947C114.937 4.736 114.854 4.57867 114.699 4.456C114.55 4.328 114.35 4.264 114.099 4.264C113.881 4.264 113.705 4.32 113.571 4.432C113.443 4.544 113.379 4.70667 113.379 4.92C113.379 5.06933 113.427 5.19467 113.523 5.296C113.625 5.392 113.747 5.472 113.891 5.536C114.041 5.59467 114.249 5.664 114.515 5.744C114.878 5.85067 115.174 5.95733 115.403 6.064C115.633 6.17067 115.83 6.33067 115.995 6.544C116.161 6.75733 116.243 7.03733 116.243 7.384C116.243 7.68267 116.166 7.96 116.011 8.216C115.857 8.472 115.63 8.67733 115.331 8.832C115.033 8.98133 114.678 9.056 114.267 9.056ZM121.839 7.936H119.615L119.247 9H118.071L120.079 3.408H121.383L123.391 9H122.207L121.839 7.936ZM121.535 7.04L120.727 4.704L119.919 7.04H121.535ZM129.229 5.096C129.101 4.86133 128.925 4.68267 128.701 4.56C128.477 4.43733 128.216 4.376 127.917 4.376C127.586 4.376 127.293 4.45067 127.037 4.6C126.781 4.74933 126.581 4.96267 126.437 5.24C126.293 5.51733 126.221 5.83733 126.221 6.2C126.221 6.57333 126.293 6.89867 126.437 7.176C126.586 7.45333 126.792 7.66667 127.053 7.816C127.314 7.96533 127.618 8.04 127.965 8.04C128.392 8.04 128.741 7.928 129.013 7.704C129.285 7.47467 129.464 7.15733 129.549 6.752H127.629V5.896H130.653V6.872C130.578 7.26133 130.418 7.62133 130.173 7.952C129.928 8.28267 129.61 8.54933 129.221 8.752C128.837 8.94933 128.405 9.048 127.925 9.048C127.386 9.048 126.898 8.928 126.461 8.688C126.029 8.44267 125.688 8.104 125.437 7.672C125.192 7.24 125.069 6.74933 125.069 6.2C125.069 5.65067 125.192 5.16 125.437 4.728C125.688 4.29067 126.029 3.952 126.461 3.712C126.898 3.46667 127.384 3.344 127.917 3.344C128.546 3.344 129.093 3.49867 129.557 3.808C130.021 4.112 130.341 4.54133 130.517 5.096H129.229ZM133.802 4.32V5.72H135.682V6.608H133.802V8.088H135.922V9H132.682V3.408H135.922V4.32H133.802ZM140.068 9.056C139.678 9.056 139.326 8.98933 139.012 8.856C138.702 8.72267 138.457 8.53067 138.276 8.28C138.094 8.02933 138.001 7.73333 137.996 7.392H139.196C139.212 7.62133 139.292 7.80267 139.436 7.936C139.585 8.06933 139.788 8.136 140.044 8.136C140.305 8.136 140.51 8.07467 140.66 7.952C140.809 7.824 140.884 7.65867 140.884 7.456C140.884 7.29067 140.833 7.15467 140.732 7.048C140.63 6.94133 140.502 6.85867 140.348 6.8C140.198 6.736 139.99 6.66667 139.724 6.592C139.361 6.48533 139.065 6.38133 138.836 6.28C138.612 6.17333 138.417 6.016 138.252 5.808C138.092 5.59467 138.012 5.312 138.012 4.96C138.012 4.62933 138.094 4.34133 138.26 4.096C138.425 3.85067 138.657 3.664 138.956 3.536C139.254 3.40267 139.596 3.336 139.98 3.336C140.556 3.336 141.022 3.47733 141.38 3.76C141.742 4.03733 141.942 4.42667 141.98 4.928H140.748C140.737 4.736 140.654 4.57867 140.5 4.456C140.35 4.328 140.15 4.264 139.9 4.264C139.681 4.264 139.505 4.32 139.372 4.432C139.244 4.544 139.18 4.70667 139.18 4.92C139.18 5.06933 139.228 5.19467 139.324 5.296C139.425 5.392 139.548 5.472 139.692 5.536C139.841 5.59467 140.049 5.664 140.316 5.744C140.678 5.85067 140.974 5.95733 141.204 6.064C141.433 6.17067 141.63 6.33067 141.796 6.544C141.961 6.75733 142.044 7.03733 142.044 7.384C142.044 7.68267 141.966 7.96 141.812 8.216C141.657 8.472 141.43 8.67733 141.132 8.832C140.833 8.98133 140.478 9.056 140.068 9.056Z" fill="#74859C"/>
<path d="M37.504 18.6V16.794H40.878V27H38.862V18.6H37.504ZM43.5703 24.788C44.4663 24.0413 45.1803 23.4207 45.7123 22.926C46.2443 22.422 46.6876 21.8993 47.0423 21.358C47.3969 20.8167 47.5743 20.2847 47.5743 19.762C47.5743 19.286 47.4623 18.9127 47.2383 18.642C47.0143 18.3713 46.6689 18.236 46.2023 18.236C45.7356 18.236 45.3763 18.3947 45.1243 18.712C44.8723 19.02 44.7416 19.4447 44.7323 19.986H42.8283C42.8656 18.866 43.1969 18.0167 43.8223 17.438C44.4569 16.8593 45.2596 16.57 46.2303 16.57C47.2943 16.57 48.1109 16.8547 48.6803 17.424C49.2496 17.984 49.5343 18.726 49.5343 19.65C49.5343 20.378 49.3383 21.0733 48.9463 21.736C48.5543 22.3987 48.1063 22.9773 47.6023 23.472C47.0983 23.9573 46.4403 24.5453 45.6283 25.236H49.7583V26.86H42.8423V25.404L43.5703 24.788ZM53.4993 24.942L51.8613 28.876H50.6013L51.5113 24.942H53.4993ZM54.856 19.482C54.9027 18.5487 55.2293 17.83 55.836 17.326C56.452 16.8127 57.2593 16.556 58.258 16.556C58.9393 16.556 59.5227 16.6773 60.008 16.92C60.4933 17.1533 60.8573 17.4753 61.1 17.886C61.352 18.2873 61.478 18.7447 61.478 19.258C61.478 19.846 61.324 20.3453 61.016 20.756C60.7173 21.1573 60.358 21.428 59.938 21.568V21.624C60.4793 21.792 60.8993 22.0907 61.198 22.52C61.506 22.9493 61.66 23.5 61.66 24.172C61.66 24.732 61.5293 25.2313 61.268 25.67C61.016 26.1087 60.638 26.454 60.134 26.706C59.6393 26.9487 59.042 27.07 58.342 27.07C57.2873 27.07 56.4287 26.804 55.766 26.272C55.1033 25.74 54.7533 24.956 54.716 23.92H56.62C56.6387 24.3773 56.7927 24.746 57.082 25.026C57.3807 25.2967 57.7867 25.432 58.3 25.432C58.776 25.432 59.14 25.3013 59.392 25.04C59.6533 24.7693 59.784 24.424 59.784 24.004C59.784 23.444 59.6067 23.0427 59.252 22.8C58.8973 22.5573 58.3467 22.436 57.6 22.436H57.194V20.826H57.6C58.9253 20.826 59.588 20.3827 59.588 19.496C59.588 19.0947 59.4667 18.782 59.224 18.558C58.9907 18.334 58.65 18.222 58.202 18.222C57.7633 18.222 57.4227 18.3433 57.18 18.586C56.9467 18.8193 56.8113 19.118 56.774 19.482H54.856ZM63.2649 25.012V23.472L67.8429 16.92H70.1249V23.304H71.3569V25.012H70.1249V27H68.1649V25.012H63.2649ZM68.2909 19.02L65.4209 23.304H68.2909V19.02ZM79.6047 18.488H75.0687V20.882C75.2647 20.6393 75.5447 20.4433 75.9087 20.294C76.2727 20.1353 76.6601 20.056 77.0707 20.056C77.8174 20.056 78.4287 20.2193 78.9047 20.546C79.3807 20.8727 79.7261 21.2927 79.9407 21.806C80.1554 22.31 80.2627 22.8513 80.2627 23.43C80.2627 24.5033 79.9547 25.3667 79.3387 26.02C78.7321 26.6733 77.8641 27 76.7347 27C75.6707 27 74.8214 26.734 74.1867 26.202C73.5521 25.67 73.1927 24.9747 73.1087 24.116H75.0127C75.0967 24.4893 75.2834 24.788 75.5727 25.012C75.8714 25.236 76.2494 25.348 76.7067 25.348C77.2574 25.348 77.6727 25.1753 77.9527 24.83C78.2327 24.4847 78.3727 24.0273 78.3727 23.458C78.3727 22.8793 78.2281 22.4407 77.9387 22.142C77.6587 21.834 77.2434 21.68 76.6927 21.68C76.3007 21.68 75.9741 21.778 75.7127 21.974C75.4514 22.17 75.2647 22.4313 75.1527 22.758H73.2767V16.766H79.6047V18.488Z" fill="#001A41"/>
<rect opacity="0.15" y="1" width="28" height="28" rx="7" fill="#32BA85"/>
<path opacity="0.4" d="M17.9508 12.4209L14.7517 14.9966C14.1463 15.4713 13.2976 15.4713 12.6922 14.9966L9.46568 12.4209" stroke="#32BA85" stroke-width="1.5" stroke-linecap="round" stroke-linejoin="round"/>
<path fill-rule="evenodd" clip-rule="evenodd" d="M10.1659 8.25H17.2368C18.2564 8.26144 19.2268 8.69245 19.922 9.44265C20.6172 10.1929 20.9766 11.1968 20.9165 12.2206V17.1165C20.9766 18.1403 20.6172 19.1442 19.922 19.8944C19.2268 20.6446 18.2564 21.0756 17.2368 21.0871H10.1659C7.97597 21.0871 6.5 19.3055 6.5 17.1165V12.2206C6.5 10.0316 7.97597 8.25 10.1659 8.25Z" stroke="#32BA85" stroke-width="1.5" stroke-linecap="round" stroke-linejoin="round"/>
<path d="M69.5 44.186C54.5 52 43.8333 45.8527 37 41.686V50H223.5V13.6859C189 -3.81411 180.5 32.6863 158.5 41.6852C146.903 46.4291 135.767 37.6806 121.5 32.6865C101.5 25.6857 83.3535 36.9693 69.5 44.186Z" fill="url(#paint0_linear)"/>
<path d="M37 41.686C43.8333 45.8527 54.5 52 69.5 44.186C83.3535 36.9693 101.5 25.6857 121.5 32.6865C135.767 37.6806 146.903 46.429 158.5 41.6852C180.5 32.6863 189 -3.81411 223.5 13.6859" stroke="#F2C94C" stroke-width="1.5"/>
<circle cx="202" cy="9" r="2.25" fill="white" stroke="#32BA85" stroke-width="1.5"/>
<rect opacity="0.6" x="204" y="39" width="19" height="5" rx="2.5" fill="#DEE5EF"/>
<defs>
<linearGradient id="paint0_linear" x1="127" y1="-5.5" x2="135" y2="42" gradientUnits="userSpaceOnUse">
<stop stop-color="#F2C94C" stop-opacity="0.6"/>
<stop offset="1" stop-color="#F2C94C" stop-opacity="0"/>
</linearGradient>
</defs>
</svg>
