<svg width="153" height="41" viewBox="0 0 153 41" fill="none" xmlns="http://www.w3.org/2000/svg">
<path fill-rule="evenodd" clip-rule="evenodd" d="M1.3206 34.1626C4.34152 29.2442 7.36245 24.1369 11.3277 19.5954C15.2921 14.8658 19.2573 10.1371 23.5994 5.78602C24.3549 5.4075 25.488 5.21863 26.2426 5.40749C27.1869 5.78602 28.1304 6.16455 28.5081 7.11046L29.0747 17.5147C29.2636 17.8932 29.6413 17.5147 29.8301 17.3258C33.6065 14.2992 35.4943 9.56967 39.6483 7.10965C41.5361 6.73112 43.235 7.29851 44.3682 8.62295L44.7459 9.3792L38.5152 35.4854C36.6266 36.6218 34.55 37.5669 32.2845 37.9455C31.7179 37.9455 30.9625 37.5669 30.5848 36.9987C30.3959 34.5403 31.1513 31.8915 31.1513 29.2434C30.7744 29.0553 30.3959 29.4331 30.019 29.6219C26.8092 32.2708 23.9771 35.864 20.9562 38.7025C19.2565 38.5129 17.7464 38.324 16.4244 37.7574C15.2921 33.9721 16.6133 30.3782 16.6133 26.4065C15.4801 26.7834 14.7247 28.1086 13.7812 29.0553C11.138 32.4588 8.8717 35.864 6.22849 39.081C4.71843 39.4596 3.58528 38.5129 2.6418 37.3773C1.88636 36.433 1.13093 35.4862 1.3206 34.1626ZM52.4875 5.40668C55.1307 3.89338 58.7182 4.8393 60.9845 6.16374C60.4179 7.29851 59.6625 8.62295 58.907 9.56887C57.397 8.81181 54.5649 8.43328 53.0541 9.56887C51.5432 10.5148 51.3543 12.2177 50.9774 13.9199C50.9774 14.677 51.544 15.6229 52.2986 16.0006C52.8652 16.568 53.9983 16.568 54.5641 16.9465L53.2429 20.919C52.6763 21.4872 51.732 21.2975 50.9774 21.2975C48.9008 21.1095 47.2011 19.5946 46.2568 17.8924C44.9356 14.2984 46.8233 10.514 49.0888 7.8659C50.0331 6.54227 51.3551 5.97488 52.4875 5.40668ZM61.5503 17.7044C62.6826 17.1362 64.1935 16.7585 65.5155 16.3799C64.76 14.2992 62.6834 12.2186 63.25 9.38001C64.9497 3.89338 70.2361 2.19123 75.5225 1.8127C79.2981 1.62384 82.1302 3.32681 84.9622 5.21863V5.40749L81.1867 9.94821C78.3546 9.38082 75.1448 7.48899 72.1239 9.00229C71.3685 9.57048 70.9916 10.3267 70.9916 11.2726C71.747 13.7319 74.2013 14.2992 76.278 14.8666C75.7114 16.9473 74.7671 19.0288 73.4459 20.7318C70.2361 20.5421 67.4041 21.4888 65.7051 24.1369C65.3274 25.082 64.3831 26.4073 65.1386 27.542C66.6486 29.0553 68.9149 27.9206 70.425 27.3524C71.5573 26.7842 72.6905 25.8391 73.257 24.5154C73.6348 24.3258 73.8236 25.082 74.0125 25.4605C74.3902 26.0287 74.7679 26.7842 75.5234 26.9738C76.8446 22.6236 78.7323 18.4606 82.5095 15.434C83.8315 14.8666 85.5304 15.0555 86.6636 15.8125C87.0405 16.0014 87.419 16.1911 87.6071 16.7585C87.0405 18.4606 86.097 19.7851 85.3416 21.488C84.5861 23.1902 83.8315 25.082 84.3965 26.9738C84.963 27.1635 85.1535 27.7309 85.7185 27.3524C89.306 24.7035 91.0057 20.5421 91.95 16.3799C92.5166 16.0014 92.7054 15.2452 93.272 15.6229C94.4035 16.3799 95.3486 17.7044 96.8595 17.8932C99.313 14.6778 102.712 12.7859 107.055 13.5422C108.565 13.9207 109.887 15.434 110.265 16.9473V17.8932C113.664 18.0821 116.497 16.5688 118.573 14.1096C120.272 13.5422 121.782 14.4881 122.915 15.2452V16.0014C121.782 18.6503 119.517 20.7318 119.138 23.7584C118.761 24.5154 119.328 25.082 120.083 25.2717C121.593 25.4597 122.915 24.325 123.671 23.1902C126.503 20.1636 127.635 16.3799 130.467 13.3525C131.601 12.974 132.733 13.5414 134.055 13.5414C134.621 13.731 135.377 13.731 135.755 14.4873L132.545 21.2975L124.237 38.324C122.538 38.8906 121.216 37.9455 119.706 37.1892L119.518 36.8107C119.518 34.1618 120.84 32.27 121.405 30.0004C120.649 30.1901 120.084 30.7575 119.139 31.1352C117.629 31.8923 115.364 32.6485 113.665 31.7034C112.532 31.1352 111.588 29.9996 111.588 28.4863C111.588 25.8374 112.91 23.7576 113.098 21.2975C112.532 21.1095 111.588 21.1095 110.643 21.2975C109.321 26.216 106.679 31.7034 101.77 33.7833C99.8812 34.5403 97.4277 33.9713 95.7272 32.6485C93.4617 29.9996 94.5956 26.216 94.5956 23.0013C94.5956 22.4331 94.406 21.488 93.6505 21.2975C93.0856 21.6761 92.8951 22.2443 92.707 22.8108C91.197 28.2967 87.231 33.5952 81.9454 35.1085C79.8687 35.4854 78.1698 34.9189 76.847 33.5952C76.0916 32.8366 75.5258 32.0819 74.9592 31.1352C71.7494 32.8374 68.7285 34.9189 64.9521 35.6759C61.9304 36.433 57.7771 36.433 55.3228 34.5411C53.6231 33.2175 52.8684 31.136 53.4342 28.6776C54.1872 23.9464 57.397 19.7851 61.5503 17.7044ZM99.5019 25.4605C99.8788 26.2176 100.067 27.1643 100.824 27.542C101.389 27.9206 102.334 27.7301 103.089 27.542C104.599 26.5953 104.976 24.5154 104.976 22.6236C103.654 22.4339 102.334 21.6769 101.389 20.5421C100.633 21.8666 99.5019 23.3799 99.5019 25.4605Z" fill="#74859C" stroke="#74859C" stroke-width="2.36754" stroke-miterlimit="2.613"/>
<path fill-rule="evenodd" clip-rule="evenodd" d="M147.27 23.7581C150.479 23.7581 152.934 21.298 152.934 18.0817C152.934 15.0551 150.479 12.4062 147.27 12.4062C144.249 12.4062 141.605 15.0551 141.605 18.0817C141.605 21.298 144.249 23.7581 147.27 23.7581ZM147.27 22.8113C145.004 22.8113 142.927 20.7314 142.927 18.0817C142.927 15.4329 145.004 13.541 147.27 13.541C149.723 13.541 151.612 15.4329 151.612 18.0817C151.612 20.7314 149.723 22.8113 147.27 22.8113ZM145.192 21.298H146.324V18.6491H147.079L148.78 21.298H149.913L148.212 18.4603C149.156 18.4603 149.913 17.8929 149.913 16.7581C149.913 15.4337 148.968 14.8663 147.458 14.8663H145.192V21.298ZM146.325 15.8122H147.458C148.024 15.8122 148.591 16.0011 148.591 16.7581C148.591 17.5144 148.024 17.704 147.269 17.704H146.324V15.8122H146.325Z" fill="#74859C"/>
</svg>
