<svg width="14" height="13" viewBox="0 0 14 13" fill="none" xmlns="http://www.w3.org/2000/svg">
<path d="M12.8271 7.734C12.2793 7.09422 12.0303 6.53979 12.0303 5.59787V5.2776C12.0303 4.05015 11.7478 3.2593 11.1336 2.46845C10.1869 1.24024 8.59328 0.5 7.03317 0.5H6.96683C5.43951 0.5 3.8958 1.20625 2.93275 2.3846C2.285 3.19132 1.96969 4.01616 1.96969 5.2776V5.59787C1.96969 6.53979 1.73713 7.09422 1.17287 7.734C0.757681 8.20534 0.625 8.81113 0.625 9.46678C0.625 10.1232 0.840419 10.7448 1.27275 11.2502C1.83701 11.856 2.63384 12.2427 3.44781 12.3099C4.62629 12.4444 5.80476 12.495 7.00037 12.495C8.19524 12.495 9.37371 12.4104 10.5529 12.3099C11.3662 12.2427 12.163 11.856 12.7273 11.2502C13.1588 10.7448 13.375 10.1232 13.375 9.46678C13.375 8.81113 13.2423 8.20534 12.8271 7.734Z" fill="white"/>
</svg>
