<svg width="133" height="138" viewBox="0 0 133 138" fill="none" xmlns="http://www.w3.org/2000/svg">
<g opacity="0.15" filter="url(#filter0_f)">
<rect x="30.0459" y="29.4756" width="72.8575" height="78.5242" rx="16.7919" fill="#001A41"/>
</g>
<rect x="26" y="23" width="80.9528" height="80.9528" rx="12.5939" fill="white"/>
<path d="M45.4204 71.4722H45.4444C45.5884 71.4722 45.6724 71.5802 45.6724 71.7242V78.1926C45.6724 78.3006 45.5884 78.4206 45.4444 78.4206C45.3364 78.4206 45.2164 78.3366 45.2164 78.1926V71.7002C45.2164 71.5802 45.3004 71.4722 45.4204 71.4722ZM39.264 71.8082H43.5003C43.6443 71.8082 43.7283 71.9522 43.7283 72.0602C43.7283 72.1682 43.6443 72.2882 43.5003 72.2882H39.492V74.9884H43.1163C43.2243 74.9884 43.3443 75.0724 43.3443 75.2164C43.3443 75.3244 43.2603 75.4444 43.1163 75.4444H39.528V78.2286C39.504 78.3726 39.384 78.4806 39.252 78.4806C39.108 78.4806 39 78.3726 39 78.2286V72.0722H39.024C39.012 71.9162 39.132 71.8082 39.264 71.8082ZM51.5648 73.8123C51.5648 73.6683 51.4568 73.5843 51.3368 73.5843C51.1928 73.5843 51.1088 73.6923 51.1088 73.8123V76.5125C51.1088 77.4365 50.3527 78.1566 49.4287 78.1326C48.4446 78.1326 47.8806 77.4965 47.8806 76.4885V73.8123C47.8806 73.6683 47.7726 73.5843 47.6525 73.5843C47.5445 73.5843 47.4245 73.6923 47.4245 73.8123V76.5725C47.4245 77.7126 48.1566 78.5526 49.3567 78.5526C50.0887 78.5766 50.7847 78.1926 51.1208 77.5445V78.2406C51.1208 78.3846 51.2288 78.4686 51.3488 78.4686C51.4928 78.4686 51.5768 78.3606 51.5768 78.2406H51.5528V73.8123H51.5648ZM55.8251 73.8483C55.8251 73.9563 55.7171 74.0403 55.597 74.0403H54.0489V77.1365C54.0489 77.8326 54.445 78.0846 55.033 78.0846C55.225 78.0846 55.429 78.0606 55.597 78.0006C55.7051 78.0006 55.7891 78.0846 55.7891 78.1926C55.7891 78.2766 55.7291 78.3606 55.645 78.3846C55.417 78.4686 55.165 78.4926 54.949 78.4926C54.217 78.4926 53.6049 78.0726 53.6049 77.1845V74.0403H53.0769C52.9689 74.0403 52.8489 73.9323 52.8489 73.8123C52.8489 73.7043 52.9569 73.6203 53.0769 73.6203H53.6049V72.2882C53.6049 72.1802 53.6889 72.0602 53.7969 72.0602H53.8209C53.9289 72.0602 54.0489 72.1682 54.0489 72.2882V73.6203H55.597C55.7171 73.6203 55.8251 73.7283 55.8251 73.8483ZM59.4253 74.0403C59.5333 74.0403 59.6533 73.9563 59.6533 73.8483C59.6533 73.7403 59.5453 73.6203 59.4253 73.6203H57.8772V72.2882C57.8772 72.1802 57.7692 72.0602 57.6492 72.0602H57.6252C57.5172 72.0602 57.4332 72.1682 57.4332 72.2882V73.6203H56.9051C56.7971 73.6203 56.6771 73.7043 56.6771 73.8123C56.6771 73.9203 56.7851 74.0403 56.9051 74.0403H57.4332V77.1845C57.4332 78.0726 58.0452 78.4926 58.7772 78.4926C59.0053 78.4926 59.2573 78.4686 59.4733 78.3846C59.5573 78.3606 59.6173 78.2766 59.6173 78.1926C59.6173 78.0846 59.5333 78.0006 59.4253 78.0006C59.2573 78.0606 59.0653 78.0846 58.8612 78.0846C58.2732 78.0846 57.8772 77.8326 57.8772 77.1365V74.0403H59.4253ZM60.4934 76.0205C60.4934 74.6044 61.4774 73.4883 62.7975 73.4883C64.1776 73.4883 65.0416 74.6044 65.0416 76.0205C65.0416 76.1285 64.9336 76.2485 64.8136 76.2485H60.9974C61.0814 77.4485 61.9574 78.1446 62.9055 78.1446C63.4935 78.1446 64.0816 77.8926 64.4776 77.4725C64.5016 77.4485 64.5616 77.4125 64.6216 77.4125C64.7296 77.4125 64.8496 77.5205 64.8496 77.6406C64.8496 77.7006 64.8256 77.7486 64.7656 77.8086C64.2856 78.3366 63.5895 78.6126 62.8815 78.5886C61.5854 78.5886 60.4934 77.5806 60.4934 76.0565V76.0205ZM66.8658 75.0124C67.1778 74.2083 67.9338 73.6203 68.7979 73.5603C68.9419 73.5603 69.0499 73.6683 69.0499 73.8363C69.0499 73.9443 68.9659 74.0883 68.8219 74.0883H68.7979C67.7538 74.1963 66.8658 74.9524 66.8658 76.5125V78.3006C66.8417 78.4446 66.7577 78.5286 66.6137 78.5286C66.5057 78.5286 66.3857 78.4206 66.3857 78.3006V73.8363C66.4097 73.6923 66.4937 73.6083 66.6377 73.6083C66.7457 73.6083 66.8658 73.7163 66.8658 73.8363V75.0124ZM76.4544 73.3083C76.1183 73.3083 75.8423 73.5363 75.7583 73.8603L74.9423 76.4525L74.1262 73.8603C74.0422 73.5243 73.7302 73.2723 73.3702 73.2723H73.2862C72.9261 73.2723 72.6141 73.5003 72.5301 73.8603L71.7141 76.4285L70.934 73.8363C70.85 73.5243 70.574 73.2843 70.238 73.2843H70.214C69.8539 73.2843 69.5659 73.5963 69.5659 73.9563C69.5659 74.0643 69.5899 74.1843 69.6259 74.2923L70.886 77.8926C70.97 78.2526 71.282 78.5046 71.666 78.5286H71.7261C72.0861 78.5286 72.3981 78.2766 72.5061 77.9166L73.3222 75.3484L74.1382 77.9166C74.2222 78.2766 74.5582 78.5286 74.9183 78.5286H74.9783C75.3743 78.5286 75.7103 78.2766 75.7943 77.8926L77.0544 74.2683C77.0784 74.1843 77.1144 74.0763 77.1144 73.9923V73.9683C77.1024 73.5963 76.8264 73.3083 76.4544 73.3083ZM78.4225 73.5603C78.9505 73.3923 79.4905 73.2843 80.0546 73.3083C80.8346 73.3083 81.3987 73.5363 81.8187 73.8963C82.2147 74.3403 82.4067 74.9284 82.3827 75.5164V77.7966C82.3827 78.1926 82.0707 78.4926 81.6867 78.4926C81.3267 78.4926 81.0146 78.2406 80.9906 77.8806C80.5946 78.3006 80.0306 78.5526 79.4425 78.5166C78.5185 78.5166 77.7024 77.9646 77.7024 76.9565C77.7024 75.8404 78.5425 75.3124 79.7546 75.3124C80.1746 75.3124 80.5946 75.3724 80.9906 75.5044V75.4204C80.9906 74.8084 80.6306 74.4964 79.8986 74.4964C79.5625 74.4964 79.2265 74.5204 78.8905 74.6404C78.8305 74.6644 78.7465 74.6644 78.6985 74.6644C78.3625 74.6884 78.0865 74.4364 78.0865 74.1123C78.0625 73.8723 78.1945 73.6443 78.4225 73.5603ZM86.703 73.7883C86.787 73.4763 87.063 73.2843 87.375 73.2843C87.7711 73.2843 88.0711 73.5963 88.0711 73.9563V73.9803C88.0711 74.0883 88.0471 74.2083 87.9871 74.3163L86.475 77.9166C86.331 78.2766 85.995 78.5046 85.6349 78.5286H85.5509C85.1549 78.5046 84.8549 78.2526 84.7349 77.8926L83.1628 74.2923C83.1028 74.1843 83.0788 74.0643 83.0788 73.9563C83.1028 73.5603 83.4148 73.2843 83.7748 73.2843C84.1108 73.2843 84.3869 73.5123 84.4709 73.8123L85.5629 76.7405L86.703 73.7883ZM88.6471 76.1285C88.7071 77.5205 89.9072 78.6126 91.3113 78.5286C91.9593 78.5286 92.5714 78.3366 93.0754 77.9166C93.2194 77.8086 93.2674 77.6646 93.2674 77.4965V77.4725C93.2674 77.1605 93.0154 76.9205 92.7034 76.9205C92.5954 76.9205 92.4514 76.9445 92.3674 77.0285C92.0553 77.2565 91.6953 77.3885 91.3233 77.3645C90.7113 77.3885 90.1712 76.9685 90.0872 76.3565H92.9794C93.3394 76.3325 93.6274 76.0205 93.5914 75.6604V75.5524C93.5914 74.2923 92.4994 73.2363 91.1553 73.2723C89.6672 73.2723 88.6231 74.4724 88.6231 75.9244V76.1285H88.6471Z" fill="#10112B"/>
<path d="M60.9639 75.7925C61.0479 74.7365 61.8039 73.9204 62.764 73.9204C63.856 73.9204 64.4441 74.8085 64.5041 75.7925H60.9639ZM81.0051 76.6326C81.0051 77.1846 80.5251 77.5206 79.8531 77.4966C79.409 77.4966 79.073 77.2686 79.073 76.8846V76.8606C79.073 76.4406 79.469 76.1646 80.0811 76.1646C80.3931 76.1646 80.7291 76.2486 81.0051 76.3566V76.6326ZM91.1698 74.4244C90.5817 74.4244 90.1857 74.8445 90.0777 75.5165H92.2378C92.1538 74.8685 91.7578 74.4244 91.1698 74.4244Z" fill="white"/>
<path d="M70.9456 47.1708C80.3518 45.716 74.3254 53.9662 71.4105 56.2866C73.4134 57.8703 75.4699 60.0986 76.3461 62.6215C77.9735 67.2438 73.9678 67.9252 70.9456 66.765C67.6373 65.568 64.7225 63.0082 62.7911 60.0065C62.2547 60.0065 61.6645 59.9144 61.1102 59.7487C62.201 62.9162 62.666 66.1573 62.362 68.8092C62.362 63.4686 59.8942 58.1649 56.3355 53.7452C55.0838 52.1983 56.3713 51.0565 57.4979 52.5482C58.2669 53.6347 58.9643 54.7581 59.5902 55.9182C60.8241 51.5722 66.8326 47.7785 70.9456 47.1708ZM69.6044 55.0343C71.4463 53.8741 77.0436 47.6865 71.8218 48.2389C68.8176 48.5888 65.1695 51.4432 63.6674 53.2848C65.7597 53.027 67.8877 53.9662 69.6044 55.0343ZM64.4185 59.8408C66.0994 61.7744 68.3884 63.6528 70.8562 64.3342C72.2868 64.7209 73.8605 64.5552 73.2882 62.4558C72.6981 60.5221 71.196 58.8279 69.7296 57.5388C69.3183 57.8335 68.8533 58.1465 68.3884 58.3491C67.1366 59.0673 65.7954 59.5829 64.4185 59.8408Z" fill="#EBA12A"/>
<path d="M63.4011 54.2856C64.8611 54.1396 66.4305 55.0152 67.6349 55.8907C66.4852 56.5161 65.2078 56.9122 63.8756 56.9955C61.923 57.0164 61.5215 54.494 63.4011 54.2856Z" fill="white"/>
<defs>
<filter id="filter0_f" x="0.660017" y="0.0897045" width="131.629" height="137.296" filterUnits="userSpaceOnUse" color-interpolation-filters="sRGB">
<feFlood flood-opacity="0" result="BackgroundImageFix"/>
<feBlend mode="normal" in="SourceGraphic" in2="BackgroundImageFix" result="shape"/>
<feGaussianBlur stdDeviation="14.6929" result="effect1_foregroundBlur"/>
</filter>
</defs>
</svg>
