<svg width="798" height="397" viewBox="0 0 798 397" fill="none" xmlns="http://www.w3.org/2000/svg">
<g filter="url(#filter0_d)">
<rect x="385" y="45" width="358" height="258" rx="20" fill="white"/>
</g>
<rect opacity="0.2" x="418" y="111" width="282" height="120" rx="12" fill="#CBD7EA"/>
<rect x="443" y="132" width="222" height="6" rx="2" fill="#CBD7EA"/>
<rect x="443" y="150" width="153" height="6" rx="2" fill="#CBD7EA"/>
<rect x="443" y="168" width="211" height="6" rx="2" fill="#CBD7EA"/>
<rect x="443" y="186" width="196" height="6" rx="2" fill="#CBD7EA"/>
<rect x="443" y="204" width="231" height="6" rx="2" fill="#CBD7EA"/>
<rect x="603" y="249" width="97" height="30" rx="10" fill="#32BA85"/>
<rect x="620" y="261" width="63" height="6" rx="2" fill="#1CA871"/>
<path d="M424 82.624V83.98H420.508V86.128H423.184V87.46H420.508V91H418.828V82.624H424ZM428.263 91.108C427.623 91.108 427.047 90.968 426.535 90.688C426.023 90.4 425.619 89.996 425.323 89.476C425.035 88.956 424.891 88.356 424.891 87.676C424.891 86.996 425.039 86.396 425.335 85.876C425.639 85.356 426.051 84.956 426.571 84.676C427.091 84.388 427.671 84.244 428.311 84.244C428.951 84.244 429.531 84.388 430.051 84.676C430.571 84.956 430.979 85.356 431.275 85.876C431.579 86.396 431.731 86.996 431.731 87.676C431.731 88.356 431.575 88.956 431.263 89.476C430.959 89.996 430.543 90.4 430.015 90.688C429.495 90.968 428.911 91.108 428.263 91.108ZM428.263 89.644C428.567 89.644 428.851 89.572 429.115 89.428C429.387 89.276 429.603 89.052 429.763 88.756C429.923 88.46 430.003 88.1 430.003 87.676C430.003 87.044 429.835 86.56 429.499 86.224C429.171 85.88 428.767 85.708 428.287 85.708C427.807 85.708 427.403 85.88 427.075 86.224C426.755 86.56 426.595 87.044 426.595 87.676C426.595 88.308 426.751 88.796 427.063 89.14C427.383 89.476 427.783 89.644 428.263 89.644ZM434.764 82.12V91H433.084V82.12H434.764ZM438.223 82.12V91H436.543V82.12H438.223ZM442.955 91.108C442.315 91.108 441.739 90.968 441.227 90.688C440.715 90.4 440.311 89.996 440.015 89.476C439.727 88.956 439.583 88.356 439.583 87.676C439.583 86.996 439.731 86.396 440.027 85.876C440.331 85.356 440.743 84.956 441.263 84.676C441.783 84.388 442.363 84.244 443.003 84.244C443.643 84.244 444.223 84.388 444.743 84.676C445.263 84.956 445.671 85.356 445.967 85.876C446.271 86.396 446.423 86.996 446.423 87.676C446.423 88.356 446.267 88.956 445.955 89.476C445.651 89.996 445.235 90.4 444.707 90.688C444.187 90.968 443.603 91.108 442.955 91.108ZM442.955 89.644C443.259 89.644 443.543 89.572 443.807 89.428C444.079 89.276 444.295 89.052 444.455 88.756C444.615 88.46 444.695 88.1 444.695 87.676C444.695 87.044 444.527 86.56 444.191 86.224C443.863 85.88 443.459 85.708 442.979 85.708C442.499 85.708 442.095 85.88 441.767 86.224C441.447 86.56 441.287 87.044 441.287 87.676C441.287 88.308 441.443 88.796 441.755 89.14C442.075 89.476 442.475 89.644 442.955 89.644ZM456.992 84.352L455.048 91H453.236L452.024 86.356L450.812 91H448.988L447.032 84.352H448.736L449.912 89.416L451.184 84.352H452.96L454.208 89.404L455.384 84.352H456.992ZM462.656 82.624V87.808C462.656 88.376 462.804 88.812 463.1 89.116C463.396 89.412 463.812 89.56 464.348 89.56C464.892 89.56 465.312 89.412 465.608 89.116C465.904 88.812 466.052 88.376 466.052 87.808V82.624H467.744V87.796C467.744 88.508 467.588 89.112 467.276 89.608C466.972 90.096 466.56 90.464 466.04 90.712C465.528 90.96 464.956 91.084 464.324 91.084C463.7 91.084 463.132 90.96 462.62 90.712C462.116 90.464 461.716 90.096 461.42 89.608C461.124 89.112 460.976 88.508 460.976 87.796V82.624H462.656ZM471.167 85.312C471.383 85.008 471.679 84.756 472.055 84.556C472.439 84.348 472.875 84.244 473.363 84.244C473.931 84.244 474.443 84.384 474.899 84.664C475.363 84.944 475.727 85.344 475.991 85.864C476.263 86.376 476.399 86.972 476.399 87.652C476.399 88.332 476.263 88.936 475.991 89.464C475.727 89.984 475.363 90.388 474.899 90.676C474.443 90.964 473.931 91.108 473.363 91.108C472.875 91.108 472.443 91.008 472.067 90.808C471.699 90.608 471.399 90.356 471.167 90.052V94.168H469.487V84.352H471.167V85.312ZM474.683 87.652C474.683 87.252 474.599 86.908 474.431 86.62C474.271 86.324 474.055 86.1 473.783 85.948C473.519 85.796 473.231 85.72 472.919 85.72C472.615 85.72 472.327 85.8 472.055 85.96C471.791 86.112 471.575 86.336 471.407 86.632C471.247 86.928 471.167 87.276 471.167 87.676C471.167 88.076 471.247 88.424 471.407 88.72C471.575 89.016 471.791 89.244 472.055 89.404C472.327 89.556 472.615 89.632 472.919 89.632C473.231 89.632 473.519 89.552 473.783 89.392C474.055 89.232 474.271 89.004 474.431 88.708C474.599 88.412 474.683 88.06 474.683 87.652Z" fill="#0C56C2"/>
<path d="M421.255 71.494C421.53 71.5453 421.757 71.683 421.934 71.907C422.111 72.131 422.2 72.3877 422.2 72.677C422.2 72.9383 422.135 73.1693 422.004 73.37C421.878 73.566 421.694 73.72 421.451 73.832C421.208 73.944 420.921 74 420.59 74H418.483V69.114H420.499C420.83 69.114 421.115 69.1677 421.353 69.275C421.596 69.3823 421.778 69.5317 421.899 69.723C422.025 69.9143 422.088 70.1313 422.088 70.374C422.088 70.6587 422.011 70.8967 421.857 71.088C421.708 71.2793 421.507 71.4147 421.255 71.494ZM419.463 71.13H420.359C420.592 71.13 420.772 71.0787 420.898 70.976C421.024 70.8687 421.087 70.717 421.087 70.521C421.087 70.325 421.024 70.1733 420.898 70.066C420.772 69.9587 420.592 69.905 420.359 69.905H419.463V71.13ZM420.45 73.202C420.688 73.202 420.872 73.146 421.003 73.034C421.138 72.922 421.206 72.7633 421.206 72.558C421.206 72.348 421.136 72.1847 420.996 72.068C420.856 71.9467 420.667 71.886 420.429 71.886H419.463V73.202H420.45ZM426.201 74L425.123 72.096H424.661V74H423.681V69.114H425.515C425.893 69.114 426.215 69.1817 426.481 69.317C426.747 69.4477 426.945 69.6273 427.076 69.856C427.211 70.08 427.279 70.332 427.279 70.612C427.279 70.934 427.186 71.2257 426.999 71.487C426.812 71.7437 426.535 71.921 426.166 72.019L427.335 74H426.201ZM424.661 71.361H425.48C425.746 71.361 425.944 71.298 426.075 71.172C426.206 71.0413 426.271 70.8617 426.271 70.633C426.271 70.409 426.206 70.2363 426.075 70.115C425.944 69.989 425.746 69.926 425.48 69.926H424.661V71.361ZM431.133 74.049C430.676 74.049 430.256 73.9417 429.873 73.727C429.491 73.5123 429.187 73.216 428.963 72.838C428.739 72.4553 428.627 72.0237 428.627 71.543C428.627 71.067 428.739 70.64 428.963 70.262C429.187 69.8793 429.491 69.5807 429.873 69.366C430.256 69.1513 430.676 69.044 431.133 69.044C431.595 69.044 432.015 69.1513 432.393 69.366C432.776 69.5807 433.077 69.8793 433.296 70.262C433.52 70.64 433.632 71.067 433.632 71.543C433.632 72.0237 433.52 72.4553 433.296 72.838C433.077 73.216 432.776 73.5123 432.393 73.727C432.011 73.9417 431.591 74.049 431.133 74.049ZM431.133 73.174C431.427 73.174 431.686 73.1087 431.91 72.978C432.134 72.8427 432.309 72.6513 432.435 72.404C432.561 72.1567 432.624 71.8697 432.624 71.543C432.624 71.2163 432.561 70.9317 432.435 70.689C432.309 70.4417 432.134 70.2527 431.91 70.122C431.686 69.9913 431.427 69.926 431.133 69.926C430.839 69.926 430.578 69.9913 430.349 70.122C430.125 70.2527 429.95 70.4417 429.824 70.689C429.698 70.9317 429.635 71.2163 429.635 71.543C429.635 71.8697 429.698 72.1567 429.824 72.404C429.95 72.6513 430.125 72.8427 430.349 72.978C430.578 73.1087 430.839 73.174 431.133 73.174ZM438.058 73.069H436.112L435.79 74H434.761L436.518 69.107H437.659L439.416 74H438.38L438.058 73.069ZM437.792 72.285L437.085 70.241L436.378 72.285H437.792ZM442.48 69.114C442.994 69.114 443.444 69.2143 443.831 69.415C444.223 69.6157 444.524 69.9027 444.734 70.276C444.949 70.6447 445.056 71.074 445.056 71.564C445.056 72.054 444.949 72.4833 444.734 72.852C444.524 73.216 444.223 73.4983 443.831 73.699C443.444 73.8997 442.994 74 442.48 74H440.772V69.114H442.48ZM442.445 73.167C442.959 73.167 443.355 73.027 443.635 72.747C443.915 72.467 444.055 72.0727 444.055 71.564C444.055 71.0553 443.915 70.6587 443.635 70.374C443.355 70.0847 442.959 69.94 442.445 69.94H441.752V73.167H442.445ZM446.252 71.55C446.252 71.0693 446.359 70.64 446.574 70.262C446.793 69.8793 447.09 69.583 447.463 69.373C447.841 69.1583 448.263 69.051 448.73 69.051C449.276 69.051 449.754 69.191 450.165 69.471C450.576 69.751 450.863 70.1383 451.026 70.633H449.899C449.787 70.3997 449.628 70.2247 449.423 70.108C449.222 69.9913 448.989 69.933 448.723 69.933C448.438 69.933 448.184 70.0007 447.96 70.136C447.741 70.2667 447.568 70.4533 447.442 70.696C447.321 70.9387 447.26 71.2233 447.26 71.55C447.26 71.872 447.321 72.1567 447.442 72.404C447.568 72.6467 447.741 72.8357 447.96 72.971C448.184 73.1017 448.438 73.167 448.723 73.167C448.989 73.167 449.222 73.1087 449.423 72.992C449.628 72.8707 449.787 72.6933 449.899 72.46H451.026C450.863 72.9593 450.576 73.349 450.165 73.629C449.759 73.9043 449.281 74.042 448.73 74.042C448.263 74.042 447.841 73.937 447.463 73.727C447.09 73.5123 446.793 73.216 446.574 72.838C446.359 72.46 446.252 72.0307 446.252 71.55ZM455.559 73.069H453.613L453.291 74H452.262L454.019 69.107H455.16L456.917 74H455.881L455.559 73.069ZM455.293 72.285L454.586 70.241L453.879 72.285H455.293ZM459.961 74.049C459.62 74.049 459.312 73.9907 459.037 73.874C458.766 73.7573 458.551 73.5893 458.393 73.37C458.234 73.1507 458.152 72.8917 458.148 72.593H459.198C459.212 72.7937 459.282 72.9523 459.408 73.069C459.538 73.1857 459.716 73.244 459.94 73.244C460.168 73.244 460.348 73.1903 460.479 73.083C460.609 72.971 460.675 72.8263 460.675 72.649C460.675 72.5043 460.63 72.3853 460.542 72.292C460.453 72.1987 460.341 72.1263 460.206 72.075C460.075 72.019 459.893 71.9583 459.66 71.893C459.342 71.7997 459.083 71.7087 458.883 71.62C458.687 71.5267 458.516 71.389 458.372 71.207C458.232 71.0203 458.162 70.773 458.162 70.465C458.162 70.1757 458.234 69.9237 458.379 69.709C458.523 69.4943 458.726 69.331 458.988 69.219C459.249 69.1023 459.548 69.044 459.884 69.044C460.388 69.044 460.796 69.1677 461.109 69.415C461.426 69.6577 461.601 69.9983 461.634 70.437H460.556C460.546 70.269 460.474 70.1313 460.339 70.024C460.208 69.912 460.033 69.856 459.814 69.856C459.622 69.856 459.468 69.905 459.352 70.003C459.24 70.101 459.184 70.2433 459.184 70.43C459.184 70.5607 459.226 70.6703 459.31 70.759C459.398 70.843 459.506 70.913 459.632 70.969C459.762 71.0203 459.944 71.081 460.178 71.151C460.495 71.2443 460.754 71.3377 460.955 71.431C461.155 71.5243 461.328 71.6643 461.473 71.851C461.617 72.0377 461.69 72.2827 461.69 72.586C461.69 72.8473 461.622 73.09 461.487 73.314C461.351 73.538 461.153 73.7177 460.892 73.853C460.63 73.9837 460.32 74.049 459.961 74.049ZM466.564 69.114V69.905H465.262V74H464.282V69.905H462.98V69.114H466.564Z" fill="#74859C"/>
<rect x="111" y="312" width="492" height="85" fill="url(#paint0_linear)"/>
<rect y="271" width="506" height="65" fill="url(#paint1_linear)"/>
<defs>
<filter id="filter0_d" x="330" y="0" width="468" height="368" filterUnits="userSpaceOnUse" color-interpolation-filters="sRGB">
<feFlood flood-opacity="0" result="BackgroundImageFix"/>
<feColorMatrix in="SourceAlpha" type="matrix" values="0 0 0 0 0 0 0 0 0 0 0 0 0 0 0 0 0 0 127 0"/>
<feMorphology radius="25" operator="erode" in="SourceAlpha" result="effect1_dropShadow"/>
<feOffset dy="10"/>
<feGaussianBlur stdDeviation="40"/>
<feColorMatrix type="matrix" values="0 0 0 0 0.166667 0 0 0 0 0.166667 0 0 0 0 0.166667 0 0 0 0.2 0"/>
<feBlend mode="normal" in2="BackgroundImageFix" result="effect1_dropShadow"/>
<feBlend mode="normal" in="SourceGraphic" in2="effect1_dropShadow" result="shape"/>
</filter>
<linearGradient id="paint0_linear" x1="845" y1="354.5" x2="233.006" y2="329.682" gradientUnits="userSpaceOnUse">
<stop stop-color="#5F27CD"/>
<stop offset="0.761827" stop-color="#5F27CD" stop-opacity="0"/>
</linearGradient>
<linearGradient id="paint1_linear" x1="703" y1="299.93" x2="170.32" y2="263.844" gradientUnits="userSpaceOnUse">
<stop stop-color="#5F27CD"/>
<stop offset="0.772561" stop-color="#F368E0" stop-opacity="0"/>
</linearGradient>
</defs>
</svg>
