<svg width="121" height="60" viewBox="0 0 121 60" fill="none" xmlns="http://www.w3.org/2000/svg">
<path fill-rule="evenodd" clip-rule="evenodd" d="M120.978 47.1976C120.978 45.3393 119.98 43.98 119.346 43.4358C118.711 42.8922 118.259 41.8496 111.098 41.8496C103.938 41.8496 103.393 42.8915 102.759 43.4358C102.124 43.98 101.127 45.2941 101.127 47.1523V53.8589C101.127 55.7172 102.124 57.0326 102.759 57.5755C103.393 58.1197 103.938 59.1623 111.098 59.1623C118.26 59.1623 118.711 58.1204 119.346 57.5755C119.98 57.0326 120.978 55.7172 120.978 53.8589V49.2821H111.097V52.2734H115.266V52.9155C115.266 53.5385 115.019 54.1361 114.578 54.5767C114.138 55.0173 113.54 55.2648 112.917 55.2648H109.187C108.878 55.2647 108.573 55.2038 108.288 55.0857C108.003 54.9676 107.744 54.7946 107.526 54.5764C107.308 54.3582 107.135 54.0993 107.017 53.8143C106.899 53.5293 106.838 53.2239 106.839 52.9155V48.0958C106.838 47.7874 106.899 47.4819 107.017 47.1969C107.135 46.912 107.308 46.653 107.526 46.4348C107.744 46.2167 108.003 46.0436 108.288 45.9255C108.573 45.8074 108.878 45.7466 109.187 45.7465H112.917C113.89 45.7465 114.725 46.3373 115.081 47.1796L120.978 47.1976ZM22.1748 45.2029L29.2453 52.8163L40.3045 46.4717V45.163C40.3045 43.4331 38.9019 42.0306 37.1721 42.0306H7.17878C6.34802 42.0306 5.55128 42.3606 4.96384 42.948C4.37641 43.5355 4.04639 44.3322 4.04639 45.163V46.4717L15.1056 52.8163L22.1748 45.2029Z" fill="url(#paint0_linear)"/>
<path fill-rule="evenodd" clip-rule="evenodd" d="M33.143 56.3532L40.304 47.1982V55.8489C40.304 57.5788 38.9014 58.9806 37.1716 58.9806H7.17829C6.76697 58.9807 6.35966 58.8998 5.97963 58.7424C5.59959 58.5851 5.25428 58.3544 4.9634 58.0636C4.67252 57.7728 4.44178 57.4275 4.28435 57.0475C4.12693 56.6675 4.0459 56.2602 4.0459 55.8489V47.1982L11.2069 56.3532H33.143ZM76.3804 42.0312V58.982H81.9093V45.3852L88.2546 58.982H98.226V42.0312H92.6964V55.7178L86.26 42.0312H76.3804ZM65.276 42.0312H58.5687L51.8608 49.2827H50.6373V42.0312H45.1077V58.982H50.6373V52.2741H52.3598L58.6592 58.982H65.5474L57.5262 50.3706L65.276 42.0312ZM72.6638 58.982V42.0312H67.1343V58.982H72.6638Z" fill="url(#paint1_linear)"/>
<path d="M73.1491 8.40044C71.2172 8.40044 69.6997 8.80736 68.1814 9.61962C68.1814 5.28363 68.1814 1.35456 68.3201 0L59.0724 1.62531V2.43836L60.0384 2.57374C61.2793 2.84449 61.6954 3.52138 61.9688 5.14826C62.2469 8.40044 62.1074 25.7452 61.9688 28.5912C64.453 29.1335 67.076 29.5405 69.6989 29.5405C77.0138 29.5405 81.43 25.0683 81.43 18.0216C81.43 12.4665 77.8419 8.40044 73.1491 8.40044ZM69.9747 28.049C69.4223 28.049 68.7313 28.049 68.3185 27.9144C68.1798 26.0175 68.0427 18.0216 68.1798 10.9757C69.0079 10.7042 69.5594 10.5688 70.2504 10.5688C73.2886 10.5688 74.9448 14.0918 74.9448 18.427C74.944 23.8491 72.8734 28.049 69.9747 28.049ZM24.2911 0.54151H0V1.76069L1.38041 1.89607C3.17368 2.16682 3.86468 3.25062 4.13965 5.82514C4.55489 10.7034 4.41621 19.5124 4.13965 23.7114C3.86388 26.2867 3.17447 27.5067 1.38041 27.6405L0 27.9128V28.9966H15.5958V27.9128L13.9396 27.6405C12.1456 27.5059 11.4554 26.2867 11.1796 23.7114C11.0409 21.9491 10.903 19.1031 10.903 15.5809L14.2154 15.7163C16.286 15.7163 17.2512 17.3424 17.6656 19.6454H18.9082V10.0273H17.6656C17.2504 12.3311 16.286 13.9564 14.2154 13.9564L10.9038 14.0926C10.9038 9.48503 11.0417 5.14904 11.1804 2.57452H16.0102C19.7378 2.57452 21.6698 4.8775 23.0494 8.94352L24.4298 8.5366L24.2911 0.54151Z" fill="url(#paint2_linear)"/>
<path d="M32.1582 8.12896C39.0595 8.12896 42.5097 12.7365 42.5097 18.8339C42.5097 24.6606 38.645 29.5405 31.7438 29.5405C24.8433 29.5405 21.3931 24.9322 21.3931 18.8339C21.3931 13.0072 25.2569 8.12896 32.1582 8.12896ZM31.7438 9.4843C28.7072 9.4843 27.8791 13.5495 27.8791 18.8339C27.8791 23.983 29.2595 28.1836 32.0203 28.1836C35.1924 28.1836 36.0221 24.1184 36.0221 18.8339C36.0221 13.6849 34.6433 9.4843 31.7438 9.4843ZM83.2231 18.9701C83.2231 13.4142 86.8112 8.12896 93.8504 8.12896C99.6454 8.12896 102.407 12.3304 102.407 17.8855H89.5713C89.4326 22.8992 91.9168 26.5583 96.8862 26.5583C99.0947 26.5583 100.199 26.0175 101.58 25.0683L102.13 25.7452C100.75 27.6421 97.7142 29.5405 93.8504 29.5405C87.6393 29.5397 83.2231 25.2037 83.2231 18.9701ZM89.5713 16.3956L96.0581 16.2594C96.0581 13.5495 95.6436 9.4843 93.298 9.4843C90.9525 9.4843 89.7083 13.278 89.5713 16.3956ZM118.833 9.21354C117.177 8.53509 114.969 8.12896 112.485 8.12896C107.38 8.12896 104.203 11.1096 104.203 14.6333C104.203 18.1571 106.547 19.647 109.864 20.7316C113.313 21.95 114.28 22.8992 114.28 24.5253C114.28 26.1514 113.037 27.6413 110.829 27.6413C108.208 27.6413 106.274 26.1514 104.757 22.0853L103.79 22.3577L103.928 28.3197C105.585 28.9966 108.62 29.5397 111.243 29.5397C116.626 29.5397 120.077 26.8282 120.077 22.6284C120.077 19.7824 118.558 18.1571 114.97 16.8009C111.105 15.311 109.726 14.3626 109.726 12.6003C109.726 10.8389 110.97 9.61889 112.626 9.61889C115.109 9.61889 116.765 11.1096 118.009 14.7687L118.974 14.498L118.833 9.21354ZM60.4511 8.67125C58.1055 7.31748 53.9643 7.99358 51.7566 12.8726L51.8936 8.12974L42.6476 9.89121V10.7043L43.6136 10.8396C44.8569 10.9758 45.4076 11.6527 45.5463 13.4149C45.8221 16.6671 45.6842 22.3592 45.5463 25.2045C45.4076 26.829 44.8569 27.6421 43.6136 27.7782L42.6476 27.9144V28.9982H55.4826V27.9144L53.8264 27.7782C52.4468 27.6421 52.0323 26.829 51.8936 25.2045C51.6179 22.6292 51.6179 17.4802 51.7566 14.228C52.446 13.2788 55.4826 12.4665 58.2426 14.228L60.4511 8.67125Z" fill="url(#paint3_linear)"/>
<defs>
<linearGradient id="paint0_linear" x1="62.512" y1="41.8496" x2="62.512" y2="59.1623" gradientUnits="userSpaceOnUse">
<stop stop-color="white"/>
<stop offset="1" stop-color="white" stop-opacity="0.12"/>
</linearGradient>
<linearGradient id="paint1_linear" x1="51.136" y1="42.0312" x2="51.136" y2="58.982" gradientUnits="userSpaceOnUse">
<stop stop-color="white"/>
<stop offset="1" stop-color="white" stop-opacity="0.12"/>
</linearGradient>
<linearGradient id="paint2_linear" x1="40.715" y1="0" x2="40.715" y2="29.5405" gradientUnits="userSpaceOnUse">
<stop stop-color="white" stop-opacity="0"/>
<stop offset="0.9999" stop-color="white" stop-opacity="0.473958"/>
<stop offset="1" stop-color="white"/>
</linearGradient>
<linearGradient id="paint3_linear" x1="70.7352" y1="8.05859" x2="70.7352" y2="29.5405" gradientUnits="userSpaceOnUse">
<stop stop-color="white" stop-opacity="0"/>
<stop offset="0.9999" stop-color="white" stop-opacity="0.473958"/>
<stop offset="1" stop-color="white"/>
</linearGradient>
</defs>
</svg>
