<svg width="158" height="44" viewBox="0 0 158 44" fill="none" xmlns="http://www.w3.org/2000/svg">
<circle cx="19.1877" cy="19.1877" r="19.1877" fill="url(#paint0_linear)"/>
<circle cx="19.1881" cy="33.5782" r="9.59385" fill="url(#paint1_linear)"/>
<path d="M53.9845 14.3426V19.3794H60.7482V22.5741H53.9845V27.8987H61.6116V31.1798H49.9551V11.0615H61.6116V14.3426H53.9845Z" fill="white"/>
<path d="M74.1093 15.0046C76.0089 15.0046 77.5439 15.609 78.7144 16.8178C79.8848 18.0075 80.47 19.6768 80.47 21.8258V31.1798H76.4406V22.3727C76.4406 21.1063 76.124 20.1373 75.4908 19.4657C74.8576 18.775 73.9942 18.4296 72.9005 18.4296C71.7876 18.4296 70.905 18.775 70.2526 19.4657C69.6194 20.1373 69.3028 21.1063 69.3028 22.3727V31.1798H65.2734V15.2348H69.3028V17.2208C69.8401 16.53 70.5212 15.9928 71.3463 15.609C72.1905 15.2061 73.1116 15.0046 74.1093 15.0046Z" fill="white"/>
<path d="M90.5474 14.9758C91.737 14.9758 92.7828 15.2157 93.6846 15.6954C94.5864 16.1559 95.2963 16.7603 95.8144 17.5086V15.2348H99.8726V31.2949C99.8726 32.7724 99.5752 34.0868 98.9804 35.238C98.3856 36.4085 97.4933 37.3295 96.3037 38.001C95.1141 38.6918 93.675 39.0372 91.9865 39.0372C89.7223 39.0372 87.8611 38.5095 86.4029 37.4542C84.9638 36.3989 84.1483 34.9598 83.9564 33.137H87.9571C88.1681 33.8661 88.619 34.4417 89.3098 34.8639C90.0197 35.3052 90.8736 35.5258 91.8714 35.5258C93.0418 35.5258 93.9916 35.1709 94.7207 34.4609C95.4499 33.7702 95.8144 32.7148 95.8144 31.2949V28.8197C95.2963 29.5681 94.5768 30.1917 93.6558 30.6905C92.754 31.1894 91.7178 31.4389 90.5474 31.4389C89.2043 31.4389 87.9762 31.0935 86.8634 30.4027C85.7505 29.712 84.8678 28.743 84.2155 27.4958C83.5823 26.2294 83.2657 24.7807 83.2657 23.1498C83.2657 21.538 83.5823 20.1085 84.2155 18.8613C84.8678 17.6141 85.7409 16.6547 86.8346 15.9832C87.9475 15.3116 89.1851 14.9758 90.5474 14.9758ZM95.8144 23.2073C95.8144 22.2288 95.6225 21.3941 95.2388 20.7033C94.855 19.9934 94.337 19.4561 93.6846 19.0916C93.0322 18.7078 92.3318 18.5159 91.5835 18.5159C90.8352 18.5159 90.1445 18.6982 89.5113 19.0628C88.8781 19.4274 88.36 19.9646 87.9571 20.6746C87.5733 21.3653 87.3814 22.1904 87.3814 23.1498C87.3814 24.1092 87.5733 24.9534 87.9571 25.6825C88.36 26.3925 88.8781 26.9393 89.5113 27.3231C90.1636 27.7068 90.8544 27.8987 91.5835 27.8987C92.3318 27.8987 93.0322 27.7164 93.6846 27.3519C94.337 26.9681 94.855 26.4309 95.2388 25.7401C95.6225 25.0302 95.8144 24.1859 95.8144 23.2073Z" fill="white"/>
<path d="M102.772 23.1498C102.772 21.538 103.089 20.1085 103.722 18.8613C104.374 17.6141 105.247 16.6547 106.341 15.9832C107.454 15.3116 108.691 14.9758 110.054 14.9758C111.243 14.9758 112.279 15.2157 113.162 15.6954C114.064 16.175 114.783 16.7795 115.321 17.5086V15.2348H119.379V31.1798H115.321V28.8485C114.803 29.5968 114.083 30.2204 113.162 30.7193C112.26 31.199 111.214 31.4389 110.025 31.4389C108.682 31.4389 107.454 31.0935 106.341 30.4027C105.247 29.712 104.374 28.743 103.722 27.4958C103.089 26.2294 102.772 24.7807 102.772 23.1498ZM115.321 23.2073C115.321 22.2288 115.129 21.3941 114.745 20.7033C114.361 19.9934 113.843 19.4561 113.191 19.0916C112.538 18.7078 111.838 18.5159 111.09 18.5159C110.341 18.5159 109.651 18.6982 109.018 19.0628C108.384 19.4274 107.866 19.9646 107.463 20.6746C107.08 21.3653 106.888 22.1904 106.888 23.1498C106.888 24.1092 107.08 24.9534 107.463 25.6825C107.866 26.3925 108.384 26.9393 109.018 27.3231C109.67 27.7068 110.361 27.8987 111.09 27.8987C111.838 27.8987 112.538 27.7164 113.191 27.3519C113.843 26.9681 114.361 26.4309 114.745 25.7401C115.129 25.0302 115.321 24.1859 115.321 23.2073Z" fill="white"/>
<path d="M129.56 14.9758C130.75 14.9758 131.795 15.2157 132.697 15.6954C133.599 16.1559 134.309 16.7603 134.827 17.5086V15.2348H138.885V31.2949C138.885 32.7724 138.588 34.0868 137.993 35.238C137.398 36.4085 136.506 37.3295 135.316 38.001C134.127 38.6918 132.687 39.0372 130.999 39.0372C128.735 39.0372 126.874 38.5095 125.415 37.4542C123.976 36.3989 123.161 34.9598 122.969 33.137H126.97C127.181 33.8661 127.632 34.4417 128.322 34.8639C129.032 35.3052 129.886 35.5258 130.884 35.5258C132.054 35.5258 133.004 35.1709 133.733 34.4609C134.462 33.7702 134.827 32.7148 134.827 31.2949V28.8197C134.309 29.5681 133.589 30.1917 132.668 30.6905C131.766 31.1894 130.73 31.4389 129.56 31.4389C128.217 31.4389 126.989 31.0935 125.876 30.4027C124.763 29.712 123.88 28.743 123.228 27.4958C122.595 26.2294 122.278 24.7807 122.278 23.1498C122.278 21.538 122.595 20.1085 123.228 18.8613C123.88 17.6141 124.753 16.6547 125.847 15.9832C126.96 15.3116 128.198 14.9758 129.56 14.9758ZM134.827 23.2073C134.827 22.2288 134.635 21.3941 134.251 20.7033C133.868 19.9934 133.349 19.4561 132.697 19.0916C132.045 18.7078 131.344 18.5159 130.596 18.5159C129.848 18.5159 129.157 18.6982 128.524 19.0628C127.891 19.4274 127.372 19.9646 126.97 20.6746C126.586 21.3653 126.394 22.1904 126.394 23.1498C126.394 24.1092 126.586 24.9534 126.97 25.6825C127.372 26.3925 127.891 26.9393 128.524 27.3231C129.176 27.7068 129.867 27.8987 130.596 27.8987C131.344 27.8987 132.045 27.7164 132.697 27.3519C133.349 26.9681 133.868 26.4309 134.251 25.7401C134.635 25.0302 134.827 24.1859 134.827 23.2073Z" fill="white"/>
<path d="M157.643 22.862C157.643 23.4376 157.605 23.9557 157.528 24.4162H145.871C145.967 25.5674 146.37 26.4692 147.08 27.1216C147.79 27.774 148.663 28.1002 149.699 28.1002C151.196 28.1002 152.261 27.4574 152.894 26.1718H157.24C156.78 27.7068 155.897 28.9732 154.592 29.971C153.287 30.9496 151.685 31.4389 149.786 31.4389C148.251 31.4389 146.869 31.1031 145.641 30.4315C144.432 29.7407 143.483 28.7718 142.792 27.5246C142.12 26.2774 141.784 24.8383 141.784 23.2073C141.784 21.5572 142.12 20.1085 142.792 18.8613C143.463 17.6141 144.404 16.6547 145.612 15.9832C146.821 15.3116 148.212 14.9758 149.786 14.9758C151.301 14.9758 152.654 15.302 153.844 15.9544C155.053 16.6068 155.983 17.5374 156.636 18.7462C157.307 19.9358 157.643 21.3078 157.643 22.862ZM153.47 21.7107C153.451 20.6746 153.076 19.8495 152.347 19.2355C151.618 18.6023 150.726 18.2857 149.671 18.2857C148.673 18.2857 147.829 18.5927 147.138 19.2067C146.466 19.8015 146.054 20.6362 145.9 21.7107H153.47Z" fill="white"/>
<defs>
<linearGradient id="paint0_linear" x1="19.2286" y1="-11.2946" x2="19.1877" y2="40.7738" gradientUnits="userSpaceOnUse">
<stop stop-color="white"/>
<stop offset="1" stop-color="white" stop-opacity="0.3"/>
</linearGradient>
<linearGradient id="paint1_linear" x1="19.229" y1="27.6827" x2="19.229" y2="47.1714" gradientUnits="userSpaceOnUse">
<stop stop-color="white" stop-opacity="0.2"/>
<stop offset="1" stop-color="white"/>
</linearGradient>
</defs>
</svg>
