<svg width="25" height="25" viewBox="0 0 25 25" fill="none" xmlns="http://www.w3.org/2000/svg">
<path opacity="0.4" fill-rule="evenodd" clip-rule="evenodd" d="M23.6114 9.34438C22.8658 4.75541 18.968 1.34147 14.3208 1.20708C14.0998 1.19841 13.8845 1.27797 13.7223 1.4282C13.56 1.57844 13.4641 1.78702 13.4558 2.00799V2.00799V2.08274L13.9791 9.91036C14.0134 10.4373 14.4664 10.8378 14.9936 10.8074L22.8425 10.2841C23.0637 10.2678 23.2692 10.1639 23.4135 9.99551C23.5579 9.82713 23.6291 9.60815 23.6114 9.38709V9.34438Z" stroke="#32BA85" stroke-width="1.5" stroke-linecap="round" stroke-linejoin="round"/>
<path d="M8.88542 5.86311C9.3847 5.74762 9.89563 6.00309 10.1028 6.47181C10.1571 6.58205 10.1897 6.70168 10.1989 6.82421C10.3057 8.34061 10.53 11.6617 10.6581 13.4558C10.68 13.779 10.8298 14.0801 11.0743 14.2925C11.3188 14.505 11.6379 14.6112 11.9609 14.5877V14.5877L18.5498 14.182C18.844 14.1643 19.1323 14.2689 19.3467 14.4711C19.561 14.6734 19.6823 14.9552 19.6818 15.2498V15.2498C19.4147 19.2286 16.5561 22.5548 12.6627 23.417C8.76934 24.2792 4.7737 22.4708 2.85186 18.9768C2.27815 17.9711 1.91483 16.8594 1.78397 15.709C1.72803 15.356 1.70657 14.9983 1.7199 14.6411C1.73123 10.3921 4.71532 6.73107 8.87474 5.86311" stroke="#32BA85" stroke-width="1.5" stroke-linecap="round" stroke-linejoin="round"/>
</svg>
