<svg width="143" height="150" viewBox="0 0 143 150" fill="none" xmlns="http://www.w3.org/2000/svg">
<g opacity="0.15" filter="url(#filter0_f)">
<rect x="35.0469" y="35.9331" width="72.8571" height="78.5238" rx="20" fill="#001A41"/>
</g>
<rect x="31" y="29.457" width="80.9524" height="80.9524" rx="15" fill="white"/>
<path d="M77.2646 79.0426H76.1698V79.5651C75.7952 79.1527 75.2476 78.9326 74.6714 78.9326C73.3747 78.9326 72.4238 79.95 72.4238 81.38C72.4238 82.7549 73.3748 83.7448 74.6426 83.7448C75.2477 83.7448 75.7087 83.5523 76.1409 83.0848V83.7172C76.1409 84.6796 75.7376 85.1471 74.9308 85.1471C74.4984 85.1471 74.0663 84.9546 73.8647 84.6247C73.7493 84.4322 73.7205 84.2672 73.6918 83.8822H72.6257C72.6257 85.2571 73.5188 86.1095 74.9308 86.1095C75.7376 86.1095 76.458 85.8071 76.8614 85.2295C77.1783 84.7896 77.2646 84.4046 77.2646 83.4972V79.0426ZM74.8731 79.8401C75.6799 79.8401 76.1986 80.4451 76.1986 81.2975C76.1986 82.1774 75.6511 82.7824 74.8731 82.7824C74.0663 82.7824 73.5476 82.2049 73.5476 81.325C73.5476 80.4449 74.0663 79.8401 74.8731 79.8401Z" fill="#C02428"/>
<path d="M56 79.0421V83.6067H57.0948V81.2694C57.0948 80.307 57.3543 79.8946 57.9882 79.8946C58.478 79.8946 58.7085 80.2795 58.7085 81.1045V83.6343H59.8034V81.297C59.8034 80.3346 60.0628 79.9222 60.6968 79.9222C61.2155 79.9222 61.4172 80.2521 61.4172 81.132V83.6618H62.512V80.7745C62.512 79.5372 61.9646 78.9047 60.8984 78.9047C60.3222 78.9047 59.8323 79.1522 59.4866 79.5646C59.1984 79.1246 58.7373 78.9047 58.2186 78.9047C57.7577 78.9047 57.4983 79.0146 57.095 79.4547V79.0421H56ZM66.6327 79.0421V79.5646C66.1428 79.0972 65.7392 78.9047 65.1342 78.9047C63.8375 78.9047 62.8867 79.922 62.8867 81.2694C62.8867 82.6993 63.8377 83.7167 65.163 83.7167C65.7394 83.7167 66.114 83.5518 66.6327 83.1118V83.5793H67.7275V79.0422L66.6327 79.0421ZM65.3359 79.8396C66.1428 79.8396 66.6902 80.4446 66.6902 81.297C66.6902 82.1769 66.1428 82.7819 65.3359 82.7819C64.5579 82.7819 64.0105 82.1769 64.0105 81.297C64.0105 80.472 64.5868 79.8396 65.3359 79.8396ZM69.7158 79.0421H68.6208V83.6067H69.7157L69.7158 79.0421ZM69.1682 76.4848C69.0734 76.484 68.9793 76.5011 68.8915 76.5353C68.8036 76.5696 68.7238 76.6202 68.6568 76.6842C68.5897 76.7482 68.5367 76.8243 68.5008 76.9082C68.4649 76.992 68.4469 77.0818 68.4479 77.1723C68.4479 77.5573 68.7648 77.8597 69.1682 77.8597C69.5717 77.8597 69.8886 77.5573 69.8886 77.1723C69.8895 77.0818 69.8715 76.992 69.8357 76.9082C69.7998 76.8243 69.7468 76.7482 69.6797 76.6842C69.6126 76.6202 69.5328 76.5696 69.445 76.5353C69.3572 76.5011 69.2631 76.484 69.1682 76.4848ZM70.7244 75.3301H71.8192V83.5793H70.7244V75.3301Z" fill="#525357"/>
<path d="M77.5273 78.9547H78.6223V81.5668C78.6223 82.3368 78.9104 82.6943 79.5443 82.6943C80.2071 82.6943 80.4953 82.3368 80.4953 81.5668V78.9547H81.5903V81.5946C81.5903 82.3095 81.475 82.6944 81.1004 83.0794C80.6968 83.4644 80.1783 83.6569 79.5444 83.6569C78.9393 83.6569 78.3917 83.4644 78.0172 83.0794C77.6714 82.6943 77.5273 82.3095 77.5273 81.5946V78.9547Z" fill="#C02428"/>
<path d="M82.3394 83.5193V78.9547H83.4055V79.3674C83.8378 78.955 84.1835 78.8174 84.7022 78.8174C85.8837 78.8174 86.4311 79.4499 86.4311 80.7148V83.5193H85.3362V80.962C85.3362 80.0821 85.1344 79.7797 84.4428 79.7797C83.6936 79.7797 83.4342 80.1921 83.4342 81.3196V83.5193H82.3394Z" fill="#C02428"/>
<path d="M69.8196 59.1108C67.9481 59.1108 66.3695 60.6265 66.3695 62.5499C66.3695 64.4736 67.8897 65.9887 69.8196 65.9887C71.6908 65.9887 73.2695 64.4733 73.2695 62.5499C73.2695 60.6262 71.6908 59.1108 69.8196 59.1108ZM64.4399 62.4917C64.4399 59.577 66.8372 57.1874 69.7609 57.1874C72.6846 57.1874 75.0826 59.577 75.0826 62.4914C75.0826 62.666 75.0826 62.8994 75.0242 63.074C74.9658 63.5988 75.3748 64.0068 75.9013 64.0068C76.7783 64.0068 76.8954 62.8994 76.8954 62.4914C76.8954 58.5858 73.6791 55.3801 69.7612 55.3801C65.8437 55.3801 62.6274 58.5861 62.6274 62.4914C62.6274 66.3964 65.8437 69.6024 69.7612 69.6024C71.8663 69.6024 73.7378 68.7281 75.0242 67.271L76.4861 68.495C74.9071 70.3602 72.4511 71.5258 69.82 71.5258C68.6286 71.5297 67.4483 71.2987 66.3469 70.8461C65.2454 70.3935 64.2447 69.7282 63.4023 68.8886C62.5598 68.0489 61.8923 67.0515 61.4381 65.9536C60.9839 64.8558 60.7521 63.6792 60.7559 62.4917C60.7559 57.5373 64.7909 53.457 69.8196 53.457C74.79 53.457 78.8246 57.5373 78.8246 62.4917C78.8246 64.4736 77.8892 66.1054 75.9593 66.1054C75.1406 66.1054 74.6145 65.6974 74.322 65.2894C73.3865 66.8047 71.6908 67.7957 69.7609 67.7957C66.8372 67.7957 64.4399 65.4643 64.4399 62.4917ZM69.8196 60.9178C70.0272 60.917 70.2329 60.9571 70.4248 61.0359C70.6168 61.1147 70.7912 61.2306 70.9379 61.3769C71.0847 61.5232 71.2009 61.6971 71.2799 61.8884C71.3589 62.0798 71.3992 62.2848 71.3983 62.4917C71.3991 62.6986 71.3589 62.9036 71.2798 63.0949C71.2008 63.2862 71.0846 63.46 70.9378 63.6063C70.791 63.7526 70.6167 63.8685 70.4248 63.9473C70.2328 64.026 70.0272 64.0661 69.8196 64.0653C69.6121 64.0662 69.4064 64.0261 69.2144 63.9473C69.0225 63.8686 68.848 63.7527 68.7013 63.6064C68.5545 63.4601 68.4382 63.2863 68.3591 63.095C68.2801 62.9037 68.2398 62.6986 68.2407 62.4917C68.2398 62.2848 68.28 62.0797 68.359 61.8884C68.4381 61.697 68.5543 61.5231 68.7011 61.3768C68.8479 61.2305 69.0224 61.1146 69.2143 61.0358C69.4063 60.957 69.612 60.9169 69.8196 60.9178Z" fill="#C02428"/>
<defs>
<filter id="filter0_f" x="0.046875" y="0.933105" width="142.857" height="148.524" filterUnits="userSpaceOnUse" color-interpolation-filters="sRGB">
<feFlood flood-opacity="0" result="BackgroundImageFix"/>
<feBlend mode="normal" in="SourceGraphic" in2="BackgroundImageFix" result="shape"/>
<feGaussianBlur stdDeviation="17.5" result="effect1_foregroundBlur"/>
</filter>
</defs>
</svg>
