<svg width="353" height="496" viewBox="0 0 353 496" fill="none" xmlns="http://www.w3.org/2000/svg">
<g filter="url(#filter0_d)">
<rect x="-235.541" y="26.3179" width="527.541" height="373.655" rx="27.6785" fill="#424254" stroke="url(#paint0_linear)" stroke-width="2.00085"/>
<path d="M-235 53.6781C-235 38.9442 -223.056 27 -208.322 27L263.173 27C277.907 27 289.851 38.9442 289.851 53.6781V67.0171L-235 67.0171V53.6781Z" fill="#343447"/>
<rect x="-0.960938" y="91.3306" width="46.0803" height="6.91204" rx="2.30401" fill="#55556D"/>
<rect x="56.6396" y="91.3306" width="103.681" height="6.91204" rx="2.30401" fill="#55556D"/>
<rect x="171.84" y="91.3306" width="57.6004" height="6.91204" rx="2.30401" fill="#55556D"/>
<g filter="url(#filter1_d)">
<rect x="-62.9258" y="128.376" width="313.467" height="180.077" rx="10.0043" fill="#525267"/>
<rect x="-62.5923" y="128.71" width="312.8" height="179.41" rx="9.6708" stroke="url(#paint1_linear)" stroke-width="0.666951"/>
</g>
<g opacity="0.5">
<path opacity="0.7" d="M222.61 277.808H-17.5743" stroke="#3F3F50" stroke-width="0.90979"/>
<path opacity="0.7" d="M222.61 255.063L-17.5743 255.063" stroke="#3F3F50" stroke-width="0.90979"/>
<path opacity="0.7" d="M222.61 232.318L-17.5743 232.318" stroke="#3F3F50" stroke-width="0.90979"/>
<path opacity="0.7" d="M222.61 209.574L-17.5743 209.574" stroke="#3F3F50" stroke-width="0.90979"/>
<path opacity="0.7" d="M222.61 186.829L-17.5743 186.829" stroke="#3F3F50" stroke-width="0.90979"/>
<path opacity="0.7" d="M62.4873 177.731L62.4873 277.808" stroke="#3F3F50" stroke-width="0.90979"/>
<path opacity="0.7" d="M142.549 177.731V277.808" stroke="#3F3F50" stroke-width="0.90979"/>
<path opacity="0.7" d="M222.61 177.731V277.808" stroke="#3F3F50" stroke-width="0.90979"/>
</g>
<rect x="52.9727" y="285.144" width="16.3762" height="5.45874" rx="1.81958" fill="#3F3F50"/>
<rect x="127.575" y="285.144" width="28.2035" height="5.45874" rx="1.81958" fill="#3F3F50"/>
<rect x="205.817" y="285.144" width="20.0154" height="5.45874" rx="1.81958" fill="#3F3F50"/>
<path d="M-16.8145 234.507C-3.77413 241.179 14.5733 260.254 50.0551 247.244C77.3488 237.236 96.0171 164.627 165.598 224.499C204.719 258.161 215.94 217.221 223.825 207.213" stroke="#05C46B" stroke-width="1.36469"/>
<path d="M49.144 247.244C13.6622 260.254 -4.68526 241.179 -17.7256 234.507V273.628H222.914V207.213C215.029 217.221 203.808 258.161 164.687 224.499C95.106 164.627 76.4377 237.236 49.144 247.244Z" fill="url(#paint2_linear)"/>
<circle cx="62.7919" cy="238.146" r="2.04703" fill="#3F3F50" stroke="#32BA85" stroke-width="1.36469"/>
<circle cx="142.853" cy="209.033" r="2.04703" fill="#3F3F50" stroke="#32BA85" stroke-width="1.36469"/>
<circle cx="222.915" cy="208.123" r="2.04703" fill="#3F3F50" stroke="#32BA85" stroke-width="1.36469"/>
<rect x="92.4727" y="163.725" width="63.6853" height="31.8427" rx="1.81958" fill="#05C46B"/>
<path d="M142.905 198.524C142.73 198.827 142.292 198.827 142.117 198.524L139.754 194.43C139.578 194.126 139.797 193.747 140.148 193.747L144.875 193.747C145.225 193.747 145.444 194.126 145.269 194.43L142.905 198.524Z" fill="#05C46B"/>
<rect x="100.66" y="171.912" width="31.8427" height="5.45874" rx="1.81958" fill="#0D9A58"/>
<rect x="100.66" y="181.92" width="46.3993" height="5.45874" rx="1.81958" fill="#0DA05B"/>
<rect opacity="0.8" x="180.343" y="149.114" width="18.1958" height="5.45874" rx="1.81958" fill="#3F3F50"/>
<path d="M-37.585 149.659V150.773H-36.0884V151.48H-37.585V152.658H-35.8973V153.384H-38.4766V148.933H-35.8973V149.659H-37.585ZM-33.0683 149.805C-32.6479 149.805 -32.3083 149.939 -32.0493 150.206C-31.7903 150.47 -31.6608 150.839 -31.6608 151.315V153.384H-32.5524V151.436C-32.5524 151.155 -32.6225 150.941 -32.7626 150.792C-32.9027 150.639 -33.0937 150.563 -33.3357 150.563C-33.582 150.563 -33.7773 150.639 -33.9216 150.792C-34.0618 150.941 -34.1318 151.155 -34.1318 151.436V153.384H-35.0234V149.856H-34.1318V150.296C-34.0129 150.143 -33.8622 150.024 -33.6796 149.939C-33.4928 149.85 -33.289 149.805 -33.0683 149.805ZM-29.3673 149.799C-29.1041 149.799 -28.8727 149.852 -28.6731 149.958C-28.4736 150.06 -28.3165 150.194 -28.2019 150.359V149.856H-27.3039V153.41C-27.3039 153.737 -27.3697 154.027 -27.5013 154.282C-27.6329 154.541 -27.8304 154.745 -28.0936 154.894C-28.3568 155.046 -28.6753 155.123 -29.0489 155.123C-29.5499 155.123 -29.9617 155.006 -30.2844 154.773C-30.6028 154.539 -30.7832 154.221 -30.8257 153.817H-29.9405C-29.8938 153.979 -29.794 154.106 -29.6411 154.199C-29.4841 154.297 -29.2951 154.346 -29.0743 154.346C-28.8154 154.346 -28.6052 154.267 -28.4439 154.11C-28.2825 153.957 -28.2019 153.724 -28.2019 153.41V152.862C-28.3165 153.028 -28.4757 153.166 -28.6795 153.276C-28.879 153.386 -29.1083 153.442 -29.3673 153.442C-29.6645 153.442 -29.9362 153.365 -30.1825 153.212C-30.4287 153.059 -30.624 152.845 -30.7684 152.569C-30.9085 152.289 -30.9785 151.968 -30.9785 151.607C-30.9785 151.251 -30.9085 150.935 -30.7684 150.659C-30.624 150.383 -30.4308 150.17 -30.1888 150.022C-29.9426 149.873 -29.6687 149.799 -29.3673 149.799ZM-28.2019 151.62C-28.2019 151.404 -28.2443 151.219 -28.3292 151.066C-28.4141 150.909 -28.5288 150.79 -28.6731 150.709C-28.8175 150.625 -28.9724 150.582 -29.138 150.582C-29.3036 150.582 -29.4565 150.622 -29.5966 150.703C-29.7367 150.784 -29.8513 150.903 -29.9405 151.06C-30.0254 151.213 -30.0678 151.395 -30.0678 151.607C-30.0678 151.82 -30.0254 152.007 -29.9405 152.168C-29.8513 152.325 -29.7367 152.446 -29.5966 152.531C-29.4522 152.616 -29.2994 152.658 -29.138 152.658C-28.9724 152.658 -28.8175 152.618 -28.6731 152.537C-28.5288 152.452 -28.4141 152.333 -28.3292 152.181C-28.2443 152.024 -28.2019 151.837 -28.2019 151.62ZM-26.5987 151.607C-26.5987 151.251 -26.5286 150.935 -26.3885 150.659C-26.2442 150.383 -26.051 150.17 -25.809 150.022C-25.5627 149.873 -25.2889 149.799 -24.9874 149.799C-24.7242 149.799 -24.4949 149.852 -24.2996 149.958C-24.1001 150.064 -23.9409 150.198 -23.822 150.359V149.856H-22.924V153.384H-23.822V152.868C-23.9366 153.034 -24.0958 153.172 -24.2996 153.282C-24.4992 153.389 -24.7306 153.442 -24.9938 153.442C-25.291 153.442 -25.5627 153.365 -25.809 153.212C-26.051 153.059 -26.2442 152.845 -26.3885 152.569C-26.5286 152.289 -26.5987 151.968 -26.5987 151.607ZM-23.822 151.62C-23.822 151.404 -23.8645 151.219 -23.9494 151.066C-24.0343 150.909 -24.1489 150.79 -24.2933 150.709C-24.4376 150.625 -24.5926 150.582 -24.7582 150.582C-24.9238 150.582 -25.0766 150.622 -25.2167 150.703C-25.3568 150.784 -25.4714 150.903 -25.5606 151.06C-25.6455 151.213 -25.688 151.395 -25.688 151.607C-25.688 151.82 -25.6455 152.007 -25.5606 152.168C-25.4714 152.325 -25.3568 152.446 -25.2167 152.531C-25.0724 152.616 -24.9195 152.658 -24.7582 152.658C-24.5926 152.658 -24.4376 152.618 -24.2933 152.537C-24.1489 152.452 -24.0343 152.333 -23.9494 152.181C-23.8645 152.024 -23.822 151.837 -23.822 151.62ZM-20.6076 149.799C-20.3443 149.799 -20.113 149.852 -19.9134 149.958C-19.7139 150.06 -19.5568 150.194 -19.4421 150.359V149.856H-18.5442V153.41C-18.5442 153.737 -18.61 154.027 -18.7416 154.282C-18.8732 154.541 -19.0706 154.745 -19.3339 154.894C-19.5971 155.046 -19.9155 155.123 -20.2892 155.123C-20.7901 155.123 -21.202 155.006 -21.5247 154.773C-21.8431 154.539 -22.0235 154.221 -22.066 153.817H-21.1807C-21.134 153.979 -21.0343 154.106 -20.8814 154.199C-20.7243 154.297 -20.5354 154.346 -20.3146 154.346C-20.0556 154.346 -19.8455 154.267 -19.6841 154.11C-19.5228 153.957 -19.4421 153.724 -19.4421 153.41V152.862C-19.5568 153.028 -19.716 153.166 -19.9198 153.276C-20.1193 153.386 -20.3486 153.442 -20.6076 153.442C-20.9048 153.442 -21.1765 153.365 -21.4228 153.212C-21.669 153.059 -21.8643 152.845 -22.0087 152.569C-22.1488 152.289 -22.2188 151.968 -22.2188 151.607C-22.2188 151.251 -22.1488 150.935 -22.0087 150.659C-21.8643 150.383 -21.6711 150.17 -21.4291 150.022C-21.1829 149.873 -20.909 149.799 -20.6076 149.799ZM-19.4421 151.62C-19.4421 151.404 -19.4846 151.219 -19.5695 151.066C-19.6544 150.909 -19.7691 150.79 -19.9134 150.709C-20.0578 150.625 -20.2127 150.582 -20.3783 150.582C-20.5439 150.582 -20.6967 150.622 -20.8368 150.703C-20.977 150.784 -21.0916 150.903 -21.1807 151.06C-21.2657 151.213 -21.3081 151.395 -21.3081 151.607C-21.3081 151.82 -21.2657 152.007 -21.1807 152.168C-21.0916 152.325 -20.977 152.446 -20.8368 152.531C-20.6925 152.616 -20.5397 152.658 -20.3783 152.658C-20.2127 152.658 -20.0578 152.618 -19.9134 152.537C-19.7691 152.452 -19.6544 152.333 -19.5695 152.181C-19.4846 152.024 -19.4421 151.837 -19.4421 151.62ZM-14.3299 151.544C-14.3299 151.671 -14.3384 151.786 -14.3554 151.888H-16.9346C-16.9134 152.142 -16.8242 152.342 -16.6672 152.486C-16.5101 152.631 -16.3169 152.703 -16.0876 152.703C-15.7565 152.703 -15.5208 152.561 -15.3807 152.276H-14.4191C-14.521 152.616 -14.7163 152.896 -15.005 153.117C-15.2937 153.333 -15.6482 153.442 -16.0685 153.442C-16.4082 153.442 -16.7139 153.367 -16.9856 153.219C-17.2531 153.066 -17.4632 152.851 -17.6161 152.575C-17.7647 152.3 -17.839 151.981 -17.839 151.62C-17.839 151.255 -17.7647 150.935 -17.6161 150.659C-17.4675 150.383 -17.2594 150.17 -16.9919 150.022C-16.7245 149.873 -16.4167 149.799 -16.0685 149.799C-15.7331 149.799 -15.4338 149.871 -15.1705 150.015C-14.9031 150.16 -14.6972 150.366 -14.5528 150.633C-14.4042 150.896 -14.3299 151.2 -14.3299 151.544ZM-15.2533 151.289C-15.2576 151.06 -15.3404 150.877 -15.5017 150.741C-15.663 150.601 -15.8605 150.531 -16.094 150.531C-16.3148 150.531 -16.5016 150.599 -16.6544 150.735C-16.803 150.867 -16.8943 151.051 -16.9283 151.289H-15.2533ZM-9.23388 149.805C-8.80082 149.805 -8.45267 149.939 -8.18944 150.206C-7.92196 150.47 -7.78822 150.839 -7.78822 151.315V153.384H-8.67982V151.436C-8.67982 151.16 -8.74987 150.949 -8.88998 150.805C-9.03009 150.656 -9.22114 150.582 -9.46315 150.582C-9.70515 150.582 -9.89833 150.656 -10.0427 150.805C-10.1828 150.949 -10.2528 151.16 -10.2528 151.436V153.384H-11.1444V151.436C-11.1444 151.16 -11.2145 150.949 -11.3546 150.805C-11.4947 150.656 -11.6858 150.582 -11.9278 150.582C-12.174 150.582 -12.3693 150.656 -12.5137 150.805C-12.6538 150.949 -12.7238 151.16 -12.7238 151.436V153.384H-13.6154V149.856H-12.7238V150.283C-12.6092 150.134 -12.4627 150.017 -12.2844 149.933C-12.1018 149.848 -11.9023 149.805 -11.6858 149.805C-11.4098 149.805 -11.1635 149.865 -10.947 149.983C-10.7305 150.098 -10.5628 150.264 -10.4439 150.48C-10.3293 150.276 -10.1637 150.113 -9.94716 149.99C-9.72638 149.867 -9.48862 149.805 -9.23388 149.805ZM-3.59867 151.544C-3.59867 151.671 -3.60717 151.786 -3.62415 151.888H-6.2034C-6.18218 152.142 -6.09302 152.342 -5.93593 152.486C-5.77884 152.631 -5.58566 152.703 -5.35639 152.703C-5.02523 152.703 -4.78959 152.561 -4.64948 152.276H-3.68783C-3.78973 152.616 -3.98503 152.896 -4.27374 153.117C-4.56245 153.333 -4.91696 153.442 -5.33728 153.442C-5.67694 153.442 -5.98263 153.367 -6.25435 153.219C-6.52183 153.066 -6.73199 152.851 -6.88484 152.575C-7.03344 152.3 -7.10774 151.981 -7.10774 151.62C-7.10774 151.255 -7.03344 150.935 -6.88484 150.659C-6.73624 150.383 -6.5282 150.17 -6.26072 150.022C-5.99324 149.873 -5.68543 149.799 -5.33728 149.799C-5.00187 149.799 -4.70255 149.871 -4.43932 150.015C-4.17184 150.16 -3.96593 150.366 -3.82157 150.633C-3.67297 150.896 -3.59867 151.2 -3.59867 151.544ZM-4.52211 151.289C-4.52636 151.06 -4.60915 150.877 -4.77049 150.741C-4.93182 150.601 -5.12925 150.531 -5.36276 150.531C-5.58353 150.531 -5.77034 150.599 -5.92319 150.735C-6.07179 150.867 -6.16307 151.051 -6.19704 151.289H-4.52211ZM-0.929067 149.805C-0.508744 149.805 -0.169089 149.939 0.089898 150.206C0.348885 150.47 0.478378 150.839 0.478378 151.315V153.384H-0.413216V151.436C-0.413216 151.155 -0.48327 150.941 -0.623378 150.792C-0.763485 150.639 -0.954541 150.563 -1.19655 150.563C-1.4428 150.563 -1.6381 150.639 -1.78245 150.792C-1.92256 150.941 -1.99261 151.155 -1.99261 151.436V153.384H-2.88421V149.856H-1.99261V150.296C-1.87373 150.143 -1.72301 150.024 -1.54045 149.939C-1.35364 149.85 -1.14984 149.805 -0.929067 149.805ZM2.428 150.588V152.295C2.428 152.414 2.45559 152.501 2.51079 152.556C2.57023 152.607 2.66788 152.633 2.80374 152.633H3.21769V153.384H2.65726C1.90578 153.384 1.53003 153.019 1.53003 152.289V150.588H1.10971V149.856H1.53003V148.984H2.428V149.856H3.21769V150.588H2.428ZM5.27279 153.442C4.98408 153.442 4.72509 153.391 4.49583 153.289C4.26656 153.183 4.084 153.04 3.94813 152.862C3.81652 152.684 3.74434 152.486 3.7316 152.27H4.62957C4.64655 152.406 4.71236 152.518 4.82699 152.607C4.94587 152.696 5.09235 152.741 5.26642 152.741C5.43625 152.741 5.56786 152.707 5.66127 152.639C5.75892 152.571 5.80774 152.484 5.80774 152.378C5.80774 152.263 5.74831 152.179 5.62943 152.123C5.51479 152.064 5.3301 152 5.07536 151.932C4.81213 151.869 4.5956 151.803 4.42577 151.735C4.26019 151.667 4.11584 151.563 3.99271 151.423C3.87383 151.283 3.81439 151.094 3.81439 150.856C3.81439 150.661 3.86959 150.482 3.97998 150.321C4.09461 150.16 4.25595 150.032 4.46398 149.939C4.67627 149.845 4.92464 149.799 5.2091 149.799C5.62943 149.799 5.96484 149.905 6.21533 150.117C6.46583 150.325 6.60381 150.608 6.62929 150.964H5.7759C5.76317 150.824 5.70373 150.714 5.59758 150.633C5.49569 150.548 5.3577 150.506 5.18363 150.506C5.02229 150.506 4.89704 150.535 4.80789 150.595C4.72297 150.654 4.68051 150.737 4.68051 150.843C4.68051 150.962 4.73995 151.053 4.85883 151.117C4.97771 151.177 5.1624 151.238 5.4129 151.302C5.66764 151.365 5.8778 151.431 6.04338 151.499C6.20896 151.567 6.35119 151.673 6.47007 151.818C6.5932 151.958 6.65688 152.145 6.66113 152.378C6.66113 152.582 6.60381 152.764 6.48918 152.926C6.37879 153.087 6.21745 153.214 6.00517 153.308C5.79713 153.397 5.553 153.442 5.27279 153.442Z" fill="#05C46B"/>
<rect x="203.088" y="149.114" width="18.1958" height="5.45874" rx="1.81958" fill="#05C46B"/>
<g filter="url(#filter2_d)">
<rect x="-62.9268" y="322.312" width="150.064" height="50.0214" rx="6.66951" fill="#525267"/>
</g>
<rect x="-51.5879" y="334.983" width="58.6917" height="4.00171" rx="1.3339" fill="#F2994A"/>
<rect x="-51.5879" y="345.655" width="117.383" height="4.00171" rx="1.3339" fill="#3F3F50"/>
<rect x="-51.5879" y="356.326" width="83.2196" height="4.00171" rx="1.3339" fill="#3F3F50"/>
<g filter="url(#filter3_d)">
<rect x="100.477" y="322.311" width="150.064" height="50.0214" rx="6.66951" fill="#525267"/>
</g>
<rect x="111.815" y="334.983" width="36.6823" height="4.00171" rx="1.3339" fill="#6C5CE7"/>
<rect x="111.815" y="345.654" width="94.7071" height="4.00171" rx="1.3339" fill="#3F3F50"/>
<rect x="111.815" y="356.325" width="115.383" height="4.00171" rx="1.3339" fill="#3F3F50"/>
</g>
<defs>
<filter id="filter0_d" x="-296.542" y="0.317383" width="649.542" height="495.656" filterUnits="userSpaceOnUse" color-interpolation-filters="sRGB">
<feFlood flood-opacity="0" result="BackgroundImageFix"/>
<feColorMatrix in="SourceAlpha" type="matrix" values="0 0 0 0 0 0 0 0 0 0 0 0 0 0 0 0 0 0 127 0"/>
<feMorphology radius="30" operator="erode" in="SourceAlpha" result="effect1_dropShadow"/>
<feOffset dy="35"/>
<feGaussianBlur stdDeviation="45"/>
<feColorMatrix type="matrix" values="0 0 0 0 0.166667 0 0 0 0 0.166667 0 0 0 0 0.166667 0 0 0 0.25 0"/>
<feBlend mode="normal" in2="BackgroundImageFix" result="effect1_dropShadow"/>
<feBlend mode="normal" in="SourceGraphic" in2="effect1_dropShadow" result="shape"/>
</filter>
<filter id="filter1_d" x="-99.6081" y="98.3637" width="386.832" height="253.442" filterUnits="userSpaceOnUse" color-interpolation-filters="sRGB">
<feFlood flood-opacity="0" result="BackgroundImageFix"/>
<feColorMatrix in="SourceAlpha" type="matrix" values="0 0 0 0 0 0 0 0 0 0 0 0 0 0 0 0 0 0 127 0"/>
<feMorphology radius="16.6738" operator="erode" in="SourceAlpha" result="effect1_dropShadow"/>
<feOffset dy="6.66951"/>
<feGaussianBlur stdDeviation="26.6781"/>
<feColorMatrix type="matrix" values="0 0 0 0 0.166667 0 0 0 0 0.166667 0 0 0 0 0.166667 0 0 0 0.2 0"/>
<feBlend mode="normal" in2="BackgroundImageFix" result="effect1_dropShadow"/>
<feBlend mode="normal" in="SourceGraphic" in2="effect1_dropShadow" result="shape"/>
</filter>
<filter id="filter2_d" x="-99.6091" y="292.299" width="223.429" height="123.386" filterUnits="userSpaceOnUse" color-interpolation-filters="sRGB">
<feFlood flood-opacity="0" result="BackgroundImageFix"/>
<feColorMatrix in="SourceAlpha" type="matrix" values="0 0 0 0 0 0 0 0 0 0 0 0 0 0 0 0 0 0 127 0"/>
<feMorphology radius="16.6738" operator="erode" in="SourceAlpha" result="effect1_dropShadow"/>
<feOffset dy="6.66951"/>
<feGaussianBlur stdDeviation="26.6781"/>
<feColorMatrix type="matrix" values="0 0 0 0 0.166667 0 0 0 0 0.166667 0 0 0 0 0.166667 0 0 0 0.2 0"/>
<feBlend mode="normal" in2="BackgroundImageFix" result="effect1_dropShadow"/>
<feBlend mode="normal" in="SourceGraphic" in2="effect1_dropShadow" result="shape"/>
</filter>
<filter id="filter3_d" x="63.7942" y="292.298" width="223.429" height="123.386" filterUnits="userSpaceOnUse" color-interpolation-filters="sRGB">
<feFlood flood-opacity="0" result="BackgroundImageFix"/>
<feColorMatrix in="SourceAlpha" type="matrix" values="0 0 0 0 0 0 0 0 0 0 0 0 0 0 0 0 0 0 127 0"/>
<feMorphology radius="16.6738" operator="erode" in="SourceAlpha" result="effect1_dropShadow"/>
<feOffset dy="6.66951"/>
<feGaussianBlur stdDeviation="26.6781"/>
<feColorMatrix type="matrix" values="0 0 0 0 0.166667 0 0 0 0 0.166667 0 0 0 0 0.166667 0 0 0 0.2 0"/>
<feBlend mode="normal" in2="BackgroundImageFix" result="effect1_dropShadow"/>
<feBlend mode="normal" in="SourceGraphic" in2="effect1_dropShadow" result="shape"/>
</filter>
<linearGradient id="paint0_linear" x1="-123.586" y1="63.988" x2="193.453" y2="408.968" gradientUnits="userSpaceOnUse">
<stop stop-color="#555778" stop-opacity="0.75"/>
<stop offset="0.561407" stop-color="#343651" stop-opacity="0.735156"/>
<stop offset="1" stop-color="#4F5068" stop-opacity="0.72"/>
</linearGradient>
<linearGradient id="paint1_linear" x1="-51.7702" y1="130.396" x2="222.836" y2="354.854" gradientUnits="userSpaceOnUse">
<stop stop-color="#555778" stop-opacity="0.75"/>
<stop offset="0.460499" stop-color="#343651" stop-opacity="0.735156"/>
<stop offset="1" stop-color="#4F5068" stop-opacity="0.72"/>
</linearGradient>
<linearGradient id="paint2_linear" x1="102.594" y1="201.074" x2="103.007" y2="274.487" gradientUnits="userSpaceOnUse">
<stop stop-color="#04C36A" stop-opacity="0.3"/>
<stop offset="1" stop-color="#05C46B" stop-opacity="0"/>
</linearGradient>
</defs>
</svg>
