<svg width="1440" height="839" viewBox="0 0 1440 839" fill="none" xmlns="http://www.w3.org/2000/svg">
<path fill-rule="evenodd" clip-rule="evenodd" d="M1451 196.289C1590.18 175.521 1674 148.737 1674 119.5C1674 53.502 1246.88 0 720 0C193.12 0 -234 53.502 -234 119.5C-234 148.737 -150.18 175.521 -11 196.289V839H1451V196.289Z" fill="url(#paint0_linear)"/>
<rect x="-7.01172" y="622.787" width="194.594" height="46.3164" transform="rotate(15 -7.01172 622.787)" fill="url(#paint1_linear)"/>
<rect x="74.0371" y="619" width="194.594" height="46.3164" transform="rotate(15 74.0371 619)" fill="url(#paint2_linear)"/>
<rect x="1006.23" y="458.457" width="221.236" height="69.3015" transform="rotate(15 1006.23 458.457)" fill="url(#paint3_linear)"/>
<rect x="694.521" y="426" width="593.986" height="79.2911" transform="rotate(15 694.521 426)" fill="url(#paint4_linear)"/>
<rect x="812.227" y="7" width="324.688" height="47.2454" transform="rotate(15 812.227 7)" fill="url(#paint5_linear)"/>
<rect x="86.2402" y="125.639" width="268.128" height="29.3919" transform="rotate(15 86.2402 125.639)" fill="url(#paint6_linear)"/>
<defs>
<linearGradient id="paint0_linear" x1="16.3366" y1="62.6505" x2="449.181" y2="1152.61" gradientUnits="userSpaceOnUse">
<stop stop-color="#373744"/>
<stop offset="1" stop-color="#303140"/>
</linearGradient>
<linearGradient id="paint1_linear" x1="338.515" y1="644.86" x2="57.9112" y2="634.019" gradientUnits="userSpaceOnUse">
<stop stop-color="#32BA85"/>
<stop offset="1" stop-color="#0C56C2" stop-opacity="0"/>
</linearGradient>
<linearGradient id="paint2_linear" x1="419.564" y1="641.073" x2="138.96" y2="630.231" gradientUnits="userSpaceOnUse">
<stop stop-color="#32BA85"/>
<stop offset="1" stop-color="#0C56C2" stop-opacity="0"/>
</linearGradient>
<linearGradient id="paint3_linear" x1="1399.07" y1="491.484" x2="1079.84" y2="482.113" gradientUnits="userSpaceOnUse">
<stop stop-color="#32BA85"/>
<stop offset="1" stop-color="#0C56C2" stop-opacity="0"/>
</linearGradient>
<linearGradient id="paint4_linear" x1="1749.22" y1="463.788" x2="895.468" y2="404.973" gradientUnits="userSpaceOnUse">
<stop stop-color="#32BA85"/>
<stop offset="1" stop-color="#0C56C2" stop-opacity="0"/>
</linearGradient>
<linearGradient id="paint5_linear" x1="1388.75" y1="29.5158" x2="921.719" y2="-0.000179878" gradientUnits="userSpaceOnUse">
<stop stop-color="#0C56C2"/>
<stop offset="0.873159" stop-color="#0C56C2" stop-opacity="0"/>
</linearGradient>
<linearGradient id="paint6_linear" x1="562.334" y1="139.646" x2="177.825" y2="107.389" gradientUnits="userSpaceOnUse">
<stop stop-color="#0C56C2"/>
<stop offset="0.873159" stop-color="#0C56C2" stop-opacity="0"/>
</linearGradient>
</defs>
</svg>
