<svg width="259" height="219" viewBox="0 0 259 219" fill="none" xmlns="http://www.w3.org/2000/svg">
<g opacity="0.5">
<g opacity="0.5">
<path opacity="0.5" fill-rule="evenodd" clip-rule="evenodd" d="M134.793 7.71275C129.754 13.7037 128.735 23.2016 129.893 31.4867C131.066 39.7718 134.416 46.8294 139.469 52.0167C144.521 57.204 151.263 60.521 157.753 60.2726C164.258 60.0096 170.511 56.1812 176.625 50.9939C182.738 45.8066 188.726 39.2603 189.229 32.2027C189.717 25.1304 184.72 17.5613 178.593 11.5704C172.479 5.57939 165.249 1.16652 157.083 0.202119C148.918 -0.762281 139.845 1.72178 134.793 7.71275Z" fill="#FCEBEC"/>
<path opacity="0.5" fill-rule="evenodd" clip-rule="evenodd" d="M67.9782 28.6281C58.6621 37.7492 52.0889 55.3425 51.0016 74.5581C49.8896 93.7377 54.2388 114.576 63.5302 127.554C72.8463 140.533 87.1293 145.652 100.918 145.003C114.732 144.318 128.076 137.829 140.011 124.85C151.947 111.872 162.498 92.4037 162.35 73.1521C162.202 53.9004 151.378 34.8651 139.418 25.744C127.483 16.5868 114.435 17.38 101.882 18.101C89.3286 18.8221 77.2696 19.507 67.9782 28.6281Z" fill="#FFF5F3"/>
</g>
</g>
<path opacity="0.5" d="M129.461 219C200.96 219 258.921 216.902 258.921 214.313C258.921 211.724 200.96 209.626 129.461 209.626C57.9615 209.626 0 211.724 0 214.313C0 216.902 57.9615 219 129.461 219Z" fill="#F0932B"/>
<path fill-rule="evenodd" clip-rule="evenodd" d="M30.7891 212.482L47.7938 112.263L52.8591 113.348L69.8793 212.343H66.5105L50.3014 114.755L33.9255 212.467L30.7891 212.482Z" fill="#DDB0C8"/>
<path fill-rule="evenodd" clip-rule="evenodd" d="M35.1465 118.104H63.6562V114.476H35.1465V118.104Z" fill="#EECCDC"/>
<path fill-rule="evenodd" clip-rule="evenodd" d="M161.417 212.397L178.422 112.178L183.487 113.263L200.507 212.258H197.138L180.929 114.67L164.553 212.382L161.417 212.397Z" fill="#DDB0C8"/>
<path fill-rule="evenodd" clip-rule="evenodd" d="M165.774 118.1H194.284V114.472H165.774V118.1Z" fill="#EECCDC"/>
<path fill-rule="evenodd" clip-rule="evenodd" d="M226.755 114.509H4.77131C3.9214 114.509 3.23242 113.602 3.23242 112.483V102.798C3.23242 101.68 3.9214 100.772 4.77131 100.772H226.755C227.604 100.772 228.293 101.68 228.293 102.798V112.483C228.293 113.602 227.604 114.509 226.755 114.509Z" fill="#EECCDC"/>
<path fill-rule="evenodd" clip-rule="evenodd" d="M228.214 50.4377C228.214 50.4377 227.396 51.582 226.374 52.5639C225.351 53.5449 224.207 52.7271 224.207 52.7271L217.214 45.2851L217.466 44.9918L211.538 39.5289V97.5268H221.023C222.773 97.5268 224.192 98.9458 224.192 100.696H196.446C196.446 99.821 196.801 99.029 197.375 98.4553C197.948 97.8815 198.741 97.5268 199.616 97.5268H209.088V37.271L188.572 18.3635L188.482 18.8839C188.482 18.8839 190.941 21.5184 193.136 23.7577C195.331 25.997 195.068 28.5442 195.068 28.5442L184.662 26.5239L184.662 26.5182L173.907 24.291C173.907 24.291 174.648 21.8408 177.539 20.6246C180.43 19.4076 183.715 17.9287 183.715 17.9287L184.574 14.1685L185.974 14.4578L186.505 12.2832L187.295 12.4327L187.296 12.4295L188.091 12.5992L187.741 14.8102L189.143 15.0849L189.03 15.7339L218.929 43.2899L219.218 42.9545C219.218 42.9545 226.251 47.8614 227.396 48.6792C228.541 49.4971 228.214 50.4377 228.214 50.4377Z" fill="#EECCDC"/>
<path fill-rule="evenodd" clip-rule="evenodd" d="M173.907 24.2912C173.907 24.2912 178.253 23.0521 184.815 24.4744C191.376 25.8968 195.068 28.5444 195.068 28.5444C195.068 28.5444 190.734 29.751 184.356 28.558C177.978 27.3651 173.907 24.2912 173.907 24.2912Z" fill="#DDB0C8"/>
<path fill-rule="evenodd" clip-rule="evenodd" d="M182.576 24.0742C182.576 24.0742 182.455 25.6854 184.469 26.2492C186.483 26.8131 186.926 25.0006 186.926 25.0006C186.926 25.0006 184.988 24.4383 182.576 24.0742Z" fill="#FCEBEC"/>
<path fill-rule="evenodd" clip-rule="evenodd" d="M90.39 146.086C89.4412 151.541 80.3096 210.363 80.3096 210.363C80.3096 210.363 80.5156 211.849 82.0011 212.067C83.4868 212.286 84.2732 210.931 84.2732 210.931L97.1518 147.515L90.39 146.086Z" fill="#DDB0C8"/>
<path fill-rule="evenodd" clip-rule="evenodd" d="M120.358 147.479C121.361 152.925 133.198 211.263 133.198 211.263C133.198 211.263 133.906 212.585 135.376 212.274C136.845 211.964 137.113 210.421 137.113 210.421L127.196 146.475L120.358 147.479Z" fill="#DDB0C8"/>
<path fill-rule="evenodd" clip-rule="evenodd" d="M135.368 147.302C136.37 152.747 148.208 211.085 148.208 211.085C148.208 211.085 148.916 212.407 150.385 212.096C151.855 211.786 152.122 210.243 152.122 210.243L142.206 146.297L135.368 147.302Z" fill="#DDB0C8"/>
<path fill-rule="evenodd" clip-rule="evenodd" d="M143.347 148.577H88.5639C86.4888 148.577 84.8066 146.895 84.8066 144.82C84.8066 142.745 86.4888 141.062 88.5639 141.062H143.347C145.422 141.062 147.104 142.745 147.104 144.82C147.104 146.895 145.422 148.577 143.347 148.577Z" fill="#EECCDC"/>
<path fill-rule="evenodd" clip-rule="evenodd" d="M162.332 88.3706H70.0993C68.4934 88.3706 67.1914 87.0686 67.1914 85.4626V28.6063C67.1914 27.0002 68.4934 25.6982 70.0993 25.6982H162.332C163.938 25.6982 165.24 27.0002 165.24 28.6063V85.4626C165.24 87.0686 163.938 88.3706 162.332 88.3706Z" fill="#DDB0C8"/>
<path fill-rule="evenodd" clip-rule="evenodd" d="M161.124 75.78H70.9795V31.6312C70.9795 30.4474 71.9391 29.4878 73.1229 29.4878H159.082C160.266 29.4878 161.225 30.4474 161.225 31.6312V75.679C161.225 75.7348 161.18 75.78 161.124 75.78Z" fill="#FCEBEC"/>
<path fill-rule="evenodd" clip-rule="evenodd" d="M165.255 75.2841V86.2721C165.255 87.456 164.295 88.4152 163.111 88.4152H130.871V96.3122C133.256 96.4641 135.143 98.4464 135.143 100.869H98.047C98.047 99.6077 98.5578 98.4666 99.3845 97.6399C100.172 96.8528 101.244 96.3518 102.434 96.3065V88.4152H69.2982C68.1143 88.4152 67.1543 87.456 67.1543 86.2721V75.1831H165.154C165.21 75.1831 165.255 75.2284 165.255 75.2841Z" fill="#DDB0C8"/>
<path fill-rule="evenodd" clip-rule="evenodd" d="M118.782 81.9566C118.782 83.2699 117.718 84.3346 116.404 84.3346C115.091 84.3346 114.026 83.2699 114.026 81.9566C114.026 80.6433 115.091 79.5786 116.404 79.5786C117.718 79.5786 118.782 80.6433 118.782 81.9566Z" fill="#FCEBEC"/>
<path fill-rule="evenodd" clip-rule="evenodd" d="M155.371 34.0457C155.371 34.4674 155.029 34.8092 154.607 34.8092C154.186 34.8092 153.844 34.4674 153.844 34.0457C153.844 33.6241 154.186 33.2822 154.607 33.2822C155.029 33.2822 155.371 33.6241 155.371 34.0457Z" fill="white"/>
<path fill-rule="evenodd" clip-rule="evenodd" d="M77.9577 34.1141C77.9577 34.5358 77.6159 34.8776 77.1942 34.8776C76.7725 34.8776 76.4307 34.5358 76.4307 34.1141C76.4307 33.6924 76.7725 33.3506 77.1942 33.3506C77.6159 33.3506 77.9577 33.6924 77.9577 34.1141Z" fill="#E93737"/>
<path fill-rule="evenodd" clip-rule="evenodd" d="M81.0719 34.0809C81.0719 34.5026 80.7301 34.8444 80.3084 34.8444C79.8868 34.8444 79.5449 34.5026 79.5449 34.0809C79.5449 33.6592 79.8868 33.3174 80.3084 33.3174C80.7301 33.3174 81.0719 33.6592 81.0719 34.0809Z" fill="#F9C818"/>
<path fill-rule="evenodd" clip-rule="evenodd" d="M84.2819 34.1014C84.2819 34.5231 83.9401 34.8649 83.5184 34.8649C83.0967 34.8649 82.7549 34.5231 82.7549 34.1014C82.7549 33.6797 83.0967 33.3379 83.5184 33.3379C83.9401 33.3379 84.2819 33.6797 84.2819 34.1014Z" fill="#1BC0D7"/>
<path fill-rule="evenodd" clip-rule="evenodd" d="M153.47 40.1687H77.1127C76.0726 40.1687 75.2295 39.3255 75.2295 38.2855C75.2295 37.2455 76.0726 36.4023 77.1127 36.4023H153.47C154.51 36.4023 155.354 37.2455 155.354 38.2855C155.354 39.3255 154.51 40.1687 153.47 40.1687Z" fill="white"/>
<path fill-rule="evenodd" clip-rule="evenodd" d="M153.417 72.4976H109.742C108.84 72.4976 108.109 71.7667 108.109 70.8651V44.0818C108.109 43.1802 108.84 42.4492 109.742 42.4492H153.417C154.319 42.4492 155.05 43.1802 155.05 44.0818V70.8651C155.05 71.7667 154.319 72.4976 153.417 72.4976Z" fill="white"/>
<path fill-rule="evenodd" clip-rule="evenodd" d="M122.909 59.2205H114.617C113.715 59.2205 112.984 58.4897 112.984 57.588V48.0407C112.984 47.1391 113.715 46.4082 114.617 46.4082H122.909C123.811 46.4082 124.542 47.1391 124.542 48.0407V57.588C124.542 58.4897 123.811 59.2205 122.909 59.2205Z" fill="#EECCDC"/>
<path fill-rule="evenodd" clip-rule="evenodd" d="M136.884 59.1995H128.591C127.69 59.1995 126.959 58.4687 126.959 57.567V48.0197C126.959 47.1181 127.69 46.3872 128.591 46.3872H136.884C137.786 46.3872 138.516 47.1181 138.516 48.0197V57.567C138.516 58.4687 137.786 59.1995 136.884 59.1995Z" fill="#EECCDC"/>
<path fill-rule="evenodd" clip-rule="evenodd" d="M150.742 59.2205H142.45C141.548 59.2205 140.817 58.4897 140.817 57.588V48.0407C140.817 47.1391 141.548 46.4082 142.45 46.4082H150.742C151.644 46.4082 152.375 47.1391 152.375 48.0407V57.588C152.375 58.4897 151.644 59.2205 150.742 59.2205Z" fill="#EECCDC"/>
<path fill-rule="evenodd" clip-rule="evenodd" d="M122.099 58.577H113.806C112.905 58.577 112.174 57.8461 112.174 56.9445V47.3971C112.174 46.4955 112.905 45.7646 113.806 45.7646H122.099C123 45.7646 123.731 46.4955 123.731 47.3971V56.9445C123.731 57.8461 123 58.577 122.099 58.577Z" fill="#FCEBEC"/>
<path fill-rule="evenodd" clip-rule="evenodd" d="M99.9407 72.4074H79.299C77.0546 72.4074 75.2354 70.7249 75.2354 68.6492V46.6694C75.2354 44.5937 77.0546 42.9111 79.299 42.9111H99.9407C102.185 42.9111 104.004 44.5937 104.004 46.6694V68.6492C104.004 70.7249 102.185 72.4074 99.9407 72.4074Z" fill="white"/>
<path fill-rule="evenodd" clip-rule="evenodd" d="M89.6196 47.1133C95.4662 47.1133 100.206 51.8349 100.206 57.6592C100.206 63.4836 95.4662 68.2052 89.6196 68.2052C83.7729 68.2052 79.0332 63.4836 79.0332 57.6592C79.0332 51.8349 83.7729 47.1133 89.6196 47.1133ZM89.6196 51.946C86.4469 51.946 83.875 54.5039 83.875 57.6592C83.875 60.8146 86.4469 63.3725 89.6196 63.3725C92.7922 63.3725 95.3641 60.8146 95.3641 57.6592C95.3641 54.5039 92.7922 51.946 89.6196 51.946Z" fill="#56ACF6"/>
<path fill-rule="evenodd" clip-rule="evenodd" d="M99.7213 54.4957L95.1102 55.9221C94.6015 54.2852 93.3767 52.9632 91.8018 52.322L93.6224 47.8408C96.5274 49.026 98.7858 51.47 99.7213 54.4957Z" fill="#E93737"/>
<path fill-rule="evenodd" clip-rule="evenodd" d="M85.4176 61.5712L81.8964 64.8919C80.7507 63.6542 79.8947 62.1398 79.4375 60.4588L84.077 59.1543C84.3247 60.0713 84.7917 60.8972 85.4176 61.5712Z" fill="#1BC0D7"/>
<path fill-rule="evenodd" clip-rule="evenodd" d="M123.734 48.2349H112.177V47.0172C112.177 46.3255 112.738 45.7646 113.429 45.7646H122.482C123.173 45.7646 123.734 46.3255 123.734 47.0172V48.2349Z" fill="#E93737"/>
<path fill-rule="evenodd" clip-rule="evenodd" d="M136.074 58.5555H127.782C126.88 58.5555 126.149 57.8246 126.149 56.923V47.3756C126.149 46.4741 126.88 45.7432 127.782 45.7432H136.074C136.976 45.7432 137.707 46.4741 137.707 47.3756V56.923C137.707 57.8246 136.976 58.5555 136.074 58.5555Z" fill="#FCEBEC"/>
<path fill-rule="evenodd" clip-rule="evenodd" d="M137.71 48.2134H126.152V46.9958C126.152 46.304 126.713 45.7432 127.405 45.7432H136.457C137.149 45.7432 137.71 46.304 137.71 46.9958V48.2134Z" fill="#1BC0D7"/>
<path fill-rule="evenodd" clip-rule="evenodd" d="M149.932 58.577H141.639C140.738 58.577 140.007 57.8461 140.007 56.9445V47.3971C140.007 46.4955 140.738 45.7646 141.639 45.7646H149.932C150.833 45.7646 151.564 46.4955 151.564 47.3971V56.9445C151.564 57.8461 150.833 58.577 149.932 58.577Z" fill="#FCEBEC"/>
<path fill-rule="evenodd" clip-rule="evenodd" d="M151.567 48.2349H140.01V47.0172C140.01 46.3255 140.571 45.7646 141.262 45.7646H150.315C151.006 45.7646 151.567 46.3255 151.567 47.0172V48.2349Z" fill="#56ACF6"/>
<path fill-rule="evenodd" clip-rule="evenodd" d="M151.954 64.1553H112.836C112.569 64.1553 112.354 63.9723 112.354 63.7466C112.354 63.5208 112.569 63.3379 112.836 63.3379H151.954C152.22 63.3379 152.436 63.5208 152.436 63.7466C152.436 63.9723 152.22 64.1553 151.954 64.1553Z" fill="#1BC0D7"/>
<path fill-rule="evenodd" clip-rule="evenodd" d="M151.792 67.8819H112.674C112.407 67.8819 112.191 67.6989 112.191 67.4731C112.191 67.2474 112.407 67.0645 112.674 67.0645H151.792C152.058 67.0645 152.274 67.2474 152.274 67.4731C152.274 67.6989 152.058 67.8819 151.792 67.8819Z" fill="#1BC0D7"/>
<path fill-rule="evenodd" clip-rule="evenodd" d="M21.4294 68.646L17.9357 61.2476L9.54492 56.7725L9.84918 56.2021L18.4289 60.7779L20.4304 65.0164L19.5576 55.9526L20.2011 55.8906L21.4294 68.646Z" fill="#0A4343"/>
<path fill-rule="evenodd" clip-rule="evenodd" d="M26.458 69.7771L28.5271 45.3081L29.1712 45.3625L27.5229 64.8552L37.3531 37.2266L37.9621 37.4433L26.458 69.7771Z" fill="#0A4343"/>
<path fill-rule="evenodd" clip-rule="evenodd" d="M33.1363 49.1451L32.8906 34.4307L33.537 34.4199L33.7826 49.1344L33.1363 49.1451Z" fill="#0A4343"/>
<path fill-rule="evenodd" clip-rule="evenodd" d="M16.0324 59.6558L15.3867 59.6227L16.2434 42.8945L16.8892 42.9276L16.0324 59.6558Z" fill="#0A4343"/>
<path fill-rule="evenodd" clip-rule="evenodd" d="M15.7717 53.3598L7.26465 48.1158L7.6039 47.5654L16.1109 52.8095L15.7717 53.3598Z" fill="#0A4343"/>
<mask id="mask0" mask-type="alpha" maskUnits="userSpaceOnUse" x="4" y="43" width="8" height="9">
<path fill-rule="evenodd" clip-rule="evenodd" d="M4.12109 43.7998H11.475V51.1537H4.12109V43.7998Z" fill="white"/>
</mask>
<g mask="url(#mask0)">
<path fill-rule="evenodd" clip-rule="evenodd" d="M11.475 47.4767C11.475 49.5075 9.82875 51.1537 7.79803 51.1537C5.76731 51.1537 4.12109 49.5075 4.12109 47.4767C4.12109 45.446 5.76731 43.7998 7.79803 43.7998C9.82875 43.7998 11.475 45.446 11.475 47.4767Z" fill="#F9DC4A"/>
</g>
<path fill-rule="evenodd" clip-rule="evenodd" d="M20.2836 41.0119C20.2836 43.0426 18.6373 44.6888 16.6066 44.6888C14.5759 44.6888 12.9297 43.0426 12.9297 41.0119C12.9297 38.9812 14.5759 37.335 16.6066 37.335C18.6373 37.335 20.2836 38.9812 20.2836 41.0119Z" fill="#F9DC4A"/>
<path fill-rule="evenodd" clip-rule="evenodd" d="M24.1625 55.2346C24.1625 57.2653 22.5163 58.9115 20.4855 58.9115C18.4548 58.9115 16.8086 57.2653 16.8086 55.2346C16.8086 53.2038 18.4548 51.5576 20.4855 51.5576C22.5163 51.5576 24.1625 53.2038 24.1625 55.2346Z" fill="#F9DC4A"/>
<path fill-rule="evenodd" clip-rule="evenodd" d="M13.2523 56.447C13.2523 58.4777 11.6061 60.1239 9.57538 60.1239C7.54466 60.1239 5.89844 58.4777 5.89844 56.447C5.89844 54.4162 7.54466 52.77 9.57538 52.77C11.6061 52.77 13.2523 54.4162 13.2523 56.447Z" fill="#F9DC4A"/>
<path fill-rule="evenodd" clip-rule="evenodd" d="M32.7289 44.0021C32.7289 46.0329 31.0827 47.6791 29.0519 47.6791C27.0212 47.6791 25.375 46.0329 25.375 44.0021C25.375 41.9714 27.0212 40.3252 29.0519 40.3252C31.0827 40.3252 32.7289 41.9714 32.7289 44.0021Z" fill="#F9DC4A"/>
<mask id="mask1" mask-type="alpha" maskUnits="userSpaceOnUse" x="29" y="29" width="8" height="8">
<path fill-rule="evenodd" clip-rule="evenodd" d="M29.415 29.0918H36.7689V36.4457H29.415V29.0918Z" fill="white"/>
</mask>
<g mask="url(#mask1)">
<path fill-rule="evenodd" clip-rule="evenodd" d="M36.7689 32.7687C36.7689 34.7995 35.1227 36.4457 33.092 36.4457C31.0613 36.4457 29.415 34.7995 29.415 32.7687C29.415 30.738 31.0613 29.0918 33.092 29.0918C35.1227 29.0918 36.7689 30.738 36.7689 32.7687Z" fill="#F9DC4A"/>
</g>
<path fill-rule="evenodd" clip-rule="evenodd" d="M42.5873 38.1833C42.5873 40.214 40.9411 41.8602 38.9103 41.8602C36.8796 41.8602 35.2334 40.214 35.2334 38.1833C35.2334 36.1526 36.8796 34.5063 38.9103 34.5063C40.9411 34.5063 42.5873 36.1526 42.5873 38.1833Z" fill="#F9DC4A"/>
<path fill-rule="evenodd" clip-rule="evenodd" d="M16.6469 66.2656L16.7277 79.9228C16.7277 79.9228 10.2628 85.1756 10.7477 89.7011C11.2325 94.2265 18.1596 100.844 18.1596 100.844L29.3669 100.743C29.3669 100.743 36.8499 94.1457 36.6882 89.9435C36.5266 85.7413 30.8698 80.1653 30.8698 80.1653L30.789 66.4272L16.6469 66.2656Z" fill="#56ACF6"/>
<path fill-rule="evenodd" clip-rule="evenodd" d="M220.106 182.898L219.416 176.491L222.825 180.658L220.106 182.898Z" fill="white"/>
<path fill-rule="evenodd" clip-rule="evenodd" d="M225.16 179.763L219.416 176.491L222.85 180.647L225.16 179.763Z" fill="#FC7750"/>
<path fill-rule="evenodd" clip-rule="evenodd" d="M234.645 176.089L229.007 179.488L232.439 181L234.645 176.089Z" fill="white"/>
<path fill-rule="evenodd" clip-rule="evenodd" d="M232.462 181.018L234.425 182.744L234.645 176.089L232.462 181.018Z" fill="#FC7750"/>
<path fill-rule="evenodd" clip-rule="evenodd" d="M227.336 215.063C222.265 215.063 218.154 210.952 218.154 205.881V188.532C218.154 183.461 222.265 179.351 227.336 179.351C232.407 179.351 236.518 183.461 236.518 188.532V205.881C236.518 210.952 232.407 215.063 227.336 215.063Z" fill="#FC7750"/>
<path fill-rule="evenodd" clip-rule="evenodd" d="M227.131 215.124H192.052C192.052 204.122 200.971 195.203 211.973 195.203H227.131V215.124Z" fill="#FC7750"/>
<path d="M217.414 185.783L224.25 189.021L217.212 191.888" stroke="#E93737" stroke-width="0.970516"/>
<path d="M217.78 188.495L224.304 189.041" stroke="#E93737" stroke-width="0.970516"/>
<path d="M238.218 186.14L231.117 188.748L237.868 192.238" stroke="#E93737" stroke-width="0.970516"/>
<path d="M237.609 188.808L231.062 188.764" stroke="#E93737" stroke-width="0.970516"/>
<path fill-rule="evenodd" clip-rule="evenodd" d="M228.047 193.153L226.835 193.186C225.631 193.219 224.627 192.269 224.595 191.065C224.562 189.86 225.512 188.857 226.716 188.824L227.928 188.791C229.133 188.758 230.136 189.708 230.168 190.912C230.201 192.117 229.252 193.12 228.047 193.153Z" fill="#FCEBEC"/>
<path fill-rule="evenodd" clip-rule="evenodd" d="M226.288 188.817L227.467 189.904L228.556 188.796L226.288 188.817Z" fill="#E93737"/>
<path d="M226.155 190.708L227.507 189.862L228.502 190.805" stroke="#E93737" stroke-width="0.970516" stroke-linecap="round"/>
<mask id="mask2" mask-type="alpha" maskUnits="userSpaceOnUse" x="177" y="181" width="23" height="35">
<path fill-rule="evenodd" clip-rule="evenodd" d="M177.947 181.924H199.058V215.124H177.947V181.924Z" fill="white"/>
</mask>
<g mask="url(#mask2)">
<path fill-rule="evenodd" clip-rule="evenodd" d="M193.056 211.398C193.056 211.398 177.544 208.521 182.689 193.266C182.689 193.266 185.228 186.213 194.261 185.845C201.304 185.558 200.661 180.801 191.875 182.172C182.97 183.562 177.092 190.092 178.049 200.621C179.006 211.15 189.185 214.612 192.052 215.124L193.056 211.398Z" fill="#FC7750"/>
</g>
<path fill-rule="evenodd" clip-rule="evenodd" d="M236.09 197.741H218.501C218.004 197.741 217.602 197.339 217.602 196.842V196.021C217.602 195.525 218.004 195.122 218.501 195.122H236.09C236.587 195.122 236.99 195.525 236.99 196.021V196.842C236.99 197.339 236.587 197.741 236.09 197.741Z" fill="#E93737"/>
<path fill-rule="evenodd" clip-rule="evenodd" d="M235.443 215.637H230.237C228.392 215.637 226.896 214.141 226.896 212.296V212.05C226.896 210.205 228.392 208.709 230.237 208.709H235.443C237.288 208.709 238.783 210.205 238.783 212.05V212.296C238.783 214.141 237.288 215.637 235.443 215.637Z" fill="white"/>
<path fill-rule="evenodd" clip-rule="evenodd" d="M235.443 215.637H230.237C228.392 215.637 226.896 214.141 226.896 212.296V212.05C226.896 210.205 228.392 208.709 230.237 208.709H235.443C237.288 208.709 238.783 210.205 238.783 212.05V212.296C238.783 214.141 237.288 215.637 235.443 215.637Z" stroke="#FA933F" stroke-width="1.31602"/>
<path fill-rule="evenodd" clip-rule="evenodd" d="M223.59 215.482H218.385C216.54 215.482 215.044 213.986 215.044 212.141V211.894C215.044 210.049 216.54 208.554 218.385 208.554H223.59C225.435 208.554 226.931 210.049 226.931 211.894V212.141C226.931 213.986 225.435 215.482 223.59 215.482Z" fill="white"/>
<path fill-rule="evenodd" clip-rule="evenodd" d="M223.59 215.482H218.385C216.54 215.482 215.044 213.986 215.044 212.141V211.894C215.044 210.049 216.54 208.554 218.385 208.554H223.59C225.435 208.554 226.931 210.049 226.931 211.894V212.141C226.931 213.986 225.435 215.482 223.59 215.482Z" stroke="#FA933F" stroke-width="1.31602"/>
<path fill-rule="evenodd" clip-rule="evenodd" d="M152.419 203.638L158.103 208.945L166.83 208.186L166.145 205.924L155.486 202.537L152.419 203.638Z" fill="#56ACF6"/>
<path fill-rule="evenodd" clip-rule="evenodd" d="M148.964 171.416C148.903 172.19 150.987 187.707 150.987 187.707C150.987 187.707 153.756 187.94 159.296 188.406L161.456 170.465L148.964 171.416Z" fill="#C26E5E"/>
<path fill-rule="evenodd" clip-rule="evenodd" d="M149.841 196.273C149.862 196.009 150.818 187.323 150.818 187.323C150.818 187.323 150.581 186.937 150.66 185.935C150.739 184.933 151.401 184.021 155.693 184.665C159.985 185.31 160.209 185.854 160.176 186.276C160.143 186.698 159.583 187.669 159.529 188.355C159.474 189.041 159.321 195.71 159.321 195.71L149.841 196.273Z" fill="#E4F9FF"/>
<path fill-rule="evenodd" clip-rule="evenodd" d="M149.79 196.04L148.96 202.962L154.633 201.862L159.968 203.987L168.078 206.857L174.873 206.112L174.598 204.391C174.598 204.391 168.52 201.285 167.069 200.422C165.617 199.559 165.044 198.041 165.044 198.041L162.775 194.79C162.775 194.79 160.353 191.32 158.401 191.034C156.45 190.747 154.778 191.095 155.144 191.866C155.511 192.637 156.423 193.996 156.423 193.996L152.858 193.314L150.82 195.784L150.28 196.367L150.493 196.774" fill="#F4F0F1"/>
<path fill-rule="evenodd" clip-rule="evenodd" d="M150.362 196.999C150.362 196.999 150.284 197.618 152.275 198.227C154.267 198.836 156.402 199.794 156.716 198.736C157.03 197.679 156.539 196.626 156.539 196.626L158.36 197.933C158.36 197.933 159.193 199.376 158.219 200.789C157.245 202.202 154.827 202.275 154.827 202.275L153.808 201.359C153.808 201.359 150.615 199.597 149.938 198.362C149.26 197.128 150.362 196.999 150.362 196.999Z" fill="#F9C818"/>
<mask id="mask3" mask-type="alpha" maskUnits="userSpaceOnUse" x="144" y="192" width="33" height="22">
<path fill-rule="evenodd" clip-rule="evenodd" d="M144.402 194.651L175.449 192.104L176.584 211.015L145.537 213.562L144.402 194.651Z" fill="white"/>
</mask>
<g mask="url(#mask3)">
<path fill-rule="evenodd" clip-rule="evenodd" d="M149.688 194.558C149.688 194.558 147.309 200.049 147.515 199.969C147.721 199.889 149.056 197.202 149.104 198.226C149.152 199.251 148.461 200.567 148.594 201.705C148.594 201.705 149.645 204.448 150.288 204.489C150.931 204.53 154.003 203.719 154.003 203.719C154.003 203.719 155.414 201.918 158.3 203.771C161.186 205.625 164.915 207.507 164.915 207.507C164.915 207.507 164.457 207.887 164.437 208.238C164.417 208.589 164.641 209.065 164.641 209.065L153.312 207.531L147.235 203.496L146.479 203.58C146.479 203.58 145.776 204.011 145.704 205.249C145.633 206.488 145.688 206.808 145.496 207.193C145.305 207.577 144.817 208.339 146.287 208.697C147.758 209.055 158.799 211.582 163.669 211.944C168.538 212.307 173.547 210.907 174.91 209.593C176.272 208.278 176.489 207.235 176.193 206.238C175.898 205.241 175.307 204.04 173.908 204.279C172.509 204.518 171.709 204.752 169.422 204.046C167.134 203.341 166.228 203.431 166.306 203.943C166.383 204.455 168.067 204.933 168.067 204.933C168.067 204.933 170.33 205.415 170.312 205.635C170.295 205.856 170.215 206.052 168.161 205.911C166.107 205.77 163.648 205.344 160.431 203.427C157.214 201.51 156.261 200.757 154.138 201.007C152.014 201.257 150.106 202.232 149.581 200.755C149.055 199.279 150.532 197.307 150.524 196.805C150.516 196.304 149.822 196.072 149.822 196.072L149.697 194.055" fill="#15023F"/>
<path fill-rule="evenodd" clip-rule="evenodd" d="M149.961 193.171C149.961 193.171 149.883 193.272 149.67 193.924C149.456 194.575 149.37 196.578 150.08 196.508C150.79 196.437 151.354 195.057 151.989 194.273C152.623 193.49 153.418 193.265 154.094 193.626C154.769 193.987 157.388 193.809 157.388 193.809C157.388 193.809 156.695 192.641 154.369 192.635C154.369 192.635 152.729 192.111 151.758 193.588C150.788 195.066 150.193 196.531 150.131 195.295C150.078 194.23 150.423 193.575 150.353 193.2C150.283 192.824 149.961 193.171 149.961 193.171Z" fill="#451989"/>
<path fill-rule="evenodd" clip-rule="evenodd" d="M167.742 200.672C167.742 200.672 166.5 200.861 162.898 200.552C159.296 200.242 160.106 198.625 158.639 198.209C157.173 197.794 157.015 197.729 156.221 196.387C155.428 195.045 153.394 196.288 152.43 196.066C151.465 195.842 154.375 193.202 154.375 193.202C154.375 193.202 155.942 192.776 157.387 193.882C157.793 194.193 158.611 195.312 158.859 195.574C159.107 195.836 160.619 196.367 161.955 198.024C163.291 199.681 165.191 199.196 165.568 199.295C165.943 199.395 162.726 194.967 162.726 194.967L162.735 194.525C162.735 194.525 164.743 197.452 165.727 198.756C166.711 200.059 167.526 200.38 167.674 200.456C167.82 200.532 167.742 200.672 167.742 200.672Z" fill="#E263AB"/>
<path fill-rule="evenodd" clip-rule="evenodd" d="M148.492 197.275C148.492 197.275 146.135 202.51 146.257 203.706C146.379 204.902 148.986 204.113 150.066 206.402C151.147 208.692 152.778 209.687 159.707 210.831C166.636 211.975 172.506 209.368 172.538 208.968C172.57 208.568 172.529 207.795 172.529 207.795C172.529 207.795 162.528 209.47 158.405 206.729C154.281 203.988 154.145 203.142 152.587 203.545C151.029 203.949 150.119 203.455 148.942 202.041C148.942 202.041 148.829 201.33 149.281 199.483C149.732 197.636 149.365 195.008 148.492 197.275Z" fill="white"/>
<path fill-rule="evenodd" clip-rule="evenodd" d="M154.437 192.848C154.437 192.848 153.596 191.949 155.004 190.96C156.412 189.972 158.91 190.682 159.656 191.46C159.656 191.46 158.224 190.779 156.437 190.974C154.649 191.169 155.065 191.67 155.878 192.914L154.265 192.722" fill="#451989"/>
<path fill-rule="evenodd" clip-rule="evenodd" d="M156.84 193.875C157.03 194.177 156.863 194.621 156.467 194.869C156.071 195.117 155.595 195.073 155.405 194.772C155.215 194.471 155.382 194.026 155.778 193.778C156.175 193.531 156.65 193.574 156.84 193.875Z" fill="#1F003C"/>
<path fill-rule="evenodd" clip-rule="evenodd" d="M155.637 194.455C155.637 194.455 155.734 193.814 156.995 193.384C158.255 192.953 160.636 192.253 161.89 193.206C163.144 194.158 163.028 194.593 163.028 194.593C163.028 194.593 162.111 194.059 161.4 193.833C160.69 193.606 159.725 193.523 158.761 193.711C157.798 193.9 156.836 194.213 156.525 194.341C156.214 194.469 155.922 195.085 155.637 194.455Z" fill="#E8D9F3"/>
<path fill-rule="evenodd" clip-rule="evenodd" d="M158.525 195.279C158.715 195.58 158.548 196.025 158.152 196.272C157.755 196.52 157.28 196.476 157.09 196.175C156.9 195.874 157.067 195.429 157.463 195.182C157.859 194.934 158.334 194.977 158.525 195.279Z" fill="#1F003C"/>
<path fill-rule="evenodd" clip-rule="evenodd" d="M157.322 195.857C157.322 195.857 157.417 195.216 158.63 194.782C159.843 194.349 162.134 193.642 163.336 194.592C164.539 195.542 164.426 195.978 164.426 195.978C164.426 195.978 163.546 195.445 162.864 195.22C162.182 194.996 161.254 194.914 160.327 195.105C159.401 195.296 158.475 195.612 158.176 195.741C157.876 195.87 157.594 196.487 157.322 195.857Z" fill="#E8D9F3"/>
<path fill-rule="evenodd" clip-rule="evenodd" d="M160.385 196.555C160.575 196.856 160.408 197.301 160.012 197.549C159.616 197.797 159.14 197.753 158.95 197.452C158.76 197.151 158.927 196.706 159.323 196.458C159.719 196.21 160.195 196.254 160.385 196.555Z" fill="#1F003C"/>
<path fill-rule="evenodd" clip-rule="evenodd" d="M159.181 197.162C159.181 197.162 159.263 196.585 160.23 196.186C161.197 195.788 163.638 195.252 164.586 196.099C165.533 196.946 164.941 197.538 164.941 197.538C164.941 197.538 164.129 196.75 163.589 196.552C163.049 196.355 162.313 196.287 161.575 196.465C160.837 196.644 160.099 196.934 159.861 197.052C159.622 197.169 159.392 197.727 159.181 197.162Z" fill="#E8D9F3"/>
</g>
<path fill-rule="evenodd" clip-rule="evenodd" d="M87.6145 123.723C87.6145 123.723 87.1151 138.88 89.816 137.982C89.816 137.982 104.524 139.441 108.116 140.003C109.924 140.285 113.381 142.448 124.2 144.253C135.018 146.058 145.333 147.919 145.333 148.644C145.333 150.104 147.69 160.751 148.251 173.775C148.251 173.775 151.619 177.816 161.724 174.224C161.724 174.224 162.456 148.76 157.404 138.88C147.757 126.081 117.177 123.723 117.177 123.723H87.6145Z" fill="#56ACF6"/>
<path fill-rule="evenodd" clip-rule="evenodd" d="M116.719 169.746C116.719 170.525 117.684 190.465 117.684 190.465L125.558 191.189L129.91 168.654L116.719 169.746Z" fill="#C26E5E"/>
<path fill-rule="evenodd" clip-rule="evenodd" d="M119.254 194.84L124.568 200.642L133.294 200.544L132.758 198.204L122.374 193.963L119.254 194.84Z" fill="#56ACF6"/>
<path fill-rule="evenodd" clip-rule="evenodd" d="M119.275 203.995L124.589 209.796L133.315 209.699L132.779 207.358L122.395 203.117L119.275 203.995Z" fill="#56ACF6"/>
<path fill-rule="evenodd" clip-rule="evenodd" d="M116.945 197.77C116.945 197.505 117.211 188.733 117.211 188.733C117.211 188.733 116.945 188.361 116.945 187.351C116.945 186.341 117.53 185.384 121.836 185.756C126.142 186.128 126.408 186.66 126.408 187.085C126.408 187.51 125.93 188.52 125.93 189.211C125.93 189.903 126.302 196.601 126.302 196.601L116.945 197.77Z" fill="#E4F9FF"/>
<path fill-rule="evenodd" clip-rule="evenodd" d="M116.821 197.433L116.542 204.452L122.095 202.982L127.567 204.779L135.856 207.147L142.553 205.963L142.144 204.248C142.144 204.248 135.856 201.512 134.345 200.736C132.834 199.96 132.145 198.47 132.145 198.47L129.632 195.343C129.632 195.343 126.95 192.007 124.988 191.844C123.025 191.68 121.39 192.138 121.815 192.89C122.24 193.643 123.254 194.951 123.254 194.951L119.656 194.493L117.825 197.11L117.334 197.731L117.577 198.127" fill="#F4F0F1"/>
<path fill-rule="evenodd" clip-rule="evenodd" d="M117.438 198.41C117.438 198.41 117.409 199.039 119.437 199.524C121.465 200.01 123.664 200.838 123.892 199.753C124.121 198.667 123.549 197.639 123.549 197.639L125.463 198.839C125.463 198.839 126.405 200.238 125.549 201.723C124.692 203.208 122.293 203.437 122.293 203.437L121.207 202.58C121.207 202.58 117.894 201.009 117.123 199.81C116.352 198.61 117.438 198.41 117.438 198.41Z" fill="#F9C818"/>
<path fill-rule="evenodd" clip-rule="evenodd" d="M116.569 195.918C116.569 195.918 114.636 201.599 114.834 201.505C115.033 201.412 116.149 198.621 116.278 199.649C116.406 200.677 115.822 202.047 116.045 203.184C116.045 203.184 117.306 205.879 117.948 205.879C118.591 205.879 121.583 204.865 121.583 204.865C121.583 204.865 122.844 202.961 125.86 204.643C128.876 206.324 132.733 207.98 132.733 207.98C132.733 207.98 132.307 208.392 132.315 208.747C132.323 209.101 132.583 209.566 132.583 209.566L121.196 208.748L114.834 205.075L114.089 205.208C114.089 205.208 113.424 205.687 113.45 206.938C113.477 208.189 113.557 208.508 113.397 208.908C113.237 209.307 112.812 210.105 114.302 210.372C115.793 210.638 126.972 212.474 131.843 212.527C136.714 212.581 141.585 210.851 142.836 209.44C144.087 208.029 144.22 206.964 143.847 205.98C143.475 204.995 142.793 203.824 141.421 204.154C140.048 204.484 139.271 204.771 136.941 204.207C134.611 203.643 133.717 203.792 133.834 204.303C133.951 204.814 135.664 205.186 135.664 205.186C135.664 205.186 137.952 205.527 137.952 205.75C137.952 205.974 137.888 206.176 135.834 206.165C133.781 206.154 131.302 205.883 127.951 204.16C124.601 202.436 123.594 201.739 121.502 202.126C119.41 202.513 117.59 203.617 116.951 202.165C116.312 200.712 117.625 198.632 117.577 198.128C117.53 197.623 116.821 197.434 116.821 197.434L116.538 195.411" fill="#15023F"/>
<path fill-rule="evenodd" clip-rule="evenodd" d="M116.768 194.632C116.768 194.632 116.699 194.739 116.538 195.41C116.378 196.082 116.45 198.111 117.151 197.994C117.852 197.878 118.305 196.447 118.874 195.615C119.443 194.783 120.217 194.505 120.918 194.827C121.618 195.148 124.212 194.8 124.212 194.8C124.212 194.8 123.429 193.665 121.114 193.808C121.114 193.808 119.44 193.383 118.591 194.938C117.742 196.492 117.266 198.011 117.106 196.766C116.969 195.694 117.26 195.01 117.161 194.635C117.062 194.261 116.768 194.632 116.768 194.632Z" fill="#451989"/>
<path fill-rule="evenodd" clip-rule="evenodd" d="M135.048 200.981C135.048 200.981 133.828 201.252 130.221 201.171C126.613 201.089 127.291 199.408 125.799 199.082C124.308 198.757 124.145 198.702 123.25 197.4C122.355 196.098 120.429 197.482 119.453 197.319C118.476 197.156 121.162 194.308 121.162 194.308C121.162 194.308 122.687 193.779 124.211 194.801C124.641 195.088 125.542 196.164 125.81 196.412C126.077 196.66 127.622 197.099 129.083 198.683C130.543 200.267 132.394 199.657 132.777 199.733C133.158 199.809 129.608 195.553 129.608 195.553L129.582 195.106C129.582 195.106 131.811 197.928 132.892 199.179C133.974 200.43 134.811 200.701 134.963 200.768C135.115 200.836 135.048 200.981 135.048 200.981Z" fill="#E263AB"/>
<path fill-rule="evenodd" clip-rule="evenodd" d="M115.584 198.732C115.584 198.732 113.653 204.154 113.868 205.35C114.084 206.547 116.614 205.586 117.87 207.822C119.125 210.058 120.825 210.955 127.807 211.663C134.788 212.372 140.42 209.37 140.42 208.966C140.42 208.561 140.318 207.785 140.318 207.785C140.318 207.785 130.505 210.112 126.188 207.616C121.871 205.121 121.669 204.278 120.151 204.784C118.633 205.289 117.689 204.851 116.408 203.502C116.408 203.502 116.239 202.794 116.542 200.905C116.846 199.017 116.274 196.394 115.584 198.732Z" fill="white"/>
<path fill-rule="evenodd" clip-rule="evenodd" d="M121.227 194.03C121.227 194.03 120.319 193.174 121.642 192.084C122.965 190.995 125.507 191.552 126.311 192.292C126.311 192.292 124.833 191.695 123.069 192.006C121.305 192.318 121.759 192.798 122.666 194.004L121.045 193.913" fill="#451989"/>
<path fill-rule="evenodd" clip-rule="evenodd" d="M123.676 194.886C123.888 195.176 123.758 195.633 123.384 195.907C123.01 196.181 122.534 196.168 122.322 195.878C122.109 195.588 122.24 195.13 122.614 194.856C122.988 194.582 123.463 194.596 123.676 194.886Z" fill="#1F003C"/>
<path fill-rule="evenodd" clip-rule="evenodd" d="M122.532 195.534C122.532 195.534 122.578 194.877 123.8 194.358C125.022 193.839 127.339 192.975 128.664 193.862C129.99 194.75 129.909 195.199 129.909 195.199C129.909 195.199 128.953 194.715 128.226 194.531C127.5 194.346 126.532 194.323 125.587 194.577C124.642 194.831 123.708 195.211 123.408 195.361C123.109 195.511 122.867 196.156 122.532 195.534Z" fill="#E8D9F3"/>
<path fill-rule="evenodd" clip-rule="evenodd" d="M125.456 196.166C125.669 196.456 125.538 196.913 125.164 197.187C124.79 197.461 124.314 197.448 124.102 197.157C123.889 196.867 124.02 196.41 124.394 196.136C124.768 195.862 125.244 195.875 125.456 196.166Z" fill="#1F003C"/>
<path fill-rule="evenodd" clip-rule="evenodd" d="M124.312 196.813C124.312 196.813 124.357 196.156 125.531 195.637C126.705 195.119 128.932 194.254 130.205 195.142C131.479 196.029 131.402 196.479 131.402 196.479C131.402 196.479 130.482 195.995 129.785 195.81C129.087 195.626 128.156 195.603 127.248 195.856C126.34 196.11 125.442 196.49 125.154 196.64C124.866 196.79 124.634 197.435 124.312 196.813Z" fill="#E8D9F3"/>
<path fill-rule="evenodd" clip-rule="evenodd" d="M127.403 197.306C127.616 197.596 127.485 198.053 127.111 198.327C126.737 198.601 126.262 198.588 126.049 198.298C125.837 198.008 125.967 197.55 126.341 197.276C126.715 197.002 127.191 197.015 127.403 197.306Z" fill="#1F003C"/>
<path fill-rule="evenodd" clip-rule="evenodd" d="M126.26 197.98C126.26 197.98 126.295 197.39 127.227 196.924C128.159 196.458 130.548 195.759 131.559 196.556C132.57 197.354 132.027 197.992 132.027 197.992C132.027 197.992 131.156 197.245 130.602 197.08C130.049 196.914 129.31 196.893 128.589 197.121C127.868 197.349 127.156 197.69 126.928 197.825C126.699 197.96 126.515 198.54 126.26 197.98Z" fill="#E8D9F3"/>
<path fill-rule="evenodd" clip-rule="evenodd" d="M95.3657 144.253C106.184 146.058 116.499 147.918 116.499 148.643C116.499 150.103 115.624 160.75 116.185 173.774C116.185 173.774 119.553 177.816 129.658 174.223C129.658 174.223 133.622 148.759 128.57 138.879C118.923 126.08 88.3436 123.723 88.3436 123.723C85.8126 136.206 88.1533 143.05 95.3657 144.253Z" fill="#56ACF6"/>
<path d="M119.995 131.13C126.87 133.698 130.423 138.442 130.627 145.329L130.632 145.538L130.228 145.546C130.095 138.783 126.714 134.139 120.056 131.585L119.854 131.508L119.995 131.13Z" fill="black"/>
<path fill-rule="evenodd" clip-rule="evenodd" d="M102.061 64.4883C102.061 64.4883 101.763 71.0464 97.9375 73.3614C94.4665 75.4618 101.82 87.6498 109.731 86.9227C114.061 86.5247 115.076 74.6833 115.076 74.6833C115.076 74.6833 111.579 74.0077 112.871 68.6759L102.061 64.4883Z" fill="#C26E5E"/>
<path fill-rule="evenodd" clip-rule="evenodd" d="M108.396 71.1563C103.267 70.5361 99.5664 67.1642 99.0481 61.5706C97.5573 61.8079 97.2056 57.9233 97.6209 56.6754C98.0365 55.4258 99.3931 56.1564 99.3931 56.1564C99.4682 55.959 99.532 55.7522 99.5846 55.5362C101.825 46.347 108.099 46.7114 108.099 46.7114C119.629 47.3121 116.928 59.0834 116.269 62.2062C115.61 65.3293 113.353 71.7553 108.396 71.1563Z" fill="#C26E5E"/>
<path fill-rule="evenodd" clip-rule="evenodd" d="M72.1786 96.9954C67.7037 104.906 66.7285 110.82 69.2532 114.737C73.0402 120.611 78.4123 112.848 80.6203 104.178C82.0923 98.3975 84.3502 93.7815 87.394 90.33L72.1786 96.9954Z" fill="#C26E5E"/>
<path fill-rule="evenodd" clip-rule="evenodd" d="M87.6692 75.9403C94.3685 73.8686 96.4329 73.752 96.4329 73.752L103.505 75.2759C103.505 75.2759 107.38 80.3698 107.712 84.91C107.712 84.91 107.823 78.9302 110.37 74.833C110.37 74.833 121.58 74.7299 125.806 79.1424C132.481 86.1119 132.355 98.3409 132.355 98.3409L121.341 99.4735L125.806 93.2568C125.806 93.2568 126.088 118.585 125.423 125.118C117.016 134.393 86.792 127.214 86.792 127.214C86.792 127.214 87.4478 106.257 87.5585 100.524C87.6692 94.7912 85.5491 95.5655 82.6264 102.672C80.237 108.481 72.6406 96.4361 72.6406 96.4361C72.6406 96.4361 77.3031 79.1458 87.6692 75.9403Z" fill="#1BC0D7"/>
<path fill-rule="evenodd" clip-rule="evenodd" d="M121.867 107.506C121.867 107.506 127.306 105.556 132.836 106.707C132.836 106.707 132.764 104.902 132.821 102.518C132.867 100.561 133.94 97.531 130.071 97.8573C125.568 98.2371 123.638 98.2768 121.681 99.1624C121.681 99.1624 121.215 105.641 121.867 107.506Z" fill="#FCEBEC"/>
<path fill-rule="evenodd" clip-rule="evenodd" d="M70.1396 100.239L72.5111 92.7767C72.5111 92.7767 81.2889 90.9432 84.7666 98.5301L82.1601 105.286C82.1601 105.286 77.2859 98.0982 70.1396 100.239Z" fill="#237978"/>
<mask id="mask4" mask-type="alpha" maskUnits="userSpaceOnUse" x="92" y="72" width="12" height="9">
<path fill-rule="evenodd" clip-rule="evenodd" d="M92.332 72.6494H103.707V80.0599H92.332V72.6494Z" fill="white"/>
</mask>
<g mask="url(#mask4)">
<path fill-rule="evenodd" clip-rule="evenodd" d="M96.5462 72.6575C96.5462 72.6575 92.0687 74.173 92.3442 74.5863C92.6197 74.9996 100.569 80.2864 101.165 80.0524C101.761 79.8183 103.995 75.5831 103.676 75.1575C103.357 74.7318 96.9289 72.4986 96.5462 72.6575Z" fill="#237978"/>
</g>
<path fill-rule="evenodd" clip-rule="evenodd" d="M117.55 74.4996C117.55 74.4996 121.404 77.2367 121.021 77.5535C120.639 77.8703 111.507 80.6526 111.003 80.2573C110.499 79.862 109.575 75.1636 110.003 74.8475C110.431 74.5315 117.229 74.2376 117.55 74.4996Z" fill="#237978"/>
<path fill-rule="evenodd" clip-rule="evenodd" d="M75.4662 104.773C77.6725 108.004 76.3638 108.063 77.3247 109.84C78.2854 111.617 79.1895 115.326 80.2924 115.233C81.3953 115.14 81.4531 114.527 81.0235 113.38C80.5939 112.234 79.335 108.563 79.8067 108.389C80.2785 108.215 81.8019 115.47 83.5497 115.354C85.2975 115.237 83.8309 111.518 83.0402 109.854C82.2495 108.191 81.9808 106.958 82.4804 107.065C82.9799 107.173 84.9052 115.293 86.3271 115.049C87.7491 114.805 87.0264 111.952 86.2384 110.267C85.4505 108.583 84.2744 105.928 84.2744 105.928C84.2744 105.928 86.2717 108.517 87.1777 111.608C88.0837 114.698 88.6409 114.856 89.15 114.558C89.6591 114.26 88.9841 110.621 88.9841 110.621C88.9841 110.621 90.6888 107.832 88.5445 105.346C86.4002 102.86 85.2017 100.241 82.2458 98.8346C79.29 97.4285 77.4536 98.5989 77.4536 98.5989C77.4536 98.5989 73.2598 101.543 75.4662 104.773Z" fill="#C26E5E"/>
<path fill-rule="evenodd" clip-rule="evenodd" d="M118.55 89.5788H111.211C110.912 89.5788 110.67 89.3367 110.67 89.038V88.4021C110.67 88.1035 110.912 87.8613 111.211 87.8613H118.55C118.849 87.8613 119.091 88.1035 119.091 88.4021V89.038C119.091 89.3367 118.849 89.5788 118.55 89.5788Z" fill="#237978"/>
<path fill-rule="evenodd" clip-rule="evenodd" d="M112.029 116.808L97.2635 112.715C97.2635 112.715 96.3455 111.746 99.0484 111.491C101.751 111.236 129.991 110.481 129.991 110.481L112.029 116.808Z" fill="#204EB2"/>
<path fill-rule="evenodd" clip-rule="evenodd" d="M153.892 116.763H112.477C111.71 116.763 111.088 116.141 111.088 115.374L114.848 88.101C114.848 87.3338 115.469 86.7119 116.237 86.7119H157.652C158.419 86.7119 159.041 87.3338 159.041 88.101L155.281 115.374C155.281 116.141 154.659 116.763 153.892 116.763Z" fill="#3267C8"/>
<path fill-rule="evenodd" clip-rule="evenodd" d="M144.141 116.585C144.141 116.585 143.892 117.059 143.554 117.56C143.217 118.061 143.039 117.776 142.428 118.842C141.818 119.909 140.102 122.036 136.052 120.686C132.003 119.336 132.033 118.422 132.287 117.217C132.541 116.013 132.91 115.759 132.521 113.781C132.131 111.803 133.511 109.315 134.01 109.191L134.509 109.066C134.509 109.066 134.655 107.08 135.463 106.937C136.27 106.795 136.346 107.329 136.346 107.329C136.346 107.329 136.603 106.855 137.337 106.909C138.071 106.964 138.348 108.291 138.605 109.84C138.861 111.39 139.234 115.483 139.469 115.662C139.704 115.842 139.924 115.682 139.767 114.744C139.611 113.807 138.527 110.168 139.582 109.813C140.638 109.458 141.179 110.481 141.791 112.6C142.404 114.718 142.647 115.067 142.601 115.642L142.778 116.615C143.687 116.595 144.141 116.585 144.141 116.585Z" fill="#C26E5E"/>
<path fill-rule="evenodd" clip-rule="evenodd" d="M136.299 107.22C136.299 107.22 136.349 107.078 136.274 108.034C136.247 108.382 136.254 108.857 136.323 109.507C136.584 111.943 136.878 115.801 137.058 116.959C137.239 118.117 136.704 117.294 136.452 114.595C136.201 111.895 135.983 108.655 135.988 108.505C135.997 108.248 136.023 107.48 136.299 107.22Z" fill="#995B5D"/>
<path fill-rule="evenodd" clip-rule="evenodd" d="M134.487 112.959C134.535 114.017 134.657 115.769 134.667 115.955C134.686 116.287 134.744 116.929 134.744 116.929C134.744 116.929 134.509 116.999 134.337 115.032C134.294 114.544 134.171 113.654 134.165 113.066C134.158 112.525 134.083 110.59 134.217 110.285C134.35 109.98 134.545 109.872 134.545 109.872C134.545 109.872 134.441 111.962 134.487 112.959Z" fill="#995B5D"/>
<path d="M111.839 57.6606L112.147 57.7594L112.117 57.8558C112.093 57.9345 112.066 58.0245 112.037 58.1243C111.954 58.4096 111.87 58.7161 111.793 59.0315C111.707 59.3821 111.633 59.7221 111.575 60.0431L111.558 60.1382C111.418 60.9547 111.398 61.5782 111.524 61.9135L111.531 61.9325C112.248 63.7073 111.274 64.6074 109.229 63.9771L109.167 63.9576L109.266 63.6497C111.108 64.2391 111.846 63.575 111.231 62.0536C111.062 61.6349 111.088 60.9241 111.257 59.9859C111.316 59.6576 111.391 59.3111 111.479 58.9543C111.549 58.6697 111.623 58.3926 111.698 58.1312L111.726 58.0339C111.743 57.976 111.759 57.9212 111.775 57.87L111.814 57.7404L111.839 57.6606Z" fill="black"/>
<path d="M103.858 70.0261L104.017 69.7441L104.074 69.7756L104.127 69.8037C104.207 69.8459 104.299 69.8925 104.4 69.9423L104.444 69.9639C104.785 70.1301 105.162 70.2963 105.565 70.4514C106.49 70.8082 107.404 71.0516 108.255 71.1306C108.64 71.1664 109.005 71.1673 109.347 71.1306L109.415 71.1227L109.455 71.4436C109.069 71.4911 108.658 71.4927 108.225 71.4525C107.341 71.3704 106.399 71.1196 105.448 70.753C105.037 70.5944 104.652 70.4245 104.303 70.2545L104.171 70.1893C104.114 70.1612 104.062 70.1342 104.013 70.1087L103.921 70.0603L103.858 70.0261Z" fill="#C86A5D"/>
<path fill-rule="evenodd" clip-rule="evenodd" d="M109.746 66.5077C108.221 66.5077 107.071 65.8092 107.017 65.7758C106.903 65.7055 106.868 65.5561 106.939 65.4421C107.009 65.3284 107.158 65.293 107.272 65.3634C107.295 65.3773 108.646 66.1888 110.274 65.9912C110.406 65.9752 110.528 66.0697 110.544 66.2027C110.56 66.3355 110.465 66.4564 110.332 66.4725C110.132 66.4969 109.936 66.5077 109.746 66.5077Z" fill="black"/>
<path fill-rule="evenodd" clip-rule="evenodd" d="M110.375 64.1779C110.048 64.1779 109.641 64.114 109.132 63.9512L109.23 63.6433C110.178 63.9465 110.878 63.9217 111.201 63.5735C111.476 63.2772 111.474 62.7352 111.196 62.0473C111.007 61.5806 111.054 60.6955 111.335 59.4164C111.54 58.4804 111.801 57.6625 111.804 57.6543L112.112 57.753C111.828 58.6366 111.165 61.1088 111.496 61.9262C111.916 62.9653 111.696 63.5151 111.438 63.7934C111.253 63.992 110.932 64.1779 110.375 64.1779Z" fill="black"/>
<mask id="mask5" mask-type="alpha" maskUnits="userSpaceOnUse" x="104" y="55" width="6" height="3">
<path fill-rule="evenodd" clip-rule="evenodd" d="M104.008 55.9219H109.471V57.4886H104.008V55.9219Z" fill="white"/>
</mask>
<g mask="url(#mask5)">
<path fill-rule="evenodd" clip-rule="evenodd" d="M109.027 57.4886C108.978 57.4886 108.929 57.4806 108.88 57.4637C108.409 57.2991 107.046 56.8618 106.415 56.8151C105.821 56.771 104.914 57.0647 104.614 57.1816C104.386 57.2709 104.128 57.1581 104.039 56.9297C103.949 56.7011 104.062 56.4435 104.29 56.3539C104.341 56.3338 105.561 55.8605 106.481 55.9286C107.358 55.9935 109.099 56.5987 109.173 56.6244C109.405 56.7053 109.527 56.9588 109.446 57.1905C109.382 57.3738 109.21 57.4886 109.027 57.4886Z" fill="black"/>
</g>
<path fill-rule="evenodd" clip-rule="evenodd" d="M116.505 59.0058C116.416 59.0058 116.326 58.9785 116.249 58.9218C116.002 58.7408 115.238 58.2505 114.684 58.1577C114.092 58.0588 112.73 58.1706 112.255 58.222C112.017 58.2474 111.803 58.0755 111.777 57.8374C111.751 57.5991 111.923 57.3851 112.161 57.3593C112.236 57.3512 113.996 57.1631 114.827 57.3019C115.7 57.4479 116.719 58.1907 116.762 58.2223C116.955 58.3641 116.997 58.6356 116.855 58.8288C116.77 58.9445 116.639 59.0058 116.505 59.0058Z" fill="black"/>
<path fill-rule="evenodd" clip-rule="evenodd" d="M107.926 59.4498C107.926 59.7122 107.713 59.925 107.451 59.925C107.188 59.925 106.976 59.7122 106.976 59.4498C106.976 59.1873 107.188 58.9746 107.451 58.9746C107.713 58.9746 107.926 59.1873 107.926 59.4498Z" fill="black"/>
<path fill-rule="evenodd" clip-rule="evenodd" d="M114.006 59.9898C114.006 60.2523 113.793 60.465 113.531 60.465C113.268 60.465 113.056 60.2523 113.056 59.9898C113.056 59.7274 113.268 59.5146 113.531 59.5146C113.793 59.5146 114.006 59.7274 114.006 59.9898Z" fill="black"/>
<mask id="mask6" mask-type="alpha" maskUnits="userSpaceOnUse" x="98" y="42" width="22" height="17">
<path fill-rule="evenodd" clip-rule="evenodd" d="M98.6719 42.9111H119.398V58.092H98.6719V42.9111Z" fill="white"/>
</mask>
<g mask="url(#mask6)">
<path fill-rule="evenodd" clip-rule="evenodd" d="M99.4048 56.4615C99.4048 56.4615 99.6567 56.6117 99.567 58.092C99.567 58.092 100.24 57.4192 100.419 56.6117C100.599 55.8043 101.81 53.4718 102.841 52.8437C103.873 52.2158 105.488 52.2606 106.43 50.8252L107.372 49.3898C107.372 49.3898 113.383 49.7934 115.984 51.7223C115.984 51.7223 117.196 52.2606 116.926 57.5089C116.926 57.5089 117.42 54.6829 117.51 53.2475C117.599 51.812 118.227 54.0997 117.958 55.3557C117.958 55.3557 119.494 54.045 119.394 51.2289C119.257 47.3988 117.396 46.2921 116.164 45.3976C114.712 44.3432 110.429 42.0179 107.737 43.2739C105.046 44.5298 105.174 44.8144 103.918 45.3078C102.662 45.8013 101.092 45.577 99.7464 46.5638C98.4007 47.5507 98.7003 55.9318 98.7003 55.9318C98.7003 55.9318 99.2326 56.1476 99.4048 56.4615Z" fill="#221108"/>
</g>
<path fill-rule="evenodd" clip-rule="evenodd" d="M109.233 58.8471C109.233 60.351 108.014 61.5701 106.51 61.5701C105.006 61.5701 103.787 60.351 103.787 58.8471C103.787 57.3432 105.006 56.124 106.51 56.124C108.014 56.124 109.233 57.3432 109.233 58.8471Z" fill="black"/>
<path fill-rule="evenodd" clip-rule="evenodd" d="M106.51 56.4065C105.164 56.4065 104.07 57.5012 104.07 58.8467C104.07 60.1923 105.164 61.287 106.51 61.287C107.855 61.287 108.95 60.1923 108.95 58.8467C108.95 57.5012 107.855 56.4065 106.51 56.4065ZM106.51 61.8527C104.852 61.8527 103.504 60.5041 103.504 58.8467C103.504 57.1893 104.852 55.8408 106.51 55.8408C108.167 55.8408 109.516 57.1893 109.516 58.8467C109.516 60.5041 108.167 61.8527 106.51 61.8527Z" fill="black"/>
<path fill-rule="evenodd" clip-rule="evenodd" d="M116.823 59.5829C116.823 61.0867 115.604 62.3059 114.1 62.3059C112.596 62.3059 111.377 61.0867 111.377 59.5829C111.377 58.079 112.596 56.8599 114.1 56.8599C115.604 56.8599 116.823 58.079 116.823 59.5829Z" fill="black"/>
<mask id="mask7" mask-type="alpha" maskUnits="userSpaceOnUse" x="111" y="56" width="7" height="7">
<path fill-rule="evenodd" clip-rule="evenodd" d="M111.094 56.5767H117.106V62.5885H111.094V56.5767Z" fill="white"/>
</mask>
<g mask="url(#mask7)">
<path fill-rule="evenodd" clip-rule="evenodd" d="M114.1 57.1423C112.754 57.1423 111.659 58.237 111.659 59.5825C111.659 60.9281 112.754 62.0228 114.1 62.0228C115.445 62.0228 116.54 60.9281 116.54 59.5825C116.54 58.237 115.445 57.1423 114.1 57.1423ZM114.1 62.5885C112.442 62.5885 111.094 61.24 111.094 59.5825C111.094 57.9252 112.442 56.5767 114.1 56.5767C115.757 56.5767 117.106 57.9252 117.106 59.5825C117.106 61.24 115.757 62.5885 114.1 62.5885Z" fill="black"/>
</g>
<path fill-rule="evenodd" clip-rule="evenodd" d="M103.601 58.6493L99.5605 57.0331L99.7707 56.5078L103.811 58.124L103.601 58.6493Z" fill="black"/>
<path fill-rule="evenodd" clip-rule="evenodd" d="M111.271 59.5564L109.152 59.3205L109.215 58.7583L111.334 58.9942L111.271 59.5564Z" fill="black"/>
<path fill-rule="evenodd" clip-rule="evenodd" d="M99.8435 61.4169C99.8435 61.8855 99.4637 62.2654 98.995 62.2654C98.5264 62.2654 98.1465 61.8855 98.1465 61.4169C98.1465 60.9482 98.5264 60.5684 98.995 60.5684C99.4637 60.5684 99.8435 60.9482 99.8435 61.4169Z" fill="white"/>
</svg>
