<svg width="36" height="36" viewBox="0 0 36 36" fill="none" xmlns="http://www.w3.org/2000/svg">
<rect opacity="0.15" width="36" height="36" rx="12" fill="#32BA85"/>
<path d="M26.3332 18.8333H24.6665V14.0317L18.0598 19.9483L11.3332 14.0133V23.8333H19.6665V25.5H10.4998C10.2788 25.5 10.0669 25.4122 9.91058 25.2559C9.7543 25.0996 9.6665 24.8877 9.6665 24.6667V11.3333C9.6665 11.1123 9.7543 10.9004 9.91058 10.7441C10.0669 10.5878 10.2788 10.5 10.4998 10.5H25.4998C25.7209 10.5 25.9328 10.5878 26.0891 10.7441C26.2454 10.9004 26.3332 11.1123 26.3332 11.3333V18.8333ZM11.759 12.1667L18.0507 17.7183L24.2515 12.1667H11.759ZM25.4998 23H27.9998V24.6667H25.4998V27.1667H23.8332V24.6667H21.3332V23H23.8332V20.5H25.4998V23Z" fill="#32BA85"/>
</svg>
