<svg width="85" height="85" viewBox="0 0 85 85" fill="none" xmlns="http://www.w3.org/2000/svg">
<path fill-rule="evenodd" clip-rule="evenodd" d="M79.6524 10.6954C76.6989 10.6954 74.3047 8.30112 74.3047 5.34768C74.3047 2.39424 76.6989 0 79.6524 0C82.6058 0 85.0001 2.39424 85.0001 5.34768C85.0001 8.30112 82.6058 10.6954 79.6524 10.6954ZM79.6528 35.4639C76.6994 35.4639 74.3051 33.0696 74.3051 30.1162C74.3051 27.1628 76.6994 24.7685 79.6528 24.7685C82.6063 24.7685 85.0005 27.1628 85.0005 30.1162C85.0005 33.0696 82.6063 35.4639 79.6528 35.4639ZM74.3051 54.8843C74.3051 57.8378 76.6994 60.232 79.6528 60.232C82.6063 60.232 85.0005 57.8378 85.0005 54.8843C85.0005 51.9309 82.6063 49.5366 79.6528 49.5366C76.6994 49.5366 74.3051 51.9309 74.3051 54.8843ZM79.6528 84.9997C76.6994 84.9997 74.3051 82.6055 74.3051 79.6521C74.3051 76.6986 76.6994 74.3044 79.6528 74.3044C82.6063 74.3044 85.0005 76.6986 85.0005 79.6521C85.0005 82.6055 82.6063 84.9997 79.6528 84.9997ZM49.5366 30.1162C49.5366 33.0696 51.9309 35.4639 54.8843 35.4639C57.8377 35.4639 60.232 33.0696 60.232 30.1162C60.232 27.1628 57.8377 24.7685 54.8843 24.7685C51.9309 24.7685 49.5366 27.1628 49.5366 30.1162ZM54.8843 60.232C51.9309 60.232 49.5366 57.8378 49.5366 54.8843C49.5366 51.9309 51.9309 49.5366 54.8843 49.5366C57.8377 49.5366 60.232 51.9309 60.232 54.8843C60.232 57.8378 57.8377 60.232 54.8843 60.232ZM49.5366 79.6521C49.5366 82.6055 51.9309 84.9997 54.8843 84.9997C57.8377 84.9997 60.232 82.6055 60.232 79.6521C60.232 76.6986 57.8377 74.3044 54.8843 74.3044C51.9309 74.3044 49.5366 76.6986 49.5366 79.6521ZM30.1162 60.232C27.1627 60.232 24.7685 57.8378 24.7685 54.8843C24.7685 51.9309 27.1627 49.5366 30.1162 49.5366C33.0696 49.5366 35.4639 51.9309 35.4639 54.8843C35.4639 57.8378 33.0696 60.232 30.1162 60.232ZM24.7685 79.6521C24.7685 82.6055 27.1627 84.9997 30.1162 84.9997C33.0696 84.9997 35.4639 82.6055 35.4639 79.6521C35.4639 76.6986 33.0696 74.3044 30.1162 74.3044C27.1627 74.3044 24.7685 76.6986 24.7685 79.6521ZM5.34766 84.9997C2.39421 84.9997 -2.28882e-05 82.6055 -2.28882e-05 79.6521C-2.28882e-05 76.6986 2.39421 74.3044 5.34766 74.3044C8.30109 74.3044 10.6953 76.6986 10.6953 79.6521C10.6953 82.6055 8.30109 84.9997 5.34766 84.9997Z" fill="url(#paint0_linear)"/>
<defs>
<linearGradient id="paint0_linear" x1="25.8942" y1="13.5099" x2="270.198" y2="246.558" gradientUnits="userSpaceOnUse">
<stop stop-color="#32BA85" stop-opacity="0"/>
<stop offset="1" stop-color="#32BA85"/>
</linearGradient>
</defs>
</svg>
