<svg width="205" height="205" viewBox="0 0 205 205" fill="none" xmlns="http://www.w3.org/2000/svg">
<path fill-rule="evenodd" clip-rule="evenodd" d="M12.8973 25.7947C20.0203 25.7947 25.7947 20.0203 25.7947 12.8973C25.7947 5.77433 20.0203 0 12.8973 0C5.77433 0 0 5.77433 0 12.8973C0 20.0203 5.77433 25.7947 12.8973 25.7947ZM12.8975 85.5299C20.0205 85.5299 25.7948 79.7555 25.7948 72.6325C25.7948 65.5095 20.0205 59.7352 12.8975 59.7352C5.77446 59.7352 0.000130674 65.5095 0.000130674 72.6325C0.000130674 79.7555 5.77446 85.5299 12.8975 85.5299ZM25.7948 132.367C25.7948 139.49 20.0205 145.265 12.8975 145.265C5.77446 145.265 0.000130674 139.49 0.000130674 132.367C0.000130674 125.244 5.77446 119.47 12.8975 119.47C20.0205 119.47 25.7948 125.244 25.7948 132.367ZM12.8975 205C20.0205 205 25.7948 199.226 25.7948 192.103C25.7948 184.98 20.0205 179.205 12.8975 179.205C5.77446 179.205 0.000130674 184.98 0.000130674 192.103C0.000130674 199.226 5.77446 205 12.8975 205ZM85.5298 72.6325C85.5298 79.7555 79.7555 85.5299 72.6325 85.5299C65.5095 85.5299 59.7351 79.7555 59.7351 72.6325C59.7351 65.5095 65.5095 59.7352 72.6325 59.7352C79.7555 59.7352 85.5298 65.5095 85.5298 72.6325ZM72.6325 145.265C79.7555 145.265 85.5298 139.49 85.5298 132.367C85.5298 125.244 79.7555 119.47 72.6325 119.47C65.5095 119.47 59.7351 125.244 59.7351 132.367C59.7351 139.49 65.5095 145.265 72.6325 145.265ZM85.5298 192.103C85.5298 199.226 79.7555 205 72.6325 205C65.5095 205 59.7351 199.226 59.7351 192.103C59.7351 184.98 65.5095 179.205 72.6325 179.205C79.7555 179.205 85.5298 184.98 85.5298 192.103ZM132.368 145.265C139.491 145.265 145.265 139.49 145.265 132.367C145.265 125.244 139.491 119.47 132.368 119.47C125.245 119.47 119.47 125.244 119.47 132.367C119.47 139.49 125.245 145.265 132.368 145.265ZM145.265 192.103C145.265 199.226 139.49 205 132.367 205C125.244 205 119.47 199.226 119.47 192.103C119.47 184.98 125.244 179.205 132.367 179.205C139.49 179.205 145.265 184.98 145.265 192.103ZM192.103 205C199.226 205 205 199.226 205 192.103C205 184.98 199.226 179.205 192.103 179.205C184.98 179.205 179.205 184.98 179.205 192.103C179.205 199.226 184.98 205 192.103 205Z" fill="url(#paint0_linear)"/>
<defs>
<linearGradient id="paint0_linear" x1="-472.5" y1="675" x2="131" y2="69.5" gradientUnits="userSpaceOnUse">
<stop stop-color="#0C56C2"/>
<stop offset="0.724824" stop-color="#0C56C2" stop-opacity="0"/>
<stop offset="0.900474" stop-color="#0C56C2" stop-opacity="0.12"/>
<stop offset="1" stop-color="#0C56C2" stop-opacity="0"/>
</linearGradient>
</defs>
</svg>
