<svg width="224" height="41" viewBox="0 0 224 41" fill="none" xmlns="http://www.w3.org/2000/svg">
<path d="M37.28 6.2C37.28 5.65067 37.4027 5.16 37.648 4.728C37.8987 4.29067 38.2373 3.952 38.664 3.712C39.096 3.46667 39.5787 3.344 40.112 3.344C40.736 3.344 41.2827 3.504 41.752 3.824C42.2213 4.144 42.5493 4.58667 42.736 5.152H41.448C41.32 4.88533 41.1387 4.68533 40.904 4.552C40.6747 4.41867 40.408 4.352 40.104 4.352C39.7787 4.352 39.488 4.42933 39.232 4.584C38.9813 4.73333 38.784 4.94667 38.64 5.224C38.5013 5.50133 38.432 5.82667 38.432 6.2C38.432 6.568 38.5013 6.89333 38.64 7.176C38.784 7.45333 38.9813 7.66933 39.232 7.824C39.488 7.97333 39.7787 8.048 40.104 8.048C40.408 8.048 40.6747 7.98133 40.904 7.848C41.1387 7.70933 41.32 7.50667 41.448 7.24H42.736C42.5493 7.81067 42.2213 8.256 41.752 8.576C41.288 8.89067 40.7413 9.048 40.112 9.048C39.5787 9.048 39.096 8.928 38.664 8.688C38.2373 8.44267 37.8987 8.104 37.648 7.672C37.4027 7.24 37.28 6.74933 37.28 6.2ZM45.9966 3.416V6.872C45.9966 7.25067 46.0953 7.54133 46.2926 7.744C46.49 7.94133 46.7673 8.04 47.1246 8.04C47.4873 8.04 47.7673 7.94133 47.9646 7.744C48.162 7.54133 48.2606 7.25067 48.2606 6.872V3.416H49.3886V6.864C49.3886 7.33867 49.2846 7.74133 49.0766 8.072C48.874 8.39733 48.5993 8.64267 48.2526 8.808C47.9113 8.97333 47.53 9.056 47.1086 9.056C46.6926 9.056 46.314 8.97333 45.9726 8.808C45.6366 8.64267 45.37 8.39733 45.1726 8.072C44.9753 7.74133 44.8766 7.33867 44.8766 6.864V3.416H45.9966ZM53.5987 9.056C53.2094 9.056 52.8574 8.98933 52.5427 8.856C52.2334 8.72267 51.9881 8.53067 51.8067 8.28C51.6254 8.02933 51.5321 7.73333 51.5267 7.392H52.7267C52.7427 7.62133 52.8227 7.80267 52.9667 7.936C53.1161 8.06933 53.3187 8.136 53.5747 8.136C53.8361 8.136 54.0414 8.07467 54.1907 7.952C54.3401 7.824 54.4147 7.65867 54.4147 7.456C54.4147 7.29067 54.3641 7.15467 54.2627 7.048C54.1614 6.94133 54.0334 6.85867 53.8787 6.8C53.7294 6.736 53.5214 6.66667 53.2547 6.592C52.8921 6.48533 52.5961 6.38133 52.3667 6.28C52.1427 6.17333 51.9481 6.016 51.7827 5.808C51.6227 5.59467 51.5427 5.312 51.5427 4.96C51.5427 4.62933 51.6254 4.34133 51.7907 4.096C51.9561 3.85067 52.1881 3.664 52.4867 3.536C52.7854 3.40267 53.1267 3.336 53.5107 3.336C54.0867 3.336 54.5534 3.47733 54.9107 3.76C55.2734 4.03733 55.4734 4.42667 55.5107 4.928H54.2787C54.2681 4.736 54.1854 4.57867 54.0307 4.456C53.8814 4.328 53.6814 4.264 53.4307 4.264C53.2121 4.264 53.0361 4.32 52.9027 4.432C52.7747 4.544 52.7107 4.70667 52.7107 4.92C52.7107 5.06933 52.7587 5.19467 52.8547 5.296C52.9561 5.392 53.0787 5.472 53.2227 5.536C53.3721 5.59467 53.5801 5.664 53.8467 5.744C54.2094 5.85067 54.5054 5.95733 54.7347 6.064C54.9641 6.17067 55.1614 6.33067 55.3267 6.544C55.4921 6.75733 55.5747 7.03733 55.5747 7.384C55.5747 7.68267 55.4974 7.96 55.3427 8.216C55.1881 8.472 54.9614 8.67733 54.6627 8.832C54.3641 8.98133 54.0094 9.056 53.5987 9.056ZM61.5458 3.416V4.32H60.0578V9H58.9378V4.32H57.4498V3.416H61.5458ZM66.1549 9.056C65.6323 9.056 65.1523 8.93333 64.7149 8.688C64.2776 8.44267 63.9309 8.104 63.6749 7.672C63.4189 7.23467 63.2909 6.74133 63.2909 6.192C63.2909 5.648 63.4189 5.16 63.6749 4.728C63.9309 4.29067 64.2776 3.94933 64.7149 3.704C65.1523 3.45867 65.6323 3.336 66.1549 3.336C66.6829 3.336 67.1629 3.45867 67.5949 3.704C68.0323 3.94933 68.3763 4.29067 68.6269 4.728C68.8829 5.16 69.0109 5.648 69.0109 6.192C69.0109 6.74133 68.8829 7.23467 68.6269 7.672C68.3763 8.104 68.0323 8.44267 67.5949 8.688C67.1576 8.93333 66.6776 9.056 66.1549 9.056ZM66.1549 8.056C66.4909 8.056 66.7869 7.98133 67.0429 7.832C67.2989 7.67733 67.4989 7.45867 67.6429 7.176C67.7869 6.89333 67.8589 6.56533 67.8589 6.192C67.8589 5.81867 67.7869 5.49333 67.6429 5.216C67.4989 4.93333 67.2989 4.71733 67.0429 4.568C66.7869 4.41867 66.4909 4.344 66.1549 4.344C65.8189 4.344 65.5203 4.41867 65.2589 4.568C65.0029 4.71733 64.8029 4.93333 64.6589 5.216C64.5149 5.49333 64.4429 5.81867 64.4429 6.192C64.4429 6.56533 64.5149 6.89333 64.6589 7.176C64.8029 7.45867 65.0029 7.67733 65.2589 7.832C65.5203 7.98133 65.8189 8.056 66.1549 8.056ZM77.1322 3.416V9H76.0122V5.368L74.5162 9H73.6682L72.1642 5.368V9H71.0442V3.416H72.3162L74.0922 7.568L75.8682 3.416H77.1322ZM80.5595 4.32V5.72H82.4395V6.608H80.5595V8.088H82.6795V9H79.4395V3.408H82.6795V4.32H80.5595ZM87.7773 9L86.5453 6.824H86.0173V9H84.8973V3.416H86.9933C87.4253 3.416 87.7933 3.49333 88.0973 3.648C88.4013 3.79733 88.628 4.00267 88.7773 4.264C88.932 4.52 89.0093 4.808 89.0093 5.128C89.0093 5.496 88.9026 5.82933 88.6893 6.128C88.476 6.42133 88.1586 6.624 87.7373 6.736L89.0733 9H87.7773ZM86.0173 5.984H86.9533C87.2573 5.984 87.484 5.912 87.6333 5.768C87.7826 5.61867 87.8573 5.41333 87.8573 5.152C87.8573 4.896 87.7826 4.69867 87.6333 4.56C87.484 4.416 87.2573 4.344 86.9533 4.344H86.0173V5.984ZM97.7766 3.416V4.32H95.4486V5.752H97.2326V6.64H95.4486V9H94.3286V3.416H97.7766ZM100.891 4.32V5.72H102.771V6.608H100.891V8.088H103.011V9H99.7708V3.408H103.011V4.32H100.891ZM106.349 4.32V5.72H108.229V6.608H106.349V8.088H108.469V9H105.229V3.408H108.469V4.32H106.349ZM112.638 3.416C113.225 3.416 113.74 3.53067 114.182 3.76C114.63 3.98933 114.974 4.31733 115.214 4.744C115.46 5.16533 115.582 5.656 115.582 6.216C115.582 6.776 115.46 7.26667 115.214 7.688C114.974 8.104 114.63 8.42667 114.182 8.656C113.74 8.88533 113.225 9 112.638 9H110.686V3.416H112.638ZM112.598 8.048C113.185 8.048 113.638 7.888 113.958 7.568C114.278 7.248 114.438 6.79733 114.438 6.216C114.438 5.63467 114.278 5.18133 113.958 4.856C113.638 4.52533 113.185 4.36 112.598 4.36H111.806V8.048H112.598ZM120.789 6.136C121.103 6.19467 121.362 6.352 121.565 6.608C121.767 6.864 121.869 7.15733 121.869 7.488C121.869 7.78667 121.794 8.05067 121.645 8.28C121.501 8.504 121.29 8.68 121.013 8.808C120.735 8.936 120.407 9 120.029 9H117.621V3.416H119.925C120.303 3.416 120.629 3.47733 120.901 3.6C121.178 3.72267 121.386 3.89333 121.525 4.112C121.669 4.33067 121.741 4.57867 121.741 4.856C121.741 5.18133 121.653 5.45333 121.477 5.672C121.306 5.89067 121.077 6.04533 120.789 6.136ZM118.741 5.72H119.765C120.031 5.72 120.237 5.66133 120.381 5.544C120.525 5.42133 120.597 5.248 120.597 5.024C120.597 4.8 120.525 4.62667 120.381 4.504C120.237 4.38133 120.031 4.32 119.765 4.32H118.741V5.72ZM119.869 8.088C120.141 8.088 120.351 8.024 120.501 7.896C120.655 7.768 120.733 7.58667 120.733 7.352C120.733 7.112 120.653 6.92533 120.493 6.792C120.333 6.65333 120.117 6.584 119.845 6.584H118.741V8.088H119.869ZM127.385 7.936H125.161L124.793 9H123.617L125.625 3.408H126.929L128.937 9H127.753L127.385 7.936ZM127.081 7.04L126.273 4.704L125.465 7.04H127.081ZM130.616 6.2C130.616 5.65067 130.739 5.16 130.984 4.728C131.235 4.29067 131.573 3.952 132 3.712C132.432 3.46667 132.915 3.344 133.448 3.344C134.072 3.344 134.619 3.504 135.088 3.824C135.557 4.144 135.885 4.58667 136.072 5.152H134.784C134.656 4.88533 134.475 4.68533 134.24 4.552C134.011 4.41867 133.744 4.352 133.44 4.352C133.115 4.352 132.824 4.42933 132.568 4.584C132.317 4.73333 132.12 4.94667 131.976 5.224C131.837 5.50133 131.768 5.82667 131.768 6.2C131.768 6.568 131.837 6.89333 131.976 7.176C132.12 7.45333 132.317 7.66933 132.568 7.824C132.824 7.97333 133.115 8.048 133.44 8.048C133.744 8.048 134.011 7.98133 134.24 7.848C134.475 7.70933 134.656 7.50667 134.784 7.24H136.072C135.885 7.81067 135.557 8.256 135.088 8.576C134.624 8.89067 134.077 9.048 133.448 9.048C132.915 9.048 132.432 8.928 132 8.688C131.573 8.44267 131.235 8.104 130.984 7.672C130.739 7.24 130.616 6.74933 130.616 6.2ZM141.381 9L139.349 6.512V9H138.229V3.416H139.349V5.92L141.381 3.416H142.733L140.429 6.184L142.797 9H141.381Z" fill="#74859C"/>
<path d="M49 35.26L41.947 39.208L43.522 31.28L37.587 25.792L45.614 24.84L49 17.5L52.386 24.84L60.413 25.792L54.478 31.28L56.053 39.208L49 35.26Z" fill="#F2994A"/>
<path d="M117 35.26L109.947 39.208L111.522 31.28L105.587 25.792L113.614 24.84L117 17.5L120.386 24.84L128.413 25.792L122.478 31.28L124.053 39.208L117 35.26Z" fill="#F2994A"/>
<path d="M83 35.26L75.947 39.208L77.522 31.28L71.587 25.792L79.614 24.84L83 17.5L86.386 24.84L94.413 25.792L88.478 31.28L90.053 39.208L83 35.26Z" fill="#F2994A"/>
<path d="M151 35.26L143.947 39.208L145.522 31.28L139.587 25.792L147.614 24.84L151 17.5L154.386 24.84L162.413 25.792L156.478 31.28L158.053 39.208L151 35.26Z" fill="#F2994A"/>
<path d="M185 35.26L177.947 39.208L179.522 31.28L173.587 25.792L181.614 24.84L185 17.5L188.386 24.84L196.413 25.792L190.478 31.28L192.053 39.208L185 35.26Z" fill="#F2994A"/>
<rect opacity="0.15" width="28" height="28" rx="7" fill="#6C5CE7"/>
<path fill-rule="evenodd" clip-rule="evenodd" d="M14.0426 6.50006C11.4101 6.48942 8.96417 7.85528 7.59538 10.1003C6.22658 12.3452 6.13469 15.1418 7.35318 17.4715L7.50342 17.7643C7.62657 17.9948 7.65233 18.2648 7.57496 18.5143C7.36057 19.0838 7.18137 19.6658 7.03838 20.2572C7.03838 20.5572 7.12423 20.7286 7.44618 20.7215C8.01642 20.5955 8.57801 20.4333 9.12749 20.2358C9.36415 20.1706 9.61578 20.1857 9.84293 20.2786C10.0504 20.3786 10.4725 20.6358 10.4868 20.6358C13.2437 22.0853 16.6106 21.6854 18.9498 19.6306C21.289 17.5757 22.1149 14.2925 21.0257 11.378C19.9365 8.46357 17.1583 6.5229 14.0426 6.50006V6.50006Z" stroke="#6C5CE7" stroke-width="1.5" stroke-linecap="round" stroke-linejoin="round"/>
<ellipse opacity="0.4" cx="10.4654" cy="13.9997" rx="0.357724" ry="0.357142" fill="#6C5CE7" stroke="#6C5CE7" stroke-width="1.5" stroke-linecap="round" stroke-linejoin="round"/>
<ellipse opacity="0.4" cx="14.0426" cy="13.9997" rx="0.357724" ry="0.357142" fill="#6C5CE7" stroke="#6C5CE7" stroke-width="1.5" stroke-linecap="round" stroke-linejoin="round"/>
<ellipse opacity="0.4" cx="17.6199" cy="13.9997" rx="0.357724" ry="0.357142" fill="#6C5CE7" stroke="#6C5CE7" stroke-width="1.5" stroke-linecap="round" stroke-linejoin="round"/>
<rect opacity="0.6" x="205" y="4" width="19" height="5" rx="2.5" fill="#DEE5EF"/>
</svg>
