<svg width="25" height="24" viewBox="0 0 25 24" fill="none" xmlns="http://www.w3.org/2000/svg">
<path d="M5.67499 3.25003C5.67466 3.91307 5.41095 4.54882 4.94187 5.01743C4.4728 5.48604 3.83678 5.74911 3.17374 5.74878C2.5107 5.74845 1.87494 5.48474 1.40634 5.01566C0.937731 4.54659 0.674657 3.91057 0.674988 3.24753C0.67532 2.58449 0.93903 1.94874 1.40811 1.48013C1.87718 1.01152 2.5132 0.748448 3.17624 0.74878C3.83928 0.749111 4.47503 1.01282 4.94364 1.4819C5.41225 1.95097 5.67532 2.58699 5.67499 3.25003ZM5.74999 7.60003H0.749988V23.25H5.74999V7.60003ZM13.65 7.60003H8.67499V23.25H13.6V15.0375C13.6 10.4625 19.5625 10.0375 19.5625 15.0375V23.25H24.5V13.3375C24.5 5.62503 15.675 5.91253 13.6 9.70003L13.65 7.60003Z" fill="#74859C"/>
</svg>
