<svg width="117" height="32" viewBox="0 0 117 32" fill="none" xmlns="http://www.w3.org/2000/svg">
<circle cx="14.4701" cy="14.167" r="14.167" fill="url(#paint0_linear)"/>
<circle cx="14.47" cy="24.7915" r="7.08351" fill="url(#paint1_linear)"/>
<path d="M40.1619 11.0075V14.7264H45.1558V17.0852H40.1619V21.0165H45.7933V23.4391H37.1868V8.58496H45.7933V11.0075H40.1619Z" fill="#001A41"/>
<path d="M55.0208 11.4963C56.4234 11.4963 57.5567 11.9425 58.4209 12.8351C59.2851 13.7134 59.7172 14.946 59.7172 16.5327V23.4391H56.7421V16.9364C56.7421 16.0014 56.5084 15.286 56.0409 14.7901C55.5733 14.2801 54.9358 14.0251 54.1283 14.0251C53.3066 14.0251 52.6549 14.2801 52.1733 14.7901C51.7057 15.286 51.472 16.0014 51.472 16.9364V23.4391H48.4969V11.6663H51.472V13.1326C51.8687 12.6226 52.3716 12.2259 52.9808 11.9425C53.6041 11.645 54.2841 11.4963 55.0208 11.4963Z" fill="#001A41"/>
<path d="M67.1577 11.475C68.0361 11.475 68.8082 11.6521 69.474 12.0063C70.1399 12.3463 70.664 12.7926 71.0465 13.3451V11.6663H74.0429V23.5241C74.0429 24.6149 73.8233 25.5854 73.3841 26.4354C72.9449 27.2996 72.2862 27.9796 71.4078 28.4755C70.5294 28.9855 69.4669 29.2405 68.2202 29.2405C66.5485 29.2405 65.1743 28.8509 64.0976 28.0717C63.0351 27.2925 62.433 26.23 62.2913 24.8841H65.2452C65.401 25.4225 65.7339 25.8475 66.2439 26.1591C66.7681 26.485 67.3985 26.6479 68.1352 26.6479C68.9994 26.6479 69.7007 26.3858 70.239 25.8616C70.7774 25.3516 71.0465 24.5724 71.0465 23.5241V21.6965C70.664 22.249 70.1328 22.7095 69.4528 23.0778C68.7869 23.4462 68.0219 23.6303 67.1577 23.6303C66.166 23.6303 65.2593 23.3753 64.4376 22.8653C63.6159 22.3553 62.9643 21.6399 62.4826 20.719C62.0151 19.784 61.7813 18.7144 61.7813 17.5102C61.7813 16.3202 62.0151 15.2647 62.4826 14.3439C62.9643 13.423 63.6089 12.7146 64.4164 12.2188C65.2381 11.723 66.1518 11.475 67.1577 11.475ZM71.0465 17.5527C71.0465 16.8302 70.9049 16.2139 70.6215 15.7039C70.3382 15.1797 69.9557 14.783 69.474 14.5139C68.9923 14.2305 68.4752 14.0888 67.9227 14.0888C67.3702 14.0888 66.8602 14.2234 66.3927 14.4926C65.9252 14.7618 65.5427 15.1585 65.2452 15.6826C64.9618 16.1926 64.8201 16.8018 64.8201 17.5102C64.8201 18.2185 64.9618 18.8419 65.2452 19.3802C65.5427 19.9044 65.9252 20.3082 66.3927 20.5915C66.8744 20.8748 67.3844 21.0165 67.9227 21.0165C68.4752 21.0165 68.9923 20.8819 69.474 20.6128C69.9557 20.3294 70.3382 19.9327 70.6215 19.4227C70.9049 18.8985 71.0465 18.2752 71.0465 17.5527Z" fill="#001A41"/>
<path d="M76.1835 17.5102C76.1835 16.3202 76.4173 15.2647 76.8848 14.3439C77.3665 13.423 78.0111 12.7146 78.8186 12.2188C79.6403 11.723 80.554 11.475 81.5599 11.475C82.4383 11.475 83.2033 11.6521 83.855 12.0063C84.5208 12.3605 85.0521 12.8067 85.4487 13.3451V11.6663H88.4451V23.4391H85.4487V21.7178C85.0662 22.2703 84.535 22.7307 83.855 23.0991C83.1891 23.4532 82.417 23.6303 81.5387 23.6303C80.547 23.6303 79.6403 23.3753 78.8186 22.8653C78.0111 22.3553 77.3665 21.6399 76.8848 20.719C76.4173 19.784 76.1835 18.7144 76.1835 17.5102ZM85.4487 17.5527C85.4487 16.8302 85.3071 16.2139 85.0237 15.7039C84.7404 15.1797 84.3579 14.783 83.8762 14.5139C83.3945 14.2305 82.8774 14.0888 82.3249 14.0888C81.7724 14.0888 81.2624 14.2234 80.7949 14.4926C80.3274 14.7618 79.9449 15.1585 79.6474 15.6826C79.364 16.1926 79.2223 16.8018 79.2223 17.5102C79.2223 18.2185 79.364 18.8419 79.6474 19.3802C79.9449 19.9044 80.3274 20.3082 80.7949 20.5915C81.2766 20.8748 81.7866 21.0165 82.3249 21.0165C82.8774 21.0165 83.3945 20.8819 83.8762 20.6128C84.3579 20.3294 84.7404 19.9327 85.0237 19.4227C85.3071 18.8985 85.4487 18.2752 85.4487 17.5527Z" fill="#001A41"/>
<path d="M95.9621 11.475C96.8405 11.475 97.6126 11.6521 98.2784 12.0063C98.9443 12.3463 99.4684 12.7926 99.851 13.3451V11.6663H102.847V23.5241C102.847 24.6149 102.628 25.5854 102.189 26.4354C101.749 27.2996 101.091 27.9796 100.212 28.4755C99.3339 28.9855 98.2713 29.2405 97.0246 29.2405C95.3529 29.2405 93.9787 28.8509 92.902 28.0717C91.8395 27.2925 91.2374 26.23 91.0957 24.8841H94.0496C94.2054 25.4225 94.5383 25.8475 95.0483 26.1591C95.5725 26.485 96.2029 26.6479 96.9396 26.6479C97.8038 26.6479 98.5051 26.3858 99.0434 25.8616C99.5818 25.3516 99.851 24.5724 99.851 23.5241V21.6965C99.4684 22.249 98.9372 22.7095 98.2572 23.0778C97.5913 23.4462 96.8263 23.6303 95.9621 23.6303C94.9704 23.6303 94.0637 23.3753 93.242 22.8653C92.4204 22.3553 91.7687 21.6399 91.287 20.719C90.8195 19.784 90.5857 18.7144 90.5857 17.5102C90.5857 16.3202 90.8195 15.2647 91.287 14.3439C91.7687 13.423 92.4133 12.7146 93.2208 12.2188C94.0425 11.723 94.9563 11.475 95.9621 11.475ZM99.851 17.5527C99.851 16.8302 99.7093 16.2139 99.4259 15.7039C99.1426 15.1797 98.7601 14.783 98.2784 14.5139C97.7967 14.2305 97.2796 14.0888 96.7271 14.0888C96.1746 14.0888 95.6646 14.2234 95.1971 14.4926C94.7296 14.7618 94.3471 15.1585 94.0496 15.6826C93.7662 16.1926 93.6246 16.8018 93.6246 17.5102C93.6246 18.2185 93.7662 18.8419 94.0496 19.3802C94.3471 19.9044 94.7296 20.3082 95.1971 20.5915C95.6788 20.8748 96.1888 21.0165 96.7271 21.0165C97.2796 21.0165 97.7967 20.8819 98.2784 20.6128C98.7601 20.3294 99.1426 19.9327 99.4259 19.4227C99.7093 18.8985 99.851 18.2752 99.851 17.5527Z" fill="#001A41"/>
<path d="M116.697 17.2977C116.697 17.7227 116.669 18.1052 116.612 18.4452H108.006C108.076 19.2952 108.374 19.9611 108.898 20.4428C109.422 20.9244 110.067 21.1653 110.832 21.1653C111.937 21.1653 112.723 20.6907 113.191 19.7415H116.399C116.059 20.8748 115.408 21.8099 114.444 22.5466C113.481 23.2691 112.298 23.6303 110.896 23.6303C109.762 23.6303 108.742 23.3824 107.836 22.8866C106.943 22.3766 106.242 21.6611 105.732 20.7403C105.236 19.8194 104.988 18.7569 104.988 17.5527C104.988 16.3343 105.236 15.2647 105.732 14.3439C106.228 13.423 106.922 12.7146 107.814 12.2188C108.707 11.723 109.734 11.475 110.896 11.475C112.015 11.475 113.014 11.7159 113.892 12.1975C114.784 12.6792 115.472 13.3663 115.953 14.2589C116.449 15.1372 116.697 16.1501 116.697 17.2977ZM113.616 16.4477C113.601 15.6826 113.325 15.0735 112.787 14.6201C112.249 14.1526 111.59 13.9188 110.811 13.9188C110.074 13.9188 109.451 14.1455 108.941 14.5989C108.445 15.038 108.14 15.6543 108.027 16.4477H113.616Z" fill="#001A41"/>
<defs>
<linearGradient id="paint0_linear" x1="14.4701" y1="0" x2="14.4701" y2="28.334" gradientUnits="userSpaceOnUse">
<stop stop-color="#32BA85"/>
<stop offset="1" stop-color="#32BA85" stop-opacity="0.7"/>
<stop offset="1" stop-color="#32BA85" stop-opacity="0.7"/>
</linearGradient>
<linearGradient id="paint1_linear" x1="14.47" y1="17.708" x2="14.47" y2="31.875" gradientUnits="userSpaceOnUse">
<stop stop-color="#0C56C2" stop-opacity="0.3"/>
<stop offset="1" stop-color="#0C56C2"/>
</linearGradient>
</defs>
</svg>
