<svg width="18" height="15" viewBox="0 0 18 15" fill="none" xmlns="http://www.w3.org/2000/svg">
<path d="M13.0224 6.28373C14.0754 5.23898 15.7824 5.23898 16.8354 6.28373C17.8884 7.32923 17.8884 9.02423 16.8354 10.069L12.7501 14.125L8.66486 10.069C7.61186 9.02423 7.61186 7.32923 8.66486 6.28373C9.71786 5.23898 11.4249 5.23898 12.4779 6.28373L12.7501 6.55373L13.0224 6.28373ZM14.4324 1.56773C15.1374 2.27498 15.5596 3.15623 15.6991 4.07123C14.6994 3.88523 13.6449 4.06373 12.7501 4.60598C11.1376 3.62873 9.00461 3.83348 7.60811 5.21948C6.00986 6.80573 5.96561 9.35573 7.47461 10.9952L7.60811 11.134L9.42386 12.937L8.25011 14.1137L1.89011 7.74473C0.312859 5.97773 0.372109 3.26423 2.06786 1.56773C3.76661 -0.130265 6.48386 -0.187265 8.25086 1.39673C10.0126 -0.185015 12.7351 -0.132515 14.4324 1.56773Z" fill="#EB5757"/>
</svg>
