<svg width="34" height="34" viewBox="0 0 34 34" fill="none" xmlns="http://www.w3.org/2000/svg">
<path d="M31.1663 18.1376C29.5458 17.2011 27.6614 16.8257 25.8057 17.0697C23.9499 17.3136 22.2266 18.1633 20.9031 19.4868C19.5796 20.8102 18.73 22.5336 18.486 24.3893C18.2421 26.2451 18.6174 28.1294 19.5539 29.75H4.24967C3.87395 29.75 3.51362 29.6007 3.24794 29.3351C2.98226 29.0694 2.83301 28.7091 2.83301 28.3333V5.66667C2.83301 5.29094 2.98226 4.93061 3.24794 4.66493C3.51362 4.39926 3.87395 4.25 4.24967 4.25H29.7497C30.1254 4.25 30.4857 4.39926 30.7514 4.66493C31.0171 4.93061 31.1663 5.29094 31.1663 5.66667V18.1376ZM17.0847 16.5509L8.00101 8.83717L6.16642 10.9962L17.1031 20.2824L27.8428 10.9891L25.9898 8.84567L17.0861 16.5509H17.0847ZM28.333 25.5H32.583L26.9163 31.1667L21.2497 25.5H25.4997V19.8333H28.333V25.5Z" fill="white"/>
</svg>
