<svg width="18" height="18" viewBox="0 0 18 18" fill="none" xmlns="http://www.w3.org/2000/svg">
<path opacity="0.4" d="M16.4999 11.955C16.4999 14.0475 14.8199 15.7425 12.7274 15.75H12.7199H5.28741C3.20241 15.75 1.49991 14.0625 1.49991 11.97V11.9625C1.49991 11.9625 1.50441 8.643 1.51041 6.9735C1.51116 6.66 1.87116 6.4845 2.11641 6.6795C3.89841 8.09325 7.08516 10.671 7.12491 10.7047C7.65741 11.1315 8.33241 11.3722 9.02241 11.3722C9.71241 11.3722 10.3874 11.1315 10.9199 10.6965C10.9597 10.6702 14.0752 8.16975 15.8842 6.73275C16.1302 6.537 16.4917 6.7125 16.4924 7.02525C16.4999 8.682 16.4999 11.955 16.4999 11.955Z" fill="white"/>
<path d="M16.107 4.2555C15.4575 3.0315 14.1795 2.25 12.7725 2.25H5.2875C3.8805 2.25 2.6025 3.0315 1.953 4.2555C1.8075 4.52925 1.8765 4.8705 2.11875 5.064L7.6875 9.51825C8.0775 9.83325 8.55 9.99 9.0225 9.99C9.0255 9.99 9.02775 9.99 9.03 9.99C9.03225 9.99 9.03525 9.99 9.0375 9.99C9.51 9.99 9.9825 9.83325 10.3725 9.51825L15.9413 5.064C16.1835 4.8705 16.2525 4.52925 16.107 4.2555Z" fill="white"/>
</svg>
