<svg width="88" height="23" viewBox="0 0 88 23" fill="none" xmlns="http://www.w3.org/2000/svg">
<path fill-rule="evenodd" clip-rule="evenodd" d="M1.56357 19.3993C3.26813 16.624 4.97269 13.7422 7.21006 11.1797C9.44698 8.51103 11.6844 5.84283 14.1344 3.38775C14.5607 3.17416 15.2 3.0676 15.6258 3.17416C16.1587 3.38775 16.691 3.60133 16.9041 4.13506L17.2238 10.0057C17.3304 10.2192 17.5435 10.0057 17.6501 9.8991C19.7809 8.19134 20.8461 5.52268 23.19 4.13461C24.2552 3.92102 25.2138 4.24117 25.8532 4.98849L26.0663 5.4152L22.5506 20.1457C21.485 20.7869 20.3133 21.3201 19.035 21.5337C18.7153 21.5337 18.289 21.3201 18.0759 20.9995C17.9693 19.6124 18.3956 18.1178 18.3956 16.6236C18.1829 16.5175 17.9693 16.7306 17.7567 16.8372C15.9455 18.3318 14.3475 20.3592 12.643 21.9609C11.6839 21.8539 10.8319 21.7473 10.0859 21.4276C9.44698 19.2918 10.1925 17.2639 10.1925 15.0228C9.55309 15.2355 9.12683 15.9833 8.59447 16.5175C7.10304 18.4379 5.82428 20.3592 4.33285 22.1745C3.4808 22.3881 2.84142 21.8539 2.30905 21.2131C1.8828 20.6803 1.45655 20.1461 1.56357 19.3993ZM30.4345 3.17371C31.9259 2.31983 33.9502 2.85356 35.229 3.60087C34.9093 4.24117 34.483 4.98849 34.0568 5.52222C33.2047 5.09505 31.6067 4.88147 30.7542 5.52222C29.9017 6.05595 29.7951 7.01685 29.5825 7.9773C29.5825 8.40447 29.9022 8.9382 30.328 9.15133C30.6476 9.47147 31.287 9.47147 31.6063 9.68506L30.8608 11.9266C30.5411 12.2472 30.0083 12.1401 29.5825 12.1401C28.4107 12.034 27.4517 11.1792 26.9188 10.2188C26.1733 8.19088 27.2385 6.0555 28.5168 4.56132C29.0496 3.81446 29.7956 3.49431 30.4345 3.17371ZM35.5482 10.1127C36.1871 9.79208 37.0396 9.57895 37.7856 9.36537C37.3593 8.19134 36.1876 7.01731 36.5073 5.41566C37.4663 2.31983 40.4492 1.35938 43.4321 1.1458C45.5624 1.03923 47.1604 2.00013 48.7584 3.0676V3.17416L46.6281 5.73626C45.0301 5.41612 43.2189 4.34865 41.5144 5.20253C41.0881 5.52313 40.8755 5.94985 40.8755 6.48358C41.3017 7.87119 42.6866 8.19134 43.8583 8.51149C43.5386 9.68551 43.0058 10.86 42.2603 11.8209C40.4492 11.7139 38.8512 12.2481 37.8926 13.7422C37.6795 14.2755 37.1466 15.0233 37.5729 15.6636C38.425 16.5175 39.7037 15.8772 40.5558 15.5566C41.1947 15.236 41.8341 14.7027 42.1538 13.9558C42.3669 13.8488 42.4735 14.2755 42.58 14.4891C42.7931 14.8097 43.0063 15.236 43.4325 15.343C44.178 12.8884 45.2432 10.5394 47.3745 8.83164C48.1204 8.51149 49.079 8.61805 49.7184 9.04522C49.9311 9.15178 50.1447 9.2588 50.2508 9.57895C49.9311 10.5394 49.3987 11.2867 48.9725 12.2476C48.5462 13.2081 48.1204 14.2755 48.4392 15.343C48.7589 15.45 48.8664 15.7702 49.1851 15.5566C51.2094 14.0619 52.1684 11.7139 52.7013 9.36537C53.021 9.15178 53.1275 8.72507 53.4472 8.9382C54.0857 9.36537 54.619 10.1127 55.4715 10.2192C56.8559 8.40492 58.774 7.33746 61.2241 7.76417C62.0761 7.97776 62.8221 8.83163 63.0356 9.68551V10.2192C64.9533 10.3258 66.5518 9.47193 67.7235 8.08432C68.6821 7.76417 69.5342 8.2979 70.1736 8.72507V9.15178C69.5342 10.6464 68.2559 11.8209 68.0423 13.5287C67.8296 13.9558 68.1493 14.2755 68.5756 14.3825C69.4276 14.4887 70.1736 13.8484 70.5998 13.2081C72.1978 11.5003 72.8367 9.36537 74.4347 7.65715C75.0741 7.44357 75.7131 7.76371 76.459 7.76371C76.7787 7.87074 77.2049 7.87073 77.4185 8.29745L75.6069 12.1401L70.9191 21.7473C69.9604 22.067 69.2145 21.5337 68.3624 21.107L68.2563 20.8934C68.2563 19.3988 69.0023 18.3313 69.3211 17.0507C68.8948 17.1578 68.576 17.4779 68.0428 17.691C67.1907 18.1182 65.9124 18.5449 64.9538 18.0117C64.3144 17.691 63.782 17.0503 63.782 16.1964C63.782 14.7018 64.528 13.5282 64.6341 12.1401C64.3144 12.034 63.782 12.034 63.2488 12.1401C62.5028 14.9154 61.0119 18.0117 58.2421 19.1852C57.1765 19.6124 55.7921 19.2913 54.8325 18.5449C53.5542 17.0503 54.1941 14.9154 54.1941 13.1015C54.1941 12.7809 54.0871 12.2476 53.6608 12.1401C53.342 12.3537 53.2345 12.6743 53.1284 12.994C52.2764 16.0894 50.0385 19.0791 47.0561 19.933C45.8844 20.1457 44.9258 19.826 44.1794 19.0791C43.7531 18.651 43.4339 18.2252 43.1142 17.691C41.3031 18.6515 39.5985 19.826 37.4677 20.2531C35.7627 20.6803 33.4192 20.6803 32.0343 19.6128C31.0753 18.866 30.6495 17.6915 30.9687 16.3043C31.3936 13.6348 33.2047 11.2867 35.5482 10.1127ZM56.9624 14.4891C57.1751 14.9163 57.2812 15.4505 57.7084 15.6636C58.0272 15.8772 58.5604 15.7697 58.9867 15.6636C59.8387 15.1294 60.0514 13.9558 60.0514 12.8884C59.3055 12.7813 58.5604 12.3542 58.0272 11.7139C57.6009 12.4612 56.9624 13.3151 56.9624 14.4891Z" fill="white" stroke="white" stroke-width="1.33589" stroke-miterlimit="2.613"/>
<path fill-rule="evenodd" clip-rule="evenodd" d="M83.9161 13.5283C85.7267 13.5283 87.1121 12.1402 87.1121 10.3255C87.1121 8.61768 85.7267 7.12305 83.9161 7.12305C82.2115 7.12305 80.7201 8.61768 80.7201 10.3255C80.7196 12.1402 82.2115 13.5283 83.9161 13.5283ZM83.9161 12.9941C82.6378 12.9941 81.466 11.8205 81.466 10.3255C81.466 8.83081 82.6378 7.76335 83.9161 7.76335C85.3005 7.76335 86.3661 8.83081 86.3661 10.3255C86.3661 11.8205 85.3005 12.9941 83.9161 12.9941ZM82.7439 12.1402H83.3823V10.6456H83.8086L84.7681 12.1402H85.4075L84.448 10.539C84.9803 10.539 85.4075 10.2189 85.4075 9.57859C85.4075 8.83127 84.8742 8.51112 84.0222 8.51112H82.7439V12.1402ZM83.3828 9.04485H84.0222C84.3419 9.04485 84.6615 9.15142 84.6615 9.57859C84.6615 10.0053 84.3419 10.1123 83.9156 10.1123H83.3823V9.04485H83.3828Z" fill="white"/>
</svg>
