<svg width="125" height="23" viewBox="0 0 125 23" fill="none" xmlns="http://www.w3.org/2000/svg">
<path d="M17.7209 2.25391H1.03752C0.47726 2.25391 0 2.73117 0 3.31218V5.20047C0 5.78148 0.47726 6.25875 1.03752 6.25875H17.7209C18.3019 6.25875 18.7584 5.78148 18.7791 5.20047V3.33293C18.7791 2.73117 18.3019 2.25391 17.7209 2.25391ZM17.7209 12.7329H1.03752C0.767766 12.7329 0.498011 12.8366 0.311257 13.0441C0.103752 13.2517 0 13.5007 0 13.7912V15.6795C0 16.2605 0.47726 16.7377 1.03752 16.7377H17.7209C18.3019 16.7377 18.7584 16.2812 18.7791 15.6795V13.7912C18.7584 13.1894 18.3019 12.7329 17.7209 12.7329ZM10.4375 17.962H1.03752C0.767766 17.962 0.498011 18.0658 0.311257 18.2733C0.124503 18.4808 0 18.7298 0 19.0203V20.9086C0 21.4896 0.47726 21.9668 1.03752 21.9668H10.4167C10.9977 21.9668 11.4542 21.4896 11.4542 20.9293V19.041C11.475 18.4185 11.0185 17.9413 10.4375 17.962ZM18.7791 7.48302H1.03752C0.767766 7.48302 0.498011 7.58677 0.311257 7.79428C0.124503 8.00178 0 8.25079 0 8.5413V10.4296C0 11.0106 0.47726 11.4879 1.03752 11.4879H18.7584C19.3394 11.4879 19.7959 11.0106 19.7959 10.4296V8.5413C19.8167 7.96028 19.3394 7.50377 18.7791 7.48302Z" fill="#74859C"/>
<path d="M38.1808 6.48733C37.662 5.94782 37.0602 5.53281 36.3755 5.2423C35.6907 4.9518 34.9644 4.80654 34.2174 4.80654C33.4912 4.78579 32.7856 4.9518 32.1216 5.26305C31.6859 5.47056 31.2916 5.76107 30.9596 6.11382V5.78181C30.9596 5.61581 30.8974 5.44981 30.7936 5.32531C30.6899 5.2008 30.5239 5.1178 30.3371 5.1178H28.0338C27.8678 5.1178 27.7018 5.18005 27.598 5.32531C27.4735 5.44981 27.4113 5.61581 27.432 5.78181V21.3031C27.432 21.4691 27.4943 21.6352 27.598 21.7597C27.7225 21.8842 27.8678 21.9464 28.0338 21.9464H30.3993C30.5654 21.9464 30.7106 21.8842 30.8351 21.7597C30.9596 21.6559 31.0426 21.4899 31.0219 21.3031V15.991C31.3539 16.3645 31.7896 16.6343 32.2669 16.8003C32.8894 17.0286 33.5327 17.1531 34.1967 17.1531C34.9437 17.1531 35.6907 17.0078 36.3755 16.7173C37.0602 16.4268 37.6828 16.0118 38.2015 15.4723C38.741 14.912 39.156 14.248 39.4465 13.5217C39.7786 12.7125 39.9238 11.8409 39.9031 10.9694C39.9238 10.0979 39.7578 9.22639 39.4465 8.39637C39.1353 7.7116 38.7203 7.04759 38.1808 6.48733ZM36.0642 12.1107C35.9397 12.4427 35.753 12.7332 35.504 13.003C35.0267 13.5217 34.3419 13.8122 33.6364 13.8122C33.2837 13.8122 32.9309 13.75 32.5989 13.584C32.2876 13.4387 31.9971 13.252 31.7481 13.003C31.4991 12.754 31.3124 12.4427 31.1879 12.1107C30.9181 11.4052 30.9181 10.6374 31.1879 9.93191C31.3124 9.5999 31.5199 9.30939 31.7481 9.06038C31.9971 8.81138 32.2876 8.60388 32.5989 8.45862C32.9309 8.31337 33.2837 8.23037 33.6364 8.23037C34.0099 8.23037 34.3419 8.29262 34.6947 8.45862C35.0059 8.60388 35.2965 8.79063 35.5247 9.03963C35.7737 9.28864 35.9397 9.57915 36.085 9.91115C36.334 10.6374 36.3132 11.4052 36.0642 12.1107ZM52.5816 5.13855H50.2368C50.0708 5.13855 49.9048 5.2008 49.801 5.32531C49.6765 5.44981 49.6143 5.61581 49.6143 5.80257V6.09307C49.3238 5.74031 48.9503 5.47056 48.556 5.28381C47.9127 4.97255 47.2072 4.8273 46.5017 4.8273C44.9869 4.8273 43.5551 5.42906 42.4761 6.48733C41.9158 7.04759 41.4801 7.71161 41.1896 8.43787C40.8576 9.24714 40.6916 10.1187 40.7123 11.0109C40.6916 11.8824 40.8576 12.754 41.1896 13.584C41.5008 14.3102 41.9158 14.9743 42.4761 15.5345C43.5344 16.6135 44.9869 17.2153 46.4809 17.2153C47.1865 17.2361 47.892 17.0701 48.5352 16.7588C48.9295 16.5513 49.3238 16.2815 49.6143 15.9495V16.2608C49.6143 16.4268 49.6765 16.5928 49.801 16.7173C49.9255 16.821 50.0708 16.904 50.2368 16.904H52.5816C52.7476 16.904 52.9136 16.8418 53.0173 16.7173C53.1418 16.5928 53.2041 16.4268 53.2041 16.2608V5.82331C53.2041 5.65731 53.1418 5.49131 53.0381 5.36681C52.9136 5.22155 52.7476 5.13855 52.5816 5.13855ZM49.4068 12.1107C49.2823 12.4427 49.0955 12.7332 48.8465 13.003C48.5975 13.252 48.3277 13.4595 48.0165 13.6047C47.3525 13.916 46.5847 13.916 45.9207 13.6047C45.6094 13.4595 45.3189 13.252 45.0699 13.003C44.8209 12.754 44.6342 12.4427 44.5097 12.1107C44.2607 11.4052 44.2607 10.6374 44.5097 9.93191C44.6342 9.5999 44.8209 9.33014 45.0699 9.06038C45.3189 8.81138 45.5887 8.60388 45.9207 8.45862C46.5847 8.14737 47.3525 8.14737 47.9957 8.45862C48.307 8.60388 48.5975 8.79063 48.8257 9.03963C49.054 9.28864 49.2408 9.57915 49.386 9.91115C49.6765 10.6374 49.6765 11.4052 49.4068 12.1107ZM75.9466 10.6997C75.6146 10.4092 75.2203 10.1602 74.8053 9.99415C74.3696 9.8074 73.8923 9.6829 73.4358 9.57915L71.6512 9.22639C71.1947 9.14338 70.8627 9.01889 70.6967 8.87363C70.5515 8.76988 70.4477 8.60387 70.4477 8.41712C70.4477 8.23037 70.5515 8.06436 70.7797 7.91911C71.091 7.75311 71.423 7.6701 71.7757 7.69085C72.2323 7.69085 72.6888 7.79461 73.1038 7.96061C73.5188 8.14737 73.913 8.33412 74.2866 8.58313C74.8053 8.91513 75.2618 8.85288 75.5731 8.47937L76.4239 7.5041C76.5899 7.3381 76.6729 7.1306 76.6936 6.90234C76.6729 6.65334 76.5484 6.44583 76.3616 6.27983C76.0088 5.96857 75.4278 5.63656 74.6601 5.30455C73.8923 4.97255 72.917 4.80654 71.7757 4.80654C71.0702 4.78579 70.3855 4.88954 69.7215 5.09705C69.1612 5.2838 68.6217 5.55356 68.1444 5.90632C67.7087 6.23833 67.3767 6.65333 67.1277 7.15134C66.8994 7.6286 66.7749 8.14737 66.7749 8.66613C66.7749 9.6414 67.0654 10.4299 67.6464 11.0109C68.2274 11.5919 68.9952 11.9862 69.9497 12.173L71.8172 12.588C72.2115 12.6502 72.6265 12.7747 73 12.9615C73.2075 13.0445 73.332 13.252 73.332 13.4802C73.332 13.6877 73.2283 13.8745 73 14.0405C72.7718 14.2065 72.3983 14.3102 71.9003 14.3102C71.4022 14.3102 70.8835 14.2065 70.427 13.9782C69.9912 13.7707 69.597 13.501 69.2234 13.1897C69.0574 13.0652 68.8914 12.9615 68.6839 12.8785C68.4764 12.8162 68.2067 12.8785 67.9369 13.1067L66.9201 13.8745C66.6296 14.082 66.4844 14.4347 66.5674 14.7668C66.6296 15.1195 66.8994 15.4515 67.4182 15.8458C68.7047 16.7173 70.2402 17.1738 71.7965 17.1323C72.5228 17.1323 73.249 17.0493 73.9338 16.8418C74.5356 16.655 75.0958 16.3853 75.5938 16.0118C76.0503 15.6798 76.4239 15.244 76.6729 14.7253C76.9219 14.2272 77.0464 13.6877 77.0464 13.1275C77.0671 12.6295 76.9634 12.1315 76.7559 11.6749C76.5484 11.3429 76.2786 10.9902 75.9466 10.6997ZM86.1973 13.5425C86.0936 13.3557 85.9068 13.2312 85.6786 13.1897C85.4711 13.1897 85.2428 13.252 85.0768 13.3765C84.7863 13.5632 84.4543 13.667 84.1223 13.6877C84.0185 13.6877 83.894 13.667 83.7903 13.6462C83.6658 13.6255 83.562 13.5632 83.479 13.4802C83.3753 13.3765 83.2923 13.252 83.23 13.1275C83.147 12.92 83.1055 12.7125 83.1262 12.505V8.25112H86.1558C86.3426 8.25112 86.5086 8.16812 86.6331 8.04361C86.7576 7.91911 86.8406 7.77386 86.8406 7.5871V5.78181C86.8406 5.59506 86.7783 5.42906 86.6331 5.32531C86.5086 5.2008 86.3426 5.13855 86.1766 5.13855H83.1262V2.23349C83.1262 2.06749 83.064 1.88073 82.9395 1.77698C82.815 1.67323 82.6697 1.61098 82.5037 1.59023H80.1382C79.9722 1.59023 79.8062 1.65248 79.6817 1.77698C79.5572 1.90148 79.4742 2.06749 79.4742 2.23349V5.13855H78.1254C77.9594 5.13855 77.7934 5.2008 77.6689 5.34606C77.5651 5.47056 77.5029 5.63656 77.5029 5.80257V7.60785C77.5029 7.77386 77.5651 7.93986 77.6689 8.06437C77.7726 8.20962 77.9386 8.27187 78.1254 8.27187H79.4742V13.335C79.4534 13.9367 79.5779 14.5385 79.8269 15.078C80.0552 15.5345 80.3457 15.9288 80.7399 16.2608C81.1135 16.572 81.5492 16.8003 82.0265 16.9248C82.5037 17.0701 83.0017 17.1531 83.4998 17.1531C84.143 17.1531 84.807 17.0493 85.4295 16.8418C86.0106 16.655 86.5293 16.323 86.9443 15.8873C87.2141 15.6175 87.2348 15.1818 87.0273 14.8705L86.1973 13.5425ZM99.0211 5.13855H96.6763C96.5103 5.13855 96.365 5.2008 96.2405 5.32531C96.116 5.44981 96.0538 5.61581 96.0538 5.80257V6.09307C95.7633 5.74031 95.4105 5.47056 94.9955 5.28381C94.3522 4.97255 93.6467 4.8273 92.9412 4.8273C91.4264 4.8273 89.9946 5.42906 88.9156 6.48733C88.3554 7.04759 87.9196 7.71161 87.6291 8.43787C87.2971 9.24714 87.1311 10.1187 87.1518 10.9902C87.1311 11.8617 87.2971 12.7332 87.6291 13.5632C87.9196 14.2895 88.3761 14.9535 88.9156 15.5138C89.9739 16.5928 91.4057 17.1946 92.9205 17.1946C93.626 17.2153 94.3315 17.0493 94.9748 16.7588C95.3898 16.5513 95.7633 16.2815 96.0538 15.9495V16.2608C96.0538 16.4268 96.116 16.5928 96.2405 16.6965C96.365 16.821 96.5103 16.8833 96.6763 16.8833H99.0211C99.3739 16.8833 99.6436 16.6135 99.6436 16.2608V5.82331C99.6436 5.65731 99.5814 5.49131 99.4776 5.36681C99.3739 5.22155 99.2078 5.13855 99.0211 5.13855ZM95.867 12.1107C95.7425 12.4427 95.5558 12.7332 95.3068 13.003C95.0578 13.252 94.788 13.4595 94.4767 13.6047C94.1447 13.75 93.792 13.833 93.4185 13.833C93.045 13.833 92.713 13.75 92.381 13.6047C92.0697 13.4595 91.7792 13.252 91.5302 13.003C91.2812 12.754 91.0944 12.4427 90.9907 12.1107C90.7417 11.4052 90.7417 10.6374 90.9907 9.93191C91.1152 9.5999 91.3019 9.30939 91.5302 9.06038C91.7792 8.81138 92.0697 8.60388 92.381 8.45862C92.713 8.31337 93.0657 8.23037 93.4185 8.23037C93.7712 8.23037 94.124 8.29262 94.4767 8.45862C94.788 8.60388 95.0578 8.79063 95.3068 9.03963C95.5558 9.28864 95.7425 9.57915 95.867 9.91115C96.1368 10.6167 96.1368 11.4052 95.867 12.1107ZM111.886 13.3765L110.538 12.339C110.289 12.1314 110.04 12.0692 109.832 12.1522C109.645 12.2352 109.479 12.3597 109.334 12.505C109.044 12.8577 108.691 13.169 108.317 13.4387C107.902 13.667 107.467 13.7915 107.01 13.75C106.471 13.75 105.972 13.6047 105.537 13.2935C105.101 12.9822 104.769 12.5672 104.603 12.0484C104.478 11.6957 104.416 11.3429 104.416 10.9902C104.416 10.6167 104.478 10.2639 104.603 9.8904C104.727 9.5584 104.893 9.26789 105.142 9.01888C105.391 8.76988 105.661 8.56237 105.972 8.43787C106.305 8.29262 106.657 8.20962 107.031 8.20962C107.487 8.18886 107.944 8.31337 108.338 8.54162C108.732 8.79063 109.064 9.10189 109.355 9.47539C109.479 9.62065 109.645 9.74515 109.832 9.82815C110.04 9.91116 110.289 9.8489 110.538 9.64139L111.886 8.62462C112.052 8.52087 112.177 8.35487 112.239 8.16812C112.322 7.96061 112.301 7.73236 112.177 7.54561C111.658 6.73634 110.953 6.07232 110.102 5.59506C109.21 5.09705 108.151 4.8273 106.969 4.8273C106.138 4.8273 105.308 4.9933 104.52 5.30455C103.773 5.61581 103.109 6.05157 102.549 6.61183C101.988 7.17209 101.532 7.83611 101.221 8.58313C100.577 10.1394 100.577 11.8824 101.221 13.4387C101.532 14.165 101.968 14.8498 102.549 15.3893C103.731 16.5513 105.308 17.1738 106.969 17.1738C108.151 17.1738 109.21 16.9041 110.102 16.406C110.953 15.9288 111.679 15.2648 112.198 14.4347C112.301 14.248 112.322 14.0197 112.26 13.833C112.177 13.667 112.052 13.501 111.886 13.3765ZM124.378 15.8043L120.664 10.3677L123.839 6.17607C123.984 5.98932 124.046 5.71956 123.963 5.49131C123.901 5.32531 123.756 5.1593 123.361 5.1593H120.851C120.705 5.1593 120.56 5.2008 120.436 5.26305C120.27 5.34606 120.145 5.47056 120.062 5.61581L117.531 9.16414H116.929V0.78096C116.929 0.614957 116.866 0.448951 116.742 0.324448C116.617 0.199945 116.472 0.137695 116.306 0.137695H113.961C113.795 0.137695 113.629 0.199945 113.505 0.324448C113.38 0.448951 113.318 0.594206 113.318 0.78096V16.24C113.318 16.4268 113.38 16.572 113.505 16.6965C113.629 16.821 113.795 16.8833 113.961 16.8833H116.306C116.472 16.8833 116.638 16.821 116.742 16.6965C116.866 16.572 116.929 16.406 116.929 16.24V12.1522H117.593L120.353 16.3853C120.519 16.6965 120.83 16.8833 121.162 16.8833H123.797C124.191 16.8833 124.357 16.6965 124.44 16.5305C124.544 16.2815 124.523 16.0118 124.378 15.8043ZM65.9034 5.13855H63.2681C63.0606 5.13855 62.8738 5.2008 62.7286 5.34606C62.604 5.47056 62.521 5.61581 62.4795 5.78181L60.529 13.003H60.0517L57.9767 5.78181C57.9352 5.63656 57.8729 5.49131 57.7692 5.34606C57.6447 5.2008 57.4787 5.1178 57.2919 5.1178H54.6151C54.2624 5.1178 54.0549 5.22155 53.9511 5.47056C53.8889 5.67806 53.8889 5.90632 53.9511 6.11382L57.2712 16.2815C57.3334 16.4268 57.3957 16.5928 57.5202 16.6965C57.6447 16.821 57.8314 16.8833 58.0182 16.8833H59.4292L59.3047 17.2153L58.9935 18.1491C58.8897 18.4396 58.7237 18.6886 58.4747 18.8753C58.2465 19.0413 57.9767 19.1451 57.6862 19.1243C57.4372 19.1243 57.2089 19.0621 56.9807 18.9791C56.7524 18.8753 56.5449 18.7508 56.3582 18.6056C56.1922 18.4811 55.9847 18.4188 55.7564 18.4188H55.7356C55.4866 18.4396 55.2584 18.5641 55.1339 18.7923L54.3039 20.0166C53.9719 20.5561 54.1586 20.8881 54.3661 21.0749C54.8226 21.4899 55.3414 21.8012 55.9224 21.9879C56.5657 22.2162 57.2297 22.3199 57.8937 22.3199C59.0972 22.3199 60.0932 21.9879 60.861 21.3446C61.6495 20.6391 62.2513 19.7261 62.5418 18.6886L66.4014 6.11382C66.4844 5.88557 66.5051 5.65731 66.4221 5.44981C66.4014 5.30456 66.2561 5.13855 65.9034 5.13855Z" fill="white"/>
</svg>
