<svg width="221" height="41" viewBox="0 0 221 41" fill="none" xmlns="http://www.w3.org/2000/svg">
<path d="M31.406 4.54883H1.83876C0.84583 4.54883 0 5.39466 0 6.42437V9.77091C0 10.8006 0.84583 11.6465 1.83876 11.6465H31.406C32.4357 11.6465 33.2448 10.8006 33.2816 9.77091V6.46114C33.2816 5.39466 32.4357 4.54883 31.406 4.54883ZM31.406 23.1203H1.83876C1.36068 23.1203 0.882605 23.3042 0.551628 23.672C0.183876 24.0397 0 24.481 0 24.9959V28.3424C0 29.3721 0.84583 30.218 1.83876 30.218H31.406C32.4357 30.218 33.2448 29.4089 33.2816 28.3424V24.9959C33.2448 23.9294 32.4357 23.1203 31.406 23.1203ZM18.4979 32.3877H1.83876C1.36068 32.3877 0.882605 32.5716 0.551628 32.9393C0.220651 33.3071 0 33.7484 0 34.2632V37.6098C0 38.6395 0.84583 39.4853 1.83876 39.4853H18.4612C19.4909 39.4853 20.2999 38.6395 20.2999 37.6466V34.3C20.3367 33.1968 19.5276 32.3509 18.4979 32.3877ZM33.2816 13.8162H1.83876C1.36068 13.8162 0.882605 14.0001 0.551628 14.3678C0.220651 14.7356 0 15.1769 0 15.6917V19.0383C0 20.068 0.84583 20.9138 1.83876 20.9138H33.2448C34.2745 20.9138 35.0836 20.068 35.0836 19.0383V15.6917C35.1203 14.662 34.2745 13.853 33.2816 13.8162Z" fill="#74859C"/>
<path d="M67.6659 12.0516C66.7465 11.0954 65.6801 10.3599 64.4665 9.84504C63.2529 9.33019 61.9658 9.07276 60.6418 9.07276C59.3547 9.03599 58.1044 9.33019 56.9275 9.88182C56.1553 10.2496 55.4565 10.7644 54.8681 11.3896V10.8012C54.8681 10.507 54.7578 10.2128 54.5739 9.99214C54.3901 9.77149 54.0959 9.62439 53.7649 9.62439H49.6828C49.3886 9.62439 49.0944 9.73472 48.9105 9.99214C48.6899 10.2128 48.5796 10.507 48.6163 10.8012V38.3091C48.6163 38.6033 48.7267 38.8975 48.9105 39.1181C49.1312 39.3388 49.3886 39.4491 49.6828 39.4491H53.8752C54.1694 39.4491 54.4268 39.3388 54.6475 39.1181C54.8681 38.9342 55.0152 38.64 54.9785 38.3091V28.8946C55.5669 29.5566 56.3391 30.0346 57.185 30.3288C58.2882 30.7334 59.4283 30.954 60.6051 30.954C61.929 30.954 63.2529 30.6966 64.4665 30.1817C65.6801 29.6669 66.7833 28.9314 67.7027 27.9752C68.6588 26.9823 69.3944 25.8055 69.9092 24.5184C70.4976 23.0841 70.755 21.5396 70.7183 19.995C70.755 18.4504 70.4608 16.9059 69.9092 15.4349C69.3576 14.2213 68.6221 13.0445 67.6659 12.0516ZM63.9148 22.0176C63.6942 22.606 63.3632 23.1209 62.9219 23.599C62.0761 24.5184 60.8625 25.0332 59.6121 25.0332C58.987 25.0332 58.3618 24.9229 57.7734 24.6287C57.2217 24.3712 56.7069 24.0403 56.2656 23.599C55.8243 23.1577 55.4933 22.606 55.2727 22.0176C54.7946 20.7673 54.7946 19.4066 55.2727 18.1562C55.4933 17.5678 55.8611 17.053 56.2656 16.6117C56.7069 16.1704 57.2217 15.8026 57.7734 15.5452C58.3618 15.2878 58.987 15.1407 59.6121 15.1407C60.2741 15.1407 60.8625 15.251 61.4877 15.5452C62.0393 15.8026 62.5542 16.1336 62.9587 16.5749C63.4 17.0162 63.6942 17.5311 63.9516 18.1195C64.3929 19.4066 64.3561 20.7673 63.9148 22.0176ZM93.1879 9.66117H89.0323C88.7381 9.66117 88.4439 9.77149 88.2601 9.99214C88.0394 10.2128 87.9291 10.507 87.9291 10.838V11.3528C87.4142 10.7276 86.7523 10.2496 86.0535 9.91859C84.9135 9.36697 83.6631 9.10954 82.4128 9.10954C79.7282 9.10954 77.1907 10.176 75.2784 12.0516C74.2855 13.0445 73.5132 14.2213 72.9983 15.5084C72.4099 16.9427 72.1157 18.4872 72.1525 20.0686C72.1157 21.6131 72.4099 23.1577 72.9983 24.6287C73.55 25.9158 74.2855 27.0926 75.2784 28.0856C77.1539 29.9979 79.7282 31.0643 82.376 31.0643C83.6264 31.1011 84.8767 30.8069 86.0168 30.2553C86.7155 29.8875 87.4142 29.4095 87.9291 28.8211V29.3727C87.9291 29.6669 88.0394 29.9611 88.2601 30.1817C88.4807 30.3656 88.7381 30.5127 89.0323 30.5127H93.1879C93.4821 30.5127 93.7763 30.4024 93.9602 30.1817C94.1809 29.9611 94.2912 29.6669 94.2912 29.3727V10.8747C94.2912 10.5805 94.1809 10.2863 93.997 10.0657C93.7763 9.80827 93.4821 9.66117 93.1879 9.66117ZM87.5613 22.0176C87.3407 22.606 87.0097 23.1209 86.5684 23.599C86.1271 24.0403 85.649 24.408 85.0974 24.6655C83.9206 25.2171 82.5599 25.2171 81.3831 24.6655C80.8315 24.408 80.3166 24.0403 79.8753 23.599C79.434 23.1577 79.103 22.606 78.8824 22.0176C78.4411 20.7673 78.4411 19.4066 78.8824 18.1562C79.103 17.5678 79.434 17.0898 79.8753 16.6117C80.3166 16.1704 80.7947 15.8026 81.3831 15.5452C82.5599 14.9936 83.9206 14.9936 85.0606 15.5452C85.6122 15.8026 86.1271 16.1336 86.5316 16.5749C86.9361 17.0162 87.2671 17.5311 87.5245 18.1195C88.0394 19.4066 88.0394 20.7673 87.5613 22.0176ZM134.597 19.5169C134.008 19.0021 133.31 18.5608 132.574 18.2666C131.802 17.9356 130.956 17.7149 130.147 17.5311L126.984 16.9059C126.175 16.7588 125.587 16.5381 125.293 16.2807C125.035 16.0968 124.851 15.8026 124.851 15.4716C124.851 15.1407 125.035 14.8465 125.44 14.589C125.991 14.2948 126.58 14.1477 127.205 14.1845C128.014 14.1845 128.823 14.3684 129.559 14.6626C130.294 14.9936 130.993 15.3246 131.655 15.7659C132.574 16.3543 133.383 16.2439 133.935 15.582L135.443 13.8535C135.737 13.5593 135.884 13.1916 135.921 12.7871C135.884 12.3458 135.663 11.978 135.332 11.6838C134.707 11.1322 133.677 10.5438 132.317 9.95537C130.956 9.36696 129.228 9.07276 127.205 9.07276C125.955 9.03599 124.741 9.21986 123.564 9.58761C122.571 9.91859 121.615 10.3967 120.769 11.0219C119.997 11.6103 119.409 12.3458 118.967 13.2284C118.563 14.0742 118.342 14.9936 118.342 15.913C118.342 17.6414 118.857 19.0388 119.887 20.0686C120.916 21.0983 122.277 21.797 123.969 22.128L127.279 22.8635C127.977 22.9738 128.713 23.1944 129.375 23.5254C129.743 23.6725 129.963 24.0403 129.963 24.4448C129.963 24.8125 129.779 25.1435 129.375 25.4377C128.97 25.7319 128.308 25.9158 127.426 25.9158C126.543 25.9158 125.624 25.7319 124.815 25.3274C124.042 24.9597 123.344 24.4816 122.682 23.9299C122.387 23.7093 122.093 23.5254 121.726 23.3783C121.358 23.268 120.88 23.3783 120.402 23.7828L118.6 25.1435C118.085 25.5113 117.827 26.1365 117.974 26.7249C118.085 27.35 118.563 27.9385 119.482 28.6372C121.762 30.1817 124.484 30.9908 127.242 30.9172C128.529 30.9172 129.816 30.7701 131.03 30.4024C132.096 30.0714 133.089 29.5933 133.972 28.9314C134.781 28.343 135.443 27.5707 135.884 26.6513C136.325 25.7687 136.546 24.8126 136.546 23.8196C136.583 22.937 136.399 22.0544 136.031 21.2454C135.663 20.657 135.185 20.0318 134.597 19.5169ZM152.764 24.5551C152.58 24.2242 152.249 24.0035 151.844 23.9299C151.477 23.9299 151.072 24.0403 150.778 24.2609C150.263 24.5919 149.675 24.7758 149.086 24.8125C148.902 24.8125 148.682 24.7758 148.498 24.739C148.277 24.7022 148.093 24.5919 147.946 24.4448C147.762 24.2609 147.615 24.0403 147.505 23.8196C147.358 23.4519 147.284 23.0841 147.321 22.7164V15.1775H152.69C153.021 15.1775 153.315 15.0303 153.536 14.8097C153.757 14.589 153.904 14.3316 153.904 14.0006V10.8012C153.904 10.4702 153.794 10.176 153.536 9.99214C153.315 9.77149 153.021 9.66117 152.727 9.66117H147.321V4.51264C147.321 4.21844 147.211 3.88746 146.99 3.70358C146.769 3.5197 146.512 3.40938 146.218 3.3726H142.025C141.731 3.3726 141.437 3.48293 141.216 3.70358C140.996 3.92423 140.849 4.21844 140.849 4.51264V9.66117H138.458C138.164 9.66117 137.87 9.77149 137.649 10.0289C137.465 10.2496 137.355 10.5438 137.355 10.838V14.0374C137.355 14.3316 137.465 14.6258 137.649 14.8465C137.833 15.1039 138.127 15.2142 138.458 15.2142H140.849V24.1874C140.812 25.2539 141.033 26.3203 141.474 27.2765C141.878 28.0855 142.393 28.7843 143.092 29.3727C143.754 29.9243 144.526 30.3288 145.372 30.5495C146.218 30.8069 147.1 30.954 147.983 30.954C149.123 30.954 150.3 30.7701 151.403 30.4024C152.433 30.0714 153.352 29.483 154.088 28.7107C154.566 28.2326 154.603 27.4604 154.235 26.9087L152.764 24.5551ZM175.491 9.66117H171.335C171.041 9.66117 170.784 9.77149 170.563 9.99214C170.342 10.2128 170.232 10.507 170.232 10.838V11.3528C169.717 10.7276 169.092 10.2496 168.357 9.91859C167.216 9.36697 165.966 9.10954 164.716 9.10954C162.031 9.10954 159.494 10.176 157.581 12.0516C156.588 13.0445 155.816 14.2213 155.301 15.5084C154.713 16.9427 154.419 18.4872 154.455 20.0318C154.419 21.5763 154.713 23.1209 155.301 24.5919C155.816 25.879 156.625 27.0558 157.581 28.0488C159.457 29.9611 161.994 31.0276 164.679 31.0276C165.929 31.0643 167.18 30.7701 168.32 30.2553C169.055 29.8875 169.717 29.4095 170.232 28.8211V29.3727C170.232 29.6669 170.342 29.9611 170.563 30.145C170.784 30.3656 171.041 30.4759 171.335 30.4759H175.491C176.116 30.4759 176.594 29.9979 176.594 29.3727V10.8747C176.594 10.5805 176.484 10.2863 176.3 10.0657C176.116 9.80827 175.822 9.66117 175.491 9.66117ZM169.901 22.0176C169.68 22.606 169.349 23.1209 168.908 23.599C168.467 24.0403 167.989 24.408 167.437 24.6655C166.849 24.9229 166.224 25.07 165.562 25.07C164.9 25.07 164.311 24.9229 163.723 24.6655C163.171 24.408 162.656 24.0403 162.215 23.599C161.774 23.1577 161.443 22.606 161.259 22.0176C160.818 20.7673 160.818 19.4066 161.259 18.1562C161.48 17.5678 161.811 17.053 162.215 16.6117C162.656 16.1704 163.171 15.8026 163.723 15.5452C164.311 15.2878 164.936 15.1407 165.562 15.1407C166.187 15.1407 166.812 15.251 167.437 15.5452C167.989 15.8026 168.467 16.1336 168.908 16.5749C169.349 17.0162 169.68 17.5311 169.901 18.1195C170.379 19.3698 170.379 20.7673 169.901 22.0176ZM198.292 24.2609L195.901 22.4222C195.46 22.0544 195.019 21.9441 194.651 22.0912C194.32 22.2383 194.026 22.4589 193.768 22.7164C193.253 23.3415 192.628 23.8932 191.966 24.3713C191.231 24.7758 190.458 24.9964 189.649 24.9229C188.693 24.9229 187.811 24.6655 187.038 24.1138C186.266 23.5622 185.678 22.8267 185.383 21.9073C185.163 21.2821 185.052 20.6569 185.052 20.0318C185.052 19.3698 185.163 18.7446 185.383 18.0827C185.604 17.4943 185.898 16.9794 186.34 16.5381C186.781 16.0968 187.259 15.7291 187.811 15.5084C188.399 15.251 189.024 15.1039 189.686 15.1039C190.495 15.0671 191.304 15.2878 192.003 15.6923C192.702 16.1336 193.29 16.6852 193.805 17.3472C194.026 17.6046 194.32 17.8253 194.651 17.9724C195.019 18.1195 195.46 18.0091 195.901 17.6414L198.292 15.8394C198.586 15.6555 198.806 15.3613 198.917 15.0304C199.064 14.6626 199.027 14.2581 198.806 13.9271C197.887 12.4929 196.637 11.3161 195.129 10.4702C193.548 9.58762 191.672 9.10954 189.576 9.10954C188.105 9.10954 186.634 9.40374 185.236 9.95537C183.912 10.507 182.736 11.2793 181.743 12.2722C180.75 13.2651 179.941 14.4419 179.389 15.7659C178.249 18.524 178.249 21.6131 179.389 24.3713C179.941 25.6584 180.713 26.872 181.743 27.8281C183.839 29.8875 186.634 30.9908 189.576 30.9908C191.672 30.9908 193.548 30.5127 195.129 29.6301C196.637 28.7843 197.924 27.6075 198.843 26.1365C199.027 25.8055 199.064 25.401 198.954 25.07C198.806 24.7758 198.586 24.4816 198.292 24.2609ZM220.43 28.5636L213.847 18.9285L219.474 11.4999C219.732 11.169 219.842 10.6909 219.695 10.2863C219.584 9.99214 219.327 9.69794 218.628 9.69794H214.178C213.921 9.69794 213.664 9.77149 213.443 9.88182C213.149 10.0289 212.928 10.2496 212.781 10.507L208.294 16.7956H207.228V1.93837C207.228 1.64417 207.118 1.34997 206.897 1.12931C206.676 0.908663 206.419 0.79834 206.125 0.79834H201.969C201.675 0.79834 201.381 0.908663 201.16 1.12931C200.939 1.34997 200.829 1.6074 200.829 1.93837V29.3359C200.829 29.6669 200.939 29.9243 201.16 30.145C201.381 30.3656 201.675 30.4759 201.969 30.4759H206.125C206.419 30.4759 206.713 30.3656 206.897 30.145C207.118 29.9243 207.228 29.6301 207.228 29.3359V22.0912H208.405L213.296 29.5933C213.59 30.145 214.142 30.4759 214.73 30.4759H219.401C220.099 30.4759 220.393 30.145 220.541 29.8508C220.724 29.4095 220.688 28.9314 220.43 28.5636ZM116.798 9.66117H112.127C111.759 9.66117 111.428 9.77149 111.171 10.0289C110.95 10.2496 110.803 10.507 110.73 10.8012L107.273 23.599H106.427L102.749 10.8012C102.676 10.5438 102.566 10.2863 102.382 10.0289C102.161 9.77149 101.867 9.62439 101.536 9.62439H96.7919C96.1667 9.62439 95.799 9.80827 95.6151 10.2496C95.5048 10.6173 95.5048 11.0219 95.6151 11.3896L101.499 29.4095C101.609 29.6669 101.72 29.9611 101.94 30.145C102.161 30.3656 102.492 30.4759 102.823 30.4759H105.324L105.103 31.0643L104.551 32.7192C104.368 33.2341 104.073 33.6754 103.632 34.0064C103.228 34.3006 102.749 34.4844 102.235 34.4477C101.793 34.4477 101.389 34.3373 100.984 34.1902C100.58 34.0064 100.212 33.7857 99.881 33.5283C99.5868 33.3076 99.2191 33.1973 98.8145 33.1973H98.7778C98.3365 33.2341 97.9319 33.4547 97.7113 33.8593L96.2403 36.029C95.6519 36.9851 95.9829 37.5736 96.3506 37.9045C97.1597 38.64 98.079 39.1917 99.1087 39.5226C100.249 39.9272 101.426 40.111 102.602 40.111C104.735 40.111 106.501 39.5226 107.861 38.3826C109.259 37.1323 110.325 35.5141 110.84 33.6754L117.68 11.3896C117.827 10.9851 117.864 10.5805 117.717 10.2128C117.68 9.95537 117.423 9.66117 116.798 9.66117Z" fill="#74859C"/>
</svg>
