<svg width="34" height="35" viewBox="0 0 34 35" fill="none" xmlns="http://www.w3.org/2000/svg">
<path d="M25.2751 22.6834L25.5244 22.9342L25.7766 22.6834C26.0726 22.3874 26.424 22.1526 26.8107 21.9925C27.1974 21.8323 27.6119 21.7498 28.0305 21.7498C28.4491 21.7498 28.8636 21.8323 29.2503 21.9925C29.637 22.1526 29.9884 22.3874 30.2844 22.6834C30.5804 22.9794 30.8152 23.3308 30.9754 23.7175C31.1356 24.1042 31.218 24.5187 31.218 24.9373C31.218 25.3559 31.1356 25.7704 30.9754 26.1571C30.8152 26.5439 30.5804 26.8953 30.2844 27.1912L25.5244 31.9498L20.7673 27.1912C20.1695 26.5935 19.8336 25.7827 19.8336 24.9373C19.8336 24.092 20.1695 23.2812 20.7673 22.6834C21.365 22.0856 22.1758 21.7498 23.0212 21.7498C23.8666 21.7498 24.6773 22.0856 25.2751 22.6834ZM17.0003 20.3332V23.1665C14.746 23.1665 12.584 24.062 10.9899 25.6561C9.39586 27.2502 8.50033 29.4122 8.50033 31.6665H5.66699C5.66703 28.7221 6.81299 25.8932 8.86224 23.7789C10.9115 21.6646 13.7032 20.4308 16.6462 20.3388L17.0003 20.3332ZM17.0003 1.9165C21.6966 1.9165 25.5003 5.72025 25.5003 10.4165C25.5011 12.6159 24.6491 14.73 23.1233 16.3141C21.5975 17.8982 19.517 18.8291 17.3191 18.9108L17.0003 18.9165C12.3041 18.9165 8.50033 15.1128 8.50033 10.4165C8.49954 8.21709 9.35161 6.10305 10.8774 4.5189C12.4031 2.93476 14.4837 2.00394 16.6816 1.92217L17.0003 1.9165ZM17.0003 4.74984C13.8695 4.74984 11.3337 7.28567 11.3337 10.4165C11.3337 13.5473 13.8695 16.0832 17.0003 16.0832C20.1312 16.0832 22.667 13.5473 22.667 10.4165C22.667 7.28567 20.1312 4.74984 17.0003 4.74984Z" fill="white"/>
</svg>
