<svg width="20" height="18" viewBox="0 0 20 18" fill="none" xmlns="http://www.w3.org/2000/svg">
<path d="M0.833497 6.24451C0.833014 5.52236 0.974986 4.80721 1.25128 4.14001C1.52758 3.47281 1.93278 2.86667 2.44367 2.35629C2.95456 1.84591 3.56111 1.44132 4.22858 1.16569C4.89606 0.890058 5.61135 0.748802 6.3335 0.750008H13.6668C16.7037 0.750008 19.1668 3.22042 19.1668 6.24451V17.25H6.3335C3.29658 17.25 0.833497 14.7796 0.833497 11.7555V6.24451ZM17.3335 15.4167V6.24451C17.3311 5.2733 16.9438 4.34264 16.2565 3.65641C15.5693 2.97017 14.638 2.58431 13.6668 2.58334H6.3335C5.85211 2.58213 5.37522 2.67597 4.93017 2.85946C4.48512 3.04296 4.08068 3.31251 3.74003 3.65265C3.39938 3.99278 3.12922 4.39683 2.94506 4.8416C2.7609 5.28637 2.66635 5.76312 2.66683 6.24451V11.7555C2.66926 12.7267 3.05652 13.6574 3.74378 14.3436C4.43105 15.0298 5.36229 15.4157 6.3335 15.4167H17.3335ZM11.8335 8.08334H13.6668V9.91667H11.8335V8.08334ZM6.3335 8.08334H8.16683V9.91667H6.3335V8.08334Z" fill="white"/>
</svg>
