<svg width="101" height="22" viewBox="0 0 101 22" fill="none" xmlns="http://www.w3.org/2000/svg">
<path fill-rule="evenodd" clip-rule="evenodd" d="M95.5809 11.7939C94.7293 12.9671 93.6717 13.9787 92.5224 14.8752C87.9696 18.4859 81.967 20.394 76.2877 21.2222C83.3007 20.7162 96.6613 18.2787 100.547 11.7939H95.5809Z" fill="#74859C"/>
<path fill-rule="evenodd" clip-rule="evenodd" d="M91.5563 4.1158C91.5563 9.63455 86.958 13.9351 82.5419 16.5331C77.8969 19.2694 72.2865 20.6487 66.9744 21.1781C73.4364 21.0403 80.4272 20.166 86.3142 17.3608C91.4419 14.9233 97.3745 10.3706 97.3511 4.11523H91.5563V4.1158Z" fill="#74859C"/>
<path fill-rule="evenodd" clip-rule="evenodd" d="M88.7745 0.137695H77.4831C81.0477 1.51753 84.4284 4.00111 84.4284 8.1628C84.4284 13.5444 79.6678 16.6256 75.3672 18.7409C80.3116 16.8551 85.3932 14.3032 88.4973 9.86482C89.6244 8.25502 90.3604 6.5308 90.3604 4.5527C90.3609 3.05788 89.8555 1.26478 88.7745 0.137695ZM74.4946 14.4865C74.4024 14.9009 74.0563 14.8314 73.6886 14.8314C72.401 14.8314 70.9067 14.762 69.6197 14.762C69.0669 14.762 68.4732 14.8081 67.9222 14.8081C67.83 14.8081 67.6467 14.7853 67.6467 14.6703C67.6467 14.5787 67.8067 14.5559 67.8522 14.5559C68.0133 14.5559 68.1721 14.5474 68.336 14.5092C68.6161 14.4443 68.7129 14.0994 68.7687 13.7971C68.8284 13.4761 68.8375 12.6279 68.8375 11.8879V7.47288C68.8375 6.94406 68.8375 6.32303 68.8153 5.93196C68.792 5.49479 68.6998 5.28872 68.2626 5.1965C68.1027 5.14982 67.5966 5.1965 67.5966 5.03598C67.5966 4.89708 67.8021 4.92099 67.8943 4.92099C68.4926 4.92099 69.0909 4.94433 69.6886 4.94433C70.2623 4.94433 70.8606 4.92099 71.4583 4.92099C71.5272 4.92099 71.7338 4.89708 71.7338 5.03598C71.7338 5.15039 71.5739 5.1504 71.5038 5.1504C71.3205 5.1504 71.16 5.1504 70.9978 5.19708C70.584 5.26595 70.5384 5.5648 70.4917 5.93253C70.4695 6.43858 70.4695 7.42735 70.4695 8.1628V11.4746C70.4695 13.2444 70.4917 13.5671 70.745 13.8199C71.0428 14.0726 71.4811 14.1182 72.4471 14.1182C72.9531 14.1182 73.758 14.1409 74.1013 13.7504C74.309 13.5444 74.4013 13.2216 74.4468 12.9461C74.4701 12.8767 74.4701 12.7622 74.5845 12.7622C74.7223 12.7622 74.7001 12.8994 74.7001 12.9916C74.7018 13.3827 74.6096 14.1187 74.4946 14.4865ZM65.388 14.8086C64.6975 14.8086 64.0315 14.7625 63.341 14.7625C62.7894 14.7625 62.2372 14.8086 61.709 14.8086C61.6168 14.8086 61.4323 14.7859 61.4323 14.6709C61.4323 14.5792 61.5712 14.5565 61.639 14.5565C61.8012 14.5565 61.9612 14.5565 62.1228 14.5098C62.4217 14.4415 62.4672 14.1421 62.4906 13.866C62.5594 13.3827 62.5594 12.5095 62.5594 11.6129V7.47345C62.5594 6.85241 62.5594 6.23195 62.5361 5.93253C62.5128 5.61091 62.445 5.28929 62.0989 5.19708C61.939 5.1504 61.7779 5.1504 61.6162 5.1504C61.524 5.1504 61.4096 5.15039 61.4096 5.01264C61.4096 4.89708 61.6617 4.92099 61.7306 4.92099C62.2822 4.92099 62.8577 4.94433 63.4326 4.94433C63.9609 4.94433 64.4897 4.92099 65.0191 4.92099C65.088 4.92099 65.2946 4.92099 65.2946 5.01264C65.2946 5.15039 65.1802 5.1504 65.088 5.1504C64.9502 5.1504 64.8125 5.17431 64.6964 5.19708C64.2825 5.26595 64.237 5.5648 64.2136 5.93253C64.1903 6.27749 64.1903 6.9674 64.1903 8.1628V11.8645C64.1903 12.5317 64.1903 13.4971 64.237 13.8654C64.2825 14.2331 64.3514 14.4409 64.7664 14.5092C64.9718 14.5559 65.2024 14.5559 65.4324 14.5559C65.5012 14.5559 65.6401 14.5787 65.6401 14.6703C65.6418 14.7859 65.479 14.8086 65.388 14.8086ZM60.6975 14.8086C59.9614 14.8086 58.7882 14.7859 58.2372 14.7859C57.9384 14.7859 57.4779 14.8086 57.1335 14.8086C57.0179 14.8086 56.9035 14.7859 56.9035 14.6942C56.9035 14.5792 57.0179 14.5792 57.2023 14.5792C57.5467 14.5792 57.7084 14.487 57.7084 14.2571C57.7084 14.1654 57.6629 14.0043 57.5928 13.7977C57.2718 13.0155 56.6969 11.6818 56.6269 11.4752C56.6046 11.4057 56.5591 11.383 56.4669 11.383H53.2473C53.1784 11.383 53.1551 11.4285 53.1095 11.498L52.328 13.3599C52.2358 13.5671 52.1213 13.9354 52.1213 14.1648C52.1213 14.5792 52.4891 14.5792 52.7873 14.5792C52.9718 14.5792 53.1551 14.5792 53.1551 14.6942C53.1551 14.8086 52.9951 14.8086 52.9029 14.8086C52.5574 14.8086 52.0513 14.7859 51.7064 14.7859H50.1205C49.7983 14.7859 49.3383 14.832 48.9934 14.832C47.4069 14.832 46.8787 13.751 46.051 12.3712C45.6833 11.7507 44.9006 10.3014 44.6934 9.95647C44.6245 9.84205 44.5329 9.81871 44.3951 9.81871L42.923 9.79594C42.7164 9.7726 42.7625 10.0031 42.7625 10.1409V12.234C42.7853 12.6939 42.7853 13.1527 42.8314 13.5905C42.8775 14.0276 42.9925 14.3948 43.4758 14.4643C43.7285 14.5098 43.9813 14.5331 44.2346 14.5331C44.3034 14.5331 44.4184 14.5565 44.4184 14.6481C44.4184 14.8086 44.2118 14.8086 44.1196 14.8086C43.3841 14.8086 42.6481 14.7625 41.9354 14.7625C41.3372 14.7625 40.7395 14.8086 40.1423 14.8086C40.0501 14.8086 39.8429 14.8086 39.8429 14.6481C39.8429 14.5331 40.004 14.5331 40.0729 14.5331C40.2573 14.5331 40.4639 14.5098 40.6245 14.4643C40.9933 14.372 41.0394 13.9121 41.085 13.5905C41.1544 13.0383 41.1544 12.0268 41.1544 11.2452V6.1625C41.1544 5.3576 41.1544 4.64435 41.1305 4.16163C41.085 3.65558 40.9933 3.40284 40.4639 3.26508C40.2801 3.21954 40.0501 3.21954 39.8668 3.21954C39.7746 3.21954 39.6135 3.21954 39.6135 3.08122C39.6135 2.94289 39.8435 2.94289 39.9357 2.94289C40.625 2.94289 41.2922 2.98957 41.9593 2.98957C42.7181 2.98957 43.4775 2.94289 44.2129 2.94289C45.2017 2.94289 46.3055 3.08122 47.1326 3.65558C47.7769 4.11552 48.1674 5.05875 48.1674 5.81754C48.1674 7.3579 47.3625 8.69162 46.006 9.38154C46.8109 10.6692 48.053 12.6928 48.949 13.6127C49.4095 14.0732 49.7772 14.4409 50.2833 14.4409C50.8582 14.4409 51.1348 13.8199 51.3181 13.3599L54.8827 5.1504C54.9516 5.01264 55.066 4.62158 55.2732 4.62158C55.4576 4.62158 55.5721 4.92099 55.6176 5.03598C56.0092 5.84031 56.3536 6.66855 56.7213 7.49565C57.5496 9.35876 58.3545 11.2446 59.2061 13.0839C59.4582 13.6127 59.8487 14.3942 60.4703 14.5092C60.677 14.5559 60.7458 14.5559 60.953 14.5559C61.0453 14.5559 61.1363 14.5559 61.1363 14.6703C61.1335 14.7859 61.0191 14.8086 60.6975 14.8086ZM38.8382 6.09362V6.62244C38.8149 6.69189 38.8149 6.82965 38.7232 6.82965C38.5394 6.82965 38.5627 6.5308 38.5627 6.41581C38.4932 5.77144 37.4817 5.70313 37.0212 5.68036L35.3659 5.63368V11.5435C35.3659 12.6239 35.3886 13.3827 35.4353 13.7977C35.4808 14.1654 35.5275 14.4415 35.9414 14.5098C36.1486 14.5565 36.378 14.5565 36.6079 14.5565C36.6774 14.5565 36.8151 14.5792 36.8151 14.6709C36.8151 14.7859 36.654 14.8086 36.5618 14.8086C35.8947 14.8086 35.2053 14.7625 34.5154 14.7625C33.9638 14.7625 33.4117 14.8086 32.8601 14.8086C32.7906 14.8086 32.6073 14.7859 32.6073 14.6709C32.6073 14.5792 32.7451 14.5565 32.814 14.5565C32.9751 14.5565 33.1356 14.5565 33.2967 14.5098C33.5955 14.4415 33.6416 14.0504 33.6644 13.7977C33.7339 13.2222 33.7339 12.3029 33.7339 11.5668V5.63368L31.7785 5.70313C31.3647 5.70313 30.767 5.70312 30.5143 6.07085C30.428 6.21917 30.3512 6.37279 30.2843 6.53079C30.261 6.62244 30.2376 6.69189 30.146 6.69189C30.031 6.69189 30.031 6.5769 30.031 6.48469C30.031 6.18641 30.2143 5.28929 30.3065 4.9671C30.3293 4.89765 30.352 4.73713 30.467 4.73713C30.5137 4.73713 30.8347 4.87489 31.0192 4.89766C31.433 4.94433 31.8474 4.94433 32.2607 4.94433H37.5956C37.8711 4.94433 38.1477 4.94433 38.4232 4.89766C38.5154 4.87489 38.6532 4.82878 38.7682 4.82878C38.8832 4.82878 38.8604 5.01264 38.8604 5.10486C38.8615 5.42648 38.8615 5.74866 38.8382 6.09362ZM24.305 14.9925C21.2237 14.9925 19.0851 12.8539 19.0851 9.86482C19.0851 6.78354 21.3387 4.73656 24.42 4.73656C27.4785 4.73656 29.6633 6.46135 29.6633 9.61151C29.6633 12.7622 27.4557 14.9925 24.305 14.9925ZM17.5681 14.3032C17.4759 14.5559 17.4759 14.5787 17.2459 14.6942C16.7399 14.9236 15.5445 14.9925 14.969 14.9925C13.4059 14.9925 11.8649 14.6481 10.6695 13.5671C9.56522 12.5323 9.12861 11.1752 9.12861 9.70373C9.12861 8.37057 9.63466 7.03628 10.5773 6.11639C11.6811 5.05932 13.0603 4.73713 14.5551 4.73713C15.6128 4.73713 16.6021 4.89765 17.6364 5.08209C17.7286 5.10543 17.8209 5.12819 17.8209 5.24318C17.8209 5.47315 17.7742 5.72647 17.7514 5.95644C17.7286 6.43915 17.7742 6.89852 17.7053 7.38181C17.7053 7.47345 17.7053 7.68066 17.5675 7.68066C17.4292 7.68066 17.4526 7.45068 17.4292 7.38181C17.4065 6.92186 17.2681 6.5308 16.9465 6.18584C16.3943 5.5648 15.1756 5.38037 14.3941 5.38037C11.8188 5.38037 10.8984 7.21957 10.8984 9.56597C10.8984 11.3363 11.6811 13.0155 13.2903 13.8432C13.7736 14.0732 14.3018 14.2343 14.8312 14.2343C15.6822 14.2343 16.5793 14.1887 17.1309 13.4983C17.3381 13.2455 17.4987 12.9467 17.5681 12.6245C17.5915 12.5328 17.5915 12.3717 17.7292 12.3717C17.8214 12.3717 17.8442 12.4867 17.8442 12.5562C17.8436 12.8766 17.6598 14.0271 17.5681 14.3032ZM3.2188 14.9925C2.43724 14.9925 1.54012 14.9009 0.827437 14.5787C0.528588 14.4409 0.505249 14.3487 0.505249 14.0265C0.505249 13.5438 0.528588 13.0377 0.550788 12.555C0.574696 12.3706 0.574696 12.1634 0.597466 12.0029C0.597466 11.8879 0.620804 11.5885 0.781329 11.5885C0.942992 11.5885 0.942992 11.7496 0.942992 11.8412C0.942992 12.094 1.03464 12.4161 1.10352 12.6455C1.44847 13.7493 2.34559 14.2326 3.44877 14.2326C4.29978 14.2326 5.17356 13.911 5.56462 13.1288C5.67961 12.9228 5.74906 12.6922 5.74906 12.4395C5.74906 9.65648 0.896884 9.12823 0.896884 5.65588C0.896884 3.58613 2.8283 2.68901 4.66808 2.68901C5.38076 2.68901 6.16289 2.75846 6.85224 2.94175C6.94445 2.98843 7.08221 3.0112 7.08221 3.14896C7.08221 3.37893 7.05887 3.6089 7.0361 3.86164C7.01276 4.25271 7.01276 4.64321 7.01276 5.03484C7.01276 5.12649 7.0361 5.49421 6.8289 5.49421C6.69057 5.49421 6.66837 5.31035 6.66837 5.2187C6.66837 4.85098 6.46117 4.43714 6.2312 4.18383C5.79459 3.6089 5.12802 3.4017 4.4381 3.4017C3.47211 3.4017 2.39113 3.90775 2.39113 5.03484C2.39113 7.49451 7.28941 8.13889 7.28941 11.6112C7.28884 14.0037 5.35685 14.9925 3.2188 14.9925ZM54.9709 7.42735C54.9709 7.38124 54.9487 7.31236 54.9032 7.31236C54.8565 7.31236 54.8332 7.38181 54.811 7.42735C54.7188 7.68009 53.4767 10.6236 53.4767 10.6692C53.4767 10.7158 53.5 10.7386 53.5456 10.7386H56.213C56.2363 10.7386 56.283 10.7158 56.283 10.6692C56.2825 10.6464 55.0632 7.65732 54.9709 7.42735ZM45.1288 3.88612C44.7921 3.72173 44.4226 3.63534 44.0479 3.63338C43.8646 3.63338 43.083 3.63338 42.9441 3.70283C42.8291 3.74837 42.7602 3.79447 42.7602 3.90946V8.80717C42.7602 8.9677 42.8064 9.03715 42.9441 9.10602C43.2202 9.22101 43.7951 9.22101 44.0945 9.22101C44.4856 9.22101 45.0605 9.15157 45.4055 8.94436C46.2787 8.43831 46.6009 7.51956 46.6009 6.55357C46.6009 5.42648 46.187 4.36883 45.1288 3.88612ZM24.0523 5.3576C21.6609 5.3576 20.8794 7.33513 20.8794 9.45042C20.8794 11.8651 22.1436 14.3259 24.8344 14.3259C27.1563 14.3259 27.8468 12.0723 27.8468 10.0948C27.8462 7.84118 26.6736 5.3576 24.0523 5.3576Z" fill="white"/>
</svg>
