<svg width="179" height="39" viewBox="0 0 179 39" fill="none" xmlns="http://www.w3.org/2000/svg">
<path fill-rule="evenodd" clip-rule="evenodd" d="M169.32 21.4565C167.811 23.5358 165.937 25.3285 163.9 26.9174C155.831 33.3164 145.193 36.698 135.128 38.1659C147.557 37.269 171.235 32.9492 178.122 21.4565H169.32Z" fill="#74859C"/>
<path fill-rule="evenodd" clip-rule="evenodd" d="M162.189 7.84915C162.189 17.6298 154.039 25.2516 146.213 29.8559C137.981 34.7054 128.037 37.1498 118.623 38.088C130.075 37.8439 142.465 36.2943 152.898 31.3228C161.986 27.0029 172.5 18.9342 172.458 7.84814H162.189V7.84915Z" fill="#74859C"/>
<path fill-rule="evenodd" clip-rule="evenodd" d="M157.259 0.79834H137.248C143.565 3.24376 149.557 7.64532 149.557 15.0209C149.557 24.5585 141.12 30.0193 133.498 33.7682C142.261 30.4259 151.267 25.9033 156.768 18.0373C158.766 15.1844 160.07 12.1286 160.07 8.62288C160.071 5.97367 159.175 2.79584 157.259 0.79834ZM131.952 26.2281C131.788 26.9625 131.175 26.8395 130.523 26.8395C128.241 26.8395 125.593 26.7164 123.312 26.7164C122.333 26.7164 121.28 26.7981 120.304 26.7981C120.14 26.7981 119.815 26.7577 119.815 26.554C119.815 26.3915 120.099 26.3512 120.18 26.3512C120.465 26.3512 120.747 26.336 121.037 26.2684C121.534 26.1534 121.705 25.5421 121.804 25.0064C121.91 24.4374 121.926 22.9342 121.926 21.6228V13.7982C121.926 12.861 121.926 11.7604 121.887 11.0673C121.845 10.2925 121.682 9.9273 120.907 9.76387C120.624 9.68114 119.727 9.76387 119.727 9.47938C119.727 9.23322 120.091 9.2756 120.254 9.2756C121.315 9.2756 122.375 9.31696 123.434 9.31696C124.451 9.31696 125.511 9.2756 126.571 9.2756C126.693 9.2756 127.059 9.23322 127.059 9.47938C127.059 9.68216 126.775 9.68216 126.651 9.68216C126.326 9.68216 126.042 9.68216 125.754 9.76489C125.021 9.88696 124.94 10.4166 124.858 11.0683C124.818 11.9652 124.818 13.7175 124.818 15.0209V20.8903C124.818 24.0268 124.858 24.5988 125.307 25.0467C125.834 25.4947 126.611 25.5754 128.323 25.5754C129.22 25.5754 130.646 25.6157 131.255 24.9237C131.623 24.5585 131.786 23.9865 131.867 23.4982C131.908 23.3751 131.908 23.1723 132.111 23.1723C132.355 23.1723 132.316 23.4155 132.316 23.5789C132.319 24.272 132.156 25.5764 131.952 26.2281ZM115.812 26.7991C114.589 26.7991 113.408 26.7174 112.185 26.7174C111.207 26.7174 110.229 26.7991 109.292 26.7991C109.129 26.7991 108.802 26.7587 108.802 26.555C108.802 26.3925 109.048 26.3522 109.168 26.3522C109.456 26.3522 109.739 26.3522 110.026 26.2695C110.555 26.1484 110.636 25.6178 110.677 25.1285C110.8 24.272 110.8 22.7244 110.8 21.1355V13.7992C110.8 12.6986 110.8 11.599 110.758 11.0683C110.717 10.4983 110.597 9.92832 109.983 9.76489C109.7 9.68216 109.414 9.68216 109.128 9.68216C108.964 9.68216 108.762 9.68216 108.762 9.43802C108.762 9.23322 109.209 9.2756 109.331 9.2756C110.308 9.2756 111.328 9.31696 112.347 9.31696C113.283 9.31696 114.22 9.2756 115.159 9.2756C115.281 9.2756 115.647 9.27559 115.647 9.43802C115.647 9.68216 115.444 9.68216 115.281 9.68216C115.037 9.68216 114.792 9.72453 114.587 9.76489C113.853 9.88696 113.773 10.4166 113.731 11.0683C113.69 11.6797 113.69 12.9024 113.69 15.0209V21.5814C113.69 22.7638 113.69 24.4747 113.773 25.1275C113.853 25.7792 113.975 26.1474 114.711 26.2684C115.075 26.3512 115.484 26.3512 115.891 26.3512C116.013 26.3512 116.259 26.3915 116.259 26.554C116.262 26.7587 115.974 26.7991 115.812 26.7991ZM107.5 26.7991C106.195 26.7991 104.116 26.7587 103.139 26.7587C102.61 26.7587 101.794 26.7991 101.183 26.7991C100.978 26.7991 100.776 26.7587 100.776 26.5963C100.776 26.3925 100.978 26.3925 101.305 26.3925C101.916 26.3925 102.202 26.2291 102.202 25.8215C102.202 25.6591 102.121 25.3736 101.997 25.0074C101.428 23.6213 100.41 21.2576 100.285 20.8914C100.246 20.7683 100.165 20.7279 100.002 20.7279H94.296C94.1739 20.7279 94.1325 20.8086 94.0518 20.9317L92.6667 24.2316C92.5033 24.5988 92.3005 25.2515 92.3005 25.6581C92.3005 26.3925 92.9522 26.3925 93.4808 26.3925C93.8077 26.3925 94.1325 26.3925 94.1325 26.5963C94.1325 26.7991 93.849 26.7991 93.6856 26.7991C93.0732 26.7991 92.1764 26.7587 91.565 26.7587H88.7544C88.1834 26.7587 87.3683 26.8405 86.7569 26.8405C83.9453 26.8405 83.0091 24.9247 81.5422 22.4793C80.8905 21.3796 79.5034 18.8111 79.1362 18.1998C79.0141 17.997 78.8517 17.9556 78.6075 17.9556L75.9987 17.9153C75.6325 17.8739 75.7142 18.2825 75.7142 18.5266V22.2361C75.7545 23.0513 75.7546 23.8644 75.8363 24.6402C75.918 25.415 76.1218 26.0657 76.9783 26.1888C77.4262 26.2695 77.8741 26.3108 78.323 26.3108C78.4451 26.3108 78.6489 26.3522 78.6489 26.5146C78.6489 26.7991 78.2827 26.7991 78.1193 26.7991C76.8158 26.7991 75.5114 26.7174 74.2484 26.7174C73.1881 26.7174 72.1288 26.7991 71.0705 26.7991C70.9071 26.7991 70.5399 26.7991 70.5399 26.5146C70.5399 26.3108 70.8254 26.3108 70.9474 26.3108C71.2743 26.3108 71.6405 26.2695 71.925 26.1888C72.5787 26.0253 72.6605 25.2102 72.7412 24.6402C72.8642 23.6616 72.8642 21.8689 72.8642 20.4838V11.4759C72.8642 10.0494 72.8642 8.7853 72.8219 7.92981C72.7412 7.03295 72.5787 6.58503 71.6405 6.34089C71.3147 6.26018 70.9071 6.26018 70.5823 6.26018C70.4188 6.26018 70.1333 6.26018 70.1333 6.01503C70.1333 5.76989 70.5409 5.76988 70.7043 5.76988C71.926 5.76988 73.1084 5.85261 74.2907 5.85261C75.6355 5.85261 76.9813 5.76988 78.2847 5.76988C80.0371 5.76988 81.9932 6.01504 83.459 7.03295C84.601 7.84809 85.2931 9.51973 85.2931 10.8645C85.2931 13.5944 83.8666 15.9581 81.4625 17.1808C82.889 19.4628 85.0903 23.0493 86.6782 24.6795C87.4944 25.4957 88.1461 26.1474 89.0429 26.1474C90.0619 26.1474 90.5522 25.0467 90.877 24.2316L97.1943 9.68216C97.3164 9.43802 97.5192 8.74495 97.8864 8.74495C98.2133 8.74495 98.416 9.27559 98.4967 9.47938C99.1908 10.9049 99.8012 12.3727 100.453 13.8386C101.921 17.1405 103.347 20.4828 104.856 23.7423C105.303 24.6795 105.995 26.0647 107.097 26.2684C107.463 26.3512 107.585 26.3512 107.953 26.3512C108.116 26.3512 108.277 26.3512 108.277 26.554C108.272 26.7587 108.07 26.7991 107.5 26.7991ZM68.7593 11.3538V12.291C68.7179 12.4141 68.7179 12.6582 68.5555 12.6582C68.2296 12.6582 68.271 12.1286 68.271 11.9248C68.1479 10.7828 66.3552 10.6617 65.5391 10.6214L62.6054 10.5387V21.0124C62.6054 22.9272 62.6457 24.272 62.7285 25.0074C62.8092 25.6591 62.8919 26.1484 63.6253 26.2695C63.9925 26.3522 64.3991 26.3522 64.8067 26.3522C64.9297 26.3522 65.1739 26.3925 65.1739 26.555C65.1739 26.7587 64.8884 26.7991 64.7249 26.7991C63.5426 26.7991 62.3209 26.7174 61.0982 26.7174C60.1206 26.7174 59.142 26.7991 58.1645 26.7991C58.0414 26.7991 57.7166 26.7587 57.7166 26.555C57.7166 26.3925 57.9607 26.3522 58.0828 26.3522C58.3683 26.3522 58.6528 26.3522 58.9383 26.2695C59.4679 26.1484 59.5496 25.4553 59.59 25.0074C59.713 23.9875 59.713 22.3582 59.713 21.0538V10.5387L56.2477 10.6617C55.5143 10.6617 54.455 10.6617 54.0071 11.3134C53.8542 11.5763 53.7181 11.8486 53.5995 12.1286C53.5581 12.291 53.5168 12.4141 53.3544 12.4141C53.1506 12.4141 53.1506 12.2103 53.1506 12.0469C53.1506 11.5182 53.4754 9.92831 53.6388 9.35731C53.6792 9.23423 53.7196 8.94974 53.9233 8.94974C54.0061 8.94974 54.575 9.19388 54.9019 9.23424C55.6353 9.31696 56.3698 9.31696 57.1022 9.31696H66.557C67.0453 9.31696 67.5356 9.31696 68.0238 9.23424C68.1873 9.19388 68.4314 9.11216 68.6352 9.11216C68.839 9.11216 68.7986 9.43802 68.7986 9.60145C68.8007 10.1714 68.8006 10.7424 68.7593 11.3538ZM43.0027 27.125C37.5419 27.125 33.7517 23.3348 33.7517 18.0373C33.7517 12.5765 37.7456 8.94873 43.2065 8.94873C48.6269 8.94873 52.4989 12.0055 52.4989 17.5884C52.4989 23.1723 48.5866 27.125 43.0027 27.125ZM31.0631 25.9032C30.8997 26.3512 30.8997 26.3915 30.4921 26.5963C29.5952 27.0029 27.4767 27.125 26.4568 27.125C23.6865 27.125 20.9556 26.5146 18.837 24.5988C16.8799 22.7648 16.1061 20.3597 16.1061 17.7519C16.1061 15.3892 17.003 13.0244 18.6736 11.3942C20.6297 9.52075 23.0741 8.94974 25.7233 8.94974C27.5978 8.94974 29.3511 9.23423 31.1842 9.5611C31.3476 9.60246 31.511 9.64281 31.511 9.84659C31.511 10.2542 31.4283 10.7031 31.388 11.1107C31.3476 11.9662 31.4283 12.7803 31.3062 13.6368C31.3062 13.7992 31.3062 14.1664 31.0621 14.1664C30.817 14.1664 30.8583 13.7589 30.817 13.6368C30.7766 12.8217 30.5315 12.1286 29.9615 11.5172C28.9829 10.4166 26.823 10.0897 25.4378 10.0897C20.8739 10.0897 19.2426 13.3493 19.2426 17.5077C19.2426 20.6452 20.6297 23.6213 23.4817 25.0881C24.3382 25.4957 25.2744 25.7812 26.2126 25.7812C27.7208 25.7812 29.3108 25.7005 30.2883 24.4768C30.6555 24.0288 30.94 23.4992 31.0631 22.9282C31.1045 22.7658 31.1045 22.4803 31.3486 22.4803C31.512 22.4803 31.5524 22.684 31.5524 22.8071C31.5514 23.3751 31.2255 25.414 31.0631 25.9032ZM5.63236 27.125C4.24723 27.125 2.65731 26.9625 1.39424 26.3915C0.864605 26.1474 0.823242 25.984 0.823242 25.413C0.823242 24.5575 0.864604 23.6606 0.903949 22.8051C0.94632 22.4782 0.946321 22.111 0.986674 21.8265C0.986674 21.6228 1.02804 21.0921 1.31253 21.0921C1.59904 21.0921 1.59904 21.3776 1.59904 21.54C1.59904 21.988 1.76146 22.559 1.88353 22.9655C2.49488 24.9217 4.08481 25.7782 6.03993 25.7782C7.54814 25.7782 9.09671 25.2082 9.78978 23.822C9.99356 23.4568 10.1166 23.0482 10.1166 22.6003C10.1166 17.6681 1.51732 16.7319 1.51732 10.578C1.51732 6.90988 4.9403 5.31994 8.20086 5.31994C9.46393 5.31994 10.8501 5.44302 12.0718 5.76787C12.2352 5.85059 12.4793 5.89095 12.4793 6.13509C12.4793 6.54266 12.438 6.95023 12.3976 7.39815C12.3563 8.09122 12.3563 8.78328 12.3563 9.47736C12.3563 9.63979 12.3976 10.2915 12.0304 10.2915C11.7853 10.2915 11.7459 9.96564 11.7459 9.80322C11.7459 9.15151 11.3787 8.41808 10.9711 7.96915C10.1973 6.95022 9.016 6.58301 7.79329 6.58301C6.0813 6.58301 4.16552 7.47987 4.16552 9.47736C4.16552 13.8365 12.8466 14.9786 12.8466 21.1325C12.8455 25.3726 9.42155 27.125 5.63236 27.125ZM97.3507 13.7175C97.3507 13.6358 97.3114 13.5137 97.2307 13.5137C97.1479 13.5137 97.1066 13.6368 97.0672 13.7175C96.9038 14.1654 94.7025 19.3821 94.7025 19.4628C94.7025 19.5456 94.7439 19.5859 94.8246 19.5859H99.552C99.5933 19.5859 99.6761 19.5456 99.6761 19.4628C99.6751 19.4225 97.5141 14.1251 97.3507 13.7175ZM79.9079 7.44153C79.3111 7.15018 78.6563 6.99708 77.9921 6.99361C77.6673 6.99361 76.2822 6.99361 76.036 7.11669C75.8322 7.19739 75.7102 7.27911 75.7102 7.48289V16.1629C75.7102 16.4474 75.7919 16.5705 76.036 16.6926C76.5253 16.8964 77.5442 16.8964 78.0749 16.8964C78.7679 16.8964 79.7869 16.7733 80.3982 16.4061C81.9458 15.5092 82.5168 13.8809 82.5168 12.1689C82.5168 10.1714 81.7834 8.29703 79.9079 7.44153ZM42.5548 10.0494C38.3166 10.0494 36.9315 13.5541 36.9315 17.3029C36.9315 21.5824 39.1721 25.9436 43.9409 25.9436C48.0559 25.9436 49.2797 21.9496 49.2797 18.4449C49.2787 14.4509 47.2004 10.0494 42.5548 10.0494Z" fill="#74859C"/>
</svg>
