<svg width="35" height="33" viewBox="0 0 35 33" fill="none" xmlns="http://www.w3.org/2000/svg">
<path opacity="0.4" d="M29.0788 1.18059C29.4229 0.366114 30.5771 0.366113 30.9212 1.18059L31.6239 2.84407C31.7252 3.08391 31.9161 3.27478 32.1559 3.3761L33.8194 4.07882C34.6339 4.42289 34.6339 5.57711 33.8194 5.92118L32.1559 6.6239C31.9161 6.72522 31.7252 6.91609 31.6239 7.15593L30.9212 8.81941C30.5771 9.63389 29.4229 9.63389 29.0788 8.81941L28.3761 7.15593C28.2748 6.91609 28.0839 6.72522 27.8441 6.6239L26.1806 5.92118C25.3661 5.57711 25.3661 4.42289 26.1806 4.07882L27.8441 3.3761C28.0839 3.27478 28.2748 3.08391 28.3761 2.84407L29.0788 1.18059Z" fill="#0C56C2"/>
<path fill-rule="evenodd" clip-rule="evenodd" d="M24.2746 10.8942L23.5485 9.63407C22.9341 8.56783 21.5727 8.2 20.505 8.8118V8.8118C19.9968 9.11119 19.3903 9.19614 18.8194 9.04789C18.2484 8.89965 17.7599 8.5304 17.4615 8.02156C17.2696 7.69813 17.1664 7.32975 17.1625 6.95367V6.95367C17.1798 6.35072 16.9523 5.76643 16.5319 5.33391C16.1114 4.90139 15.5338 4.65747 14.9306 4.65772H13.4676C12.8767 4.65771 12.3101 4.89319 11.8932 5.31206C11.4763 5.73093 11.2436 6.29865 11.2464 6.8896V6.8896C11.2289 8.10971 10.2348 9.08957 9.01453 9.08945C8.63845 9.08554 8.27007 8.98239 7.94664 8.79044V8.79044C6.87894 8.17864 5.5175 8.54647 4.90317 9.61271L4.12361 10.8942C3.51002 11.9591 3.87284 13.3197 4.9352 13.9377V13.9377C5.62576 14.3363 6.05116 15.0731 6.05116 15.8705C6.05116 16.6679 5.62576 17.4047 4.9352 17.8034V17.8034C3.87419 18.4172 3.51097 19.7745 4.12361 20.8362V20.8362L4.86045 22.107C5.14829 22.6264 5.63124 23.0096 6.20243 23.172C6.77362 23.3343 7.38595 23.2623 7.90393 22.972V22.972C8.41313 22.6749 9.01992 22.5935 9.58943 22.7459C10.1589 22.8983 10.644 23.2718 10.9367 23.7836C11.1287 24.107 11.2318 24.4754 11.2357 24.8515V24.8515C11.2357 26.0841 12.235 27.0833 13.4676 27.0833H14.9306C16.1591 27.0834 17.1566 26.0906 17.1625 24.8621V24.8621C17.1597 24.2693 17.3939 23.7 17.8131 23.2808C18.2322 22.8616 18.8016 22.6274 19.3944 22.6303C19.7696 22.6403 20.1364 22.743 20.4623 22.9293V22.9293C21.5272 23.5429 22.8878 23.18 23.5058 22.1177V22.1177L24.2746 20.8362C24.5723 20.3254 24.6539 19.717 24.5016 19.1457C24.3493 18.5745 23.9755 18.0875 23.463 17.7927V17.7927C22.9506 17.4979 22.5768 17.011 22.4245 16.4397C22.2722 15.8685 22.3538 15.2601 22.6515 14.7492C22.845 14.4114 23.1251 14.1312 23.463 13.9377V13.9377C24.519 13.32 24.881 11.9674 24.2746 10.9049V10.9049V10.8942Z" stroke="#32BA85" stroke-width="1.5" stroke-linecap="round" stroke-linejoin="round"/>
<ellipse opacity="0.4" cx="14.2044" cy="15.8704" rx="3.07551" ry="3.07551" stroke="#32BA85" stroke-width="1.5" stroke-linecap="round" stroke-linejoin="round"/>
</svg>
