<svg width="24" height="24" viewBox="0 0 24 24" fill="none" xmlns="http://www.w3.org/2000/svg">
<path d="M5.15874 15.1425C5.15643 15.7937 4.89661 16.4177 4.43597 16.8781C3.97532 17.3385 3.35127 17.598 2.69999 17.6C2.0485 17.598 1.42425 17.3383 0.963578 16.8776C0.502901 16.4169 0.24322 15.7927 0.241241 15.1412C0.241241 13.7875 1.34624 12.6812 2.69999 12.6812H5.15999V15.1412L5.15874 15.1425ZM6.39874 15.1425C6.39874 13.7887 7.50374 12.6825 8.85749 12.6825C10.2112 12.6825 11.3175 13.7887 11.3175 15.1425V21.3012C11.3155 21.9529 11.0557 22.5773 10.5947 23.0381C10.1338 23.4988 9.5092 23.7583 8.85749 23.76C8.206 23.758 7.58175 23.4983 7.12108 23.0376C6.6604 22.5769 6.40072 21.9527 6.39874 21.3012V15.1425ZM8.85749 5.15871C8.20622 5.1564 7.58229 4.89658 7.12188 4.43593C6.66148 3.97529 6.40197 3.35124 6.39999 2.69996C6.39999 1.34621 7.50499 0.241211 8.85874 0.241211C10.2125 0.241211 11.3187 1.34621 11.3187 2.69996V5.15996H8.85749V5.15871ZM8.85749 6.39871C10.2112 6.39871 11.3175 7.50371 11.3175 8.85746C11.3158 9.50939 11.0561 10.1341 10.5952 10.5951C10.1342 11.0561 9.50942 11.3158 8.85749 11.3175H2.69999C2.04828 11.3155 1.42385 11.0556 0.963138 10.5947C0.502426 10.1337 0.24289 9.50917 0.241241 8.85746C0.241241 7.50371 1.34624 6.39871 2.69999 6.39871H8.85874H8.85749ZM18.8412 8.85746C18.8412 7.50371 19.9475 6.39871 21.3012 6.39871C22.655 6.39871 23.76 7.50371 23.76 8.85746C23.7583 9.50917 23.4988 10.1337 23.0381 10.5947C22.5774 11.0556 21.9529 11.3155 21.3012 11.3175H18.8412V8.85746ZM17.6012 8.85746C17.5996 9.50917 17.3401 10.1337 16.8793 10.5947C16.4186 11.0556 15.7942 11.3155 15.1425 11.3175C14.4906 11.3158 13.8658 11.0561 13.4048 10.5951C12.9438 10.1341 12.6841 9.50939 12.6825 8.85746V2.69996C12.6825 1.34621 13.7887 0.241211 15.1425 0.241211C16.4962 0.241211 17.6012 1.34621 17.6012 2.69996V8.85871V8.85746ZM15.1425 18.8412C16.4962 18.8412 17.6012 19.9475 17.6012 21.3012C17.5993 21.9527 17.3396 22.5769 16.8789 23.0376C16.4182 23.4983 15.794 23.758 15.1425 23.76C14.4908 23.7583 13.8662 23.4988 13.4053 23.0381C12.9443 22.5773 12.6845 21.9529 12.6825 21.3012V18.8412H15.1425ZM15.1425 17.6012C14.4908 17.5996 13.8662 17.34 13.4053 16.8793C12.9443 16.4186 12.6845 15.7942 12.6825 15.1425C12.6825 13.7887 13.7887 12.6825 15.1425 12.6825H21.3012C22.655 12.6825 23.76 13.7887 23.76 15.1425C23.758 15.794 23.4983 16.4182 23.0377 16.8789C22.577 17.3396 21.9527 17.5992 21.3012 17.6012H15.1425Z" fill="#74859C"/>
</svg>
