<svg width="1440" height="550" viewBox="0 0 1440 550" fill="none" xmlns="http://www.w3.org/2000/svg">
<rect x="-11" width="1462" height="550" fill="url(#paint0_linear)"/>
<rect x="-11.0127" y="356.787" width="194.594" height="46.3164" transform="rotate(15 -11.0127 356.787)" fill="url(#paint1_linear)"/>
<rect x="70.0361" y="353" width="194.594" height="46.3164" transform="rotate(15 70.0361 353)" fill="url(#paint2_linear)"/>
<rect x="1132.23" y="259.457" width="221.236" height="69.3015" transform="rotate(15 1132.23 259.457)" fill="url(#paint3_linear)"/>
<rect x="820.522" y="227" width="593.986" height="79.2911" transform="rotate(15 820.522 227)" fill="url(#paint4_linear)"/>
<rect x="-55.6621" y="7" width="324.688" height="105.626" transform="rotate(15 -55.6621 7)" fill="url(#paint5_linear)"/>
<rect x="1072.23" y="12" width="324.688" height="47.2454" transform="rotate(15 1072.23 12)" fill="url(#paint6_linear)"/>
<rect x="796.487" y="232" width="103.87" height="32.7908" transform="rotate(15 796.487 232)" fill="url(#paint7_linear)"/>
<defs>
<linearGradient id="paint0_linear" x1="16.3366" y1="10.6192" x2="293.176" y2="906.732" gradientUnits="userSpaceOnUse">
<stop stop-color="#373744"/>
<stop offset="1" stop-color="#303140"/>
</linearGradient>
<linearGradient id="paint1_linear" x1="334.514" y1="378.86" x2="53.9102" y2="368.019" gradientUnits="userSpaceOnUse">
<stop stop-color="#32BA85"/>
<stop offset="1" stop-color="#0C56C2" stop-opacity="0"/>
</linearGradient>
<linearGradient id="paint2_linear" x1="415.563" y1="375.073" x2="134.959" y2="364.231" gradientUnits="userSpaceOnUse">
<stop stop-color="#32BA85"/>
<stop offset="1" stop-color="#0C56C2" stop-opacity="0"/>
</linearGradient>
<linearGradient id="paint3_linear" x1="1525.07" y1="292.484" x2="1205.84" y2="283.113" gradientUnits="userSpaceOnUse">
<stop stop-color="#32BA85"/>
<stop offset="1" stop-color="#0C56C2" stop-opacity="0"/>
</linearGradient>
<linearGradient id="paint4_linear" x1="1875.22" y1="264.788" x2="1021.47" y2="205.973" gradientUnits="userSpaceOnUse">
<stop stop-color="#32BA85"/>
<stop offset="1" stop-color="#0C56C2" stop-opacity="0"/>
</linearGradient>
<linearGradient id="paint5_linear" x1="520.862" y1="57.3383" x2="52.3396" y2="44.094" gradientUnits="userSpaceOnUse">
<stop stop-color="#0C56C2"/>
<stop offset="0.873159" stop-color="#0C56C2" stop-opacity="0"/>
</linearGradient>
<linearGradient id="paint6_linear" x1="1648.75" y1="34.5158" x2="1181.72" y2="4.99982" gradientUnits="userSpaceOnUse">
<stop stop-color="#0C56C2"/>
<stop offset="0.873159" stop-color="#0C56C2" stop-opacity="0"/>
</linearGradient>
<linearGradient id="paint7_linear" x1="980.922" y1="247.627" x2="831.045" y2="243.261" gradientUnits="userSpaceOnUse">
<stop stop-color="#0C56C2"/>
<stop offset="0.873159" stop-color="#0C56C2" stop-opacity="0"/>
</linearGradient>
</defs>
</svg>
