<svg width="85" height="36" viewBox="0 0 85 36" fill="none" xmlns="http://www.w3.org/2000/svg">
<path d="M5.96858 13.9702C5.96858 13.0421 6.72349 12.685 7.97404 12.685C9.76683 12.685 12.0316 13.2326 13.8245 14.2083V8.61533C11.8665 7.83 9.93205 7.52059 7.97404 7.52059C3.18484 7.52059 0 10.0434 0 14.256C0 20.8245 8.96465 19.7774 8.96465 22.6096C8.96465 23.7042 8.02114 24.0613 6.69993 24.0613C4.74192 24.0613 2.24116 23.2521 0.259432 22.1573V27.8216C2.45349 28.7736 4.67109 29.1781 6.69993 29.1781C11.6069 29.1781 14.9805 26.7269 14.9805 22.4667C14.957 15.3745 5.96858 16.6358 5.96858 13.9702ZM21.9163 2.76077L16.1601 3.99825L16.1365 23.0616C16.1365 26.5841 18.7552 29.1781 22.2467 29.1781C24.1812 29.1781 25.5966 28.8211 26.3751 28.3927V23.5615C25.6204 23.8709 21.8928 24.9656 21.8928 21.4433V12.9944H26.3751V7.92522H21.8928L21.9163 2.76077ZM33.7122 9.68631L33.3346 7.92522H28.2389V28.7497H34.1368V14.6367C35.5285 12.8042 37.8878 13.1374 38.6191 13.3991V7.92522C37.8642 7.63957 35.104 7.11596 33.7122 9.68631ZM40.0581 7.92522H45.9796V28.7497H40.0581V7.92522ZM40.0581 6.11644L45.9796 4.83127V0L40.0581 1.26141V6.11628V6.11644ZM58.2943 7.52059C55.9823 7.52059 54.496 8.61533 53.6705 9.37706L53.3636 7.90146H48.1736V35.6514L54.0714 34.3902L54.0951 27.6549C54.9444 28.2738 56.1946 29.1543 58.2707 29.1543C62.4936 29.1543 66.339 25.7272 66.339 18.1828C66.3154 11.2809 62.4228 7.52059 58.2943 7.52059ZM56.8789 23.9184C55.487 23.9184 54.6611 23.4187 54.0951 22.7999L54.0714 13.9702C54.6848 13.2801 55.5341 12.8042 56.8789 12.8042C59.0256 12.8042 60.5119 15.2316 60.5119 18.3493C60.5119 21.5385 59.0492 23.9184 56.8789 23.9184ZM84.929 18.4208C84.929 12.3281 82.0036 7.52059 76.4125 7.52059C70.7976 7.52059 67.4004 12.3283 67.4004 18.3733C67.4004 25.5367 71.4112 29.1543 77.1673 29.1543C79.9747 29.1543 82.098 28.5117 83.7022 27.6074V22.8474C82.0981 23.6567 80.2579 24.1565 77.9223 24.1565C75.6339 24.1565 73.6051 23.3473 73.3456 20.539H84.8819C84.8819 20.2294 84.929 18.9919 84.929 18.4208ZM73.2748 16.1599C73.2748 13.4705 74.9027 12.3519 76.389 12.3519C77.828 12.3519 79.3615 13.4705 79.3615 16.1599H73.2748Z" fill="white"/>
</svg>
