<svg width="108" height="46" viewBox="0 0 108 46" fill="none" xmlns="http://www.w3.org/2000/svg">
<path d="M7.7121 18.3582C7.7121 17.1843 8.66703 16.7325 10.2489 16.7325C12.5167 16.7325 15.3815 17.4251 17.6495 18.6594V11.5845C15.1727 10.5911 12.7257 10.1997 10.2489 10.1997C4.19079 10.1997 0.162109 13.391 0.162109 18.7198C0.162109 27.0285 11.502 25.7041 11.502 29.2867C11.502 30.6713 10.3085 31.123 8.63723 31.123C6.16043 31.123 2.99708 30.0993 0.490279 28.7146V35.8796C3.26566 37.0839 6.07084 37.5955 8.63723 37.5955C14.8443 37.5955 19.1118 34.4948 19.1118 29.1059C19.082 20.1346 7.7121 21.73 7.7121 18.3582ZM27.8853 4.17878L20.6039 5.74414L20.5741 29.8585C20.5741 34.3143 23.8866 37.5955 28.3033 37.5955C30.7503 37.5955 32.5407 37.144 33.5254 36.6021V30.4907C32.5707 30.8821 27.8555 32.2669 27.8555 27.8113V17.1239H33.5254V10.7116H27.8555L27.8853 4.17878ZM42.8065 12.9393L42.3289 10.7116H35.8831V37.0536H43.3437V19.2013C45.1041 16.8833 48.0885 17.3047 49.0136 17.6358V10.7116C48.0587 10.3502 44.5672 9.6879 42.8065 12.9393ZM50.8339 10.7116H58.3243V37.0536H50.8339V10.7116ZM50.8339 8.42355L58.3243 6.79787V0.686523L50.8339 2.28215V8.42334V8.42355ZM73.9018 10.1997C70.9772 10.1997 69.0972 11.5845 68.0529 12.5481L67.6647 10.6815H61.0996V45.784L68.56 44.1886L68.59 35.6688C69.6644 36.4516 71.2458 37.5654 73.872 37.5654C79.2138 37.5654 84.078 33.2303 84.078 23.687C84.0482 14.9564 79.1242 10.1997 73.9018 10.1997ZM72.1114 30.9422C70.3507 30.9422 69.306 30.3102 68.59 29.5274L68.56 18.3582C69.336 17.4853 70.4103 16.8833 72.1114 16.8833C74.827 16.8833 76.707 19.9538 76.707 23.8976C76.707 27.9318 74.8567 30.9422 72.1114 30.9422ZM107.594 23.988C107.594 16.281 103.893 10.1997 96.8206 10.1997C89.7179 10.1997 85.4207 16.2812 85.4207 23.9279C85.4207 32.9894 90.4941 37.5654 97.7753 37.5654C101.327 37.5654 104.012 36.7526 106.042 35.6087V29.5875C104.013 30.6112 101.685 31.2435 98.7304 31.2435C95.8357 31.2435 93.2693 30.2198 92.9411 26.6674H107.534C107.534 26.2758 107.594 24.7105 107.594 23.988ZM92.8515 21.128C92.8515 17.7262 94.9107 16.3111 96.7908 16.3111C98.611 16.3111 100.551 17.7262 100.551 21.128H92.8515Z" fill="#74859C"/>
</svg>
