<svg width="256" height="259" viewBox="0 0 256 259" fill="none" xmlns="http://www.w3.org/2000/svg">
<g opacity="0.5">
<g opacity="0.5">
<path opacity="0.5" fill-rule="evenodd" clip-rule="evenodd" d="M117.286 85.0474C133.171 85.0474 150.536 90.5591 160.862 103.216C165.633 109.064 168.022 115.929 168.03 122.752C168.034 130.457 165.001 138.108 158.923 144.202C153.303 149.835 146.125 153.649 138.795 156.78L137.986 157.124C137.16 157.478 136.32 157.875 135.799 158.594C135.407 159.131 135.236 159.792 135.088 160.438L135.06 160.559C133.516 167.345 130.679 173.14 126.893 178.028H126.889C120.145 186.738 110.365 192.563 99.4669 195.973C91.1213 198.586 82.1169 199.784 73.3098 199.784C58.4964 199.784 44.8989 196.314 34.2473 190.522L34.2435 190.518C32.3881 189.517 30.6198 188.435 28.9537 187.294C18.1053 179.862 11.4258 169.711 11.4258 158.522C11.4258 137.189 35.7052 119.637 66.8458 117.483C70.318 99.1517 91.5757 85.0474 117.286 85.0474ZM48.9391 85.9263C54.3446 85.9263 58.7266 88.8954 58.7266 92.558C58.7266 96.2209 54.3446 99.1897 48.9391 99.1897C43.5332 99.1897 39.1511 96.2209 39.1511 92.558C39.1511 88.8954 43.5332 85.9263 48.9391 85.9263Z" fill="#FFF5F3"/>
</g>
</g>
<path opacity="0.5" d="M128 246.284C198.692 246.284 256 244.209 256 241.649C256 239.09 198.692 237.015 128 237.015C57.3075 237.015 0 239.09 0 241.649C0 244.209 57.3075 246.284 128 246.284Z" fill="#8E44AD"/>
<path fill-rule="evenodd" clip-rule="evenodd" d="M0 171.737V8.81957C0 4.4514 2.52 0.910156 5.62845 0.910156H231.355C234.464 0.910156 236.984 4.4514 236.984 8.81957V171.364C236.984 171.57 236.865 171.737 236.718 171.737H0Z" fill="#FCEBEC"/>
<path fill-rule="evenodd" clip-rule="evenodd" d="M219.965 191.552L232.989 171.737H206.941L219.965 191.552Z" fill="#DDB0C8"/>
<path fill-rule="evenodd" clip-rule="evenodd" d="M9.8273 7.14217C9.8273 8.33361 8.86145 9.29947 7.67 9.29947C6.47855 9.29947 5.5127 8.33361 5.5127 7.14217C5.5127 5.95072 6.47855 4.98486 7.67 4.98486C8.86145 4.98486 9.8273 5.95072 9.8273 7.14217Z" fill="#E93737"/>
<path fill-rule="evenodd" clip-rule="evenodd" d="M18.7765 6.9825C18.7765 8.17395 17.8107 9.1398 16.6192 9.1398C15.4278 9.1398 14.4619 8.17395 14.4619 6.9825C14.4619 5.79105 15.4278 4.8252 16.6192 4.8252C17.8107 4.8252 18.7765 5.79105 18.7765 6.9825Z" fill="#F9C818"/>
<path fill-rule="evenodd" clip-rule="evenodd" d="M28.0451 7.06258C28.0451 8.25402 27.0792 9.21988 25.8878 9.21988C24.6963 9.21988 23.7305 8.25402 23.7305 7.06258C23.7305 5.87113 24.6963 4.90527 25.8878 4.90527C27.0792 4.90527 28.0451 5.87113 28.0451 7.06258Z" fill="#1BC0D7"/>
<mask id="mask0" mask-type="alpha" maskUnits="userSpaceOnUse" x="118" y="83" width="119" height="72">
<path d="M236.984 83.5273H118.492V154.479H236.984V83.5273Z" fill="white"/>
</mask>
<g mask="url(#mask0)">
<path d="M236.984 83.5273H118.492V154.479H236.984V83.5273Z" fill="#E93737"/>
<path fill-rule="evenodd" clip-rule="evenodd" d="M182.576 111.732C182.576 111.732 182.871 118.217 186.654 120.505C190.085 122.582 182.815 134.633 174.993 133.914C170.712 133.52 169.709 121.812 169.709 121.812C169.709 121.812 173.166 121.144 171.889 115.873L182.576 111.732Z" fill="#C26E5E"/>
<path fill-rule="evenodd" clip-rule="evenodd" d="M176.314 118.325C181.384 117.712 185.043 114.378 185.556 108.848C187.03 109.082 187.377 105.242 186.967 104.008C186.556 102.772 185.215 103.495 185.215 103.495C185.14 103.299 185.077 103.095 185.025 102.881C182.81 93.7959 176.607 94.1562 176.607 94.1562C165.207 94.7501 167.878 106.389 168.529 109.476C169.181 112.564 171.412 118.918 176.314 118.325Z" fill="#C26E5E"/>
<mask id="mask1" mask-type="alpha" maskUnits="userSpaceOnUse" x="126" y="154" width="35" height="33">
<path fill-rule="evenodd" clip-rule="evenodd" d="M126.163 154.075H160.702V186.189H126.163V154.075Z" fill="white"/>
</mask>
<g mask="url(#mask1)">
<path fill-rule="evenodd" clip-rule="evenodd" d="M150.362 154.076C150.362 154.076 149.761 164.516 147.718 166.048C145.676 167.579 131.687 171.547 131.687 171.547C131.687 171.547 131.061 179.781 133.32 178.915C135.58 178.05 158.39 174.835 158.622 173.44C158.854 172.046 160.702 155.927 160.702 155.927L150.362 154.076Z" fill="#C26E5E"/>
</g>
<path fill-rule="evenodd" clip-rule="evenodd" d="M203.939 127.671C207.347 133.067 207.107 138.392 209.521 140.095C211.935 141.799 212.929 144.213 213.639 147.337C214.349 150.461 213.639 148.785 213.639 148.785L201.622 157.041C201.622 157.041 194.47 142.225 195.748 146.911C197.026 151.597 200.042 171.307 198.824 172.439C197.607 173.571 186.171 177.953 175.816 177.481C166.743 177.067 158.195 174.647 158.195 173.984C158.195 172.564 160.249 156.567 160.249 156.567L149.6 154.153C149.6 154.153 150.494 132.906 159.592 125.767C159.592 125.767 164.52 122.166 170.585 120.839C170.585 120.839 172.354 124.693 177.913 124.819C183.473 124.946 185.276 122.959 186.663 120.761C186.663 120.761 200.531 122.275 203.939 127.671Z" fill="#FC7750"/>
<path fill-rule="evenodd" clip-rule="evenodd" d="M203.218 156.005C203.218 156.005 208.242 167.075 213.495 163.337C218.747 159.599 221.696 155.08 229.284 144.491C232.265 140.331 239.725 130.196 237.777 129.413C236.694 128.977 229.989 135.489 226.197 138.068C225.081 138.827 215.506 148.202 214.471 148.34C213.782 148.432 210.031 150.987 203.218 156.005Z" fill="#C26E5E"/>
<path fill-rule="evenodd" clip-rule="evenodd" d="M225.523 137.872C225.523 137.872 224.523 136.213 228.257 132.64C230.228 130.755 231.719 126.399 232.812 127.148C233.906 127.898 231.632 133.028 231.632 133.028C231.632 133.028 234.018 130.87 235.428 128.492C236.839 126.115 238.15 124.182 238.15 124.182C238.15 124.182 239.269 123.464 239.345 124.595C239.421 125.726 239.104 126.086 239.104 126.086C239.104 126.086 239.963 125.884 239.98 126.75C239.997 127.617 239.839 127.797 239.839 127.797C239.839 127.797 240.485 127.726 240.5 128.485C240.514 129.242 240.092 129.722 240.092 129.722C240.092 129.722 240.58 129.832 240.166 130.745C239.752 131.658 237.417 136.415 235.775 137.95C234.132 139.485 229.845 142.104 229.845 142.104C229.845 142.104 225.145 139.176 225.523 137.872Z" fill="#C26E5E"/>
<path fill-rule="evenodd" clip-rule="evenodd" d="M235.525 134.73C235.578 134.692 236.835 133.769 238.173 131.613C239.374 129.676 239.827 129.802 239.831 129.804C239.831 129.804 239.827 129.803 239.819 129.798L239.95 129.597C239.93 129.584 239.852 129.543 239.713 129.574C239.418 129.639 238.876 130.025 237.969 131.487C236.656 133.603 235.397 134.527 235.385 134.536L235.525 134.73Z" fill="#995B5D"/>
<path fill-rule="evenodd" clip-rule="evenodd" d="M234.868 133.678C234.871 133.675 235.22 133.351 236.17 132.506C236.845 131.905 237.677 130.565 238.284 129.586C238.558 129.146 238.794 128.765 238.95 128.558C239.413 127.941 239.85 127.906 239.854 127.906L239.844 127.666C239.822 127.667 239.296 127.697 238.758 128.414C238.596 128.63 238.357 129.014 238.081 129.46C237.481 130.426 236.66 131.749 236.01 132.327C235.058 133.175 234.708 133.499 234.705 133.502L234.868 133.678Z" fill="#995B5D"/>
<path fill-rule="evenodd" clip-rule="evenodd" d="M234.355 132.807C234.368 132.796 235.678 131.613 236.571 130.449C237.407 129.359 238.088 127.885 238.453 127.093L238.538 126.911C238.836 126.269 239.105 126.187 239.107 126.187L239.054 125.953C239.016 125.961 238.673 126.053 238.32 126.81L238.236 126.993C237.874 127.776 237.2 129.234 236.381 130.303C235.501 131.45 234.208 132.617 234.195 132.629L234.355 132.807Z" fill="#995B5D"/>
<path fill-rule="evenodd" clip-rule="evenodd" d="M229.397 134.83C229.404 134.823 230.13 134.118 230.706 133.919C231.346 133.698 231.73 133.117 231.746 133.093L231.545 132.962C231.542 132.967 231.189 133.499 230.628 133.692C230 133.909 229.26 134.628 229.229 134.659L229.397 134.83Z" fill="#995B5D"/>
<path fill-rule="evenodd" clip-rule="evenodd" d="M177.482 112.642C177.482 112.642 176.559 114.833 174.631 113.999L177.482 112.642Z" fill="black"/>
<path fill-rule="evenodd" clip-rule="evenodd" d="M180.601 105.913C180.601 105.913 179.688 104.821 178.864 104.36C178.354 104.075 175.211 103.466 175.096 104.11C174.984 104.738 175.308 104.76 176.561 104.964C177.814 105.168 178.401 105.218 179.06 105.527C179.718 105.837 180.462 106.258 180.601 105.913Z" fill="black"/>
<path fill-rule="evenodd" clip-rule="evenodd" d="M168.478 106.683C168.478 106.683 168.363 106.02 168.522 105.588C168.681 105.155 170.655 103.355 171.234 103.511C172.153 103.76 171.822 104.201 170.657 104.984C169.721 105.614 169.348 105.857 168.994 106.3C168.512 106.907 168.548 106.78 168.478 106.683Z" fill="black"/>
<path d="M172.911 104.982L172.606 105.08L172.636 105.175C172.66 105.253 172.687 105.342 172.715 105.44C172.798 105.722 172.88 106.025 172.956 106.337C173.042 106.684 173.115 107.02 173.172 107.338L173.188 107.432C173.327 108.239 173.347 108.855 173.223 109.187L173.215 109.206C172.506 110.96 173.469 111.85 175.491 111.227L175.553 111.208L175.455 110.903C173.634 111.486 172.904 110.83 173.512 109.325C173.679 108.911 173.653 108.209 173.486 107.281C173.428 106.956 173.353 106.614 173.267 106.261C173.198 105.98 173.124 105.706 173.05 105.447L173.022 105.351C173.006 105.294 172.99 105.24 172.974 105.189L172.935 105.061L172.911 104.982Z" fill="black"/>
<path d="M180.801 117.208L180.644 116.93L180.587 116.961L180.535 116.989C180.456 117.03 180.366 117.076 180.265 117.126L180.222 117.147C179.884 117.311 179.511 117.476 179.114 117.629C178.199 117.982 177.295 118.222 176.454 118.301C176.073 118.336 175.712 118.337 175.374 118.3L175.307 118.293L175.267 118.61C175.649 118.657 176.056 118.659 176.484 118.619C177.358 118.538 178.289 118.29 179.229 117.927C179.635 117.77 180.017 117.602 180.362 117.434L180.492 117.37C180.548 117.342 180.6 117.315 180.648 117.29L180.739 117.242L180.801 117.208Z" fill="#C86A5D"/>
<path fill-rule="evenodd" clip-rule="evenodd" d="M176.529 107.108C176.587 107.108 176.645 107.087 176.691 107.045C176.694 107.042 177.089 106.691 177.66 106.713C178.25 106.735 178.642 107.023 178.646 107.026C178.752 107.105 178.902 107.085 178.981 106.979C179.061 106.874 179.041 106.725 178.936 106.645C178.916 106.629 178.427 106.261 177.678 106.234C176.907 106.206 176.389 106.672 176.367 106.692C176.27 106.781 176.263 106.933 176.353 107.031C176.4 107.082 176.464 107.108 176.529 107.108Z" fill="black"/>
<path fill-rule="evenodd" clip-rule="evenodd" d="M169.808 107.839C169.866 107.839 169.924 107.818 169.97 107.776C169.973 107.773 170.368 107.421 170.939 107.443C171.528 107.465 171.92 107.753 171.924 107.756C172.029 107.836 172.18 107.816 172.26 107.711C172.341 107.606 172.321 107.456 172.215 107.375C172.195 107.359 171.706 106.992 170.957 106.964C170.186 106.937 169.668 107.402 169.646 107.422C169.548 107.512 169.542 107.664 169.631 107.761C169.679 107.813 169.743 107.839 169.808 107.839Z" fill="black"/>
<path fill-rule="evenodd" clip-rule="evenodd" d="M174.225 96.9893C174.225 96.9893 181.027 97.1405 182.992 102.431C184.957 107.721 183.203 109.492 184.717 112.746C186.232 115.999 189.036 116.28 189.036 116.28C189.036 116.28 185.222 113.924 185.166 111.063C185.11 108.202 185.3 103.852 185.261 103.7C185.222 103.547 186.735 103.139 187.016 104.212C187.016 104.212 187.907 97.8314 184.479 94.145C179.606 88.9037 167.23 91.1603 167.667 100.673C167.98 107.487 167.405 109.893 167.405 109.893C167.405 109.893 167.888 107.14 168.123 104.523C168.357 101.906 168.94 98.5057 173.221 97.0686C173.221 97.0686 174.964 95.4785 175.484 95.3562C176.003 95.2339 174.036 96.329 174.225 96.9893Z" fill="black"/>
<path fill-rule="evenodd" clip-rule="evenodd" d="M174.225 96.9893C174.225 96.9893 181.027 97.1405 182.992 102.431C184.957 107.721 183.203 109.492 184.717 112.746C186.232 115.999 189.036 116.28 189.036 116.28C189.036 116.28 185.222 113.924 185.166 111.063C185.11 108.202 185.3 103.852 185.261 103.7C185.222 103.547 186.735 103.139 187.016 104.212C187.016 104.212 187.907 97.8314 184.479 94.145C179.606 88.9037 167.23 91.1603 167.667 100.673C167.98 107.487 167.405 109.893 167.405 109.893C167.405 109.893 167.888 107.14 168.123 104.523C168.357 101.906 168.94 98.5057 173.221 97.0686C173.221 97.0686 174.964 95.4785 175.484 95.3562C176.003 95.2339 174.036 96.329 174.225 96.9893Z" stroke="black" stroke-width="0.307721"/>
<path fill-rule="evenodd" clip-rule="evenodd" d="M181.351 95.8502C181.351 95.8502 184.35 97.6492 186.628 94.7707C188.907 91.8923 185.429 89.1338 182.431 89.1338C179.432 89.1338 178.353 90.9328 178.593 92.8519C178.833 94.7707 180.032 95.3705 181.351 95.8502Z" fill="black"/>
<path fill-rule="evenodd" clip-rule="evenodd" d="M181.351 95.8502C181.351 95.8502 184.35 97.6492 186.628 94.7707C188.907 91.8923 185.429 89.1338 182.431 89.1338C179.432 89.1338 178.353 90.9328 178.593 92.8519C178.833 94.7707 180.032 95.3705 181.351 95.8502Z" stroke="black" stroke-width="0.307721"/>
<path fill-rule="evenodd" clip-rule="evenodd" d="M169.092 89.3298C169.092 89.3298 165.718 89.8808 165.537 93.3527C165.356 96.8246 169.646 96.6683 172.01 94.8236C174.374 92.9789 174.215 91.0212 172.949 89.7888C171.683 88.5565 170.401 88.8631 169.092 89.3298Z" fill="black"/>
<path fill-rule="evenodd" clip-rule="evenodd" d="M169.092 89.3298C169.092 89.3298 165.718 89.8808 165.537 93.3527C165.356 96.8246 169.646 96.6683 172.01 94.8236C174.374 92.9789 174.215 91.0212 172.949 89.7888C171.683 88.5565 170.401 88.8631 169.092 89.3298Z" stroke="black" stroke-width="0.307721"/>
<path fill-rule="evenodd" clip-rule="evenodd" d="M170.994 115.084C170.994 115.084 171.398 113.968 172.709 112.523C173.432 111.727 177.343 109.816 178.92 111.321C180.496 112.826 181.358 113.123 181.086 113.169C178.42 113.615 177.878 112.433 176.645 112.502C175.267 112.579 174.495 112.433 174.495 112.433C174.133 113.006 173.736 113.424 172.847 114.201C172.551 114.459 171.196 115.709 170.994 115.084Z" fill="black"/>
</g>
<mask id="mask2" mask-type="alpha" maskUnits="userSpaceOnUse" x="0" y="83" width="119" height="72">
<path d="M118.492 83.4473H0V154.399H118.492V83.4473Z" fill="white"/>
</mask>
<g mask="url(#mask2)">
<path d="M118.492 83.4473H0V154.399H118.492V83.4473Z" fill="#204EB2"/>
<path fill-rule="evenodd" clip-rule="evenodd" d="M54.4082 111.905C54.4082 111.905 54.1133 118.389 50.3308 120.678C46.899 122.755 54.1696 134.805 61.991 134.087C66.2724 133.693 67.2757 121.985 67.2757 121.985C67.2757 121.985 63.8188 121.317 65.0957 116.046L54.4082 111.905Z" fill="#F6CBC3"/>
<path fill-rule="evenodd" clip-rule="evenodd" d="M60.6709 118.498C55.6004 117.885 51.941 114.551 51.4286 109.021C49.9546 109.255 49.6069 105.414 50.0175 104.181C50.4284 102.945 51.7697 103.668 51.7697 103.668C51.8439 103.472 51.907 103.268 51.9591 103.054C54.1741 93.9688 60.3779 94.3291 60.3779 94.3291C71.7776 94.923 69.1065 106.561 68.4552 109.649C67.8038 112.737 65.5725 119.09 60.6709 118.498Z" fill="#F6CBC3"/>
<mask id="mask3" mask-type="alpha" maskUnits="userSpaceOnUse" x="76" y="154" width="35" height="33">
<path fill-rule="evenodd" clip-rule="evenodd" d="M110.821 154.248H76.2824V186.362H110.821V154.248Z" fill="white"/>
</mask>
<g mask="url(#mask3)">
<path fill-rule="evenodd" clip-rule="evenodd" d="M86.6221 154.248C86.6221 154.248 87.2237 164.688 89.2662 166.22C91.3087 167.752 105.297 171.72 105.297 171.72C105.297 171.72 105.923 179.953 103.664 179.088C101.405 178.222 78.5948 175.007 78.3624 173.613C78.13 172.218 76.2826 156.099 76.2826 156.099L86.6221 154.248Z" fill="#F6CBC3"/>
</g>
<path fill-rule="evenodd" clip-rule="evenodd" d="M33.0457 127.844C29.6378 133.239 29.877 138.564 27.4631 140.268C25.0492 141.972 24.0552 144.386 23.3452 147.51C22.6353 150.633 23.3452 148.957 23.3452 148.957L35.3623 157.214C35.3623 157.214 42.5145 142.398 41.2365 147.084C39.9586 151.769 36.9427 171.479 38.16 172.611C39.3774 173.743 50.8137 178.126 61.1686 177.653C70.2416 177.239 78.7895 174.819 78.7895 174.156C78.7895 172.736 76.7352 156.739 76.7352 156.739L87.3848 154.325C87.3848 154.325 86.4901 133.078 77.3926 125.939C77.3926 125.939 72.4648 122.338 66.3997 121.011C66.3997 121.011 64.6307 124.865 59.071 124.992C53.5114 125.118 51.7086 123.131 50.3209 120.934C50.3209 120.934 36.4536 122.448 33.0457 127.844Z" fill="#FC7750"/>
<path fill-rule="evenodd" clip-rule="evenodd" d="M33.766 156.178C33.766 156.178 28.7424 167.248 23.4897 163.51C18.237 159.772 15.288 155.253 7.70066 144.664C4.71981 140.504 -2.74052 130.369 -0.792974 129.585C0.28996 129.15 6.99498 135.662 10.7869 138.24C11.9039 139 21.4785 148.375 22.513 148.513C23.2026 148.605 26.9536 151.16 33.766 156.178Z" fill="#F6CBC3"/>
<path fill-rule="evenodd" clip-rule="evenodd" d="M11.4616 138.044C11.4616 138.044 12.461 136.386 8.72721 132.813C6.75687 130.927 5.2657 126.571 4.17202 127.321C3.07835 128.07 5.35199 133.2 5.35199 133.2C5.35199 133.2 2.96633 131.042 1.55609 128.665C0.145857 126.287 -1.16522 124.354 -1.16522 124.354C-1.16522 124.354 -2.28414 123.636 -2.36021 124.767C-2.43627 125.898 -2.11955 126.258 -2.11955 126.258C-2.11955 126.258 -2.97888 126.056 -2.99582 126.923C-3.01267 127.789 -2.85439 127.969 -2.85439 127.969C-2.85439 127.969 -3.50038 127.899 -3.51525 128.657C-3.53003 129.415 -3.10776 129.895 -3.10776 129.895C-3.10776 129.895 -3.59547 130.005 -3.18174 130.918C-2.76794 131.831 -0.433019 136.587 1.20949 138.122C2.85207 139.657 7.13911 142.277 7.13911 142.277C7.13911 142.277 11.8397 139.349 11.4616 138.044Z" fill="#F6CBC3"/>
<path fill-rule="evenodd" clip-rule="evenodd" d="M1.45929 134.903C1.40639 134.865 0.149405 133.942 -1.18828 131.786C-2.3899 129.849 -2.84229 129.975 -2.84685 129.977C-2.84677 129.977 -2.84261 129.976 -2.83502 129.971L-2.96582 129.77C-2.94545 129.757 -2.86794 129.716 -2.72852 129.747C-2.43361 129.812 -1.89172 130.197 -0.984537 131.66C0.328381 133.776 1.58721 134.7 1.59975 134.709L1.45929 134.903Z" fill="#995B5D"/>
<path fill-rule="evenodd" clip-rule="evenodd" d="M2.11677 133.851C2.11333 133.848 1.76465 133.524 0.814636 132.679C0.139241 132.078 -0.692599 130.738 -1.29992 129.759C-1.57334 129.319 -1.80944 128.938 -1.96525 128.731C-2.42827 128.114 -2.8658 128.079 -2.87012 128.078L-2.85989 127.839C-2.83776 127.84 -2.31146 127.87 -1.77357 128.587C-1.61137 128.803 -1.37263 129.187 -1.09625 129.633C-0.496604 130.599 0.324529 131.922 0.973957 132.5C1.92645 133.347 2.27641 133.672 2.27984 133.675L2.11677 133.851Z" fill="#995B5D"/>
<path fill-rule="evenodd" clip-rule="evenodd" d="M2.62901 132.98C2.61591 132.968 1.30651 131.786 0.413462 130.622C-0.422293 129.532 -1.1032 128.058 -1.46906 127.266L-1.55328 127.084C-1.85211 126.442 -2.12041 126.36 -2.12305 126.36L-2.06983 126.126C-2.0318 126.134 -1.68831 126.226 -1.33603 126.983L-1.25142 127.166C-0.889549 127.949 -0.215911 129.407 0.603704 130.476C1.4834 131.623 2.77635 132.79 2.78937 132.802L2.62901 132.98Z" fill="#995B5D"/>
<path fill-rule="evenodd" clip-rule="evenodd" d="M7.58742 135.003C7.58015 134.996 6.85474 134.29 6.27866 134.092C5.63818 133.871 5.25434 133.29 5.23828 133.266L5.43899 133.135C5.44251 133.14 5.79582 133.672 6.3568 133.865C6.98402 134.082 7.72389 134.801 7.75505 134.832L7.58742 135.003Z" fill="#995B5D"/>
<path d="M64.0747 105.155L64.379 105.253L64.3492 105.348C64.3253 105.426 64.2987 105.515 64.2699 105.614C64.1878 105.896 64.1056 106.199 64.0289 106.511C63.9437 106.857 63.8707 107.193 63.8135 107.511L63.797 107.605C63.6582 108.412 63.6386 109.029 63.7626 109.36L63.7699 109.379C64.4793 111.134 63.516 112.024 61.4942 111.401L61.4326 111.381L61.53 111.077C63.3513 111.66 64.0817 111.003 63.4736 109.499C63.3062 109.085 63.332 108.382 63.499 107.454C63.5574 107.13 63.6319 106.787 63.7186 106.434C63.7877 106.153 63.8613 105.879 63.9353 105.62L63.9631 105.524C63.9798 105.467 63.9958 105.413 64.011 105.362L64.05 105.234L64.0747 105.155Z" fill="black"/>
<path d="M56.1846 117.381L56.3409 117.103L56.398 117.134L56.4503 117.161C56.5296 117.203 56.6198 117.249 56.7201 117.298L56.7637 117.32C57.1009 117.484 57.4739 117.648 57.8717 117.802C58.7864 118.155 59.6902 118.395 60.5311 118.473C60.9121 118.509 61.2733 118.51 61.6115 118.473L61.6788 118.466L61.7179 118.783C61.3364 118.83 60.9298 118.831 60.5015 118.792C59.6276 118.71 58.6966 118.462 57.7567 118.1C57.35 117.943 56.9688 117.775 56.6237 117.607L56.4932 117.543C56.4377 117.515 56.3856 117.488 56.3371 117.463L56.2467 117.415L56.1846 117.381Z" fill="#C86A5D"/>
<path fill-rule="evenodd" clip-rule="evenodd" d="M61.7399 114.144C60.2834 113.754 59.3641 112.793 59.3211 112.747C59.2304 112.651 59.235 112.499 59.3314 112.408C59.4275 112.317 59.5793 112.322 59.6701 112.418C59.6883 112.437 60.7705 113.558 62.3762 113.786C62.5063 113.804 62.5983 113.926 62.5798 114.057C62.5612 114.188 62.4398 114.279 62.3088 114.26C62.1113 114.233 61.9213 114.193 61.7399 114.144Z" fill="black"/>
<path fill-rule="evenodd" clip-rule="evenodd" d="M62.6275 111.599C62.3044 111.599 61.9014 111.536 61.3984 111.375L61.4958 111.071C62.4325 111.371 63.1244 111.346 63.4441 111.002C63.716 110.709 63.7143 110.173 63.4394 109.493C63.2528 109.031 63.2989 108.156 63.5764 106.892C63.7795 105.966 64.0379 105.157 64.0405 105.149L64.3448 105.247C64.0645 106.121 63.409 108.565 63.7357 109.373C64.151 110.4 63.9337 110.944 63.6783 111.219C63.4961 111.416 63.1782 111.599 62.6275 111.599Z" fill="black"/>
<path fill-rule="evenodd" clip-rule="evenodd" d="M61.2942 104.985C61.2461 104.985 61.1972 104.977 61.1494 104.96C60.6831 104.798 59.3362 104.365 58.712 104.319C58.1243 104.276 57.2276 104.566 56.9316 104.682C56.7056 104.77 56.4508 104.658 56.3624 104.432C56.274 104.207 56.3853 103.952 56.6111 103.863C56.6619 103.843 57.8681 103.375 58.7769 103.443C59.6442 103.507 61.3661 104.105 61.4389 104.131C61.6681 104.211 61.789 104.461 61.7091 104.69C61.6458 104.872 61.4758 104.985 61.2942 104.985Z" fill="black"/>
<path fill-rule="evenodd" clip-rule="evenodd" d="M68.6881 106.486C68.6 106.486 68.5112 106.459 68.4347 106.402C68.1903 106.223 67.4356 105.739 66.8871 105.647C66.3019 105.549 64.9554 105.66 64.4859 105.711C64.2504 105.736 64.0388 105.566 64.0133 105.33C63.9877 105.095 64.158 104.883 64.3934 104.858C64.4671 104.85 66.2073 104.664 67.0286 104.801C67.8921 104.945 68.8999 105.68 68.9424 105.711C69.1333 105.851 69.1744 106.12 69.0342 106.31C68.9502 106.425 68.82 106.486 68.6881 106.486Z" fill="black"/>
<path fill-rule="evenodd" clip-rule="evenodd" d="M60.4552 107.282C60.3973 107.282 60.3392 107.261 60.2932 107.218C60.2902 107.216 59.8949 106.865 59.3244 106.886C58.734 106.908 58.3421 107.197 58.3381 107.2C58.2325 107.279 58.0824 107.258 58.0029 107.153C57.9232 107.048 57.9431 106.898 58.048 106.818C58.0684 106.802 58.5576 106.435 59.3066 106.407C60.0776 106.379 60.5956 106.845 60.6173 106.865C60.7149 106.955 60.7214 107.106 60.6318 107.204C60.5846 107.255 60.52 107.282 60.4552 107.282Z" fill="black"/>
<path fill-rule="evenodd" clip-rule="evenodd" d="M67.1762 108.012C67.1183 108.012 67.0603 107.992 67.0143 107.949C67.0112 107.947 66.616 107.595 66.0453 107.617C65.4565 107.639 65.0639 107.927 65.0601 107.93C64.9549 108.01 64.8045 107.99 64.7241 107.885C64.6437 107.78 64.6638 107.629 64.7689 107.549C64.7894 107.533 65.2786 107.166 66.0277 107.138C66.7983 107.11 67.3167 107.576 67.3383 107.596C67.4359 107.686 67.4424 107.837 67.3529 107.935C67.3057 107.986 67.241 108.012 67.1762 108.012Z" fill="black"/>
<mask id="mask4" mask-type="alpha" maskUnits="userSpaceOnUse" x="53" y="78" width="18" height="13">
<path fill-rule="evenodd" clip-rule="evenodd" d="M53.5596 78.7471H70.7853V90.9385H53.5596V78.7471Z" fill="white"/>
</mask>
<g mask="url(#mask4)">
<path fill-rule="evenodd" clip-rule="evenodd" d="M67.7527 90.7836C67.7527 90.7836 67.428 90.0302 69.1977 89.9479C70.9675 89.8656 71.6672 86.2438 69.1154 84.6386C66.5636 83.0335 69.3212 81.3461 65.4112 79.3294C61.5013 77.3127 59.5669 81.1814 59.5669 81.1814C59.5669 81.1814 55.4513 79.5763 54.0108 82.8689C52.5703 86.1614 55.0396 87.4785 55.0396 87.4785C55.0396 87.4785 53.3934 88.5898 54.7105 89.9479C56.0275 91.3061 59.5816 89.7967 60.1711 90.5309C60.7605 91.265 67.7527 90.7836 67.7527 90.7836Z" fill="#752B00"/>
</g>
<path fill-rule="evenodd" clip-rule="evenodd" d="M55.918 91.5381C55.918 91.5381 57.1636 89.2435 60.1269 89.0291C63.0902 88.8147 64.4196 89.8671 64.7632 91.5381C65.1069 93.2091 55.918 91.5381 55.918 91.5381Z" fill="white"/>
<mask id="mask5" mask-type="alpha" maskUnits="userSpaceOnUse" x="49" y="90" width="21" height="19">
<path fill-rule="evenodd" clip-rule="evenodd" d="M49.6182 90.5967H69.6343V108.278H49.6182V90.5967Z" fill="white"/>
</mask>
<g mask="url(#mask5)">
<path fill-rule="evenodd" clip-rule="evenodd" d="M51.4018 106.493C51.3195 106.137 51.539 105.711 52.0603 105.217C52.8423 104.477 52.5542 101.06 54.4062 100.443C56.2583 99.8258 59.3451 96.6567 60.7855 96.6567C62.2261 96.6567 64.6955 97.9737 65.6833 97.8914C66.6711 97.8091 67.9881 99.7846 68.0704 100.814C68.1527 101.842 69.5018 103.683 68.6626 108.278C68.6626 108.278 69.6343 106.74 69.6343 104.929C69.6343 103.118 69.3874 102.707 69.5109 100.114C69.6343 97.521 69.3463 94.8458 67.453 93.6111C65.5598 92.3763 64.3663 90.1127 61.4441 90.6889C58.522 91.2651 56.2583 90.5654 54.5297 92.4175C53.2582 93.7798 51.3606 94.7223 50.949 97.521C50.5656 100.128 48.4486 101.334 50.5014 104.14C50.5014 104.14 51.4018 105.588 51.4018 106.493Z" fill="#752B00"/>
</g>
<path fill-rule="evenodd" clip-rule="evenodd" d="M56.1299 91.351C56.1299 91.351 56.6749 89.0931 60.2704 88.8534C63.8659 88.6137 64.5661 90.1625 64.7354 91.4255C64.7354 91.4255 63.2581 90.4374 61.3648 90.8439C59.4714 91.2504 57.3427 90.9722 56.1299 91.351Z" fill="#56ACF6"/>
<path d="M58.9055 103.314C57.22 103.314 55.8535 104.681 55.8535 106.366C55.8535 108.052 57.2199 109.418 58.9055 109.418C60.591 109.418 61.9573 108.052 61.9573 106.366C61.9573 104.681 60.5909 103.314 58.9055 103.314ZM58.9055 104.034C60.1938 104.034 61.2382 105.078 61.2382 106.366C61.2382 107.655 60.1938 108.699 58.9055 108.699C57.6171 108.699 56.5726 107.655 56.5726 106.366C56.5726 105.078 57.6171 104.034 58.9055 104.034Z" fill="#E93737"/>
<path d="M66.4094 104.042C64.7238 104.042 63.3574 105.408 63.3574 107.094C63.3574 108.779 64.7238 110.146 66.4094 110.146C68.0949 110.146 69.4612 108.779 69.4612 107.094C69.4612 105.408 68.0949 104.042 66.4094 104.042ZM66.4094 104.761C67.6977 104.761 68.7421 105.805 68.7421 107.094C68.7421 108.382 67.6977 109.427 66.4094 109.427C65.121 109.427 64.0765 108.382 64.0765 107.094C64.0765 105.806 65.121 104.761 66.4094 104.761Z" fill="#E93737"/>
<path d="M51.8041 104.18C51.8757 104.001 52.0749 103.911 52.2552 103.973L52.2715 103.979L56.2665 105.577C56.4509 105.651 56.5406 105.86 56.4668 106.045C56.3952 106.224 56.196 106.313 56.0158 106.251L55.9994 106.245L52.0044 104.647C51.8201 104.573 51.7304 104.364 51.8041 104.18Z" fill="#E93737"/>
<path d="M61.2708 106.517C61.2921 106.325 61.4605 106.186 61.651 106.198L61.6679 106.2L63.7629 106.433C63.9602 106.455 64.1024 106.632 64.0805 106.83C64.0591 107.021 63.8907 107.161 63.7002 107.149L63.6833 107.147L61.5884 106.914C61.391 106.892 61.2488 106.714 61.2708 106.517Z" fill="#E93737"/>
<path fill-rule="evenodd" clip-rule="evenodd" d="M52.215 108.869C52.215 109.333 51.8395 109.708 51.3761 109.708C50.9127 109.708 50.5371 109.333 50.5371 108.869C50.5371 108.406 50.9127 108.03 51.3761 108.03C51.8395 108.03 52.215 108.406 52.215 108.869Z" fill="white"/>
</g>
<mask id="mask6" mask-type="alpha" maskUnits="userSpaceOnUse" x="118" y="12" width="119" height="72">
<path d="M236.984 12.5752H118.492V83.5265H236.984V12.5752Z" fill="white"/>
</mask>
<g mask="url(#mask6)">
<path d="M236.984 12.5752H118.492V83.5265H236.984V12.5752Z" fill="#FFE89D"/>
<path fill-rule="evenodd" clip-rule="evenodd" d="M190.321 77.5347L193.197 104.477C193.197 104.477 165.207 111.208 155.002 102.405L153.966 78.6861C153.966 78.6861 166.085 78.3023 190.321 77.5347Z" fill="#D60000"/>
<path fill-rule="evenodd" clip-rule="evenodd" d="M178.101 42.458C178.101 42.458 178.396 48.9422 182.178 51.231C185.61 53.3077 178.339 65.3582 170.518 64.6394C166.236 64.2458 165.233 52.5381 165.233 52.5381C165.233 52.5381 168.69 51.87 167.413 46.5984L178.101 42.458Z" fill="#C26E5E"/>
<path fill-rule="evenodd" clip-rule="evenodd" d="M171.837 49.0509C176.907 48.4377 180.567 45.1039 181.079 39.5734C182.553 39.808 182.901 35.9672 182.49 34.7334C182.079 33.4978 180.738 34.2203 180.738 34.2203C180.664 34.025 180.601 33.8206 180.549 33.607C178.334 24.5215 172.13 24.8818 172.13 24.8818C160.73 25.4757 163.401 37.1142 164.053 40.2018C164.704 43.2897 166.935 49.6431 171.837 49.0509Z" fill="#C26E5E"/>
<path fill-rule="evenodd" clip-rule="evenodd" d="M154.98 86.1744C156.662 85.4894 158.829 83.3215 161.422 79.7312C163.345 77.0686 164.799 74.572 164.813 74.5472L164.537 74.3867C164.48 74.4856 158.751 84.2935 154.859 85.8784L154.98 86.1744Z" fill="#864A56"/>
<mask id="mask7" mask-type="alpha" maskUnits="userSpaceOnUse" x="152" y="50" width="49" height="51">
<path fill-rule="evenodd" clip-rule="evenodd" d="M200.389 50.896H152.135V100.172H200.389V50.896Z" fill="white"/>
</mask>
<g mask="url(#mask7)">
<path fill-rule="evenodd" clip-rule="evenodd" d="M181.854 50.896C181.854 50.896 196.053 52.2404 198.981 66.9889C201.909 81.7374 202.259 99.1338 179.696 100.035C157.133 100.935 155.214 97.1391 155.231 96.3097C155.247 95.4803 154.848 81.8173 153.01 71.4303C151.172 61.0433 151.012 55.4503 165.075 52.0146C165.075 52.0146 171.307 60.3242 181.854 50.896Z" fill="#D60000"/>
</g>
<path fill-rule="evenodd" clip-rule="evenodd" d="M171.067 56.9682L169.389 49.2978C169.389 49.2978 169.469 48.0194 167.471 48.0993C165.474 48.1792 151.332 47.9395 151.332 47.9395C151.332 47.9395 150.213 47.7797 149.893 48.8184C149.574 49.8571 153.729 67.2753 153.729 67.2753C153.729 67.2753 153.649 68.4738 155.007 68.4738C156.365 68.4738 173.064 69.113 173.064 69.113L171.067 56.9682Z" fill="#204EB2"/>
<mask id="mask8" mask-type="alpha" maskUnits="userSpaceOnUse" x="149" y="47" width="25" height="23">
<path fill-rule="evenodd" clip-rule="evenodd" d="M173.112 47.8916H149.838V69.155H173.112V47.8916Z" fill="white"/>
</mask>
<g mask="url(#mask8)">
<path fill-rule="evenodd" clip-rule="evenodd" d="M171.028 56.9758L173.018 69.0713C172.016 69.0331 156.315 68.434 155.007 68.434C154.59 68.434 154.27 68.3187 154.057 68.0911C153.742 67.7552 153.769 67.2828 153.769 67.2781L153.769 67.2721L153.768 67.2662C153.726 67.0921 149.619 49.8467 149.932 48.8303C150.238 47.837 151.282 47.9728 151.326 47.9792C151.473 47.982 165.498 48.2185 167.474 48.1394C168.205 48.11 168.736 48.259 169.053 48.5818C169.369 48.904 169.35 49.2916 169.35 49.2955L169.349 49.301L169.351 49.3065L171.028 56.9758ZM173.112 69.155L171.106 56.9598L169.43 49.2946C169.432 49.2405 169.434 48.8571 169.111 48.5273C168.778 48.1867 168.225 48.0302 167.47 48.0595C165.497 48.1386 151.474 47.9021 151.333 47.8997C151.326 47.8984 150.181 47.7478 149.856 48.8068C149.537 49.8414 153.501 66.4894 153.689 67.279C153.686 67.3408 153.676 67.8009 153.998 68.1451C154.227 68.3899 154.567 68.5139 155.007 68.5139C156.35 68.5139 172.896 69.1467 173.063 69.1531L173.112 69.155Z" fill="black"/>
</g>
<path fill-rule="evenodd" clip-rule="evenodd" d="M170.508 57.5278L168.83 49.8574C168.83 49.8574 168.91 48.579 166.913 48.6589C164.915 48.7388 150.773 48.4991 150.773 48.4991C150.773 48.4991 149.654 48.3393 149.335 49.378C149.015 50.4167 153.17 67.8349 153.17 67.8349C153.17 67.8349 153.09 69.0334 154.448 69.0334C155.807 69.0334 172.506 69.6726 172.506 69.6726L170.508 57.5278Z" fill="#56ACF6"/>
<path fill-rule="evenodd" clip-rule="evenodd" d="M179.201 69.5546C179.201 69.5546 174.555 64.259 173.287 61.9894C172.02 59.7198 172.02 58.3959 172.126 57.3557C172.231 56.3154 172.231 55.0861 171.386 54.897C170.541 54.7078 170.436 55.1807 170.33 56.3154C170.225 57.4503 170.33 58.585 168.429 57.9231C166.528 57.2611 161.882 55.6535 161.354 56.9774C160.826 58.3014 161.987 58.4904 161.987 58.4904C161.987 58.4904 161.142 58.585 160.931 59.247C160.72 59.9089 160.931 60.3818 161.565 60.6654C162.198 60.9492 162.515 61.0437 162.515 61.0437C162.515 61.0437 161.248 60.8546 160.931 61.8003C160.614 62.7459 161.142 63.2187 161.67 63.4078C161.67 63.4078 160.991 63.5172 160.826 64.259C160.72 64.7319 161.354 65.0154 162.093 65.2992C163.092 65.6828 166.106 65.772 168.641 67.3796C171.175 68.9873 177.3 79.4841 180.363 82.6993C183.426 85.9146 186.488 77.5928 186.488 77.5928C186.488 77.5928 182.686 72.7699 179.201 69.5546Z" fill="#C26E5E"/>
<path fill-rule="evenodd" clip-rule="evenodd" d="M167.237 60.0249L167.299 59.7935L162.018 58.375L161.956 58.6064L167.237 60.0249Z" fill="#3F1315"/>
<path fill-rule="evenodd" clip-rule="evenodd" d="M167.237 62.4839L167.299 62.2525L162.018 60.834L161.956 61.0654L167.237 62.4839Z" fill="#3F1315"/>
<path fill-rule="evenodd" clip-rule="evenodd" d="M166.603 64.9418L166.665 64.7105L161.385 63.292L161.323 63.5234L166.603 64.9418Z" fill="#3F1315"/>
<mask id="mask9" mask-type="alpha" maskUnits="userSpaceOnUse" x="146" y="54" width="12" height="33">
<path fill-rule="evenodd" clip-rule="evenodd" d="M157.219 54.6533H146.938V86.2119H157.219V54.6533Z" fill="white"/>
</mask>
<g mask="url(#mask9)">
<path fill-rule="evenodd" clip-rule="evenodd" d="M154.545 81.7034C154.545 81.7034 153.805 77.9207 153.489 73.1924C153.172 68.4642 153.277 66.3838 153.7 66.0055C154.122 65.6272 157.079 65.7217 157.079 64.2087C157.079 62.6956 154.967 63.1684 154.967 63.1684C154.967 63.1684 157.185 62.7902 156.974 61.6555C156.762 60.5206 155.495 60.7098 155.495 60.7098C155.495 60.7098 157.502 60.3315 157.185 59.1022C156.868 57.8728 154.967 58.3456 154.967 58.3456C154.967 58.3456 156.762 58.0619 156.023 56.8326C155.284 55.6033 154.017 56.3598 152.538 56.738C151.06 57.1162 150.954 57.2109 150.848 56.6434C150.743 56.076 150.954 54.563 149.792 54.6576C148.631 54.7521 148.419 55.1304 148.419 57.2109C148.419 59.2913 148.103 61.1826 147.786 63.0739C147.469 64.9652 147.363 67.1402 147.575 70.6392C147.786 74.1381 144.829 84.4458 150.109 85.9589C155.389 87.4719 154.545 81.7034 154.545 81.7034Z" fill="#C26E5E"/>
</g>
<path fill-rule="evenodd" clip-rule="evenodd" d="M152.311 63.8174L155.417 63.1504L155.367 62.916L152.261 63.583L152.311 63.8174Z" fill="#3F1315"/>
<path fill-rule="evenodd" clip-rule="evenodd" d="M152.385 61.4938L155.491 60.8266L155.441 60.5923L152.335 61.2594L152.385 61.4938Z" fill="#3F1315"/>
<path fill-rule="evenodd" clip-rule="evenodd" d="M152.25 58.9947L155.355 58.3276L155.305 58.0933L152.199 58.7603L152.25 58.9947Z" fill="#3F1315"/>
<path fill-rule="evenodd" clip-rule="evenodd" d="M149.391 57.4695L150.922 57.1385L150.871 56.9043L149.34 57.2352L149.391 57.4695Z" fill="#3F1315"/>
<path d="M168.434 35.707L168.13 35.8047L168.16 35.9C168.183 35.9778 168.21 36.0668 168.239 36.1654C168.321 36.4476 168.403 36.7506 168.48 37.0624C168.565 37.4091 168.638 37.7452 168.695 38.0626L168.712 38.1566C168.851 38.9639 168.87 39.5803 168.746 39.9119L168.739 39.9307C168.03 41.6855 168.993 42.5754 171.015 41.9523L171.076 41.9329L170.979 41.6285C169.158 42.2113 168.427 41.5547 169.035 40.0504C169.203 39.6364 169.177 38.9337 169.01 38.006C168.951 37.6815 168.877 37.3389 168.79 36.9861C168.721 36.7047 168.648 36.4307 168.573 36.1722L168.546 36.0761C168.529 36.0188 168.513 35.9647 168.498 35.9141L168.459 35.7859L168.434 35.707Z" fill="black"/>
<path d="M176.324 47.9335L176.168 47.6548L176.111 47.6859L176.058 47.7137C175.979 47.7554 175.889 47.8014 175.789 47.8507L175.745 47.8721C175.408 48.0364 175.035 48.2007 174.637 48.3541C173.722 48.7068 172.819 48.9475 171.978 49.0256C171.597 49.061 171.235 49.0619 170.897 49.0256L170.83 49.0178L170.791 49.335C171.172 49.382 171.579 49.3836 172.007 49.3438C172.881 49.2627 173.812 49.0147 174.752 48.6523C175.159 48.4955 175.54 48.3275 175.885 48.1594L176.016 48.0949C176.071 48.0671 176.123 48.0405 176.172 48.0152L176.262 47.9674L176.324 47.9335Z" fill="#C86A5D"/>
<path fill-rule="evenodd" clip-rule="evenodd" d="M169.754 43.9239C169.754 44.1834 169.964 44.3937 170.224 44.3937C170.483 44.3937 170.693 44.1834 170.693 43.9239C170.693 43.6644 170.483 43.4541 170.224 43.4541C169.964 43.4541 169.754 43.6644 169.754 43.9239Z" fill="black"/>
<path fill-rule="evenodd" clip-rule="evenodd" d="M174.733 37.72L174.866 37.5206L172.949 36.2422L172.816 36.4416L174.733 37.72Z" fill="black"/>
<path fill-rule="evenodd" clip-rule="evenodd" d="M173.854 38.1995L173.987 38.0001L172.07 36.7217L171.937 36.9211L173.854 38.1995Z" fill="black"/>
<path fill-rule="evenodd" clip-rule="evenodd" d="M167.223 38.3592L167.355 38.1597L165.438 36.8813L165.305 37.0808L167.223 38.3592Z" fill="black"/>
<path fill-rule="evenodd" clip-rule="evenodd" d="M166.344 38.8382L166.477 38.6388L164.559 37.3604L164.426 37.5598L166.344 38.8382Z" fill="black"/>
<path d="M173.772 32.6652C173.528 32.6323 173.302 32.6214 173.095 32.6367C172.804 32.6583 172.417 32.7366 171.951 32.8596C171.808 32.8972 171.66 32.9385 171.508 32.983C171.252 33.0576 170.996 33.1375 170.752 33.2174L170.592 33.2705L170.433 33.3247C170.204 33.4047 170.083 33.6553 170.163 33.8844C170.241 34.1078 170.481 34.2284 170.705 34.1601L170.728 34.1525L170.803 34.1269C170.869 34.1045 170.944 34.0795 171.026 34.0526C171.261 33.9755 171.508 33.8985 171.754 33.8267C171.899 33.7843 172.04 33.745 172.175 33.7094L172.264 33.6864C172.642 33.5895 172.951 33.5287 173.16 33.5132C173.3 33.5028 173.467 33.5109 173.654 33.5362C173.879 33.5666 174.124 33.6204 174.375 33.691C174.5 33.726 174.62 33.7633 174.731 33.8008L174.786 33.8196C174.821 33.8318 174.853 33.8432 174.882 33.8537L174.94 33.8755C175.166 33.9641 175.421 33.8527 175.51 33.6268C175.598 33.4008 175.487 33.1458 175.261 33.0573L175.215 33.0398C175.179 33.0263 175.131 33.0091 175.073 32.9891C174.931 32.9399 174.776 32.8907 174.613 32.8448C174.325 32.764 174.042 32.7017 173.772 32.6652Z" fill="black"/>
<path d="M166.006 33.9501L165.9 33.9473C165.465 33.9376 165.108 33.9511 164.843 33.9954C164.697 34.0198 164.545 34.0608 164.386 34.1164C164.151 34.199 163.907 34.3121 163.658 34.4483C163.499 34.5353 163.346 34.6273 163.202 34.7199L163.141 34.7597C163.044 34.8239 162.972 34.8746 162.93 34.9054C162.739 35.0456 162.698 35.3141 162.838 35.5051C162.974 35.6909 163.232 35.7348 163.422 35.6079L163.481 35.5659L163.53 35.5321C163.556 35.5144 163.584 35.4957 163.614 35.4761C163.756 35.3822 163.91 35.2883 164.07 35.2011C164.281 35.0857 164.484 34.9914 164.671 34.9259C164.785 34.8857 164.891 34.8574 164.985 34.8416C165.202 34.8053 165.549 34.7947 165.98 34.8077C166.243 34.8156 166.525 34.8318 166.813 34.8537L166.937 34.8636C167.019 34.8703 167.098 34.8771 167.172 34.884L167.386 34.9051C167.622 34.9306 167.833 34.7604 167.859 34.5248C167.884 34.2952 167.722 34.0882 167.496 34.0544L167.433 34.0473L167.336 34.0377L167.309 34.0351C167.176 34.0225 167.031 34.01 166.878 33.9983C166.578 33.9754 166.283 33.9585 166.006 33.9501Z" fill="black"/>
<path fill-rule="evenodd" clip-rule="evenodd" d="M195.616 9.08279C190.742 12.918 186.028 20.6683 177.718 19.4698C169.409 18.2713 158.524 23.1791 163.447 36.7452C163.447 36.7452 163.256 29.3774 167.411 26.8206C171.566 24.2638 172.924 37.7669 180.834 34.3312C180.834 34.3312 182.113 33.6121 182.432 34.7307C182.752 35.8493 182.533 38.8297 181.684 39.4169C181.684 39.4169 181.474 39.6046 181.074 39.4448C181.074 39.4448 180.835 43.2384 178.598 45.5763C178.598 45.5763 179.157 47.4352 179.357 47.7147L179.5 47.7474C179.5 47.7474 187.147 53.6671 195.456 46.9554C203.766 40.2438 209.279 45.3574 215.991 39.1252C222.702 32.893 206.582 14.0953 210.717 9.64209C205.763 4.28879 198.003 7.20458 195.616 9.08279Z" fill="#7A451C"/>
<path fill-rule="evenodd" clip-rule="evenodd" d="M171.011 36.8813C171.011 38.3682 172.216 39.5736 173.703 39.5736C175.19 39.5736 176.396 38.3682 176.396 36.8813C176.396 35.3943 175.19 34.189 173.703 34.189C172.216 34.189 171.011 35.3943 171.011 36.8813Z" fill="black"/>
<path fill-rule="evenodd" clip-rule="evenodd" d="M173.703 34.4685C175.033 34.4685 176.116 35.5508 176.116 36.8811C176.116 38.2116 175.033 39.2939 173.703 39.2939C172.373 39.2939 171.29 38.2116 171.29 36.8811C171.29 35.5508 172.373 34.4685 173.703 34.4685ZM173.703 39.8532C175.342 39.8532 176.675 38.5199 176.675 36.8811C176.675 35.2425 175.342 33.9092 173.703 33.9092C172.064 33.9092 170.731 35.2425 170.731 36.8811C170.731 38.5199 172.064 39.8532 173.703 39.8532Z" fill="black"/>
<path fill-rule="evenodd" clip-rule="evenodd" d="M163.507 37.6093C163.507 39.0962 164.712 40.3016 166.199 40.3016C167.686 40.3016 168.892 39.0962 168.892 37.6093C168.892 36.1224 167.686 34.917 166.199 34.917C164.712 34.917 163.507 36.1224 163.507 37.6093Z" fill="black"/>
<mask id="mask10" mask-type="alpha" maskUnits="userSpaceOnUse" x="163" y="34" width="7" height="7">
<path fill-rule="evenodd" clip-rule="evenodd" d="M169.171 34.6367H163.227V40.5807H169.171V34.6367Z" fill="white"/>
</mask>
<g mask="url(#mask10)">
<path fill-rule="evenodd" clip-rule="evenodd" d="M166.199 35.196C167.529 35.196 168.612 36.2783 168.612 37.6087C168.612 38.9391 167.529 40.0214 166.199 40.0214C164.869 40.0214 163.786 38.9391 163.786 37.6087C163.786 36.2783 164.869 35.196 166.199 35.196ZM166.199 40.5807C167.838 40.5807 169.171 39.2474 169.171 37.6087C169.171 35.97 167.838 34.6367 166.199 34.6367C164.56 34.6367 163.227 35.97 163.227 37.6087C163.227 39.2474 164.56 40.5807 166.199 40.5807Z" fill="black"/>
</g>
<path fill-rule="evenodd" clip-rule="evenodd" d="M176.579 36.6857L180.574 35.0877L180.366 34.5684L176.371 36.1664L176.579 36.6857Z" fill="black"/>
<path fill-rule="evenodd" clip-rule="evenodd" d="M168.996 37.583L171.091 37.3498L171.029 36.7939L168.934 37.0272L168.996 37.583Z" fill="black"/>
</g>
<mask id="mask11" mask-type="alpha" maskUnits="userSpaceOnUse" x="0" y="12" width="119" height="72">
<path d="M118.492 12.5752H0V83.5265H118.492V12.5752Z" fill="white"/>
</mask>
<g mask="url(#mask11)">
<path d="M118.492 12.5752H0V83.5265H118.492V12.5752Z" fill="#237978"/>
<path fill-rule="evenodd" clip-rule="evenodd" d="M54.3291 40.3042C54.3291 40.3042 54.0342 46.7884 50.2517 49.0772C46.8199 51.1539 54.0905 63.2044 61.9119 62.4855C66.1933 62.092 67.1966 50.3842 67.1966 50.3842C67.1966 50.3842 63.7397 49.7162 65.0166 44.4446L54.3291 40.3042Z" fill="#F6CBC3"/>
<path fill-rule="evenodd" clip-rule="evenodd" d="M60.5918 46.8971C55.5213 46.2839 51.8619 42.9501 51.3495 37.4195C49.8755 37.6542 49.5278 33.8134 49.9384 32.5796C50.3493 31.344 51.6906 32.0665 51.6906 32.0665C51.7648 31.8712 51.8279 31.6668 51.88 31.4532C54.0949 22.3677 60.2988 22.728 60.2988 22.728C71.6985 23.3219 69.0274 34.9604 68.3761 38.048C67.7247 41.1359 65.4934 47.4893 60.5918 46.8971Z" fill="#F6CBC3"/>
<path fill-rule="evenodd" clip-rule="evenodd" d="M100.734 49.879C100.734 49.879 100.099 48.05 104.49 45.3247C106.807 43.8865 109.165 39.9322 110.08 40.8912C110.996 41.8502 107.712 46.4005 107.712 46.4005C107.712 46.4005 110.492 44.7814 112.362 42.7461C114.233 40.7107 115.915 39.0902 115.915 39.0902C115.915 39.0902 117.158 38.6182 116.999 39.7408C116.84 40.8633 116.456 41.1501 116.456 41.1501C116.456 41.1501 117.338 41.13 117.176 41.9811C117.014 42.8323 116.822 42.9757 116.822 42.9757C116.822 42.9757 117.468 43.0404 117.326 43.7851C117.184 44.5299 116.672 44.9123 116.672 44.9123C116.672 44.9123 117.127 45.1205 116.533 45.9284C115.94 46.7364 112.673 50.9088 110.75 52.0715C108.826 53.2341 104.09 54.9127 104.09 54.9127C104.09 54.9127 100.095 51.0775 100.734 49.879Z" fill="#F6CBC3"/>
<path fill-rule="evenodd" clip-rule="evenodd" d="M111.17 48.8696L111.072 48.6506C111.086 48.6443 112.512 47.9967 114.23 46.2003C115.42 44.9569 116.03 44.6918 116.332 44.6885C116.475 44.6889 116.542 44.743 116.559 44.7602L116.39 44.9297C116.396 44.9362 116.4 44.9385 116.4 44.9385C116.396 44.9362 115.979 44.7188 114.404 46.3661C112.65 48.1997 111.229 48.8431 111.17 48.8696Z" fill="#995B5D"/>
<path fill-rule="evenodd" clip-rule="evenodd" d="M110.743 47.7044L110.62 47.4989C110.624 47.4964 111.033 47.2512 112.14 46.6186C112.895 46.1874 113.972 45.0621 114.758 44.2404C115.12 43.8616 115.433 43.5346 115.636 43.3566C116.311 42.7668 116.832 42.8454 116.854 42.8492L116.815 43.0858C116.811 43.0855 116.376 43.0283 115.794 43.537C115.599 43.7079 115.29 44.0314 114.931 44.406C114.135 45.2384 113.044 46.3782 112.259 46.8269C111.155 47.4577 110.747 47.702 110.743 47.7044Z" fill="#995B5D"/>
<path fill-rule="evenodd" clip-rule="evenodd" d="M110.423 46.7469L110.303 46.5395C110.318 46.5308 111.824 45.6548 112.921 44.7145C113.944 43.8382 114.904 42.5505 115.42 41.8588L115.54 41.6974C116.041 41.0295 116.396 41.0103 116.435 41.0103L116.439 41.2499C116.436 41.25 116.157 41.2749 115.732 41.8413L115.612 42.0021C115.091 42.7013 114.12 44.0028 113.078 44.8965C111.963 45.8515 110.438 46.7381 110.423 46.7469Z" fill="#995B5D"/>
<path fill-rule="evenodd" clip-rule="evenodd" d="M105.153 47.7028L105.024 47.5006C105.061 47.4772 105.934 46.9258 106.592 46.8435C107.181 46.7699 107.636 46.3228 107.641 46.3184L107.81 46.4879C107.79 46.5087 107.294 46.9974 106.622 47.0814C106.017 47.157 105.162 47.6974 105.153 47.7028Z" fill="#995B5D"/>
<path fill-rule="evenodd" clip-rule="evenodd" d="M104.09 54.9125C104.09 54.9125 103.211 55.5517 101.693 58.6679C100.175 61.784 94.6619 75.1273 94.6619 75.1273L90.7314 61.2558C90.7314 61.2558 98.45 50.5207 101.829 47.5231C105.209 44.5255 104.09 54.9125 104.09 54.9125Z" fill="#F6CBC3"/>
<path fill-rule="evenodd" clip-rule="evenodd" d="M15.1374 47.7467C15.1374 47.7467 16.1368 46.0883 12.403 42.5153C10.4327 40.6299 8.94148 36.2739 7.8478 37.0234C6.75413 37.7728 9.02777 42.9028 9.02777 42.9028C9.02777 42.9028 6.64211 40.7449 5.23188 38.3672C3.82164 35.9897 2.51056 34.0568 2.51056 34.0568C2.51056 34.0568 1.39164 33.3386 1.31557 34.4697C1.23951 35.6009 1.55623 35.9608 1.55623 35.9608C1.55623 35.9608 0.696905 35.759 0.679966 36.6254C0.663107 37.4916 0.821389 37.6716 0.821389 37.6716C0.821389 37.6716 0.175397 37.6014 0.160535 38.3595C0.145754 39.1175 0.568026 39.5974 0.568026 39.5974C0.568026 39.5974 0.0803158 39.7072 0.494039 40.6203C0.907841 41.5332 3.24276 46.2901 4.88527 47.8248C6.52786 49.3595 10.8149 51.9794 10.8149 51.9794C10.8149 51.9794 15.5155 49.0514 15.1374 47.7467Z" fill="#F6CBC3"/>
<path fill-rule="evenodd" clip-rule="evenodd" d="M5.13507 44.6054C5.08217 44.5671 3.82519 43.6445 2.4875 41.4882C1.28588 39.5513 0.833487 39.6773 0.828932 39.6794C0.829012 39.6793 0.833167 39.6779 0.840757 39.6729L0.709961 39.4721C0.730335 39.4589 0.807839 39.4178 0.947264 39.4488C1.24218 39.5144 1.78406 39.8996 2.69124 41.3618C4.00416 43.4783 5.26299 44.4021 5.27553 44.4111L5.13507 44.6054Z" fill="#995B5D"/>
<path fill-rule="evenodd" clip-rule="evenodd" d="M5.79255 43.5534C5.78911 43.5502 5.44043 43.227 4.49042 42.3819C3.81502 41.7809 2.98318 40.4405 2.37586 39.4618C2.10244 39.0212 1.86634 38.6408 1.71053 38.4332C1.24751 37.8166 0.809979 37.7812 0.805664 37.781L0.815891 37.5415C0.838024 37.5425 1.36433 37.5729 1.90221 38.2893C2.06441 38.5053 2.30315 38.89 2.57953 39.3354C3.17918 40.3017 4.00031 41.625 4.64974 42.2027C5.60223 43.0501 5.95219 43.3746 5.95563 43.3777L5.79255 43.5534Z" fill="#995B5D"/>
<path fill-rule="evenodd" clip-rule="evenodd" d="M6.30479 42.6823C6.29169 42.6705 4.98229 41.4881 4.08924 40.3237C3.25349 39.234 2.57258 37.7601 2.20672 36.9683L2.1225 36.7863C1.82368 36.1444 1.55537 36.0625 1.55273 36.0618L1.60595 35.8281C1.64398 35.8361 1.98747 35.9283 2.33975 36.6851L2.42436 36.8678C2.78623 37.6511 3.45987 39.1092 4.27949 40.1778C5.15919 41.3249 6.45213 42.4924 6.46515 42.5041L6.30479 42.6823Z" fill="#995B5D"/>
<path fill-rule="evenodd" clip-rule="evenodd" d="M11.2632 44.7055C11.2559 44.6984 10.5305 43.9931 9.95444 43.7944C9.31396 43.5734 8.93012 42.993 8.91406 42.9684L9.11477 42.8374C9.11829 42.8428 9.47161 43.3743 10.0326 43.5678C10.6598 43.7842 11.3997 44.5037 11.4308 44.5342L11.2632 44.7055Z" fill="#995B5D"/>
<path fill-rule="evenodd" clip-rule="evenodd" d="M10.8145 51.9795C10.8145 51.9795 11.5425 52.7864 12.3847 56.1487C13.227 59.511 15.8673 73.7049 15.8673 73.7049L22.5762 60.9435C22.5762 60.9435 17.2396 48.8463 14.5517 45.2158C11.8639 41.5853 10.8145 51.9795 10.8145 51.9795Z" fill="#F6CBC3"/>
<mask id="mask12" mask-type="alpha" maskUnits="userSpaceOnUse" x="12" y="48" width="85" height="56">
<path fill-rule="evenodd" clip-rule="evenodd" d="M12.832 48.4585H96.6597V103.598H12.832V48.4585Z" fill="white"/>
</mask>
<g mask="url(#mask12)">
<path fill-rule="evenodd" clip-rule="evenodd" d="M50.3176 48.8403C50.3176 48.8403 40.2103 51.1783 35.9556 58.3989C31.7009 65.6194 28.5848 66.6581 28.5848 66.6581C28.5848 66.6581 25.3089 58.2686 23.5511 58.5882C21.7933 58.9078 12.445 73.5295 12.8445 74.8878C13.244 76.2461 20.8879 95.1439 29.1309 91.6475C37.3738 88.1512 39.5311 82.0788 40.0105 83.4371C40.4899 84.7954 38.1728 101.894 40.1703 102.373C42.1678 102.853 53.5307 103.762 63.9006 103.572C72.6098 103.412 77.8832 103.812 78.2827 100.136C78.6822 96.4608 77.3239 83.6768 77.3239 83.6768C77.3239 83.6768 81.7184 89.11 85.5536 87.3522C89.3888 85.5944 96.6597 79.7617 96.6597 79.7617L91.0667 60.1862L85.6335 65.3797C85.6335 65.3797 79.5611 55.2323 75.9656 53.3147C72.3701 51.3971 65.378 48.4585 65.378 48.4585C65.378 48.4585 61.3438 51.9564 59.586 54.4333C57.8282 56.9102 57.3488 58.1887 57.3488 58.1887C57.3488 58.1887 53.4337 50.678 50.3176 48.8403Z" fill="#F9C818"/>
</g>
<path fill-rule="evenodd" clip-rule="evenodd" d="M42.8867 71.6926L47.9204 78.0846C47.9204 78.0846 48.6395 75.2881 47.2013 73.0509C45.7631 70.8137 42.8867 71.6926 42.8867 71.6926Z" fill="#FFE89D"/>
<path fill-rule="evenodd" clip-rule="evenodd" d="M67.5762 53.7146L72.6099 60.1066C72.6099 60.1066 73.329 57.3101 71.8908 55.0729C70.4526 52.8357 67.5762 53.7146 67.5762 53.7146Z" fill="#FFE89D"/>
<path fill-rule="evenodd" clip-rule="evenodd" d="M67.0967 81.6799L72.1304 88.0719C72.1304 88.0719 72.8495 85.2754 71.4113 83.0382C69.9731 80.801 67.0967 81.6799 67.0967 81.6799Z" fill="#FFE89D"/>
<path fill-rule="evenodd" clip-rule="evenodd" d="M55.0247 78.8671L60.4504 72.8044C60.4504 72.8044 57.5717 72.5795 55.6168 74.3826C53.6618 76.1858 55.0247 78.8671 55.0247 78.8671Z" fill="#FFE89D"/>
<path fill-rule="evenodd" clip-rule="evenodd" d="M66.5513 67.7168L64.6211 75.6206C64.6211 75.6206 67.2663 74.463 68.1414 71.9514C69.0165 69.4399 66.5513 67.7168 66.5513 67.7168Z" fill="#FFE89D"/>
<path fill-rule="evenodd" clip-rule="evenodd" d="M77.897 62.1235L75.9668 70.0273C75.9668 70.0273 78.6121 68.8697 79.4871 66.3582C80.3622 63.8467 77.897 62.1235 77.897 62.1235Z" fill="#FFE89D"/>
<path fill-rule="evenodd" clip-rule="evenodd" d="M37.1157 77.1314L29.1279 75.585C29.1279 75.585 30.4118 78.1712 32.9627 78.9241C35.5135 79.6769 37.1157 77.1314 37.1157 77.1314Z" fill="#FFE89D"/>
<path fill-rule="evenodd" clip-rule="evenodd" d="M19.9582 69.166L15.834 76.1793C15.834 76.1793 18.7006 75.8325 20.2616 73.6792C21.8228 71.5259 19.9582 69.166 19.9582 69.166Z" fill="#FFE89D"/>
<path fill-rule="evenodd" clip-rule="evenodd" d="M21.6455 84.6887L28.4776 89.1068C28.4776 89.1068 28.2525 86.2281 26.1675 84.577C24.0825 82.926 21.6455 84.6887 21.6455 84.6887Z" fill="#FFE89D"/>
<path fill-rule="evenodd" clip-rule="evenodd" d="M43.4441 61.2352L49.3273 55.6152C49.3273 55.6152 46.4749 55.1659 44.385 56.8108C42.295 58.4556 43.4441 61.2352 43.4441 61.2352Z" fill="#FFE89D"/>
<path fill-rule="evenodd" clip-rule="evenodd" d="M32.3076 67.8675L39.9301 65.0226C39.9301 65.0226 37.486 63.485 34.9168 64.1726C32.3476 64.8601 32.3076 67.8675 32.3076 67.8675Z" fill="#FFE89D"/>
<path fill-rule="evenodd" clip-rule="evenodd" d="M57.2363 64.991L64.8588 62.1461C64.8588 62.1461 62.4147 60.6085 59.8455 61.2961C57.2764 61.9836 57.2363 64.991 57.2363 64.991Z" fill="#FFE89D"/>
<path fill-rule="evenodd" clip-rule="evenodd" d="M78.5703 79.2132L86.1928 76.3683C86.1928 76.3683 83.7487 74.8307 81.1795 75.5183C78.6103 76.2058 78.5703 79.2132 78.5703 79.2132Z" fill="#FFE89D"/>
<path fill-rule="evenodd" clip-rule="evenodd" d="M59.6639 34.7421C59.6639 35.0068 59.4493 35.2215 59.1845 35.2215C58.9197 35.2215 58.7051 35.0068 58.7051 34.7421C58.7051 34.4774 58.9197 34.2627 59.1845 34.2627C59.4493 34.2627 59.6639 34.4774 59.6639 34.7421Z" fill="black"/>
<path fill-rule="evenodd" clip-rule="evenodd" d="M66.0154 35.8202C66.0154 36.0849 65.8008 36.2996 65.536 36.2996C65.2713 36.2996 65.0566 36.0849 65.0566 35.8202C65.0566 35.5555 65.2713 35.3408 65.536 35.3408C65.8008 35.3408 66.0154 35.5555 66.0154 35.8202Z" fill="black"/>
<path fill-rule="evenodd" clip-rule="evenodd" d="M58.8672 41.5382C58.8672 41.5382 58.8482 42.8125 60.6361 43.0408C62.424 43.269 63.223 43.0408 63.1849 42.2229C63.1849 42.2229 62.8996 41.3289 62.4811 41.2909C62.0626 41.2529 61.6252 41.4811 61.6252 41.4811C61.6252 41.4811 61.2068 40.9295 60.7693 40.9866C60.3318 41.0437 59.4569 41.5571 58.8672 41.5382Z" fill="#CE4129"/>
<mask id="mask13" mask-type="alpha" maskUnits="userSpaceOnUse" x="55" y="31" width="7" height="3">
<path fill-rule="evenodd" clip-rule="evenodd" d="M55.7705 31.4355H61.9813V33.33H55.7705V31.4355Z" fill="white"/>
</mask>
<g mask="url(#mask13)">
<path fill-rule="evenodd" clip-rule="evenodd" d="M61.7804 33.33C61.7804 33.33 59.472 32.6902 58.8703 32.5084C58.2685 32.3264 58.1426 32.2005 57.4289 32.2704C56.7152 32.3404 55.9035 32.4943 55.7776 32.3544C55.6516 32.2144 57.2469 31.5147 57.7787 31.4448C58.3105 31.3748 61.4513 31.7021 61.8537 32.4811C62.1786 33.1099 61.7804 33.33 61.7804 33.33Z" fill="black"/>
</g>
<path fill-rule="evenodd" clip-rule="evenodd" d="M62.0125 42.2282C60.7089 42.0544 59.1498 41.8235 58.6606 41.579C58.3036 41.4004 58.1722 41.4453 58.1709 41.4458C58.171 41.4458 58.2854 41.0341 58.8035 41.293C59.3078 41.5452 61.3753 41.8209 62.0548 41.9115C63.2433 42.0699 63.3505 42.0086 63.4863 41.9312L63.6448 42.2086C63.5133 42.2838 63.3891 42.3298 63.108 42.3298C62.878 42.3298 62.5429 42.2989 62.0125 42.2282Z" fill="black"/>
<mask id="mask14" mask-type="alpha" maskUnits="userSpaceOnUse" x="64" y="32" width="5" height="3">
<path fill-rule="evenodd" clip-rule="evenodd" d="M64.5215 32.8447H68.5959V34.2181H64.5215V32.8447Z" fill="white"/>
</mask>
<g mask="url(#mask14)">
<path fill-rule="evenodd" clip-rule="evenodd" d="M64.525 33.6366C64.525 33.6366 64.5751 33.1353 65.1868 32.9147C65.7984 32.6941 67.9341 33.0551 68.0946 33.1754C68.2549 33.2956 68.5458 33.5865 68.5959 34.2181C68.5959 34.2181 68.3646 33.7369 67.9435 33.6567C67.5223 33.5765 66.2095 33.9374 65.3773 33.9274C64.545 33.9173 64.5049 33.8171 64.525 33.6366Z" fill="black"/>
</g>
<path fill-rule="evenodd" clip-rule="evenodd" d="M61.0012 47.1897C59.8943 47.1897 58.75 46.8669 57.9292 46.5687C56.8778 46.1867 56.115 45.7612 56.1074 45.757L56.2247 45.5479C56.2544 45.5646 59.2183 47.2067 61.5871 46.9157L61.6164 47.1535C61.4143 47.1784 61.2083 47.1897 61.0012 47.1897Z" fill="black"/>
<path d="M63.9956 33.5547L64.2999 33.6523L64.2701 33.7477C64.2462 33.8254 64.2196 33.9144 64.1908 34.0131C64.1087 34.2952 64.0265 34.5982 63.9498 34.9101C63.8646 35.2567 63.7916 35.5929 63.7344 35.9103L63.7179 36.0043C63.5791 36.8116 63.5595 37.428 63.6835 37.7595L63.6908 37.7783C64.4002 39.5332 63.4369 40.4231 61.4151 39.7999L61.3535 39.7806L61.4509 39.4762C63.2722 40.059 64.0026 39.4023 63.3945 37.8981C63.2271 37.4841 63.2529 36.7813 63.4199 35.8537C63.4783 35.5291 63.5528 35.1865 63.6395 34.8338C63.7086 34.5524 63.7822 34.2783 63.8562 34.0199L63.884 33.9237C63.9007 33.8664 63.9167 33.8124 63.9319 33.7617L63.9709 33.6335L63.9956 33.5547Z" fill="black"/>
<path d="M56.1055 45.7807L56.2618 45.502L56.3189 45.5331L56.3712 45.5609C56.4505 45.6026 56.5407 45.6486 56.641 45.6979L56.6846 45.7192C57.0218 45.8835 57.3948 46.0479 57.7926 46.2013C58.7073 46.554 59.6111 46.7947 60.452 46.8728C60.833 46.9082 61.1942 46.909 61.5324 46.8727L61.5997 46.865L61.6388 47.1822C61.2573 47.2292 60.8507 47.2308 60.4224 47.191C59.5485 47.1098 58.6175 46.8619 57.6776 46.4995C57.2709 46.3426 56.8897 46.1746 56.5446 46.0066L56.4141 45.9421C56.3586 45.9143 56.3065 45.8877 56.258 45.8624L56.1676 45.8146L56.1055 45.7807Z" fill="#C86A5D"/>
<path fill-rule="evenodd" clip-rule="evenodd" d="M62.5484 39.9984C62.2253 39.9984 61.8223 39.9352 61.3193 39.7742L61.4167 39.4698C62.3534 39.7695 63.0453 39.7451 63.365 39.4008C63.6369 39.1078 63.6352 38.5719 63.3603 37.8918C63.1737 37.4304 63.2198 36.5552 63.4973 35.2906C63.7004 34.3651 63.9588 33.5564 63.9614 33.5483L64.2657 33.646C63.9854 34.5195 63.3299 36.9638 63.6566 37.772C64.0719 38.7994 63.8546 39.343 63.5992 39.6182C63.417 39.8146 63.0991 39.9984 62.5484 39.9984Z" fill="black"/>
<mask id="mask15" mask-type="alpha" maskUnits="userSpaceOnUse" x="50" y="19" width="22" height="18">
<path fill-rule="evenodd" clip-rule="evenodd" d="M50.2578 19.3711H71.5957V36.0914H50.2578V19.3711Z" fill="white"/>
</mask>
<g mask="url(#mask15)">
<path fill-rule="evenodd" clip-rule="evenodd" d="M51.7792 33.0433C51.7792 33.0433 48.9028 29.4478 51.0601 24.494C53.2174 19.5402 58.1712 18.8211 61.1275 19.8598C61.1275 19.8598 71.4346 16.9035 71.5944 25.5327C71.7249 32.579 61.527 26.9709 61.527 26.9709C61.527 26.9709 61.527 31.1257 57.4521 30.6463C53.3772 30.1669 53.3772 36.3991 52.6581 36.0795C51.939 35.7599 51.7792 33.0433 51.7792 33.0433Z" fill="#C9DEE4"/>
</g>
<path fill-rule="evenodd" clip-rule="evenodd" d="M61.419 34.7265C61.419 36.2134 60.2135 37.4188 58.7266 37.4188C57.2396 37.4188 56.0342 36.2134 56.0342 34.7265C56.0342 33.2396 57.2396 32.0342 58.7266 32.0342C60.2135 32.0342 61.419 33.2396 61.419 34.7265Z" fill="#E93737"/>
<path fill-rule="evenodd" clip-rule="evenodd" d="M58.7268 32.3142C57.3965 32.3142 56.3142 33.3965 56.3142 34.7268C56.3142 36.0573 57.3965 37.1396 58.7268 37.1396C60.0572 37.1396 61.1396 36.0573 61.1396 34.7268C61.1396 33.3965 60.0572 32.3142 58.7268 32.3142ZM58.7268 37.6989C57.0881 37.6989 55.7549 36.3656 55.7549 34.7268C55.7549 33.0882 57.0881 31.7549 58.7268 31.7549C60.3657 31.7549 61.6989 33.0882 61.6989 34.7268C61.6989 36.3656 60.3657 37.6989 58.7268 37.6989Z" fill="#E93737"/>
<path fill-rule="evenodd" clip-rule="evenodd" d="M68.9228 35.4545C68.9228 36.9414 67.7174 38.1468 66.2305 38.1468C64.7435 38.1468 63.5381 36.9414 63.5381 35.4545C63.5381 33.9676 64.7435 32.7622 66.2305 32.7622C67.7174 32.7622 68.9228 33.9676 68.9228 35.4545Z" fill="#E93737"/>
<mask id="mask16" mask-type="alpha" maskUnits="userSpaceOnUse" x="63" y="32" width="7" height="7">
<path fill-rule="evenodd" clip-rule="evenodd" d="M63.2588 32.4829H69.2027V38.4269H63.2588V32.4829Z" fill="white"/>
</mask>
<g mask="url(#mask16)">
<path fill-rule="evenodd" clip-rule="evenodd" d="M66.2308 33.0422C64.9004 33.0422 63.8181 34.1245 63.8181 35.4549C63.8181 36.7853 64.9004 37.8676 66.2308 37.8676C67.5611 37.8676 68.6434 36.7853 68.6434 35.4549C68.6434 34.1245 67.5611 33.0422 66.2308 33.0422ZM66.2308 38.4269C64.592 38.4269 63.2588 37.0936 63.2588 35.4549C63.2588 33.8162 64.592 32.4829 66.2308 32.4829C67.8695 32.4829 69.2027 33.8162 69.2027 35.4549C69.2027 37.0936 67.8695 38.4269 66.2308 38.4269Z" fill="#E93737"/>
</g>
<path fill-rule="evenodd" clip-rule="evenodd" d="M55.8505 34.5314L51.8555 32.9334L52.0632 32.4141L56.0582 34.0121L55.8505 34.5314Z" fill="#E93737"/>
<path fill-rule="evenodd" clip-rule="evenodd" d="M63.4338 35.4287L61.3389 35.1955L61.4009 34.6396L63.4958 34.8729L63.4338 35.4287Z" fill="#E93737"/>
</g>
<path d="M236.984 154.398H0V174.773H236.984V154.398Z" fill="#DDCBD5"/>
<path d="M230.432 160.87H213.413C212.487 160.87 211.735 161.621 211.735 162.548V167.182C211.735 168.109 212.487 168.86 213.413 168.86H230.432C231.359 168.86 232.11 168.109 232.11 167.182V162.548C232.11 161.621 231.359 160.87 230.432 160.87Z" fill="#FCEBEC"/>
<path d="M10.2274 166.623H8.86914V168.86H10.2274V166.623Z" fill="#FCEBEC"/>
<path d="M10.8665 168.221H8.22976C8.05325 168.221 7.91016 168.364 7.91016 168.54C7.91016 168.717 8.05325 168.86 8.22976 168.86H10.8665C11.043 168.86 11.1861 168.717 11.1861 168.54C11.1861 168.364 11.043 168.221 10.8665 168.221Z" fill="#FCEBEC"/>
<path d="M10.8672 162.188C10.8672 161.46 10.2769 160.87 9.54882 160.87C8.82071 160.87 8.23047 161.46 8.23047 162.188V164.505C8.23047 165.233 8.82071 165.823 9.54882 165.823C10.2769 165.823 10.8672 165.233 10.8672 164.505V162.188Z" fill="#FCEBEC"/>
<path d="M7.31196 164.067C7.48774 164.051 7.64328 164.18 7.65937 164.356C7.78148 165.689 8.38323 166.302 9.53816 166.302C10.6992 166.302 11.2642 165.783 11.3368 164.655C11.3481 164.479 11.5001 164.345 11.6762 164.356C11.8524 164.368 11.986 164.52 11.9747 164.696C11.8802 166.163 11.0335 166.941 9.53816 166.941C8.03673 166.941 7.17378 166.063 7.02284 164.414C7.00674 164.238 7.13619 164.083 7.31196 164.067Z" fill="#FCEBEC"/>
<path d="M30.2026 160.87H23.5709C22.9973 160.87 22.5322 161.335 22.5322 161.909V167.821C22.5322 168.395 22.9973 168.86 23.5709 168.86H30.2026C30.7763 168.86 31.2413 168.395 31.2413 167.821V161.909C31.2413 161.335 30.7763 160.87 30.2026 160.87Z" fill="#FCEBEC"/>
<path fill-rule="evenodd" clip-rule="evenodd" d="M31.7207 163.792L34.1177 162.308V167.502L31.7207 166.018V163.792Z" fill="#FCEBEC"/>
<path fill-rule="evenodd" clip-rule="evenodd" d="M49.3378 164.226C51.3184 164.226 52.9641 165.651 53.2929 167.525C52.3138 168.591 50.9044 169.26 49.3378 169.26C47.7712 169.26 46.3618 168.591 45.3828 167.525C45.7115 165.651 47.3572 164.226 49.3378 164.226Z" fill="#FCEBEC"/>
<path d="M49.3375 164.705C50.6393 164.705 51.6946 163.65 51.6946 162.348C51.6946 161.046 50.6393 159.991 49.3375 159.991C48.0358 159.991 46.9805 161.046 46.9805 162.348C46.9805 163.65 48.0358 164.705 49.3375 164.705Z" fill="#FCEBEC"/>
<path d="M56.569 161.829H55.5303V165.984H56.569V161.829Z" fill="#FCEBEC"/>
<path fill-rule="evenodd" clip-rule="evenodd" d="M58.127 163.387V164.426H53.9721V163.387H58.127Z" fill="#FCEBEC"/>
<path d="M126.482 159.991H110.582C109.656 159.991 108.904 160.742 108.904 161.669V167.582C108.904 168.508 109.656 169.26 110.582 169.26H126.482C127.409 169.26 128.16 168.508 128.16 167.582V161.669C128.16 160.742 127.409 159.991 126.482 159.991Z" fill="#FCEBEC"/>
<path fill-rule="evenodd" clip-rule="evenodd" d="M118.532 161.589L121.368 164.625H115.695L118.532 161.589Z" fill="#DDB0C8"/>
<path d="M119.771 164.625H117.214V167.262H119.771V164.625Z" fill="#DDB0C8"/>
<path fill-rule="evenodd" clip-rule="evenodd" d="M178.334 165.505C178.334 165.505 178.039 171.989 174.257 174.278C170.825 176.355 178.095 188.405 185.917 187.686C190.198 187.293 191.202 175.585 191.202 175.585C191.202 175.585 187.745 174.917 189.022 169.645L178.334 165.505Z" fill="#7D4439"/>
<path fill-rule="evenodd" clip-rule="evenodd" d="M184.597 172.098C179.526 171.485 175.867 168.151 175.354 162.62C173.88 162.855 173.533 159.014 173.943 157.78C174.354 156.545 175.695 157.267 175.695 157.267C175.77 157.072 175.833 156.867 175.885 156.654C178.1 147.568 184.304 147.929 184.304 147.929C195.703 148.523 193.032 160.161 192.381 163.249C191.73 166.337 189.498 172.69 184.597 172.098Z" fill="#7D4439"/>
<path fill-rule="evenodd" clip-rule="evenodd" d="M224.739 175.079C224.739 175.079 224.104 173.25 228.494 170.524C230.812 169.086 233.17 165.132 234.085 166.091C235.001 167.05 231.717 171.6 231.717 171.6C231.717 171.6 234.497 169.981 236.367 167.946C238.238 165.91 239.92 164.29 239.92 164.29C239.92 164.29 241.163 163.818 241.004 164.941C240.845 166.063 240.461 166.35 240.461 166.35C240.461 166.35 241.343 166.33 241.181 167.181C241.019 168.032 240.826 168.175 240.826 168.175C240.826 168.175 241.473 168.24 241.331 168.985C241.189 169.73 240.677 170.112 240.677 170.112C240.677 170.112 241.131 170.32 240.538 171.128C239.945 171.936 236.678 176.109 234.754 177.271C232.831 178.434 228.095 180.112 228.095 180.112C228.095 180.112 224.1 176.277 224.739 175.079Z" fill="#7D4439"/>
<path fill-rule="evenodd" clip-rule="evenodd" d="M235.176 174.07L235.078 173.851C235.092 173.845 236.518 173.197 238.236 171.401C239.426 170.157 240.035 169.892 240.337 169.889C240.481 169.889 240.548 169.943 240.565 169.96L240.395 170.13C240.402 170.136 240.406 170.139 240.406 170.139C240.402 170.136 239.985 169.919 238.409 171.566C236.656 173.4 235.235 174.043 235.176 174.07Z" fill="#995B5D"/>
<path fill-rule="evenodd" clip-rule="evenodd" d="M234.748 172.905L234.625 172.699C234.629 172.697 235.038 172.451 236.145 171.819C236.9 171.388 237.977 170.262 238.763 169.441C239.125 169.062 239.438 168.735 239.641 168.557C240.315 167.967 240.837 168.046 240.859 168.049L240.82 168.286C240.816 168.286 240.381 168.229 239.799 168.737C239.604 168.908 239.294 169.232 238.936 169.606C238.14 170.439 237.049 171.578 236.264 172.027C235.16 172.658 234.752 172.902 234.748 172.905Z" fill="#995B5D"/>
<path fill-rule="evenodd" clip-rule="evenodd" d="M234.428 171.947L234.308 171.739C234.323 171.73 235.829 170.855 236.926 169.914C237.949 169.038 238.909 167.75 239.425 167.059L239.545 166.897C240.046 166.229 240.401 166.21 240.44 166.21L240.444 166.45C240.441 166.45 240.162 166.475 239.737 167.041L239.617 167.202C239.095 167.901 238.125 169.202 237.082 170.096C235.968 171.051 234.443 171.938 234.428 171.947Z" fill="#995B5D"/>
<path fill-rule="evenodd" clip-rule="evenodd" d="M229.158 172.903L229.029 172.701C229.066 172.677 229.939 172.126 230.597 172.044C231.186 171.97 231.641 171.523 231.646 171.519L231.815 171.688C231.794 171.709 231.299 172.198 230.627 172.282C230.022 172.357 229.167 172.898 229.158 172.903Z" fill="#995B5D"/>
<path fill-rule="evenodd" clip-rule="evenodd" d="M228.095 180.113C228.095 180.113 227.216 180.752 225.698 183.868C224.18 186.984 218.667 200.327 218.667 200.327L214.736 186.456C214.736 186.456 222.455 175.721 225.834 172.723C229.214 169.726 228.095 180.113 228.095 180.113Z" fill="#7D4439"/>
<path fill-rule="evenodd" clip-rule="evenodd" d="M139.142 172.947C139.142 172.947 140.142 171.288 136.408 167.715C134.438 165.83 132.946 161.474 131.853 162.224C130.759 162.973 133.033 168.103 133.033 168.103C133.033 168.103 130.647 165.945 129.237 163.567C127.827 161.19 126.515 159.257 126.515 159.257C126.515 159.257 125.397 158.539 125.32 159.67C125.244 160.801 125.561 161.161 125.561 161.161C125.561 161.161 124.702 160.959 124.685 161.826C124.668 162.692 124.826 162.872 124.826 162.872C124.826 162.872 124.18 162.802 124.165 163.56C124.151 164.318 124.573 164.798 124.573 164.798C124.573 164.798 124.085 164.907 124.499 165.82C124.913 166.733 127.248 171.49 128.89 173.025C130.533 174.56 134.82 177.18 134.82 177.18C134.82 177.18 139.52 174.252 139.142 172.947Z" fill="#7D4439"/>
<path fill-rule="evenodd" clip-rule="evenodd" d="M129.14 169.806C129.087 169.767 127.83 168.845 126.492 166.688C125.291 164.751 124.838 164.877 124.834 164.88C124.834 164.88 124.838 164.878 124.846 164.873L124.715 164.672C124.735 164.659 124.813 164.618 124.952 164.649C125.247 164.715 125.789 165.1 126.696 166.562C128.009 168.678 129.268 169.602 129.28 169.611L129.14 169.806Z" fill="#995B5D"/>
<path fill-rule="evenodd" clip-rule="evenodd" d="M129.797 168.754C129.794 168.75 129.445 168.427 128.495 167.582C127.82 166.981 126.988 165.641 126.381 164.662C126.107 164.221 125.871 163.841 125.715 163.633C125.252 163.017 124.815 162.981 124.811 162.981L124.821 162.742C124.843 162.743 125.369 162.773 125.907 163.489C126.069 163.705 126.308 164.09 126.584 164.536C127.184 165.502 128.005 166.825 128.655 167.403C129.607 168.25 129.957 168.575 129.961 168.578L129.797 168.754Z" fill="#995B5D"/>
<path fill-rule="evenodd" clip-rule="evenodd" d="M130.31 167.882C130.297 167.871 128.987 166.688 128.094 165.524C127.258 164.434 126.577 162.96 126.212 162.168L126.127 161.986C125.829 161.345 125.56 161.263 125.558 161.262L125.611 161.028C125.649 161.036 125.992 161.129 126.345 161.885L126.429 162.068C126.791 162.851 127.465 164.309 128.284 165.378C129.164 166.525 130.457 167.693 130.47 167.704L130.31 167.882Z" fill="#995B5D"/>
<path fill-rule="evenodd" clip-rule="evenodd" d="M135.268 169.906C135.261 169.899 134.535 169.193 133.959 168.995C133.319 168.774 132.935 168.193 132.919 168.169L133.12 168.038C133.123 168.043 133.476 168.574 134.037 168.768C134.665 168.984 135.405 169.704 135.436 169.734L135.268 169.906Z" fill="#995B5D"/>
<path fill-rule="evenodd" clip-rule="evenodd" d="M134.82 177.18C134.82 177.18 135.548 177.987 136.391 181.349C137.233 184.711 139.873 198.905 139.873 198.905L146.582 186.144C146.582 186.144 141.245 174.047 138.558 170.416C135.87 166.785 134.82 177.18 134.82 177.18Z" fill="#7D4439"/>
<mask id="mask17" mask-type="alpha" maskUnits="userSpaceOnUse" x="136" y="173" width="85" height="56">
<path fill-rule="evenodd" clip-rule="evenodd" d="M136.837 173.658H220.665V228.797H136.837V173.658Z" fill="white"/>
</mask>
<g mask="url(#mask17)">
<path fill-rule="evenodd" clip-rule="evenodd" d="M174.323 174.04C174.323 174.04 164.215 176.378 159.96 183.599C155.706 190.819 152.59 191.858 152.59 191.858C152.59 191.858 149.314 183.468 147.556 183.788C145.798 184.107 136.45 198.729 136.849 200.087C137.249 201.446 144.893 220.344 153.136 216.847C161.379 213.351 163.536 207.278 164.015 208.637C164.495 209.995 162.178 227.094 164.175 227.573C166.173 228.053 177.536 228.962 187.906 228.772C196.615 228.612 201.888 229.011 202.288 225.336C202.687 221.661 201.329 208.876 201.329 208.876C201.329 208.876 205.723 214.31 209.558 212.552C213.394 210.794 220.665 204.961 220.665 204.961L215.072 185.386L209.638 190.579C209.638 190.579 203.566 180.432 199.97 178.514C196.375 176.597 189.383 173.658 189.383 173.658C189.383 173.658 185.349 177.156 183.591 179.633C181.833 182.11 181.354 183.388 181.354 183.388C181.354 183.388 177.439 175.878 174.323 174.04Z" fill="#F9C818"/>
</g>
<path fill-rule="evenodd" clip-rule="evenodd" d="M166.892 196.892L171.925 203.284C171.925 203.284 172.644 200.487 171.206 198.25C169.768 196.013 166.892 196.892 166.892 196.892Z" fill="#FFE89D"/>
<path fill-rule="evenodd" clip-rule="evenodd" d="M191.581 178.914L196.615 185.306C196.615 185.306 197.334 182.51 195.896 180.273C194.457 178.035 191.581 178.914 191.581 178.914Z" fill="#FFE89D"/>
<path fill-rule="evenodd" clip-rule="evenodd" d="M168.81 219.343L173.843 225.736C173.843 225.736 174.562 222.939 173.124 220.702C171.686 218.465 168.81 219.343 168.81 219.343Z" fill="#FFE89D"/>
<path fill-rule="evenodd" clip-rule="evenodd" d="M191.102 206.879L196.135 213.271C196.135 213.271 196.854 210.475 195.416 208.237C193.978 206 191.102 206.879 191.102 206.879Z" fill="#FFE89D"/>
<path fill-rule="evenodd" clip-rule="evenodd" d="M181.987 220.287L187.412 214.224C187.412 214.224 184.534 213.999 182.579 215.802C180.624 217.605 181.987 220.287 181.987 220.287Z" fill="#FFE89D"/>
<path fill-rule="evenodd" clip-rule="evenodd" d="M179.03 204.067L184.455 198.004C184.455 198.004 181.577 197.779 179.622 199.582C177.667 201.386 179.03 204.067 179.03 204.067Z" fill="#FFE89D"/>
<path fill-rule="evenodd" clip-rule="evenodd" d="M190.556 192.916L188.626 200.82C188.626 200.82 191.271 199.662 192.146 197.151C193.021 194.639 190.556 192.916 190.556 192.916Z" fill="#FFE89D"/>
<path fill-rule="evenodd" clip-rule="evenodd" d="M201.902 187.323L199.972 195.227C199.972 195.227 202.617 194.069 203.492 191.558C204.367 189.046 201.902 187.323 201.902 187.323Z" fill="#FFE89D"/>
<path fill-rule="evenodd" clip-rule="evenodd" d="M167.308 212.524L175.278 210.889C175.278 210.889 173.1 208.993 170.455 209.276C167.811 209.559 167.308 212.524 167.308 212.524Z" fill="#FFE89D"/>
<path fill-rule="evenodd" clip-rule="evenodd" d="M161.121 202.331L153.133 200.784C153.133 200.784 154.417 203.37 156.968 204.123C159.518 204.876 161.121 202.331 161.121 202.331Z" fill="#FFE89D"/>
<path fill-rule="evenodd" clip-rule="evenodd" d="M143.963 194.365L139.839 201.379C139.839 201.379 142.705 201.032 144.267 198.878C145.828 196.725 143.963 194.365 143.963 194.365Z" fill="#FFE89D"/>
<path fill-rule="evenodd" clip-rule="evenodd" d="M145.65 209.888L152.482 214.306C152.482 214.306 152.257 211.427 150.172 209.776C148.087 208.125 145.65 209.888 145.65 209.888Z" fill="#FFE89D"/>
<path fill-rule="evenodd" clip-rule="evenodd" d="M167.449 186.435L173.332 180.815C173.332 180.815 170.48 180.366 168.39 182.01C166.3 183.655 167.449 186.435 167.449 186.435Z" fill="#FFE89D"/>
<path fill-rule="evenodd" clip-rule="evenodd" d="M156.312 193.067L163.935 190.222C163.935 190.222 161.491 188.685 158.922 189.372C156.353 190.06 156.312 193.067 156.312 193.067Z" fill="#FFE89D"/>
<path fill-rule="evenodd" clip-rule="evenodd" d="M181.241 190.19L188.864 187.345C188.864 187.345 186.42 185.808 183.85 186.495C181.281 187.183 181.241 190.19 181.241 190.19Z" fill="#FFE89D"/>
<path fill-rule="evenodd" clip-rule="evenodd" d="M202.575 204.413L210.198 201.568C210.198 201.568 207.754 200.03 205.184 200.718C202.615 201.405 202.575 204.413 202.575 204.413Z" fill="#FFE89D"/>
<path fill-rule="evenodd" clip-rule="evenodd" d="M189.711 225.986L197.333 223.141C197.333 223.141 194.889 221.604 192.32 222.291C189.751 222.979 189.711 225.986 189.711 225.986Z" fill="#FFE89D"/>
<path fill-rule="evenodd" clip-rule="evenodd" d="M181.623 241.135C181.623 241.135 185.04 242.616 185.451 242.04C185.863 241.464 182.323 245.045 182.323 245.045L179.771 243.604L181.623 241.135Z" fill="#7D4439"/>
<path fill-rule="evenodd" clip-rule="evenodd" d="M181.623 241.135C181.623 241.135 185.04 242.616 185.451 242.04C185.863 241.464 182.323 245.045 182.323 245.045L179.771 243.604L181.623 241.135Z" stroke="black" stroke-width="0.923164"/>
<path fill-rule="evenodd" clip-rule="evenodd" d="M208.993 242.946C208.993 242.946 214.014 245.868 210.022 250.436C206.029 255.005 191.912 251.877 191.912 251.877L191.542 250.066C191.542 250.066 205.741 243.193 208.993 242.946Z" fill="#F0ECEC"/>
<path fill-rule="evenodd" clip-rule="evenodd" d="M208.992 242.946C208.992 242.946 210.968 243.357 211.585 245.621C212.203 247.885 210.842 250.521 208.847 251.405C208.847 251.405 211.393 245.754 206.921 243.424L208.992 242.946Z" fill="#E0D3CC"/>
<path fill-rule="evenodd" clip-rule="evenodd" d="M207.38 252.047C207.38 252.047 205.577 248.379 204.754 248.461C203.931 248.543 195.02 249.006 194.125 248.836L191.172 250.025L191.694 251.909C191.694 251.909 202.68 254.48 207.38 252.047Z" fill="#E7DADA"/>
<path fill-rule="evenodd" clip-rule="evenodd" d="M204.959 245.127C204.959 245.127 205.617 249.901 204.671 249.901C203.724 249.901 203.477 244.551 203.312 246.403C203.148 248.255 203.024 250.601 202.407 249.901C201.79 249.202 203.065 244.016 202.53 245.456C201.995 246.897 201.666 249.613 200.802 249.572C199.938 249.531 201.131 246.773 200.678 246.691C200.226 246.609 199.32 250.272 198.538 249.819C197.756 249.366 199.197 246.362 198.374 247.473C197.55 248.584 197.303 249.901 196.563 249.737C195.822 249.572 196.645 248.132 197.098 247.432C197.55 246.732 204.506 244.057 204.712 244.386C204.918 244.716 204.959 245.127 204.959 245.127Z" fill="#F9F9F9"/>
<path fill-rule="evenodd" clip-rule="evenodd" d="M194.341 249.819C194.341 249.819 210.968 245.004 218.706 238.871C226.443 232.739 230.929 226.771 226.567 220.062C222.204 213.354 211.956 218.457 207.017 220.639C202.078 222.82 185.883 225.905 178.156 225.885C170.428 225.866 160.057 225.289 154.665 223.684C149.274 222.079 140.672 219.651 138.038 226.195C135.404 232.739 138.491 239.159 143.018 241.341C147.545 243.522 161.497 248.214 168.659 247.761L175.82 247.308C175.82 247.308 178.907 243.892 178.084 238.912L182.405 242.04C182.405 242.04 184.875 241.999 185.78 241.67C186.685 241.341 191.707 253.4 194.341 249.819Z" fill="#E93737"/>
<path fill-rule="evenodd" clip-rule="evenodd" d="M189.937 250.395C189.937 250.395 182.693 253.07 180.964 254.181C179.236 255.292 175.655 256.239 173.926 255.046C172.198 253.852 173.227 247.925 173.227 247.925C173.227 247.925 179.03 246.608 179.688 245.703C180.347 244.797 185.615 241.793 185.615 241.793L189.937 250.395Z" fill="#7D4439"/>
<path fill-rule="evenodd" clip-rule="evenodd" d="M173.848 248.394C173.848 248.394 173.474 247.432 172.322 247.637C171.169 247.843 160.427 246.65 157.341 245.785C154.254 244.921 147.71 251.053 150.55 255.375C153.39 259.697 157.258 257.639 160.757 257.351C164.255 257.062 171.046 258.05 172.569 257.556C174.092 257.062 175.614 256.157 175.656 255.087C175.697 254.017 173.848 248.394 173.848 248.394Z" fill="#F0ECEC"/>
<path fill-rule="evenodd" clip-rule="evenodd" d="M158.141 246.349C158.141 246.349 153.595 248.584 152.772 251.671C151.948 254.758 152.331 257.229 152.331 257.229C152.331 257.229 148.016 255.196 150.476 250.367C152.936 245.539 156.802 245.142 158.141 245.855C159.48 246.568 158.141 246.349 158.141 246.349Z" fill="#E0D3CC"/>
<path fill-rule="evenodd" clip-rule="evenodd" d="M158.645 246.245C158.645 246.245 160.509 249.201 160.756 251.342C160.756 251.342 160.591 251.753 162.649 251.712C164.707 251.671 174.301 249.566 174.301 249.566C174.301 249.566 176.365 254.509 175.619 255.786C174.873 257.063 160.756 254.634 160.756 254.634C160.756 254.634 160.18 254.305 159.809 254.593C159.439 254.881 157.526 257.52 154.902 258.053C154.902 258.053 158.986 255.869 159.316 252.988C159.645 250.107 158.645 246.245 158.645 246.245Z" fill="#EEDFD9"/>
<path fill-rule="evenodd" clip-rule="evenodd" d="M172.198 249.243C172.198 249.243 172.075 252.042 172.61 253.606C173.145 255.17 173.589 256.534 172.667 256.366C171.745 256.199 170.757 249.984 171.293 249.449C171.828 248.914 172.157 248.749 172.198 249.243Z" fill="white"/>
<path fill-rule="evenodd" clip-rule="evenodd" d="M170.676 249.572C170.676 249.572 170.552 252.371 171.087 253.935C171.622 255.499 172.067 256.863 171.145 256.695C170.223 256.528 169.235 250.313 169.77 249.778C170.305 249.243 170.634 249.078 170.676 249.572Z" fill="white"/>
<path fill-rule="evenodd" clip-rule="evenodd" d="M165.284 249.67C165.284 249.67 165.161 252.23 165.696 253.661C166.231 255.091 166.675 256.339 165.753 256.186C164.831 256.032 163.843 250.348 164.379 249.859C164.914 249.369 165.243 249.219 165.284 249.67Z" fill="white"/>
<path fill-rule="evenodd" clip-rule="evenodd" d="M163.226 249.982C163.226 249.982 163.103 252.371 163.638 253.706C164.173 255.041 164.617 256.206 163.696 256.063C162.774 255.92 161.786 250.614 162.321 250.157C162.856 249.7 163.185 249.56 163.226 249.982Z" fill="white"/>
<path fill-rule="evenodd" clip-rule="evenodd" d="M161.748 249.809C161.748 249.809 161.286 252.156 161.626 253.554C161.966 254.952 162.24 256.168 161.348 255.895C160.456 255.622 160.232 250.23 160.826 249.854C161.421 249.478 161.767 249.385 161.748 249.809Z" fill="white"/>
<path fill-rule="evenodd" clip-rule="evenodd" d="M168.762 249.752C168.762 249.752 168.925 252.548 169.617 254.049C170.309 255.55 170.891 256.862 169.957 256.789C169.023 256.717 167.404 250.636 167.882 250.049C168.359 249.462 168.67 249.265 168.762 249.752Z" fill="white"/>
<path fill-rule="evenodd" clip-rule="evenodd" d="M167.955 249.7C167.955 249.7 167.398 252.446 167.684 254.074C167.97 255.702 168.197 257.118 167.313 256.81C166.428 256.501 166.417 250.208 167.028 249.763C167.64 249.317 167.99 249.206 167.955 249.7Z" fill="white"/>
<path fill-rule="evenodd" clip-rule="evenodd" d="M174.126 249.378C174.126 249.378 171.54 249.942 172.075 253.07C172.61 256.198 175.86 255.317 175.86 255.317C175.86 255.317 176.63 250.172 174.126 249.378Z" fill="white"/>
<path d="M210.533 222.022L187.814 239.943L182.896 242.014L177.689 238.77L159.806 227.457L159.635 227.727L177.519 239.041L182.868 242.373L187.978 240.22L210.73 222.273L210.533 222.022Z" fill="black"/>
<path fill-rule="evenodd" clip-rule="evenodd" d="M177.137 237.061C177.137 237.061 180.841 238.089 181.87 239.859C182.899 241.629 182.57 244.675 179.524 245.95C176.479 247.226 175.244 248.296 176.026 246.28C176.808 244.263 178.248 240.559 177.137 237.061Z" fill="#F0ECEC"/>
<path fill-rule="evenodd" clip-rule="evenodd" d="M187.92 239.406C187.92 239.406 188.291 243.522 190.555 246.732C192.818 249.943 194.835 250.272 194.094 251.054C193.353 251.836 192.201 252.206 191.46 253.194C190.719 254.182 190.76 254.141 189.032 252.083C187.303 250.025 183.517 245.456 183.434 241.382C183.434 241.382 187.591 238.048 187.92 239.406Z" fill="#F0ECEC"/>
<path fill-rule="evenodd" clip-rule="evenodd" d="M183.428 166.414C183.428 166.414 184.352 168.605 186.279 167.772L183.428 166.414Z" fill="black"/>
<path fill-rule="evenodd" clip-rule="evenodd" d="M180.309 159.686C180.309 159.686 181.222 158.594 182.047 158.133C182.556 157.848 185.699 157.239 185.814 157.883C185.925 158.51 185.602 158.532 184.349 158.736C183.096 158.94 182.509 158.991 181.851 159.3C181.192 159.61 180.448 160.031 180.309 159.686Z" fill="black"/>
<path fill-rule="evenodd" clip-rule="evenodd" d="M192.432 160.456C192.432 160.456 192.548 159.793 192.388 159.36C192.229 158.928 190.256 157.128 189.677 157.284C188.757 157.533 189.088 157.974 190.253 158.757C191.189 159.387 191.562 159.629 191.916 160.073C192.398 160.679 192.362 160.553 192.432 160.456Z" fill="black"/>
<path d="M187.999 158.755L188.304 158.853L188.274 158.948C188.25 159.026 188.223 159.115 188.195 159.213C188.113 159.495 188.03 159.798 187.954 160.11C187.869 160.457 187.795 160.793 187.738 161.11L187.722 161.204C187.583 162.012 187.563 162.628 187.687 162.96L187.695 162.979C188.404 164.733 187.441 165.623 185.419 165L185.357 164.981L185.455 164.676C187.276 165.259 188.006 164.603 187.398 163.098C187.231 162.684 187.257 161.982 187.424 161.054C187.482 160.729 187.557 160.387 187.643 160.034C187.713 159.753 187.786 159.479 187.86 159.22L187.888 159.124C187.905 159.067 187.921 159.013 187.936 158.962L187.975 158.834L187.999 158.755Z" fill="black"/>
<path d="M180.109 170.981L180.266 170.702L180.323 170.733L180.375 170.761C180.454 170.803 180.545 170.849 180.645 170.898L180.688 170.919C181.026 171.084 181.399 171.248 181.796 171.401C182.711 171.754 183.615 171.995 184.456 172.073C184.837 172.108 185.198 172.109 185.536 172.073L185.604 172.065L185.643 172.382C185.261 172.429 184.855 172.431 184.426 172.391C183.552 172.31 182.621 172.062 181.682 171.7C181.275 171.543 180.894 171.375 180.549 171.207L180.418 171.142C180.363 171.114 180.31 171.088 180.262 171.063L180.172 171.015L180.109 170.981Z" fill="#C86A5D"/>
<path fill-rule="evenodd" clip-rule="evenodd" d="M184.381 160.881C184.323 160.881 184.265 160.86 184.219 160.818C184.216 160.815 183.821 160.464 183.25 160.486C182.66 160.507 182.268 160.796 182.264 160.799C182.158 160.878 182.008 160.857 181.929 160.752C181.849 160.647 181.869 160.498 181.974 160.418C181.994 160.402 182.483 160.034 183.232 160.007C184.003 159.979 184.521 160.445 184.543 160.465C184.641 160.554 184.647 160.706 184.558 160.803C184.51 160.855 184.446 160.881 184.381 160.881Z" fill="black"/>
<path fill-rule="evenodd" clip-rule="evenodd" d="M191.102 161.612C191.044 161.612 190.986 161.591 190.94 161.548C190.937 161.546 190.542 161.194 189.971 161.216C189.382 161.238 188.99 161.526 188.986 161.529C188.881 161.609 188.73 161.589 188.65 161.484C188.569 161.379 188.59 161.228 188.695 161.148C188.715 161.132 189.204 160.765 189.953 160.737C190.724 160.709 191.242 161.175 191.264 161.195C191.362 161.285 191.368 161.436 191.279 161.534C191.231 161.585 191.167 161.612 191.102 161.612Z" fill="black"/>
<path fill-rule="evenodd" clip-rule="evenodd" d="M184.595 168.919C184.747 168.66 184.947 168.546 185.195 168.577C185.568 168.624 185.967 169.654 186.591 170.225C187.007 170.606 187.546 170.927 188.207 171.189C187.384 173.142 186.231 174.12 184.748 174.123C183.019 174.126 181.509 173.565 180.329 171.224C179.369 169.318 181.012 170.852 183.169 170.007C183.662 169.815 184.057 169.418 184.595 168.919Z" fill="black"/>
<path fill-rule="evenodd" clip-rule="evenodd" d="M46.3358 239.007C46.3358 239.007 47.7676 238.531 49.5571 229.408C51.3467 220.286 49.3859 217.37 44.6796 218.159C39.9733 218.948 43.6347 238.571 46.3358 239.007Z" fill="#AEE2FF"/>
<path fill-rule="evenodd" clip-rule="evenodd" d="M42.3767 244.614H46.0905C48.5144 244.614 50.4795 242.649 50.4795 240.225C50.4795 237.801 48.5144 235.836 46.0905 235.836H42.3767C39.9527 235.836 37.9877 237.801 37.9877 240.225C37.9877 242.649 39.9527 244.614 42.3767 244.614Z" fill="#FCEBEC"/>
<path d="M42.3767 235.738H46.0905C48.5684 235.738 50.5771 237.747 50.5771 240.225C50.5771 242.703 48.5684 244.712 46.0905 244.712H42.3767C39.8988 244.712 37.89 242.703 37.89 240.225C37.89 237.747 39.8988 235.738 42.3767 235.738ZM46.0905 235.934H42.3767C40.0066 235.934 38.0853 237.855 38.0853 240.225C38.0853 242.595 40.0066 244.516 42.3767 244.516H46.0905C48.4605 244.516 50.3818 242.595 50.3818 240.225C50.3818 237.855 48.4605 235.934 46.0905 235.934Z" fill="#FFA7C4"/>
<path fill-rule="evenodd" clip-rule="evenodd" d="M17.5944 244.984H21.3082C23.7322 244.984 25.6973 243.019 25.6973 240.595C25.6973 238.171 23.7322 236.206 21.3082 236.206H17.5944C15.1705 236.206 13.2054 238.171 13.2054 240.595C13.2054 243.019 15.1705 244.984 17.5944 244.984Z" fill="#FCEBEC"/>
<path d="M17.5944 236.108H21.3082C23.7861 236.108 25.7949 238.117 25.7949 240.595C25.7949 243.073 23.7861 245.082 21.3082 245.082H17.5944C15.1165 245.082 13.1077 243.073 13.1077 240.595C13.1077 238.117 15.1165 236.108 17.5944 236.108ZM21.3082 236.304H17.5944C15.2244 236.304 13.3031 238.225 13.3031 240.595C13.3031 242.965 15.2244 244.886 17.5944 244.886H21.3082C23.6783 244.886 25.5996 242.965 25.5996 240.595C25.5996 238.225 23.6783 236.304 21.3082 236.304Z" fill="#FFA7C4"/>
<path fill-rule="evenodd" clip-rule="evenodd" d="M41.1196 215.375C41.1196 215.375 47.4522 220.488 46.6798 243.171L18.1662 243.729C18.1662 243.729 13.9254 228.925 23.0321 215.238L41.1196 215.375Z" fill="#AEE2FF"/>
<path d="M41.3988 215.299C41.3566 215.241 41.2752 215.228 41.217 215.27C41.1588 215.312 41.1458 215.393 41.188 215.452C42.8012 217.676 44.0255 220.324 44.9019 223.307C45.7169 226.08 46.2033 229.041 46.4208 232.062L46.4373 232.3C46.5756 234.353 46.5779 236.223 46.498 237.798L46.4894 237.96C46.4826 238.083 46.4756 238.195 46.4685 238.299L46.4583 238.441L46.4464 238.588C46.4399 238.659 46.4926 238.723 46.5642 238.729C46.6358 238.736 46.6991 238.683 46.7057 238.612L46.714 238.512C46.7165 238.479 46.7192 238.443 46.7221 238.404L46.7313 238.271C46.7404 238.134 46.7494 237.98 46.758 237.812C46.8415 236.166 46.8358 234.201 46.6804 232.043C46.4617 229.005 45.9724 226.026 45.1517 223.233C44.2673 220.224 43.0308 217.549 41.3988 215.299Z" fill="#56ACF6"/>
<path fill-rule="evenodd" clip-rule="evenodd" d="M24.0442 216.115H40.1507C40.8052 216.115 41.3359 215.585 41.3359 214.93V214.162C41.3359 213.507 40.8052 212.977 40.1507 212.977H24.0442C23.3897 212.977 22.859 213.507 22.859 214.162V214.93C22.859 215.585 23.3897 216.115 24.0442 216.115Z" fill="#FFA7C4"/>
<path fill-rule="evenodd" clip-rule="evenodd" d="M28.071 216.257C28.071 215.502 28.6872 214.886 29.4422 214.886C30.0931 214.886 30.6312 215.329 30.7787 215.936H33.6079C33.7554 215.329 34.2934 214.886 34.9443 214.886C35.6993 214.886 36.3154 215.502 36.3154 216.257C36.3154 216.57 36.2113 216.865 36.0204 217.108C36.2113 217.351 36.3154 217.646 36.3154 217.958C36.3154 218.713 35.6993 219.33 34.9443 219.33C34.2934 219.33 33.7554 218.887 33.6079 218.279H30.7787C30.6312 218.887 30.0931 219.33 29.4422 219.33C28.6872 219.33 28.071 218.713 28.071 217.958C28.071 217.646 28.1752 217.351 28.3661 217.108C28.1752 216.865 28.071 216.57 28.071 216.257Z" fill="#56ACF6"/>
<path fill-rule="evenodd" clip-rule="evenodd" d="M42.751 195.056C42.751 195.056 37.2389 193.057 34.1039 196.378C30.969 199.699 28.1754 197.402 28.1754 197.402L27.6514 196.752C27.6514 196.752 22.9095 194.623 19.5363 196.106L23.6127 199.792L32.0554 200.103L39.3185 198.799L42.751 195.056Z" fill="#FFA7C4"/>
<mask id="mask18" mask-type="alpha" maskUnits="userSpaceOnUse" x="19" y="194" width="25" height="14">
<path fill-rule="evenodd" clip-rule="evenodd" d="M43.0186 194.428H19.4412V207.329H43.0186V194.428Z" fill="white"/>
</mask>
<g mask="url(#mask18)">
<path fill-rule="evenodd" clip-rule="evenodd" d="M42.751 195.056C42.751 195.056 43.8411 198.568 41.6206 203.009C41.6206 203.009 42.1858 204.14 42.2666 205.351C42.3472 206.562 41.2975 207.329 41.2975 207.329L22.1202 206.078C22.1202 206.078 21.9184 204.382 22.4836 203.211C22.4836 203.211 18.8096 200.668 19.5364 196.106C19.5364 196.106 22.4028 195.177 25.7135 198.044C25.7135 198.044 26.1979 197.115 27.6514 196.752L27.8532 195.581C27.8532 195.581 29.0241 195.621 30.1949 196.348C30.1949 196.348 30.3968 195.54 30.0334 194.733C30.0334 194.733 31.4465 195.258 32.0925 196.186C32.0925 196.186 32.254 195.096 32.2135 194.491C32.1732 193.885 36.372 197.842 36.372 197.842C36.372 197.842 37.7447 195.016 42.751 195.056Z" fill="#AEE2FF"/>
</g>
<path fill-rule="evenodd" clip-rule="evenodd" d="M36.0748 201.746C36.0748 202.205 36.4465 202.577 36.9051 202.577C37.3637 202.577 37.7354 202.205 37.7354 201.746C37.7354 201.288 37.3637 200.916 36.9051 200.916C36.4465 200.916 36.0748 201.288 36.0748 201.746Z" fill="black"/>
<path fill-rule="evenodd" clip-rule="evenodd" d="M26.9137 201.746C26.9137 202.205 27.2854 202.577 27.744 202.577C28.2025 202.577 28.5742 202.205 28.5742 201.746C28.5742 201.288 28.2025 200.916 27.744 200.916C27.2854 200.916 26.9137 201.288 26.9137 201.746Z" fill="black"/>
<path d="M23.5693 205.022C23.4469 205.035 23.314 205.061 23.1732 205.101C22.7862 205.213 22.4014 205.419 22.0418 205.741C21.9882 205.788 21.9837 205.871 22.0316 205.924C22.0796 205.978 22.1619 205.982 22.2154 205.935C22.5448 205.64 22.8948 205.453 23.2454 205.351C23.3714 205.315 23.4897 205.292 23.5977 205.281C23.6597 205.274 23.7092 205.271 23.7445 205.272L23.8949 205.272L36.6703 205.29L40.9011 205.303C40.9451 205.303 40.9779 205.304 40.9993 205.304C41.3267 205.31 41.6111 205.383 41.852 205.499C41.9395 205.541 42.0146 205.586 42.0772 205.63L42.0993 205.646C42.1229 205.664 42.1386 205.677 42.1462 205.684C42.1987 205.733 42.281 205.73 42.3301 205.678C42.3792 205.625 42.3765 205.543 42.324 205.494C42.2594 205.433 42.1393 205.348 41.965 205.264C41.7033 205.138 41.3982 205.058 41.0517 205.045L41.0042 205.044C40.9556 205.043 40.8512 205.042 40.6925 205.041L32.3996 205.023L23.7638 205.012C23.7168 205.01 23.651 205.013 23.5693 205.022Z" fill="#56ACF6"/>
<path fill-rule="evenodd" clip-rule="evenodd" d="M24.0416 214.395H40.7076C42.3264 214.395 43.6387 213.082 43.6387 211.464V208.136C43.6387 206.517 42.3264 205.205 40.7076 205.205H24.0416C22.4227 205.205 21.1104 206.517 21.1104 208.136V211.464C21.1104 213.082 22.4227 214.395 24.0416 214.395Z" fill="#FCEBEC"/>
<path fill-rule="evenodd" clip-rule="evenodd" d="M30.7697 205.146L31.7468 206.118C31.8823 206.252 32.0593 206.319 32.2363 206.318C32.4098 206.316 32.5834 206.25 32.7154 206.118L33.6925 205.146C34.1273 204.714 33.8209 203.973 33.2083 203.973H31.2539C30.6413 203.973 30.3349 204.714 30.7697 205.146Z" fill="black"/>
<path d="M32.2296 208.04L32.2393 205.581" stroke="black" stroke-width="1.00256"/>
<path d="M33.4756 207.325C33.4756 207.325 32.9706 207.926 32.5979 208.071H31.8284C31.8284 208.071 31.3844 207.939 30.9997 207.35" stroke="black" stroke-width="1.00256" stroke-linecap="round"/>
<path fill-rule="evenodd" clip-rule="evenodd" d="M39.7019 244.627H43.4157C45.8397 244.627 47.8047 242.662 47.8047 240.238C47.8047 237.814 45.8397 235.849 43.4157 235.849H39.7019C37.278 235.849 35.3129 237.814 35.3129 240.238C35.3129 242.662 37.278 244.627 39.7019 244.627Z" fill="#FCEBEC"/>
<path d="M39.7019 235.751H43.4157C45.8936 235.751 47.9023 237.76 47.9023 240.238C47.9023 242.716 45.8936 244.724 43.4157 244.724H39.7019C37.224 244.724 35.2152 242.716 35.2152 240.238C35.2152 237.76 37.224 235.751 39.7019 235.751ZM43.4157 235.946H39.7019C37.3319 235.946 35.4106 237.868 35.4106 240.238C35.4106 242.608 37.3319 244.529 39.7019 244.529H43.4157C45.7857 244.529 47.707 242.608 47.707 240.238C47.707 237.868 45.7857 235.946 43.4157 235.946Z" fill="#FFA7C4"/>
<path fill-rule="evenodd" clip-rule="evenodd" d="M19.9353 244.982H23.6491C26.0731 244.982 28.0381 243.017 28.0381 240.593C28.0381 238.169 26.0731 236.204 23.6491 236.204H19.9353C17.5114 236.204 15.5463 238.169 15.5463 240.593C15.5463 243.017 17.5114 244.982 19.9353 244.982Z" fill="#FCEBEC"/>
<path d="M19.9353 236.106H23.6491C26.127 236.106 28.1357 238.115 28.1357 240.593C28.1357 243.071 26.127 245.08 23.6491 245.08H19.9353C17.4574 245.08 15.4486 243.071 15.4486 240.593C15.4486 238.115 17.4574 236.106 19.9353 236.106ZM23.6491 236.302H19.9353C17.5653 236.302 15.644 238.223 15.644 240.593C15.644 242.963 17.5653 244.884 19.9353 244.884H23.6491C26.0191 244.884 27.9404 242.963 27.9404 240.593C27.9404 238.223 26.0191 236.302 23.6491 236.302Z" fill="#FFA7C4"/>
<path d="M36.3697 224.108C36.3364 224.065 36.275 224.058 36.2326 224.091C36.1902 224.125 36.1828 224.186 36.2161 224.228C37.1299 225.391 37.8505 226.847 38.3981 228.53C38.919 230.13 39.2568 231.847 39.4475 233.563C39.5105 234.13 39.5528 234.66 39.5783 235.138L39.5827 235.222C39.5897 235.362 39.5947 235.49 39.5982 235.603L39.6018 235.739L39.6035 235.849C39.6037 235.903 39.6476 235.947 39.7015 235.947C39.7555 235.946 39.799 235.902 39.7988 235.848L39.7984 235.805L39.7971 235.735L39.7935 235.598C39.79 235.482 39.7848 235.354 39.7778 235.212C39.7527 234.708 39.7088 234.146 39.6416 233.541C39.4496 231.813 39.1094 230.084 38.5839 228.469C38.0297 226.767 37.2991 225.29 36.3697 224.108Z" fill="#56ACF6"/>
<path d="M27.4328 223.674C27.3861 223.647 27.3264 223.663 27.2993 223.709C25.6806 226.497 24.6313 229.436 24.0385 232.343C23.8384 233.324 23.7051 234.234 23.6261 235.053L23.6175 235.143C23.5902 235.438 23.5721 235.7 23.5614 235.925L23.5585 235.99C23.5572 236.022 23.5561 236.051 23.5552 236.079L23.5521 236.203C23.5517 236.257 23.5951 236.301 23.649 236.302C23.703 236.302 23.747 236.259 23.7475 236.205L23.7489 236.137L23.7514 236.057C23.7524 236.029 23.7536 235.999 23.7551 235.967L23.7616 235.837C23.7724 235.637 23.7889 235.412 23.812 235.161C23.8892 234.326 24.0239 233.392 24.2299 232.382C24.8188 229.494 25.861 226.576 27.4682 223.807C27.4953 223.761 27.4795 223.701 27.4328 223.674Z" fill="#56ACF6"/>
</svg>
