<svg width="12" height="12" viewBox="0 0 12 12" fill="none" xmlns="http://www.w3.org/2000/svg">
<path d="M5.99984 11.8332C2.77809 11.8332 0.166504 9.22159 0.166504 5.99984C0.166504 2.77809 2.77809 0.166504 5.99984 0.166504C9.22159 0.166504 11.8332 2.77809 11.8332 5.99984C11.8332 9.22159 9.22159 11.8332 5.99984 11.8332ZM5.99984 10.6665C7.23751 10.6665 8.4245 10.1748 9.29967 9.29967C10.1748 8.4245 10.6665 7.23751 10.6665 5.99984C10.6665 4.76216 10.1748 3.57518 9.29967 2.70001C8.4245 1.82484 7.23751 1.33317 5.99984 1.33317C4.76216 1.33317 3.57518 1.82484 2.70001 2.70001C1.82484 3.57518 1.33317 4.76216 1.33317 5.99984C1.33317 7.23751 1.82484 8.4245 2.70001 9.29967C3.57518 10.1748 4.76216 10.6665 5.99984 10.6665ZM5.4165 3.08317H6.58317V4.24984H5.4165V3.08317ZM5.4165 5.4165H6.58317V8.9165H5.4165V5.4165Z" fill="#74859C"/>
</svg>
