<svg width="574" height="452" viewBox="0 0 574 452" fill="none" xmlns="http://www.w3.org/2000/svg">
<g filter="url(#filter0_d)">
<rect x="55" y="45" width="464" height="342" rx="20" fill="white"/>
</g>
<path d="M110.79 95.063C110.352 95.063 109.956 94.988 109.602 94.838C109.254 94.688 108.978 94.472 108.774 94.19C108.57 93.908 108.465 93.575 108.459 93.191H109.809C109.827 93.449 109.917 93.653 110.079 93.803C110.247 93.953 110.475 94.028 110.763 94.028C111.057 94.028 111.288 93.959 111.456 93.821C111.624 93.677 111.708 93.491 111.708 93.263C111.708 93.077 111.651 92.924 111.537 92.804C111.423 92.684 111.279 92.591 111.105 92.525C110.937 92.453 110.703 92.375 110.403 92.291C109.995 92.171 109.662 92.054 109.404 91.94C109.152 91.82 108.933 91.643 108.747 91.409C108.567 91.169 108.477 90.851 108.477 90.455C108.477 90.083 108.57 89.759 108.756 89.483C108.942 89.207 109.203 88.997 109.539 88.853C109.875 88.703 110.259 88.628 110.691 88.628C111.339 88.628 111.864 88.787 112.266 89.105C112.674 89.417 112.899 89.855 112.941 90.419H111.555C111.543 90.203 111.45 90.026 111.276 89.888C111.108 89.744 110.883 89.672 110.601 89.672C110.355 89.672 110.157 89.735 110.007 89.861C109.863 89.987 109.791 90.17 109.791 90.41C109.791 90.578 109.845 90.719 109.953 90.833C110.067 90.941 110.205 91.031 110.367 91.103C110.535 91.169 110.769 91.247 111.069 91.337C111.477 91.457 111.81 91.577 112.068 91.697C112.326 91.817 112.548 91.997 112.734 92.237C112.92 92.477 113.013 92.792 113.013 93.182C113.013 93.518 112.926 93.83 112.752 94.118C112.578 94.406 112.323 94.637 111.987 94.811C111.651 94.979 111.252 95.063 110.79 95.063ZM116.265 89.735V91.31H118.38V92.309H116.265V93.974H118.65V95H115.005V88.709H118.65V89.735H116.265ZM121.955 94.001H124.025V95H120.695V88.718H121.955V94.001ZM126.986 89.735V91.31H129.101V92.309H126.986V93.974H129.371V95H125.726V88.709H129.371V89.735H126.986ZM131.11 91.85C131.11 91.232 131.248 90.68 131.524 90.194C131.806 89.702 132.187 89.321 132.667 89.051C133.153 88.775 133.696 88.637 134.296 88.637C134.998 88.637 135.613 88.817 136.141 89.177C136.669 89.537 137.038 90.035 137.248 90.671H135.799C135.655 90.371 135.451 90.146 135.187 89.996C134.929 89.846 134.629 89.771 134.287 89.771C133.921 89.771 133.594 89.858 133.306 90.032C133.024 90.2 132.802 90.44 132.64 90.752C132.484 91.064 132.406 91.43 132.406 91.85C132.406 92.264 132.484 92.63 132.64 92.948C132.802 93.26 133.024 93.503 133.306 93.677C133.594 93.845 133.921 93.929 134.287 93.929C134.629 93.929 134.929 93.854 135.187 93.704C135.451 93.548 135.655 93.32 135.799 93.02H137.248C137.038 93.662 136.669 94.163 136.141 94.523C135.619 94.877 135.004 95.054 134.296 95.054C133.696 95.054 133.153 94.919 132.667 94.649C132.187 94.373 131.806 93.992 131.524 93.506C131.248 93.02 131.11 92.468 131.11 91.85ZM143.5 88.718V89.735H141.826V95H140.566V89.735H138.892V88.718H143.5ZM152.215 93.803H149.713L149.299 95H147.976L150.235 88.709H151.702L153.961 95H152.629L152.215 93.803ZM151.873 92.795L150.964 90.167L150.055 92.795H151.873ZM158.444 91.85C158.444 91.232 158.582 90.68 158.858 90.194C159.14 89.702 159.521 89.321 160.001 89.051C160.487 88.775 161.03 88.637 161.63 88.637C162.332 88.637 162.947 88.817 163.475 89.177C164.003 89.537 164.372 90.035 164.582 90.671H163.133C162.989 90.371 162.785 90.146 162.521 89.996C162.263 89.846 161.963 89.771 161.621 89.771C161.255 89.771 160.928 89.858 160.64 90.032C160.358 90.2 160.136 90.44 159.974 90.752C159.818 91.064 159.74 91.43 159.74 91.85C159.74 92.264 159.818 92.63 159.974 92.948C160.136 93.26 160.358 93.503 160.64 93.677C160.928 93.845 161.255 93.929 161.621 93.929C161.963 93.929 162.263 93.854 162.521 93.704C162.785 93.548 162.989 93.32 163.133 93.02H164.582C164.372 93.662 164.003 94.163 163.475 94.523C162.953 94.877 162.338 95.054 161.63 95.054C161.03 95.054 160.487 94.919 160.001 94.649C159.521 94.373 159.14 93.992 158.858 93.506C158.582 93.02 158.444 92.468 158.444 91.85ZM169.475 95.063C168.887 95.063 168.347 94.925 167.855 94.649C167.363 94.373 166.973 93.992 166.685 93.506C166.397 93.014 166.253 92.459 166.253 91.841C166.253 91.229 166.397 90.68 166.685 90.194C166.973 89.702 167.363 89.318 167.855 89.042C168.347 88.766 168.887 88.628 169.475 88.628C170.069 88.628 170.609 88.766 171.095 89.042C171.587 89.318 171.974 89.702 172.256 90.194C172.544 90.68 172.688 91.229 172.688 91.841C172.688 92.459 172.544 93.014 172.256 93.506C171.974 93.992 171.587 94.373 171.095 94.649C170.603 94.925 170.063 95.063 169.475 95.063ZM169.475 93.938C169.853 93.938 170.186 93.854 170.474 93.686C170.762 93.512 170.987 93.266 171.149 92.948C171.311 92.63 171.392 92.261 171.392 91.841C171.392 91.421 171.311 91.055 171.149 90.743C170.987 90.425 170.762 90.182 170.474 90.014C170.186 89.846 169.853 89.762 169.475 89.762C169.097 89.762 168.761 89.846 168.467 90.014C168.179 90.182 167.954 90.425 167.792 90.743C167.63 91.055 167.549 91.421 167.549 91.841C167.549 92.261 167.63 92.63 167.792 92.948C167.954 93.266 168.179 93.512 168.467 93.686C168.761 93.854 169.097 93.938 169.475 93.938ZM179.898 95H178.638L175.785 90.689V95H174.525V88.709H175.785L178.638 93.029V88.709H179.898V95ZM186.318 88.718V89.735H184.644V95H183.384V89.735H181.71V88.718H186.318ZM189.397 89.735V91.31H191.512V92.309H189.397V93.974H191.782V95H188.137V88.709H191.782V89.735H189.397ZM199.2 95H197.94L195.087 90.689V95H193.827V88.709H195.087L197.94 93.029V88.709H199.2V95ZM205.621 88.718V89.735H203.947V95H202.687V89.735H201.013V88.718H205.621ZM214.759 88.718V89.735H213.085V95H211.825V89.735H210.151V88.718H214.759ZM221.574 88.718L219.45 92.813V95H218.19V92.813L216.057 88.718H217.479L218.829 91.589L220.17 88.718H221.574ZM227.781 90.662C227.781 90.998 227.7 91.313 227.538 91.607C227.382 91.901 227.133 92.138 226.791 92.318C226.455 92.498 226.029 92.588 225.513 92.588H224.46V95H223.2V88.718H225.513C225.999 88.718 226.413 88.802 226.755 88.97C227.097 89.138 227.352 89.369 227.52 89.663C227.694 89.957 227.781 90.29 227.781 90.662ZM225.459 91.571C225.807 91.571 226.065 91.493 226.233 91.337C226.401 91.175 226.485 90.95 226.485 90.662C226.485 90.05 226.143 89.744 225.459 89.744H224.46V91.571H225.459ZM230.836 89.735V91.31H232.951V92.309H230.836V93.974H233.221V95H229.576V88.709H233.221V89.735H230.836Z" fill="#74859C"/>
<path opacity="0.4" d="M137.313 136H118.689C111.933 136 108 139.56 108 145.66V166.32C108 172.52 111.933 176 118.689 176H137.313C144.178 176 148 172.52 148 166.32V145.66C148 139.56 144.178 136 137.313 136Z" fill="#F2C94C"/>
<path fill-rule="evenodd" clip-rule="evenodd" d="M118.618 166.633V166.613C117.529 166.613 116.647 165.913 116.647 165.053C116.647 164.193 117.529 163.493 118.618 163.493H126.171C127.26 163.493 128.144 164.193 128.144 165.075C128.144 165.933 127.26 166.633 126.171 166.633H118.618ZM138.429 154.453H118.618C117.529 154.453 116.647 155.153 116.647 156.013C116.647 156.873 117.529 157.575 118.618 157.575H138.429C139.515 157.575 140.4 156.873 140.4 156.013C140.4 155.153 139.515 154.453 138.429 154.453ZM138.429 145.313H118.619C117.861 145.233 117.128 145.533 116.724 146.033C116.319 146.553 116.319 147.213 116.724 147.713C117.128 148.233 117.861 148.513 118.619 148.453H138.429C139.437 148.373 140.198 147.693 140.198 146.873C140.198 146.075 139.437 145.393 138.429 145.313Z" fill="#F2C94C"/>
<path d="M166.704 150.832V152.64H163.728V162H161.488V152.64H158.512V150.832H166.704ZM176.738 157.376C176.738 157.696 176.717 157.984 176.674 158.24H170.194C170.248 158.88 170.472 159.381 170.866 159.744C171.261 160.107 171.746 160.288 172.322 160.288C173.154 160.288 173.746 159.931 174.098 159.216H176.514C176.258 160.069 175.768 160.773 175.042 161.328C174.317 161.872 173.426 162.144 172.37 162.144C171.517 162.144 170.749 161.957 170.066 161.584C169.394 161.2 168.866 160.661 168.482 159.968C168.109 159.275 167.922 158.475 167.922 157.568C167.922 156.651 168.109 155.845 168.482 155.152C168.856 154.459 169.378 153.925 170.05 153.552C170.722 153.179 171.496 152.992 172.37 152.992C173.213 152.992 173.965 153.173 174.626 153.536C175.298 153.899 175.816 154.416 176.178 155.088C176.552 155.749 176.738 156.512 176.738 157.376ZM174.418 156.736C174.408 156.16 174.2 155.701 173.794 155.36C173.389 155.008 172.893 154.832 172.306 154.832C171.752 154.832 171.282 155.003 170.898 155.344C170.525 155.675 170.296 156.139 170.21 156.736H174.418ZM183.429 162L181.605 159.248L179.989 162H177.589L180.485 157.552L177.557 153.136H180.085L181.893 155.872L183.525 153.136H185.925L183.013 157.552L185.957 162H183.429ZM189.942 154.976V159.264C189.942 159.563 190.011 159.781 190.15 159.92C190.299 160.048 190.545 160.112 190.886 160.112H191.926V162H190.518C188.63 162 187.686 161.083 187.686 159.248V154.976H186.63V153.136H187.686V150.944H189.942V153.136H191.926V154.976H189.942Z" fill="#001A41"/>
<path opacity="0.4" d="M137.313 216H118.689C111.933 216 108 219.56 108 225.66V246.32C108 252.52 111.933 256 118.689 256H137.313C144.178 256 148 252.52 148 246.32V225.66C148 219.56 144.178 216 137.313 216Z" fill="#56CCF2"/>
<rect x="118" y="233" width="20" height="6" rx="3" fill="#56CCF2"/>
<path d="M165.44 236.272C166.069 236.389 166.587 236.704 166.992 237.216C167.397 237.728 167.6 238.315 167.6 238.976C167.6 239.573 167.451 240.101 167.152 240.56C166.864 241.008 166.443 241.36 165.888 241.616C165.333 241.872 164.677 242 163.92 242H159.104V230.832H163.712C164.469 230.832 165.12 230.955 165.664 231.2C166.219 231.445 166.635 231.787 166.912 232.224C167.2 232.661 167.344 233.157 167.344 233.712C167.344 234.363 167.168 234.907 166.816 235.344C166.475 235.781 166.016 236.091 165.44 236.272ZM161.344 235.44H163.392C163.925 235.44 164.336 235.323 164.624 235.088C164.912 234.843 165.056 234.496 165.056 234.048C165.056 233.6 164.912 233.253 164.624 233.008C164.336 232.763 163.925 232.64 163.392 232.64H161.344V235.44ZM163.6 240.176C164.144 240.176 164.565 240.048 164.864 239.792C165.173 239.536 165.328 239.173 165.328 238.704C165.328 238.224 165.168 237.851 164.848 237.584C164.528 237.307 164.096 237.168 163.552 237.168H161.344V240.176H163.6ZM177.913 233.136V242H175.657V240.88C175.369 241.264 174.991 241.568 174.521 241.792C174.063 242.005 173.561 242.112 173.017 242.112C172.324 242.112 171.711 241.968 171.177 241.68C170.644 241.381 170.223 240.949 169.913 240.384C169.615 239.808 169.465 239.125 169.465 238.336V233.136H171.705V238.016C171.705 238.72 171.881 239.264 172.233 239.648C172.585 240.021 173.065 240.208 173.673 240.208C174.292 240.208 174.777 240.021 175.129 239.648C175.481 239.264 175.657 238.72 175.657 238.016V233.136H177.913ZM182.891 234.976V239.264C182.891 239.563 182.961 239.781 183.099 239.92C183.249 240.048 183.494 240.112 183.835 240.112H184.875V242H183.467C181.579 242 180.635 241.083 180.635 239.248V234.976H179.579V233.136H180.635V230.944H182.891V233.136H184.875V234.976H182.891ZM189.254 234.976V239.264C189.254 239.563 189.324 239.781 189.462 239.92C189.612 240.048 189.857 240.112 190.198 240.112H191.238V242H189.83C187.942 242 186.998 241.083 186.998 239.248V234.976H185.942V233.136H186.998V230.944H189.254V233.136H191.238V234.976H189.254ZM196.946 242.144C196.092 242.144 195.324 241.957 194.642 241.584C193.959 241.2 193.42 240.661 193.026 239.968C192.642 239.275 192.45 238.475 192.45 237.568C192.45 236.661 192.647 235.861 193.042 235.168C193.447 234.475 193.996 233.941 194.69 233.568C195.383 233.184 196.156 232.992 197.01 232.992C197.863 232.992 198.636 233.184 199.33 233.568C200.023 233.941 200.567 234.475 200.962 235.168C201.367 235.861 201.57 236.661 201.57 237.568C201.57 238.475 201.362 239.275 200.946 239.968C200.54 240.661 199.986 241.2 199.282 241.584C198.588 241.957 197.81 242.144 196.946 242.144ZM196.946 240.192C197.351 240.192 197.73 240.096 198.082 239.904C198.444 239.701 198.732 239.403 198.946 239.008C199.159 238.613 199.266 238.133 199.266 237.568C199.266 236.725 199.042 236.08 198.594 235.632C198.156 235.173 197.618 234.944 196.978 234.944C196.338 234.944 195.799 235.173 195.362 235.632C194.935 236.08 194.722 236.725 194.722 237.568C194.722 238.411 194.93 239.061 195.346 239.52C195.772 239.968 196.306 240.192 196.946 240.192ZM208.285 233.008C209.341 233.008 210.194 233.344 210.845 234.016C211.495 234.677 211.821 235.605 211.821 236.8V242H209.581V237.104C209.581 236.4 209.405 235.861 209.053 235.488C208.701 235.104 208.221 234.912 207.613 234.912C206.994 234.912 206.503 235.104 206.141 235.488C205.789 235.861 205.613 236.4 205.613 237.104V242H203.373V233.136H205.613V234.24C205.911 233.856 206.29 233.557 206.749 233.344C207.218 233.12 207.73 233.008 208.285 233.008Z" fill="#001A41"/>
<path opacity="0.4" d="M137.313 296H118.689C111.933 296 108 299.56 108 305.66V326.32C108 332.52 111.933 336 118.689 336H137.313C144.178 336 148 332.52 148 326.32V305.66C148 299.56 144.178 296 137.313 296Z" fill="#6C5CE7"/>
<path d="M129.445 320.832L124.76 318.277C124.311 318.723 123.739 319.026 123.117 319.148C122.496 319.27 121.852 319.205 121.267 318.962C120.682 318.718 120.182 318.307 119.831 317.78C119.479 317.253 119.292 316.633 119.292 316C119.292 315.366 119.479 314.747 119.831 314.22C120.182 313.693 120.682 313.282 121.267 313.038C121.852 312.795 122.496 312.73 123.117 312.851C123.739 312.973 124.311 313.277 124.76 313.723L129.445 311.168C129.284 310.414 129.4 309.628 129.771 308.953C130.143 308.278 130.745 307.759 131.468 307.491C132.19 307.223 132.985 307.224 133.707 307.495C134.429 307.765 135.029 308.286 135.399 308.962C135.768 309.639 135.881 310.425 135.718 311.179C135.555 311.932 135.126 312.601 134.51 313.064C133.894 313.527 133.132 313.753 132.363 313.7C131.594 313.647 130.87 313.32 130.323 312.777L125.639 315.332C125.732 315.772 125.732 316.228 125.639 316.668L130.323 319.223C130.87 318.68 131.594 318.352 132.363 318.3C133.132 318.247 133.894 318.473 134.51 318.936C135.126 319.399 135.555 320.068 135.718 320.821C135.881 321.574 135.768 322.361 135.399 323.038C135.029 323.714 134.429 324.235 133.707 324.505C132.985 324.775 132.19 324.777 131.468 324.509C130.745 324.241 130.143 323.722 129.771 323.047C129.4 322.372 129.284 321.585 129.445 320.832Z" fill="#6C5CE7"/>
<path d="M162.96 322.112C162.181 322.112 161.477 321.979 160.848 321.712C160.229 321.445 159.739 321.061 159.376 320.56C159.013 320.059 158.827 319.467 158.816 318.784H161.216C161.248 319.243 161.408 319.605 161.696 319.872C161.995 320.139 162.4 320.272 162.912 320.272C163.435 320.272 163.845 320.149 164.144 319.904C164.443 319.648 164.592 319.317 164.592 318.912C164.592 318.581 164.491 318.309 164.288 318.096C164.085 317.883 163.829 317.717 163.52 317.6C163.221 317.472 162.805 317.333 162.272 317.184C161.547 316.971 160.955 316.763 160.496 316.56C160.048 316.347 159.659 316.032 159.328 315.616C159.008 315.189 158.848 314.624 158.848 313.92C158.848 313.259 159.013 312.683 159.344 312.192C159.675 311.701 160.139 311.328 160.736 311.072C161.333 310.805 162.016 310.672 162.784 310.672C163.936 310.672 164.869 310.955 165.584 311.52C166.309 312.075 166.709 312.853 166.784 313.856H164.32C164.299 313.472 164.133 313.157 163.824 312.912C163.525 312.656 163.125 312.528 162.624 312.528C162.187 312.528 161.835 312.64 161.568 312.864C161.312 313.088 161.184 313.413 161.184 313.84C161.184 314.139 161.28 314.389 161.472 314.592C161.675 314.784 161.92 314.944 162.208 315.072C162.507 315.189 162.923 315.328 163.456 315.488C164.181 315.701 164.773 315.915 165.232 316.128C165.691 316.341 166.085 316.661 166.416 317.088C166.747 317.515 166.912 318.075 166.912 318.768C166.912 319.365 166.757 319.92 166.448 320.432C166.139 320.944 165.685 321.355 165.088 321.664C164.491 321.963 163.781 322.112 162.96 322.112ZM172.95 322.144C172.097 322.144 171.329 321.957 170.646 321.584C169.963 321.2 169.425 320.661 169.03 319.968C168.646 319.275 168.454 318.475 168.454 317.568C168.454 316.661 168.651 315.861 169.046 315.168C169.451 314.475 170.001 313.941 170.694 313.568C171.387 313.184 172.161 312.992 173.014 312.992C173.867 312.992 174.641 313.184 175.334 313.568C176.027 313.941 176.571 314.475 176.966 315.168C177.371 315.861 177.574 316.661 177.574 317.568C177.574 318.475 177.366 319.275 176.95 319.968C176.545 320.661 175.99 321.2 175.286 321.584C174.593 321.957 173.814 322.144 172.95 322.144ZM172.95 320.192C173.355 320.192 173.734 320.096 174.086 319.904C174.449 319.701 174.737 319.403 174.95 319.008C175.163 318.613 175.27 318.133 175.27 317.568C175.27 316.725 175.046 316.08 174.598 315.632C174.161 315.173 173.622 314.944 172.982 314.944C172.342 314.944 171.803 315.173 171.366 315.632C170.939 316.08 170.726 316.725 170.726 317.568C170.726 318.411 170.934 319.061 171.35 319.52C171.777 319.968 172.31 320.192 172.95 320.192ZM178.801 317.568C178.801 316.651 178.988 315.851 179.361 315.168C179.734 314.475 180.252 313.941 180.913 313.568C181.574 313.184 182.332 312.992 183.185 312.992C184.284 312.992 185.19 313.269 185.905 313.824C186.63 314.368 187.116 315.136 187.361 316.128H184.945C184.817 315.744 184.598 315.445 184.289 315.232C183.99 315.008 183.617 314.896 183.169 314.896C182.529 314.896 182.022 315.131 181.649 315.6C181.276 316.059 181.089 316.715 181.089 317.568C181.089 318.411 181.276 319.067 181.649 319.536C182.022 319.995 182.529 320.224 183.169 320.224C184.076 320.224 184.668 319.819 184.945 319.008H187.361C187.116 319.968 186.63 320.731 185.905 321.296C185.18 321.861 184.273 322.144 183.185 322.144C182.332 322.144 181.574 321.957 180.913 321.584C180.252 321.2 179.734 320.667 179.361 319.984C178.988 319.291 178.801 318.485 178.801 317.568ZM190.298 312.08C189.903 312.08 189.573 311.957 189.306 311.712C189.05 311.456 188.922 311.141 188.922 310.768C188.922 310.395 189.05 310.085 189.306 309.84C189.573 309.584 189.903 309.456 190.298 309.456C190.693 309.456 191.018 309.584 191.274 309.84C191.541 310.085 191.674 310.395 191.674 310.768C191.674 311.141 191.541 311.456 191.274 311.712C191.018 311.957 190.693 312.08 190.298 312.08ZM191.402 313.136V322H189.162V313.136H191.402ZM193.199 317.536C193.199 316.64 193.375 315.845 193.727 315.152C194.09 314.459 194.575 313.925 195.183 313.552C195.802 313.179 196.49 312.992 197.247 312.992C197.909 312.992 198.485 313.125 198.975 313.392C199.477 313.659 199.877 313.995 200.175 314.4V313.136H202.431V322H200.175V320.704C199.887 321.12 199.487 321.467 198.975 321.744C198.474 322.011 197.893 322.144 197.231 322.144C196.485 322.144 195.802 321.952 195.183 321.568C194.575 321.184 194.09 320.645 193.727 319.952C193.375 319.248 193.199 318.443 193.199 317.536ZM200.175 317.568C200.175 317.024 200.069 316.56 199.855 316.176C199.642 315.781 199.354 315.483 198.991 315.28C198.629 315.067 198.239 314.96 197.823 314.96C197.407 314.96 197.023 315.061 196.671 315.264C196.319 315.467 196.031 315.765 195.807 316.16C195.594 316.544 195.487 317.003 195.487 317.536C195.487 318.069 195.594 318.539 195.807 318.944C196.031 319.339 196.319 319.643 196.671 319.856C197.034 320.069 197.418 320.176 197.823 320.176C198.239 320.176 198.629 320.075 198.991 319.872C199.354 319.659 199.642 319.36 199.855 318.976C200.069 318.581 200.175 318.112 200.175 317.568ZM207.019 310.16V322H204.779V310.16H207.019ZM212.784 322.144C212.059 322.144 211.408 322.016 210.832 321.76C210.256 321.493 209.797 321.136 209.456 320.688C209.125 320.24 208.944 319.744 208.912 319.2H211.168C211.211 319.541 211.376 319.824 211.664 320.048C211.963 320.272 212.331 320.384 212.768 320.384C213.195 320.384 213.525 320.299 213.76 320.128C214.005 319.957 214.128 319.739 214.128 319.472C214.128 319.184 213.979 318.971 213.68 318.832C213.392 318.683 212.928 318.523 212.288 318.352C211.627 318.192 211.083 318.027 210.656 317.856C210.24 317.685 209.877 317.424 209.568 317.072C209.269 316.72 209.12 316.245 209.12 315.648C209.12 315.157 209.259 314.709 209.536 314.304C209.824 313.899 210.229 313.579 210.752 313.344C211.285 313.109 211.909 312.992 212.624 312.992C213.68 312.992 214.523 313.259 215.152 313.792C215.781 314.315 216.128 315.024 216.192 315.92H214.048C214.016 315.568 213.867 315.291 213.6 315.088C213.344 314.875 212.997 314.768 212.56 314.768C212.155 314.768 211.84 314.843 211.616 314.992C211.403 315.141 211.296 315.349 211.296 315.616C211.296 315.915 211.445 316.144 211.744 316.304C212.043 316.453 212.507 316.608 213.136 316.768C213.776 316.928 214.304 317.093 214.72 317.264C215.136 317.435 215.493 317.701 215.792 318.064C216.101 318.416 216.261 318.885 216.272 319.472C216.272 319.984 216.128 320.443 215.84 320.848C215.563 321.253 215.157 321.573 214.624 321.808C214.101 322.032 213.488 322.144 212.784 322.144Z" fill="#001A41"/>
<path d="M376.344 150.832V162H374.104V150.832H376.344ZM389.725 153.008C390.813 153.008 391.688 153.344 392.349 154.016C393.021 154.677 393.357 155.605 393.357 156.8V162H391.117V157.104C391.117 156.411 390.941 155.883 390.589 155.52C390.237 155.147 389.757 154.96 389.149 154.96C388.541 154.96 388.056 155.147 387.693 155.52C387.341 155.883 387.165 156.411 387.165 157.104V162H384.925V157.104C384.925 156.411 384.749 155.883 384.397 155.52C384.045 155.147 383.565 154.96 382.957 154.96C382.338 154.96 381.848 155.147 381.485 155.52C381.133 155.883 380.957 156.411 380.957 157.104V162H378.717V153.136H380.957V154.208C381.245 153.835 381.613 153.541 382.061 153.328C382.52 153.115 383.021 153.008 383.565 153.008C384.258 153.008 384.877 153.157 385.421 153.456C385.965 153.744 386.386 154.16 386.685 154.704C386.973 154.192 387.389 153.781 387.933 153.472C388.488 153.163 389.085 153.008 389.725 153.008ZM395.067 157.536C395.067 156.64 395.243 155.845 395.595 155.152C395.957 154.459 396.443 153.925 397.051 153.552C397.669 153.179 398.357 152.992 399.115 152.992C399.776 152.992 400.352 153.125 400.843 153.392C401.344 153.659 401.744 153.995 402.043 154.4V153.136H404.299V162H402.043V160.704C401.755 161.12 401.355 161.467 400.843 161.744C400.341 162.011 399.76 162.144 399.099 162.144C398.352 162.144 397.669 161.952 397.051 161.568C396.443 161.184 395.957 160.645 395.595 159.952C395.243 159.248 395.067 158.443 395.067 157.536ZM402.043 157.568C402.043 157.024 401.936 156.56 401.723 156.176C401.509 155.781 401.221 155.483 400.859 155.28C400.496 155.067 400.107 154.96 399.691 154.96C399.275 154.96 398.891 155.061 398.539 155.264C398.187 155.467 397.899 155.765 397.675 156.16C397.461 156.544 397.355 157.003 397.355 157.536C397.355 158.069 397.461 158.539 397.675 158.944C397.899 159.339 398.187 159.643 398.539 159.856C398.901 160.069 399.285 160.176 399.691 160.176C400.107 160.176 400.496 160.075 400.859 159.872C401.221 159.659 401.509 159.36 401.723 158.976C401.936 158.581 402.043 158.112 402.043 157.568ZM410.118 152.992C410.78 152.992 411.361 153.125 411.862 153.392C412.364 153.648 412.758 153.984 413.046 154.4V153.136H415.302V162.064C415.302 162.885 415.137 163.616 414.807 164.256C414.476 164.907 413.98 165.419 413.319 165.792C412.657 166.176 411.857 166.368 410.918 166.368C409.66 166.368 408.625 166.075 407.814 165.488C407.014 164.901 406.561 164.101 406.454 163.088H408.678C408.796 163.493 409.046 163.813 409.43 164.048C409.825 164.293 410.3 164.416 410.854 164.416C411.505 164.416 412.033 164.219 412.438 163.824C412.844 163.44 413.046 162.853 413.046 162.064V160.688C412.758 161.104 412.359 161.451 411.846 161.728C411.345 162.005 410.769 162.144 410.118 162.144C409.372 162.144 408.689 161.952 408.07 161.568C407.452 161.184 406.961 160.645 406.598 159.952C406.246 159.248 406.07 158.443 406.07 157.536C406.07 156.64 406.246 155.845 406.598 155.152C406.961 154.459 407.446 153.925 408.054 153.552C408.673 153.179 409.361 152.992 410.118 152.992ZM413.046 157.568C413.046 157.024 412.94 156.56 412.727 156.176C412.513 155.781 412.225 155.483 411.862 155.28C411.5 155.067 411.111 154.96 410.694 154.96C410.278 154.96 409.894 155.061 409.542 155.264C409.19 155.467 408.902 155.765 408.678 156.16C408.465 156.544 408.358 157.003 408.358 157.536C408.358 158.069 408.465 158.539 408.678 158.944C408.902 159.339 409.19 159.643 409.542 159.856C409.905 160.069 410.289 160.176 410.694 160.176C411.111 160.176 411.5 160.075 411.862 159.872C412.225 159.659 412.513 159.36 412.727 158.976C412.94 158.581 413.046 158.112 413.046 157.568ZM425.89 157.376C425.89 157.696 425.869 157.984 425.826 158.24H419.346C419.4 158.88 419.624 159.381 420.018 159.744C420.413 160.107 420.898 160.288 421.474 160.288C422.306 160.288 422.898 159.931 423.25 159.216H425.666C425.41 160.069 424.92 160.773 424.194 161.328C423.469 161.872 422.578 162.144 421.522 162.144C420.669 162.144 419.901 161.957 419.218 161.584C418.546 161.2 418.018 160.661 417.634 159.968C417.261 159.275 417.074 158.475 417.074 157.568C417.074 156.651 417.261 155.845 417.634 155.152C418.008 154.459 418.53 153.925 419.202 153.552C419.874 153.179 420.648 152.992 421.522 152.992C422.365 152.992 423.117 153.173 423.778 153.536C424.45 153.899 424.968 154.416 425.33 155.088C425.704 155.749 425.89 156.512 425.89 157.376ZM423.57 156.736C423.56 156.16 423.352 155.701 422.946 155.36C422.541 155.008 422.045 154.832 421.458 154.832C420.904 154.832 420.434 155.003 420.05 155.344C419.677 155.675 419.448 156.139 419.362 156.736H423.57Z" fill="#001A41"/>
<path opacity="0.4" d="M352.313 136H333.689C326.933 136 323 139.56 323 145.66V166.32C323 172.52 326.933 176 333.689 176H352.313C359.178 176 363 172.52 363 166.32V145.66C363 139.56 359.178 136 352.313 136Z" fill="#32BA85"/>
<path d="M346.333 163.5L342.365 156.225L345.5 151L352.167 163.5H346.333ZM339.667 154.333L344.667 163.5H334.667L339.667 154.333ZM337.583 152.667C337.031 152.667 336.501 152.447 336.11 152.056C335.719 151.666 335.5 151.136 335.5 150.583C335.5 150.031 335.719 149.501 336.11 149.11C336.501 148.719 337.031 148.5 337.583 148.5C338.136 148.5 338.666 148.719 339.056 149.11C339.447 149.501 339.667 150.031 339.667 150.583C339.667 151.136 339.447 151.666 339.056 152.056C338.666 152.447 338.136 152.667 337.583 152.667Z" fill="#32BA85"/>
<path d="M377.96 242.112C377.181 242.112 376.477 241.979 375.848 241.712C375.229 241.445 374.739 241.061 374.376 240.56C374.013 240.059 373.827 239.467 373.816 238.784H376.216C376.248 239.243 376.408 239.605 376.696 239.872C376.995 240.139 377.4 240.272 377.912 240.272C378.435 240.272 378.845 240.149 379.144 239.904C379.443 239.648 379.592 239.317 379.592 238.912C379.592 238.581 379.491 238.309 379.288 238.096C379.085 237.883 378.829 237.717 378.52 237.6C378.221 237.472 377.805 237.333 377.272 237.184C376.547 236.971 375.955 236.763 375.496 236.56C375.048 236.347 374.659 236.032 374.328 235.616C374.008 235.189 373.848 234.624 373.848 233.92C373.848 233.259 374.013 232.683 374.344 232.192C374.675 231.701 375.139 231.328 375.736 231.072C376.333 230.805 377.016 230.672 377.784 230.672C378.936 230.672 379.869 230.955 380.584 231.52C381.309 232.075 381.709 232.853 381.784 233.856H379.32C379.299 233.472 379.133 233.157 378.824 232.912C378.525 232.656 378.125 232.528 377.624 232.528C377.187 232.528 376.835 232.64 376.568 232.864C376.312 233.088 376.184 233.413 376.184 233.84C376.184 234.139 376.28 234.389 376.472 234.592C376.675 234.784 376.92 234.944 377.208 235.072C377.507 235.189 377.923 235.328 378.456 235.488C379.181 235.701 379.773 235.915 380.232 236.128C380.691 236.341 381.085 236.661 381.416 237.088C381.747 237.515 381.912 238.075 381.912 238.768C381.912 239.365 381.757 239.92 381.448 240.432C381.139 240.944 380.685 241.355 380.088 241.664C379.491 241.963 378.781 242.112 377.96 242.112ZM386.254 234.416C386.542 234.011 386.937 233.675 387.438 233.408C387.95 233.131 388.531 232.992 389.182 232.992C389.939 232.992 390.622 233.179 391.23 233.552C391.849 233.925 392.334 234.459 392.686 235.152C393.049 235.835 393.23 236.629 393.23 237.536C393.23 238.443 393.049 239.248 392.686 239.952C392.334 240.645 391.849 241.184 391.23 241.568C390.622 241.952 389.939 242.144 389.182 242.144C388.531 242.144 387.955 242.011 387.454 241.744C386.963 241.477 386.563 241.141 386.254 240.736V246.224H384.014V233.136H386.254V234.416ZM390.942 237.536C390.942 237.003 390.83 236.544 390.606 236.16C390.393 235.765 390.105 235.467 389.742 235.264C389.39 235.061 389.006 234.96 388.59 234.96C388.185 234.96 387.801 235.067 387.438 235.28C387.086 235.483 386.798 235.781 386.574 236.176C386.361 236.571 386.254 237.035 386.254 237.568C386.254 238.101 386.361 238.565 386.574 238.96C386.798 239.355 387.086 239.659 387.438 239.872C387.801 240.075 388.185 240.176 388.59 240.176C389.006 240.176 389.39 240.069 389.742 239.856C390.105 239.643 390.393 239.339 390.606 238.944C390.83 238.549 390.942 238.08 390.942 237.536ZM394.442 237.536C394.442 236.64 394.618 235.845 394.97 235.152C395.332 234.459 395.818 233.925 396.426 233.552C397.044 233.179 397.732 232.992 398.49 232.992C399.151 232.992 399.727 233.125 400.218 233.392C400.719 233.659 401.119 233.995 401.418 234.4V233.136H403.674V242H401.418V240.704C401.13 241.12 400.73 241.467 400.218 241.744C399.716 242.011 399.135 242.144 398.474 242.144C397.727 242.144 397.044 241.952 396.426 241.568C395.818 241.184 395.332 240.645 394.97 239.952C394.618 239.248 394.442 238.443 394.442 237.536ZM401.418 237.568C401.418 237.024 401.311 236.56 401.098 236.176C400.884 235.781 400.596 235.483 400.234 235.28C399.871 235.067 399.482 234.96 399.066 234.96C398.65 234.96 398.266 235.061 397.914 235.264C397.562 235.467 397.274 235.765 397.05 236.16C396.836 236.544 396.73 237.003 396.73 237.536C396.73 238.069 396.836 238.539 397.05 238.944C397.274 239.339 397.562 239.643 397.914 239.856C398.276 240.069 398.66 240.176 399.066 240.176C399.482 240.176 399.871 240.075 400.234 239.872C400.596 239.659 400.884 239.36 401.098 238.976C401.311 238.581 401.418 238.112 401.418 237.568ZM405.445 237.568C405.445 236.651 405.632 235.851 406.005 235.168C406.379 234.475 406.896 233.941 407.557 233.568C408.219 233.184 408.976 232.992 409.829 232.992C410.928 232.992 411.835 233.269 412.549 233.824C413.275 234.368 413.76 235.136 414.005 236.128H411.589C411.462 235.744 411.243 235.445 410.933 235.232C410.635 235.008 410.261 234.896 409.813 234.896C409.173 234.896 408.667 235.131 408.293 235.6C407.92 236.059 407.733 236.715 407.733 237.568C407.733 238.411 407.92 239.067 408.293 239.536C408.667 239.995 409.173 240.224 409.813 240.224C410.72 240.224 411.312 239.819 411.589 239.008H414.005C413.76 239.968 413.275 240.731 412.549 241.296C411.824 241.861 410.917 242.144 409.829 242.144C408.976 242.144 408.219 241.957 407.557 241.584C406.896 241.2 406.379 240.667 406.005 239.984C405.632 239.291 405.445 238.485 405.445 237.568ZM424.047 237.376C424.047 237.696 424.025 237.984 423.983 238.24H417.502C417.556 238.88 417.78 239.381 418.174 239.744C418.569 240.107 419.054 240.288 419.63 240.288C420.462 240.288 421.054 239.931 421.406 239.216H423.823C423.566 240.069 423.076 240.773 422.35 241.328C421.625 241.872 420.734 242.144 419.678 242.144C418.825 242.144 418.057 241.957 417.374 241.584C416.702 241.2 416.174 240.661 415.79 239.968C415.417 239.275 415.23 238.475 415.23 237.568C415.23 236.651 415.417 235.845 415.79 235.152C416.164 234.459 416.686 233.925 417.358 233.552C418.03 233.179 418.804 232.992 419.678 232.992C420.521 232.992 421.273 233.173 421.934 233.536C422.606 233.899 423.124 234.416 423.486 235.088C423.86 235.749 424.047 236.512 424.047 237.376ZM421.726 236.736C421.716 236.16 421.508 235.701 421.102 235.36C420.697 235.008 420.201 234.832 419.614 234.832C419.06 234.832 418.59 235.003 418.206 235.344C417.833 235.675 417.604 236.139 417.518 236.736H421.726ZM428.081 234.512C428.369 234.043 428.743 233.675 429.201 233.408C429.671 233.141 430.204 233.008 430.801 233.008V235.36H430.209C429.505 235.36 428.972 235.525 428.609 235.856C428.257 236.187 428.081 236.763 428.081 237.584V242H425.841V233.136H428.081V234.512Z" fill="#001A41"/>
<path opacity="0.4" d="M352.313 216H333.689C326.933 216 323 219.56 323 225.66V246.32C323 252.52 326.933 256 333.689 256H352.313C359.178 256 363 252.52 363 246.32V225.66C363 219.56 359.178 216 352.313 216Z" fill="#F2994A"/>
<rect x="334" y="235.809" width="17.1649" height="1.22607" rx="0.613034" fill="#F2994A"/>
<path opacity="0.4" d="M342.402 231.45C342.086 231.45 341.83 231.71 341.83 232.031L341.672 233.612C341.672 234.021 341.999 234.353 342.402 234.353C342.805 234.353 343.132 234.021 343.132 233.612L342.975 232.031C342.975 231.71 342.718 231.45 342.402 231.45Z" fill="#F2994A"/>
<path d="M343.183 226.413C343.183 226.413 343.019 226.244 342.917 226.17C342.77 226.057 342.587 226 342.406 226C342.202 226 342.013 226.064 341.858 226.185C341.83 226.213 341.711 226.32 341.613 226.42C340.996 227.003 339.987 228.526 339.678 229.323C339.629 229.444 339.524 229.75 339.517 229.914C339.517 230.069 339.552 230.219 339.622 230.361C339.72 230.539 339.875 230.682 340.057 230.76C340.183 230.81 340.561 230.888 340.568 230.888C340.982 230.967 341.655 231.009 342.399 231.009C343.107 231.009 343.752 230.967 344.172 230.902C344.179 230.895 344.649 230.817 344.81 230.731C345.104 230.575 345.287 230.269 345.287 229.942V229.914C345.28 229.7 345.097 229.252 345.09 229.252C344.782 228.497 343.821 227.011 343.183 226.413Z" fill="#F2994A"/>
<path opacity="0.4" d="M342.403 240.55C342.719 240.55 342.975 240.29 342.975 239.969L343.132 238.388C343.132 237.979 342.806 237.647 342.403 237.647C341.999 237.647 341.672 237.979 341.672 238.388L341.83 239.969C341.83 240.29 342.086 240.55 342.403 240.55Z" fill="#F2994A"/>
<path d="M345.182 241.638C345.084 241.46 344.93 241.318 344.748 241.24C344.621 241.19 344.242 241.112 344.236 241.112C343.822 241.033 343.149 240.991 342.406 240.991C341.698 240.991 341.053 241.033 340.632 241.097C340.625 241.104 340.156 241.183 339.994 241.268C339.7 241.425 339.517 241.731 339.517 242.058V242.087C339.525 242.3 339.707 242.748 339.714 242.748C340.022 243.502 340.982 244.99 341.621 245.587C341.621 245.587 341.785 245.756 341.887 245.828C342.034 245.943 342.216 246 342.399 246C342.602 246 342.791 245.936 342.946 245.815C342.974 245.786 343.093 245.679 343.191 245.58C343.808 244.996 344.818 243.474 345.126 242.677C345.175 242.556 345.281 242.25 345.287 242.087C345.287 241.93 345.253 241.78 345.182 241.638Z" fill="#F2994A"/>
<defs>
<filter id="filter0_d" x="0" y="0" width="574" height="452" filterUnits="userSpaceOnUse" color-interpolation-filters="sRGB">
<feFlood flood-opacity="0" result="BackgroundImageFix"/>
<feColorMatrix in="SourceAlpha" type="matrix" values="0 0 0 0 0 0 0 0 0 0 0 0 0 0 0 0 0 0 127 0"/>
<feMorphology radius="25" operator="erode" in="SourceAlpha" result="effect1_dropShadow"/>
<feOffset dy="10"/>
<feGaussianBlur stdDeviation="40"/>
<feColorMatrix type="matrix" values="0 0 0 0 0.166667 0 0 0 0 0.166667 0 0 0 0 0.166667 0 0 0 0.2 0"/>
<feBlend mode="normal" in2="BackgroundImageFix" result="effect1_dropShadow"/>
<feBlend mode="normal" in="SourceGraphic" in2="effect1_dropShadow" result="shape"/>
</filter>
</defs>
</svg>
