<svg width="26" height="22" viewBox="0 0 26 22" fill="none" xmlns="http://www.w3.org/2000/svg">
<path d="M25.7025 3.06991C24.7482 3.49203 23.7362 3.76925 22.7 3.89241C23.7922 3.2392 24.6096 2.21118 25 0.999908C23.975 1.60991 22.8513 2.03741 21.68 2.26866C20.8933 1.42688 19.8505 0.868612 18.7137 0.680639C17.5769 0.492666 16.4099 0.685522 15.3941 1.22922C14.3782 1.77293 13.5705 2.63701 13.0964 3.68715C12.6223 4.73729 12.5084 5.91463 12.7725 7.03616C10.6939 6.93198 8.66042 6.39181 6.80411 5.45074C4.94781 4.50966 3.31016 3.18872 1.9975 1.57366C1.53287 2.37172 1.2887 3.27894 1.29 4.20241C1.29 6.01491 2.2125 7.61616 3.61501 8.55366C2.78502 8.52753 1.9733 8.30339 1.2475 7.89991V7.96491C1.24776 9.17203 1.66547 10.3419 2.42981 11.2762C3.19416 12.2105 4.25811 12.8518 5.44125 13.0912C4.67077 13.3 3.86289 13.3307 3.07876 13.1812C3.41234 14.2202 4.06251 15.1289 4.93824 15.78C5.81398 16.4312 6.87142 16.7922 7.9625 16.8124C6.87811 17.6641 5.63648 18.2936 4.30861 18.6651C2.98073 19.0366 1.59266 19.1427 0.223755 18.9774C2.61338 20.5142 5.39513 21.3301 8.23625 21.3274C17.8525 21.3274 23.1113 13.3612 23.1113 6.45241C23.1113 6.22741 23.105 5.99991 23.095 5.77741C24.1186 5.03762 25.002 4.12118 25.7038 3.07116L25.7025 3.06991Z" fill="#74859C"/>
</svg>
