<svg width="111" height="111" viewBox="0 0 111 111" fill="none" xmlns="http://www.w3.org/2000/svg">
<path fill-rule="evenodd" clip-rule="evenodd" d="M13.9669 104.017C13.9669 100.16 10.8403 97.0331 6.98344 97.0331C3.12659 97.0331 -4.73845e-07 100.16 -3.05256e-07 104.017C-1.36668e-07 107.873 3.12659 111 6.98344 111C10.8403 111 13.9669 107.873 13.9669 104.017ZM46.3113 104.017C46.3113 100.16 43.1847 97.0331 39.3278 97.0331C35.471 97.0331 32.3444 100.16 32.3444 104.017C32.3444 107.873 35.471 111 39.3278 111C43.1847 111 46.3113 107.873 46.3113 104.017ZM71.6722 97.0331C75.529 97.0331 78.6556 100.16 78.6556 104.017C78.6556 107.873 75.529 111 71.6722 111C67.8153 111 64.6887 107.873 64.6887 104.017C64.6887 100.16 67.8153 97.0331 71.6722 97.0331ZM111 104.017C111 100.16 107.873 97.0331 104.017 97.0331C100.16 97.0331 97.0331 100.16 97.0331 104.017C97.0331 107.873 100.16 111 104.017 111C107.873 111 111 107.873 111 104.017ZM39.3278 64.6887C43.1847 64.6887 46.3113 67.8153 46.3113 71.6722C46.3113 75.529 43.1847 78.6556 39.3278 78.6556C35.471 78.6556 32.3444 75.529 32.3444 71.6722C32.3444 67.8153 35.471 64.6887 39.3278 64.6887ZM78.6556 71.6722C78.6556 67.8153 75.529 64.6887 71.6722 64.6887C67.8153 64.6887 64.6887 67.8153 64.6887 71.6722C64.6887 75.529 67.8153 78.6556 71.6722 78.6556C75.529 78.6556 78.6556 75.529 78.6556 71.6722ZM104.017 64.6887C107.873 64.6887 111 67.8153 111 71.6722C111 75.529 107.873 78.6556 104.017 78.6556C100.16 78.6556 97.0331 75.529 97.0331 71.6722C97.0331 67.8153 100.16 64.6887 104.017 64.6887ZM78.6556 39.3278C78.6556 35.471 75.529 32.3444 71.6722 32.3444C67.8153 32.3444 64.6887 35.471 64.6887 39.3278C64.6887 43.1847 67.8153 46.3112 71.6722 46.3112C75.529 46.3112 78.6556 43.1847 78.6556 39.3278ZM104.017 32.3444C107.873 32.3444 111 35.471 111 39.3278C111 43.1847 107.873 46.3113 104.017 46.3113C100.16 46.3113 97.0331 43.1847 97.0331 39.3278C97.0331 35.471 100.16 32.3444 104.017 32.3444ZM111 6.98343C111 3.12658 107.873 -1.23447e-05 104.017 -1.21761e-05C100.16 -1.20075e-05 97.0331 3.12658 97.0331 6.98343C97.0331 10.8403 100.16 13.9669 104.017 13.9669C107.873 13.9669 111 10.8403 111 6.98343Z" fill="url(#paint0_linear)"/>
<defs>
<linearGradient id="paint0_linear" x1="17.6424" y1="33.8146" x2="306.536" y2="327.854" gradientUnits="userSpaceOnUse">
<stop stop-color="white" stop-opacity="0"/>
<stop offset="1" stop-color="#32BA85"/>
<stop offset="1" stop-color="white"/>
</linearGradient>
</defs>
</svg>
