<svg width="151" height="151" viewBox="0 0 151 151" fill="none" xmlns="http://www.w3.org/2000/svg">
<path fill-rule="evenodd" clip-rule="evenodd" d="M9.5 19C14.7467 19 19 14.7467 19 9.5C19 4.25329 14.7467 0 9.5 0C4.25329 0 0 4.25329 0 9.5C0 14.7467 4.25329 19 9.5 19ZM9.5 63C14.7467 63 19 58.7467 19 53.5C19 48.2533 14.7467 44 9.5 44C4.25329 44 0 48.2533 0 53.5C0 58.7467 4.25329 63 9.5 63ZM19 97.5C19 102.747 14.7467 107 9.5 107C4.25329 107 0 102.747 0 97.5C0 92.2533 4.25329 88 9.5 88C14.7467 88 19 92.2533 19 97.5ZM9.5 151C14.7467 151 19 146.747 19 141.5C19 136.253 14.7467 132 9.5 132C4.25329 132 0 136.253 0 141.5C0 146.747 4.25329 151 9.5 151ZM63 53.5C63 58.7467 58.7467 63 53.5 63C48.2533 63 44 58.7467 44 53.5C44 48.2533 48.2533 44 53.5 44C58.7467 44 63 48.2533 63 53.5ZM53.5 107C58.7467 107 63 102.747 63 97.5C63 92.2533 58.7467 88 53.5 88C48.2533 88 44 92.2533 44 97.5C44 102.747 48.2533 107 53.5 107ZM63 141.5C63 146.747 58.7467 151 53.5 151C48.2533 151 44 146.747 44 141.5C44 136.253 48.2533 132 53.5 132C58.7467 132 63 136.253 63 141.5ZM97.5 107C102.747 107 107 102.747 107 97.5C107 92.2533 102.747 88 97.5 88C92.2533 88 88 92.2533 88 97.5C88 102.747 92.2533 107 97.5 107ZM107 141.5C107 146.747 102.747 151 97.5 151C92.2533 151 88 146.747 88 141.5C88 136.253 92.2533 132 97.5 132C102.747 132 107 136.253 107 141.5ZM141.5 151C146.747 151 151 146.747 151 141.5C151 136.253 146.747 132 141.5 132C136.253 132 132 136.253 132 141.5C132 146.747 136.253 151 141.5 151Z" fill="url(#paint0_linear)"/>
<defs>
<linearGradient id="paint0_linear" x1="105" y1="24" x2="-329" y2="438" gradientUnits="userSpaceOnUse">
<stop stop-color="#32BA85" stop-opacity="0"/>
<stop offset="1" stop-color="#32BA85"/>
</linearGradient>
</defs>
</svg>
