<svg width="18" height="19" viewBox="0 0 18 19" fill="none" xmlns="http://www.w3.org/2000/svg">
<path d="M8.96178 10.9326C6.37429 10.9326 4.19107 11.3554 4.19107 12.9872C4.19107 14.6197 6.38839 15.0277 8.96178 15.0277C11.5493 15.0277 13.7325 14.6049 13.7325 12.9731C13.7325 11.3406 11.5352 10.9326 8.96178 10.9326Z" fill="white"/>
<path opacity="0.4" d="M8.96178 9.3781C10.7139 9.3781 12.1187 7.96513 12.1187 6.20297C12.1187 4.44013 10.7139 3.02783 8.96178 3.02783C7.2097 3.02783 5.80481 4.44013 5.80481 6.20297C5.80481 7.96513 7.2097 9.3781 8.96178 9.3781Z" fill="white"/>
<path opacity="0.4" d="M15.816 6.94213C16.2693 5.15903 14.9403 3.55762 13.2479 3.55762C13.0639 3.55762 12.888 3.57788 12.7161 3.61233C12.6932 3.61773 12.6677 3.62921 12.6543 3.64947C12.6388 3.67514 12.6503 3.70959 12.6671 3.73187C13.1754 4.44917 13.4675 5.32248 13.4675 6.25996C13.4675 7.15826 13.1996 7.99578 12.7295 8.69079C12.6812 8.76238 12.7241 8.85896 12.8094 8.87382C12.9276 8.89476 13.0485 8.90557 13.1721 8.90895C14.4044 8.94137 15.5104 8.1437 15.816 6.94213Z" fill="white"/>
<path d="M17.107 11.1407C16.8813 10.6571 16.3367 10.3254 15.5087 10.1627C15.1178 10.0668 14.0601 9.93168 13.0763 9.94991C13.0615 9.95194 13.0535 9.96207 13.0521 9.96882C13.0501 9.97828 13.0541 9.99449 13.0736 10.0046C13.5283 10.2309 15.2857 11.215 15.0648 13.2905C15.0554 13.3804 15.1272 13.458 15.2165 13.4445C15.649 13.3824 16.7618 13.1419 17.107 12.3929C17.2977 11.9971 17.2977 11.5371 17.107 11.1407Z" fill="white"/>
<path opacity="0.4" d="M5.28362 3.61281C5.11238 3.57769 4.93576 3.55811 4.75175 3.55811C3.05944 3.55811 1.73044 5.15952 2.18441 6.94262C2.4893 8.14419 3.59534 8.94185 4.82764 8.90943C4.95121 8.90606 5.07276 8.89457 5.19028 8.87431C5.27557 8.85945 5.31854 8.76287 5.27019 8.69127C4.80011 7.99559 4.53216 7.15875 4.53216 6.26045C4.53216 5.32229 4.82495 4.44898 5.33332 3.73236C5.34944 3.71007 5.36152 3.67563 5.34541 3.64996C5.33198 3.62902 5.30713 3.61822 5.28362 3.61281Z" fill="white"/>
<path d="M2.49117 10.1626C1.66314 10.3254 1.11919 10.657 0.893544 11.1406C0.702152 11.5371 0.702152 11.997 0.893544 12.3935C1.23872 13.1419 2.35148 13.383 2.78396 13.4444C2.87328 13.458 2.94446 13.381 2.93506 13.2905C2.71412 11.2156 4.47157 10.2315 4.92689 10.0052C4.94569 9.99442 4.94972 9.97889 4.9477 9.96876C4.94636 9.962 4.93897 9.95187 4.9242 9.95052C3.9397 9.93161 2.88268 10.0667 2.49117 10.1626Z" fill="white"/>
</svg>
