<svg width="14" height="14" viewBox="0 0 14 14" fill="none" xmlns="http://www.w3.org/2000/svg">
<path d="M7.00001 0.333252C10.68 0.333252 13.6667 3.31992 13.6667 6.99992C13.6667 10.6799 10.68 13.6666 7.00001 13.6666C3.32001 13.6666 0.333344 10.6799 0.333344 6.99992C0.333344 3.31992 3.32001 0.333252 7.00001 0.333252ZM7.00001 1.66659C4.05334 1.66659 1.66668 4.05325 1.66668 6.99992C1.66668 9.94659 4.05334 12.3333 7.00001 12.3333C9.94668 12.3333 12.3333 9.94659 12.3333 6.99992C12.3333 4.05325 9.94668 1.66659 7.00001 1.66659ZM7.00001 3.66659C8.21334 3.66659 9.27534 4.31525 9.85868 5.28525L8.71601 5.97125C8.53619 5.67141 8.2809 5.42395 7.97561 5.25355C7.67032 5.08314 7.32569 4.99575 6.97609 5.00007C6.62649 5.0044 6.28413 5.10029 5.98314 5.2782C5.68216 5.45611 5.43308 5.70981 5.26073 6.014C5.08837 6.3182 4.99877 6.66226 5.00087 7.01188C5.00296 7.3615 5.09666 7.70447 5.27264 8.00658C5.44862 8.30869 5.70072 8.55939 6.00381 8.73369C6.3069 8.90798 6.65038 8.99978 7.00001 8.99992C7.34543 9.00014 7.68502 8.91084 7.98564 8.74073C8.28627 8.57061 8.53768 8.32548 8.71534 8.02925L9.85868 8.71459C9.48402 9.34033 8.91444 9.8259 8.23729 10.0968C7.56015 10.3677 6.81282 10.409 6.10994 10.2144C5.40706 10.0198 4.78744 9.59993 4.3461 9.01928C3.90477 8.43864 3.66609 7.72925 3.66668 6.99992C3.66668 5.15992 5.16001 3.66659 7.00001 3.66659Z" fill="#74859C"/>
</svg>
