<svg width="34" height="32" viewBox="0 0 34 32" fill="none" xmlns="http://www.w3.org/2000/svg">
<path opacity="0.4" d="M28.0788 1.18059C28.4229 0.366114 29.5771 0.366113 29.9212 1.18059L30.6239 2.84407C30.7252 3.08391 30.9161 3.27478 31.1559 3.3761L32.8194 4.07882C33.6339 4.42289 33.6339 5.57711 32.8194 5.92118L31.1559 6.6239C30.9161 6.72522 30.7252 6.91609 30.6239 7.15593L29.9212 8.81941C29.5771 9.63389 28.4229 9.63389 28.0788 8.81941L27.3761 7.15593C27.2748 6.91609 27.0839 6.72522 26.8441 6.6239L25.1806 5.92118C24.3661 5.57711 24.3661 4.42289 25.1806 4.07882L26.8441 3.3761C27.0839 3.27478 27.2748 3.08391 27.3761 2.84407L28.0788 1.18059Z" fill="#0C56C2"/>
<path opacity="0.4" d="M3.27148 22.0566C3.27148 22.0566 3.43715 24.0843 3.47565 24.7236C3.52698 25.5811 3.85832 26.539 4.41132 27.204C5.19182 28.1466 6.11115 28.4791 7.33848 28.4815C8.78165 28.4838 19.2758 28.4838 20.719 28.4815C21.9463 28.4791 22.8657 28.1466 23.6462 27.204C24.1992 26.539 24.5305 25.5811 24.583 24.7236C24.6203 24.0843 24.786 22.0566 24.786 22.0566" stroke="#32BA85" stroke-width="1.5" stroke-linecap="round" stroke-linejoin="round"/>
<path d="M9.91211 10.2178V9.78498C9.91211 8.36165 11.0648 7.20898 12.4881 7.20898H15.5004C16.9226 7.20898 18.0764 8.36165 18.0764 9.78498L18.0776 10.2178" stroke="#32BA85" stroke-width="1.5" stroke-linecap="round" stroke-linejoin="round"/>
<path d="M13.9935 23.4579V21.9482" stroke="#32BA85" stroke-width="1.5" stroke-linecap="round" stroke-linejoin="round"/>
<path fill-rule="evenodd" clip-rule="evenodd" d="M3.20801 13.7874V17.8322C5.44567 19.3081 8.12667 20.3417 11.069 20.7512C11.4213 19.4667 12.5798 18.5252 13.988 18.5252C15.374 18.5252 16.5558 19.4667 16.8848 20.7629C19.8388 20.3534 22.5303 19.3197 24.7797 17.8322V13.7874C24.7797 11.8111 23.1895 10.2197 21.2132 10.2197H6.78617C4.80984 10.2197 3.20801 11.8111 3.20801 13.7874Z" stroke="#32BA85" stroke-width="1.5" stroke-linecap="round" stroke-linejoin="round"/>
</svg>
